%TF.GenerationSoftware,KiCad,Pcbnew,(5.1.6-0-10_14)*%
%TF.CreationDate,2020-08-12T22:04:00+09:00*%
%TF.ProjectId,cool836,636f6f6c-3833-4362-9e6b-696361645f70,rev?*%
%TF.SameCoordinates,Original*%
%TF.FileFunction,Soldermask,Bot*%
%TF.FilePolarity,Negative*%
%FSLAX46Y46*%
G04 Gerber Fmt 4.6, Leading zero omitted, Abs format (unit mm)*
G04 Created by KiCad (PCBNEW (5.1.6-0-10_14)) date 2020-08-12 22:04:00*
%MOMM*%
%LPD*%
G01*
G04 APERTURE LIST*
%ADD10C,3.100000*%
%ADD11C,1.800000*%
%ADD12C,4.100000*%
%ADD13C,2.300000*%
%ADD14C,1.497000*%
%ADD15R,1.497000X1.497000*%
%ADD16R,1.050000X1.400000*%
%ADD17C,0.100000*%
%ADD18R,1.400000X1.050000*%
%ADD19C,2.100000*%
G04 APERTURE END LIST*
D10*
%TO.C,REF\u002A\u002A*%
X179400000Y35250000D03*
%TD*%
%TO.C,REF\u002A\u002A*%
X51000000Y45000000D03*
%TD*%
%TO.C,REF\u002A\u002A*%
X51000000Y100000000D03*
%TD*%
%TO.C,REF\u002A\u002A*%
X159000000Y100000000D03*
%TD*%
%TO.C,REF\u002A\u002A*%
X198725000Y100000000D03*
%TD*%
%TO.C,REF\u002A\u002A*%
X310000000Y45000000D03*
%TD*%
%TO.C,REF\u002A\u002A*%
X310000000Y100000000D03*
%TD*%
D11*
%TO.C,SW1*%
X65480000Y90700000D03*
X55320000Y90700000D03*
D12*
X60400000Y90700000D03*
D13*
X56590000Y93240000D03*
X62940000Y95780000D03*
%TD*%
%TO.C,SW7*%
X63340000Y76680000D03*
X56990000Y74140000D03*
D12*
X60800000Y71600000D03*
D11*
X55720000Y71600000D03*
X65880000Y71600000D03*
%TD*%
D14*
%TO.C,D1*%
X69200000Y95635000D03*
D15*
X69200000Y88015000D03*
D16*
X69200000Y90050000D03*
X69200000Y93600000D03*
%TD*%
D14*
%TO.C,D2*%
X89275000Y95785000D03*
D15*
X89275000Y88165000D03*
D16*
X89275000Y90200000D03*
X89275000Y93750000D03*
%TD*%
D14*
%TO.C,D3*%
X112507063Y94620502D03*
D17*
G36*
X112523353Y86218610D02*
G01*
X111032049Y86349082D01*
X111162521Y87840386D01*
X112653825Y87709914D01*
X112523353Y86218610D01*
G37*
G36*
X112482292Y88313661D02*
G01*
X111436288Y88405174D01*
X111558306Y89799847D01*
X112604310Y89708334D01*
X112482292Y88313661D01*
G37*
G36*
X112791694Y91850153D02*
G01*
X111745690Y91941666D01*
X111867708Y93336339D01*
X112913712Y93244826D01*
X112791694Y91850153D01*
G37*
%TD*%
D14*
%TO.C,D4*%
X131332063Y92995502D03*
D17*
G36*
X131348353Y84593610D02*
G01*
X129857049Y84724082D01*
X129987521Y86215386D01*
X131478825Y86084914D01*
X131348353Y84593610D01*
G37*
G36*
X131307292Y86688661D02*
G01*
X130261288Y86780174D01*
X130383306Y88174847D01*
X131429310Y88083334D01*
X131307292Y86688661D01*
G37*
G36*
X131616694Y90225153D02*
G01*
X130570690Y90316666D01*
X130692708Y91711339D01*
X131738712Y91619826D01*
X131616694Y90225153D01*
G37*
%TD*%
D14*
%TO.C,D5*%
X150182063Y91345502D03*
D17*
G36*
X150198353Y82943610D02*
G01*
X148707049Y83074082D01*
X148837521Y84565386D01*
X150328825Y84434914D01*
X150198353Y82943610D01*
G37*
G36*
X150157292Y85038661D02*
G01*
X149111288Y85130174D01*
X149233306Y86524847D01*
X150279310Y86433334D01*
X150157292Y85038661D01*
G37*
G36*
X150466694Y88575153D02*
G01*
X149420690Y88666666D01*
X149542708Y90061339D01*
X150588712Y89969826D01*
X150466694Y88575153D01*
G37*
%TD*%
D14*
%TO.C,D6*%
X157154498Y77482063D03*
D17*
G36*
X165556390Y77498353D02*
G01*
X165425918Y76007049D01*
X163934614Y76137521D01*
X164065086Y77628825D01*
X165556390Y77498353D01*
G37*
G36*
X163461339Y77457292D02*
G01*
X163369826Y76411288D01*
X161975153Y76533306D01*
X162066666Y77579310D01*
X163461339Y77457292D01*
G37*
G36*
X159924847Y77766694D02*
G01*
X159833334Y76720690D01*
X158438661Y76842708D01*
X158530174Y77888712D01*
X159924847Y77766694D01*
G37*
%TD*%
D18*
%TO.C,D7*%
X66325000Y63200000D03*
X69875000Y63200000D03*
D15*
X71910000Y63200000D03*
D14*
X64290000Y63200000D03*
%TD*%
D18*
%TO.C,D8*%
X92600000Y63025000D03*
X96150000Y63025000D03*
D15*
X98185000Y63025000D03*
D14*
X90565000Y63025000D03*
%TD*%
D17*
%TO.C,D9*%
G36*
X109249847Y62666694D02*
G01*
X109158334Y61620690D01*
X107763661Y61742708D01*
X107855174Y62788712D01*
X109249847Y62666694D01*
G37*
G36*
X112786339Y62357292D02*
G01*
X112694826Y61311288D01*
X111300153Y61433306D01*
X111391666Y62479310D01*
X112786339Y62357292D01*
G37*
G36*
X114881390Y62398353D02*
G01*
X114750918Y60907049D01*
X113259614Y61037521D01*
X113390086Y62528825D01*
X114881390Y62398353D01*
G37*
D14*
X106479498Y62382063D03*
%TD*%
D17*
%TO.C,D10*%
G36*
X132549847Y60866694D02*
G01*
X132458334Y59820690D01*
X131063661Y59942708D01*
X131155174Y60988712D01*
X132549847Y60866694D01*
G37*
G36*
X136086339Y60557292D02*
G01*
X135994826Y59511288D01*
X134600153Y59633306D01*
X134691666Y60679310D01*
X136086339Y60557292D01*
G37*
G36*
X138181390Y60598353D02*
G01*
X138050918Y59107049D01*
X136559614Y59237521D01*
X136690086Y60728825D01*
X138181390Y60598353D01*
G37*
D14*
X129779498Y60582063D03*
%TD*%
D17*
%TO.C,D11*%
G36*
X150899847Y59191694D02*
G01*
X150808334Y58145690D01*
X149413661Y58267708D01*
X149505174Y59313712D01*
X150899847Y59191694D01*
G37*
G36*
X154436339Y58882292D02*
G01*
X154344826Y57836288D01*
X152950153Y57958306D01*
X153041666Y59004310D01*
X154436339Y58882292D01*
G37*
G36*
X156531390Y58923353D02*
G01*
X156400918Y57432049D01*
X154909614Y57562521D01*
X155040086Y59053825D01*
X156531390Y58923353D01*
G37*
D14*
X148129498Y58907063D03*
%TD*%
%TO.C,D12*%
X170204498Y57207063D03*
D17*
G36*
X178606390Y57223353D02*
G01*
X178475918Y55732049D01*
X176984614Y55862521D01*
X177115086Y57353825D01*
X178606390Y57223353D01*
G37*
G36*
X176511339Y57182292D02*
G01*
X176419826Y56136288D01*
X175025153Y56258306D01*
X175116666Y57304310D01*
X176511339Y57182292D01*
G37*
G36*
X172974847Y57491694D02*
G01*
X172883334Y56445690D01*
X171488661Y56567708D01*
X171580174Y57613712D01*
X172974847Y57491694D01*
G37*
%TD*%
D14*
%TO.C,D13*%
X72325000Y51440000D03*
D15*
X72325000Y59060000D03*
D16*
X72325000Y57025000D03*
X72325000Y53475000D03*
%TD*%
D14*
%TO.C,D14*%
X98575000Y51140000D03*
D15*
X98575000Y58760000D03*
D16*
X98575000Y56725000D03*
X98575000Y53175000D03*
%TD*%
D14*
%TO.C,D15*%
X119617937Y49604498D03*
D17*
G36*
X119601647Y58006390D02*
G01*
X121092951Y57875918D01*
X120962479Y56384614D01*
X119471175Y56515086D01*
X119601647Y58006390D01*
G37*
G36*
X119642708Y55911339D02*
G01*
X120688712Y55819826D01*
X120566694Y54425153D01*
X119520690Y54516666D01*
X119642708Y55911339D01*
G37*
G36*
X119333306Y52374847D02*
G01*
X120379310Y52283334D01*
X120257292Y50888661D01*
X119211288Y50980174D01*
X119333306Y52374847D01*
G37*
%TD*%
D14*
%TO.C,D16*%
X138667937Y47929498D03*
D17*
G36*
X138651647Y56331390D02*
G01*
X140142951Y56200918D01*
X140012479Y54709614D01*
X138521175Y54840086D01*
X138651647Y56331390D01*
G37*
G36*
X138692708Y54236339D02*
G01*
X139738712Y54144826D01*
X139616694Y52750153D01*
X138570690Y52841666D01*
X138692708Y54236339D01*
G37*
G36*
X138383306Y50699847D02*
G01*
X139429310Y50608334D01*
X139307292Y49213661D01*
X138261288Y49305174D01*
X138383306Y50699847D01*
G37*
%TD*%
D14*
%TO.C,D17*%
X157742937Y46879498D03*
D17*
G36*
X157726647Y55281390D02*
G01*
X159217951Y55150918D01*
X159087479Y53659614D01*
X157596175Y53790086D01*
X157726647Y55281390D01*
G37*
G36*
X157767708Y53186339D02*
G01*
X158813712Y53094826D01*
X158691694Y51700153D01*
X157645690Y51791666D01*
X157767708Y53186339D01*
G37*
G36*
X157458306Y49649847D02*
G01*
X158504310Y49558334D01*
X158382292Y48163661D01*
X157336288Y48255174D01*
X157458306Y49649847D01*
G37*
%TD*%
%TO.C,D18*%
G36*
X176433306Y47349847D02*
G01*
X177479310Y47258334D01*
X177357292Y45863661D01*
X176311288Y45955174D01*
X176433306Y47349847D01*
G37*
G36*
X176742708Y50886339D02*
G01*
X177788712Y50794826D01*
X177666694Y49400153D01*
X176620690Y49491666D01*
X176742708Y50886339D01*
G37*
G36*
X176701647Y52981390D02*
G01*
X178192951Y52850918D01*
X178062479Y51359614D01*
X176571175Y51490086D01*
X176701647Y52981390D01*
G37*
D14*
X176717937Y44579498D03*
%TD*%
D17*
%TO.C,D19*%
G36*
X196784912Y75900391D02*
G01*
X196693399Y76946395D01*
X198088072Y77068413D01*
X198179585Y76022409D01*
X196784912Y75900391D01*
G37*
G36*
X193248420Y75590989D02*
G01*
X193156907Y76636993D01*
X194551580Y76759011D01*
X194643093Y75713007D01*
X193248420Y75590989D01*
G37*
G36*
X191192328Y75186750D02*
G01*
X191061856Y76678054D01*
X192553160Y76808526D01*
X192683632Y75317222D01*
X191192328Y75186750D01*
G37*
D14*
X199463748Y76661764D03*
%TD*%
D17*
%TO.C,D20*%
G36*
X215766666Y77520690D02*
G01*
X215675153Y78566694D01*
X217069826Y78688712D01*
X217161339Y77642708D01*
X215766666Y77520690D01*
G37*
G36*
X212230174Y77211288D02*
G01*
X212138661Y78257292D01*
X213533334Y78379310D01*
X213624847Y77333306D01*
X212230174Y77211288D01*
G37*
G36*
X210174082Y76807049D02*
G01*
X210043610Y78298353D01*
X211534914Y78428825D01*
X211665386Y76937521D01*
X210174082Y76807049D01*
G37*
D14*
X218445502Y78282063D03*
%TD*%
D17*
%TO.C,D21*%
G36*
X234916666Y79045690D02*
G01*
X234825153Y80091694D01*
X236219826Y80213712D01*
X236311339Y79167708D01*
X234916666Y79045690D01*
G37*
G36*
X231380174Y78736288D02*
G01*
X231288661Y79782292D01*
X232683334Y79904310D01*
X232774847Y78858306D01*
X231380174Y78736288D01*
G37*
G36*
X229324082Y78332049D02*
G01*
X229193610Y79823353D01*
X230684914Y79953825D01*
X230815386Y78462521D01*
X229324082Y78332049D01*
G37*
D14*
X237595502Y79807063D03*
%TD*%
D17*
%TO.C,D22*%
G36*
X254341666Y80945690D02*
G01*
X254250153Y81991694D01*
X255644826Y82113712D01*
X255736339Y81067708D01*
X254341666Y80945690D01*
G37*
G36*
X250805174Y80636288D02*
G01*
X250713661Y81682292D01*
X252108334Y81804310D01*
X252199847Y80758306D01*
X250805174Y80636288D01*
G37*
G36*
X248749082Y80232049D02*
G01*
X248618610Y81723353D01*
X250109914Y81853825D01*
X250240386Y80362521D01*
X248749082Y80232049D01*
G37*
D14*
X257020502Y81707063D03*
%TD*%
D18*
%TO.C,D23*%
X275075000Y82550000D03*
X271525000Y82550000D03*
D15*
X269490000Y82550000D03*
D14*
X277110000Y82550000D03*
%TD*%
%TO.C,D24*%
X298260000Y82550000D03*
D15*
X290640000Y82550000D03*
D18*
X292675000Y82550000D03*
X296225000Y82550000D03*
%TD*%
D14*
%TO.C,D25*%
X205720502Y57807063D03*
D17*
G36*
X197449082Y56332049D02*
G01*
X197318610Y57823353D01*
X198809914Y57953825D01*
X198940386Y56462521D01*
X197449082Y56332049D01*
G37*
G36*
X199505174Y56736288D02*
G01*
X199413661Y57782292D01*
X200808334Y57904310D01*
X200899847Y56858306D01*
X199505174Y56736288D01*
G37*
G36*
X203041666Y57045690D02*
G01*
X202950153Y58091694D01*
X204344826Y58213712D01*
X204436339Y57167708D01*
X203041666Y57045690D01*
G37*
%TD*%
D14*
%TO.C,D26*%
X224538748Y59786764D03*
D17*
G36*
X216267328Y58311750D02*
G01*
X216136856Y59803054D01*
X217628160Y59933526D01*
X217758632Y58442222D01*
X216267328Y58311750D01*
G37*
G36*
X218323420Y58715989D02*
G01*
X218231907Y59761993D01*
X219626580Y59884011D01*
X219718093Y58838007D01*
X218323420Y58715989D01*
G37*
G36*
X221859912Y59025391D02*
G01*
X221768399Y60071395D01*
X223163072Y60193413D01*
X223254585Y59147409D01*
X221859912Y59025391D01*
G37*
%TD*%
D14*
%TO.C,D27*%
X243488748Y61411764D03*
D17*
G36*
X235217328Y59936750D02*
G01*
X235086856Y61428054D01*
X236578160Y61558526D01*
X236708632Y60067222D01*
X235217328Y59936750D01*
G37*
G36*
X237273420Y60340989D02*
G01*
X237181907Y61386993D01*
X238576580Y61509011D01*
X238668093Y60463007D01*
X237273420Y60340989D01*
G37*
G36*
X240809912Y60650391D02*
G01*
X240718399Y61696395D01*
X242113072Y61818413D01*
X242204585Y60772409D01*
X240809912Y60650391D01*
G37*
%TD*%
D14*
%TO.C,D28*%
X262695502Y62807063D03*
D17*
G36*
X254424082Y61332049D02*
G01*
X254293610Y62823353D01*
X255784914Y62953825D01*
X255915386Y61462521D01*
X254424082Y61332049D01*
G37*
G36*
X256480174Y61736288D02*
G01*
X256388661Y62782292D01*
X257783334Y62904310D01*
X257874847Y61858306D01*
X256480174Y61736288D01*
G37*
G36*
X260016666Y62045690D02*
G01*
X259925153Y63091694D01*
X261319826Y63213712D01*
X261411339Y62167708D01*
X260016666Y62045690D01*
G37*
%TD*%
D14*
%TO.C,D29*%
X282660000Y63475000D03*
D15*
X275040000Y63475000D03*
D18*
X277075000Y63475000D03*
X280625000Y63475000D03*
%TD*%
%TO.C,D30*%
X301800000Y63250000D03*
X298250000Y63250000D03*
D15*
X296215000Y63250000D03*
D14*
X303835000Y63250000D03*
%TD*%
D17*
%TO.C,D31*%
G36*
X198420690Y48133334D02*
G01*
X199466694Y48224847D01*
X199588712Y46830174D01*
X198542708Y46738661D01*
X198420690Y48133334D01*
G37*
G36*
X198111288Y51669826D02*
G01*
X199157292Y51761339D01*
X199279310Y50366666D01*
X198233306Y50275153D01*
X198111288Y51669826D01*
G37*
G36*
X197707049Y53725918D02*
G01*
X199198353Y53856390D01*
X199328825Y52365086D01*
X197837521Y52234614D01*
X197707049Y53725918D01*
G37*
D14*
X199182063Y45454498D03*
%TD*%
D17*
%TO.C,D32*%
G36*
X217575391Y49715088D02*
G01*
X218621395Y49806601D01*
X218743413Y48411928D01*
X217697409Y48320415D01*
X217575391Y49715088D01*
G37*
G36*
X217265989Y53251580D02*
G01*
X218311993Y53343093D01*
X218434011Y51948420D01*
X217388007Y51856907D01*
X217265989Y53251580D01*
G37*
G36*
X216861750Y55307672D02*
G01*
X218353054Y55438144D01*
X218483526Y53946840D01*
X216992222Y53816368D01*
X216861750Y55307672D01*
G37*
D14*
X218336764Y47036252D03*
%TD*%
D17*
%TO.C,D33*%
G36*
X236420690Y51333334D02*
G01*
X237466694Y51424847D01*
X237588712Y50030174D01*
X236542708Y49938661D01*
X236420690Y51333334D01*
G37*
G36*
X236111288Y54869826D02*
G01*
X237157292Y54961339D01*
X237279310Y53566666D01*
X236233306Y53475153D01*
X236111288Y54869826D01*
G37*
G36*
X235707049Y56925918D02*
G01*
X237198353Y57056390D01*
X237328825Y55565086D01*
X235837521Y55434614D01*
X235707049Y56925918D01*
G37*
D14*
X237182063Y48654498D03*
%TD*%
D17*
%TO.C,D34*%
G36*
X255520690Y52308334D02*
G01*
X256566694Y52399847D01*
X256688712Y51005174D01*
X255642708Y50913661D01*
X255520690Y52308334D01*
G37*
G36*
X255211288Y55844826D02*
G01*
X256257292Y55936339D01*
X256379310Y54541666D01*
X255333306Y54450153D01*
X255211288Y55844826D01*
G37*
G36*
X254807049Y57900918D02*
G01*
X256298353Y58031390D01*
X256428825Y56540086D01*
X254937521Y56409614D01*
X254807049Y57900918D01*
G37*
D14*
X256282063Y49629498D03*
%TD*%
D16*
%TO.C,D35*%
X279450000Y52225000D03*
X279450000Y55775000D03*
D15*
X279450000Y57810000D03*
D14*
X279450000Y50190000D03*
%TD*%
D16*
%TO.C,D36*%
X305575000Y52225000D03*
X305575000Y55775000D03*
D15*
X305575000Y57810000D03*
D14*
X305575000Y50190000D03*
%TD*%
D11*
%TO.C,SW2*%
X85480000Y90700000D03*
X75320000Y90700000D03*
D12*
X80400000Y90700000D03*
D13*
X76590000Y93240000D03*
X82940000Y95780000D03*
%TD*%
D11*
%TO.C,SW3*%
X108260669Y90057249D03*
X98139331Y90942751D03*
D12*
X103200000Y90500000D03*
D13*
X99625874Y93362398D03*
X106173086Y95339293D03*
%TD*%
D11*
%TO.C,SW4*%
X127260669Y88257249D03*
X117139331Y89142751D03*
D12*
X122200000Y88700000D03*
D13*
X118625874Y91562398D03*
X125173086Y93539293D03*
%TD*%
D11*
%TO.C,SW5*%
X146160669Y86657249D03*
X136039331Y87542751D03*
D12*
X141100000Y87100000D03*
D13*
X137525874Y89962398D03*
X144073086Y91939293D03*
%TD*%
D11*
%TO.C,SW6*%
X165160669Y85157249D03*
X155039331Y86042751D03*
D12*
X160100000Y85600000D03*
D13*
X156525874Y88462398D03*
X163073086Y90439293D03*
%TD*%
%TO.C,SW8*%
X87640000Y76680000D03*
X81290000Y74140000D03*
D12*
X85100000Y71600000D03*
D11*
X80020000Y71600000D03*
X90180000Y71600000D03*
%TD*%
D13*
%TO.C,SW9*%
X109173086Y75939293D03*
X102625874Y73962398D03*
D12*
X106200000Y71100000D03*
D11*
X101139331Y71542751D03*
X111260669Y70657249D03*
%TD*%
D13*
%TO.C,SW10*%
X128173086Y74239293D03*
X121625874Y72262398D03*
D12*
X125200000Y69400000D03*
D11*
X120139331Y69842751D03*
X130260669Y68957249D03*
%TD*%
D13*
%TO.C,SW11*%
X147173086Y72639293D03*
X140625874Y70662398D03*
D12*
X144200000Y67800000D03*
D11*
X139139331Y68242751D03*
X149260669Y67357249D03*
%TD*%
D13*
%TO.C,SW12*%
X166073086Y71039293D03*
X159525874Y69062398D03*
D12*
X163100000Y66200000D03*
D11*
X158039331Y66642751D03*
X168160669Y65757249D03*
%TD*%
%TO.C,SW13*%
X68780000Y52600000D03*
X58620000Y52600000D03*
D12*
X63700000Y52600000D03*
D13*
X59890000Y55140000D03*
X66240000Y57680000D03*
%TD*%
D11*
%TO.C,SW14*%
X94980000Y52600000D03*
X84820000Y52600000D03*
D12*
X89900000Y52600000D03*
D13*
X86090000Y55140000D03*
X92440000Y57680000D03*
%TD*%
D11*
%TO.C,SW15*%
X116260669Y51157249D03*
X106139331Y52042751D03*
D12*
X111200000Y51600000D03*
D13*
X107625874Y54462398D03*
X114173086Y56439293D03*
%TD*%
D11*
%TO.C,SW16*%
X135260669Y49457249D03*
X125139331Y50342751D03*
D12*
X130200000Y49900000D03*
D13*
X126625874Y52762398D03*
X133173086Y54739293D03*
%TD*%
D11*
%TO.C,SW17*%
X154260669Y47857249D03*
X144139331Y48742751D03*
D12*
X149200000Y48300000D03*
D13*
X145625874Y51162398D03*
X152173086Y53139293D03*
%TD*%
D11*
%TO.C,SW18*%
X173260669Y46157249D03*
X163139331Y47042751D03*
D12*
X168200000Y46600000D03*
D13*
X164625874Y49462398D03*
X171173086Y51439293D03*
%TD*%
%TO.C,SW19*%
X199087583Y89882045D03*
X192983123Y86798271D03*
D12*
X197000000Y84600000D03*
D11*
X191939331Y84157249D03*
X202060669Y85042751D03*
%TD*%
D13*
%TO.C,SW20*%
X218087583Y91482045D03*
X211983123Y88398271D03*
D12*
X216000000Y86200000D03*
D11*
X210939331Y85757249D03*
X221060669Y86642751D03*
%TD*%
D13*
%TO.C,SW21*%
X237087583Y93282045D03*
X230983123Y90198271D03*
D12*
X235000000Y88000000D03*
D11*
X229939331Y87557249D03*
X240060669Y88442751D03*
%TD*%
D13*
%TO.C,SW22*%
X256087583Y94882045D03*
X249983123Y91798271D03*
D12*
X254000000Y89600000D03*
D11*
X248939331Y89157249D03*
X259060669Y90042751D03*
%TD*%
D13*
%TO.C,SW23*%
X278140000Y95780000D03*
X271790000Y93240000D03*
D12*
X275600000Y90700000D03*
D11*
X270520000Y90700000D03*
X280680000Y90700000D03*
%TD*%
D13*
%TO.C,SW24*%
X299640000Y95680000D03*
X293290000Y93140000D03*
D12*
X297100000Y90600000D03*
D11*
X292020000Y90600000D03*
X302180000Y90600000D03*
%TD*%
%TO.C,SW25*%
X208460669Y66542751D03*
X198339331Y65657249D03*
D12*
X203400000Y66100000D03*
D13*
X199383123Y68298271D03*
X205487583Y71382045D03*
%TD*%
D11*
%TO.C,SW26*%
X227460669Y68142751D03*
X217339331Y67257249D03*
D12*
X222400000Y67700000D03*
D13*
X218383123Y69898271D03*
X224487583Y72982045D03*
%TD*%
D11*
%TO.C,SW27*%
X246460669Y69842751D03*
X236339331Y68957249D03*
D12*
X241400000Y69400000D03*
D13*
X237383123Y71598271D03*
X243487583Y74682045D03*
%TD*%
D11*
%TO.C,SW28*%
X265460669Y71542751D03*
X255339331Y70657249D03*
D12*
X260400000Y71100000D03*
D13*
X256383123Y73298271D03*
X262487583Y76382045D03*
%TD*%
D11*
%TO.C,SW29*%
X286480000Y71700000D03*
X276320000Y71700000D03*
D12*
X281400000Y71700000D03*
D13*
X277590000Y74240000D03*
X283940000Y76780000D03*
%TD*%
D11*
%TO.C,SW30*%
X307880000Y71700000D03*
X297720000Y71700000D03*
D12*
X302800000Y71700000D03*
D13*
X298990000Y74240000D03*
X305340000Y76780000D03*
%TD*%
%TO.C,SW31*%
X192887583Y51182045D03*
X186783123Y48098271D03*
D12*
X190800000Y45900000D03*
D11*
X185739331Y45457249D03*
X195860669Y46342751D03*
%TD*%
D13*
%TO.C,SW32*%
X211987583Y52782045D03*
X205883123Y49698271D03*
D12*
X209900000Y47500000D03*
D11*
X204839331Y47057249D03*
X214960669Y47942751D03*
%TD*%
D13*
%TO.C,SW33*%
X230887583Y54482045D03*
X224783123Y51398271D03*
D12*
X228800000Y49200000D03*
D11*
X223739331Y48757249D03*
X233860669Y49642751D03*
%TD*%
D13*
%TO.C,SW34*%
X249887583Y56182045D03*
X243783123Y53098271D03*
D12*
X247800000Y50900000D03*
D11*
X242739331Y50457249D03*
X252860669Y51342751D03*
%TD*%
D13*
%TO.C,SW35*%
X273440000Y56780000D03*
X267090000Y54240000D03*
D12*
X270900000Y51700000D03*
D11*
X265820000Y51700000D03*
X275980000Y51700000D03*
%TD*%
D13*
%TO.C,SW36*%
X299640000Y56680000D03*
X293290000Y54140000D03*
D12*
X297100000Y51600000D03*
D11*
X292020000Y51600000D03*
X302180000Y51600000D03*
%TD*%
D19*
%TO.C,SW37*%
X191825000Y96275000D03*
X191825000Y102775000D03*
%TD*%
M02*
