%TF.GenerationSoftware,KiCad,Pcbnew,(5.1.6-0-10_14)*%
%TF.CreationDate,2020-08-12T22:04:00+09:00*%
%TF.ProjectId,cool836,636f6f6c-3833-4362-9e6b-696361645f70,rev?*%
%TF.SameCoordinates,Original*%
%TF.FileFunction,Legend,Top*%
%TF.FilePolarity,Positive*%
%FSLAX46Y46*%
G04 Gerber Fmt 4.6, Leading zero omitted, Abs format (unit mm)*
G04 Created by KiCad (PCBNEW (5.1.6-0-10_14)) date 2020-08-12 22:04:00*
%MOMM*%
%LPD*%
G01*
G04 APERTURE LIST*
%ADD10C,0.300000*%
%ADD11C,0.150000*%
%ADD12C,0.120000*%
G04 APERTURE END LIST*
D10*
X175421428Y65867857D02*
X175278571Y65796428D01*
X174992857Y65796428D01*
X174850000Y65867857D01*
X174778571Y65939285D01*
X174707142Y66082142D01*
X174707142Y66510714D01*
X174778571Y66653571D01*
X174850000Y66725000D01*
X174992857Y66796428D01*
X175278571Y66796428D01*
X175421428Y66725000D01*
X176278571Y65796428D02*
X176135714Y65867857D01*
X176064285Y65939285D01*
X175992857Y66082142D01*
X175992857Y66510714D01*
X176064285Y66653571D01*
X176135714Y66725000D01*
X176278571Y66796428D01*
X176492857Y66796428D01*
X176635714Y66725000D01*
X176707142Y66653571D01*
X176778571Y66510714D01*
X176778571Y66082142D01*
X176707142Y65939285D01*
X176635714Y65867857D01*
X176492857Y65796428D01*
X176278571Y65796428D01*
X177635714Y65796428D02*
X177492857Y65867857D01*
X177421428Y65939285D01*
X177350000Y66082142D01*
X177350000Y66510714D01*
X177421428Y66653571D01*
X177492857Y66725000D01*
X177635714Y66796428D01*
X177850000Y66796428D01*
X177992857Y66725000D01*
X178064285Y66653571D01*
X178135714Y66510714D01*
X178135714Y66082142D01*
X178064285Y65939285D01*
X177992857Y65867857D01*
X177850000Y65796428D01*
X177635714Y65796428D01*
X178992857Y65796428D02*
X178850000Y65867857D01*
X178778571Y66010714D01*
X178778571Y67296428D01*
X179778571Y66653571D02*
X179635714Y66725000D01*
X179564285Y66796428D01*
X179492857Y66939285D01*
X179492857Y67010714D01*
X179564285Y67153571D01*
X179635714Y67225000D01*
X179778571Y67296428D01*
X180064285Y67296428D01*
X180207142Y67225000D01*
X180278571Y67153571D01*
X180350000Y67010714D01*
X180350000Y66939285D01*
X180278571Y66796428D01*
X180207142Y66725000D01*
X180064285Y66653571D01*
X179778571Y66653571D01*
X179635714Y66582142D01*
X179564285Y66510714D01*
X179492857Y66367857D01*
X179492857Y66082142D01*
X179564285Y65939285D01*
X179635714Y65867857D01*
X179778571Y65796428D01*
X180064285Y65796428D01*
X180207142Y65867857D01*
X180278571Y65939285D01*
X180350000Y66082142D01*
X180350000Y66367857D01*
X180278571Y66510714D01*
X180207142Y66582142D01*
X180064285Y66653571D01*
X180850000Y67296428D02*
X181778571Y67296428D01*
X181278571Y66725000D01*
X181492857Y66725000D01*
X181635714Y66653571D01*
X181707142Y66582142D01*
X181778571Y66439285D01*
X181778571Y66082142D01*
X181707142Y65939285D01*
X181635714Y65867857D01*
X181492857Y65796428D01*
X181064285Y65796428D01*
X180921428Y65867857D01*
X180850000Y65939285D01*
X183064285Y67296428D02*
X182778571Y67296428D01*
X182635714Y67225000D01*
X182564285Y67153571D01*
X182421428Y66939285D01*
X182350000Y66653571D01*
X182350000Y66082142D01*
X182421428Y65939285D01*
X182492857Y65867857D01*
X182635714Y65796428D01*
X182921428Y65796428D01*
X183064285Y65867857D01*
X183135714Y65939285D01*
X183207142Y66082142D01*
X183207142Y66439285D01*
X183135714Y66582142D01*
X183064285Y66653571D01*
X182921428Y66725000D01*
X182635714Y66725000D01*
X182492857Y66653571D01*
X182421428Y66582142D01*
X182350000Y66439285D01*
X183778571Y66225000D02*
X184492857Y66225000D01*
X183635714Y65796428D02*
X184135714Y67296428D01*
X184635714Y65796428D01*
X170921428Y63246428D02*
X170921428Y64746428D01*
X170921428Y63317857D02*
X170778571Y63246428D01*
X170492857Y63246428D01*
X170350000Y63317857D01*
X170278571Y63389285D01*
X170207142Y63532142D01*
X170207142Y63960714D01*
X170278571Y64103571D01*
X170350000Y64175000D01*
X170492857Y64246428D01*
X170778571Y64246428D01*
X170921428Y64175000D01*
X172207142Y63317857D02*
X172064285Y63246428D01*
X171778571Y63246428D01*
X171635714Y63317857D01*
X171564285Y63460714D01*
X171564285Y64032142D01*
X171635714Y64175000D01*
X171778571Y64246428D01*
X172064285Y64246428D01*
X172207142Y64175000D01*
X172278571Y64032142D01*
X172278571Y63889285D01*
X171564285Y63746428D01*
X172850000Y63317857D02*
X172992857Y63246428D01*
X173278571Y63246428D01*
X173421428Y63317857D01*
X173492857Y63460714D01*
X173492857Y63532142D01*
X173421428Y63675000D01*
X173278571Y63746428D01*
X173064285Y63746428D01*
X172921428Y63817857D01*
X172850000Y63960714D01*
X172850000Y64032142D01*
X172921428Y64175000D01*
X173064285Y64246428D01*
X173278571Y64246428D01*
X173421428Y64175000D01*
X174135714Y63246428D02*
X174135714Y64246428D01*
X174135714Y64746428D02*
X174064285Y64675000D01*
X174135714Y64603571D01*
X174207142Y64675000D01*
X174135714Y64746428D01*
X174135714Y64603571D01*
X175492857Y64246428D02*
X175492857Y63032142D01*
X175421428Y62889285D01*
X175350000Y62817857D01*
X175207142Y62746428D01*
X174992857Y62746428D01*
X174850000Y62817857D01*
X175492857Y63317857D02*
X175350000Y63246428D01*
X175064285Y63246428D01*
X174921428Y63317857D01*
X174850000Y63389285D01*
X174778571Y63532142D01*
X174778571Y63960714D01*
X174850000Y64103571D01*
X174921428Y64175000D01*
X175064285Y64246428D01*
X175350000Y64246428D01*
X175492857Y64175000D01*
X176207142Y64246428D02*
X176207142Y63246428D01*
X176207142Y64103571D02*
X176278571Y64175000D01*
X176421428Y64246428D01*
X176635714Y64246428D01*
X176778571Y64175000D01*
X176850000Y64032142D01*
X176850000Y63246428D01*
X178135714Y63317857D02*
X177992857Y63246428D01*
X177707142Y63246428D01*
X177564285Y63317857D01*
X177492857Y63460714D01*
X177492857Y64032142D01*
X177564285Y64175000D01*
X177707142Y64246428D01*
X177992857Y64246428D01*
X178135714Y64175000D01*
X178207142Y64032142D01*
X178207142Y63889285D01*
X177492857Y63746428D01*
X179492857Y63246428D02*
X179492857Y64746428D01*
X179492857Y63317857D02*
X179350000Y63246428D01*
X179064285Y63246428D01*
X178921428Y63317857D01*
X178850000Y63389285D01*
X178778571Y63532142D01*
X178778571Y63960714D01*
X178850000Y64103571D01*
X178921428Y64175000D01*
X179064285Y64246428D01*
X179350000Y64246428D01*
X179492857Y64175000D01*
X181350000Y63246428D02*
X181350000Y64746428D01*
X181350000Y64175000D02*
X181492857Y64246428D01*
X181778571Y64246428D01*
X181921428Y64175000D01*
X181992857Y64103571D01*
X182064285Y63960714D01*
X182064285Y63532142D01*
X181992857Y63389285D01*
X181921428Y63317857D01*
X181778571Y63246428D01*
X181492857Y63246428D01*
X181350000Y63317857D01*
X182564285Y64246428D02*
X182921428Y63246428D01*
X183278571Y64246428D02*
X182921428Y63246428D01*
X182778571Y62889285D01*
X182707142Y62817857D01*
X182564285Y62746428D01*
X184992857Y63246428D02*
X184992857Y64246428D01*
X184992857Y64103571D02*
X185064285Y64175000D01*
X185207142Y64246428D01*
X185421428Y64246428D01*
X185564285Y64175000D01*
X185635714Y64032142D01*
X185635714Y63246428D01*
X185635714Y64032142D02*
X185707142Y64175000D01*
X185850000Y64246428D01*
X186064285Y64246428D01*
X186207142Y64175000D01*
X186278571Y64032142D01*
X186278571Y63246428D01*
X186992857Y63389285D02*
X187064285Y63317857D01*
X186992857Y63246428D01*
X186921428Y63317857D01*
X186992857Y63389285D01*
X186992857Y63246428D01*
X187707142Y63246428D02*
X187707142Y64746428D01*
X187850000Y63817857D02*
X188278571Y63246428D01*
X188278571Y64246428D02*
X187707142Y63675000D01*
X188921428Y63246428D02*
X188921428Y64246428D01*
X188921428Y64746428D02*
X188850000Y64675000D01*
X188921428Y64603571D01*
X188992857Y64675000D01*
X188921428Y64746428D01*
X188921428Y64603571D01*
X172064285Y61696428D02*
X172421428Y60696428D01*
X172778571Y61696428D01*
X173921428Y60767857D02*
X173778571Y60696428D01*
X173492857Y60696428D01*
X173350000Y60767857D01*
X173278571Y60910714D01*
X173278571Y61482142D01*
X173350000Y61625000D01*
X173492857Y61696428D01*
X173778571Y61696428D01*
X173921428Y61625000D01*
X173992857Y61482142D01*
X173992857Y61339285D01*
X173278571Y61196428D01*
X174635714Y60696428D02*
X174635714Y61696428D01*
X174635714Y61410714D02*
X174707142Y61553571D01*
X174778571Y61625000D01*
X174921428Y61696428D01*
X175064285Y61696428D01*
X175564285Y60839285D02*
X175635714Y60767857D01*
X175564285Y60696428D01*
X175492857Y60767857D01*
X175564285Y60839285D01*
X175564285Y60696428D01*
X176207142Y62053571D02*
X176278571Y62125000D01*
X176421428Y62196428D01*
X176778571Y62196428D01*
X176921428Y62125000D01*
X176992857Y62053571D01*
X177064285Y61910714D01*
X177064285Y61767857D01*
X176992857Y61553571D01*
X176135714Y60696428D01*
X177064285Y60696428D01*
X177992857Y62196428D02*
X178135714Y62196428D01*
X178278571Y62125000D01*
X178350000Y62053571D01*
X178421428Y61910714D01*
X178492857Y61625000D01*
X178492857Y61267857D01*
X178421428Y60982142D01*
X178350000Y60839285D01*
X178278571Y60767857D01*
X178135714Y60696428D01*
X177992857Y60696428D01*
X177850000Y60767857D01*
X177778571Y60839285D01*
X177707142Y60982142D01*
X177635714Y61267857D01*
X177635714Y61625000D01*
X177707142Y61910714D01*
X177778571Y62053571D01*
X177850000Y62125000D01*
X177992857Y62196428D01*
X179064285Y62053571D02*
X179135714Y62125000D01*
X179278571Y62196428D01*
X179635714Y62196428D01*
X179778571Y62125000D01*
X179850000Y62053571D01*
X179921428Y61910714D01*
X179921428Y61767857D01*
X179850000Y61553571D01*
X178992857Y60696428D01*
X179921428Y60696428D01*
X180850000Y62196428D02*
X180992857Y62196428D01*
X181135714Y62125000D01*
X181207142Y62053571D01*
X181278571Y61910714D01*
X181350000Y61625000D01*
X181350000Y61267857D01*
X181278571Y60982142D01*
X181207142Y60839285D01*
X181135714Y60767857D01*
X180992857Y60696428D01*
X180850000Y60696428D01*
X180707142Y60767857D01*
X180635714Y60839285D01*
X180564285Y60982142D01*
X180492857Y61267857D01*
X180492857Y61625000D01*
X180564285Y61910714D01*
X180635714Y62053571D01*
X180707142Y62125000D01*
X180850000Y62196428D01*
X182278571Y62196428D02*
X182421428Y62196428D01*
X182564285Y62125000D01*
X182635714Y62053571D01*
X182707142Y61910714D01*
X182778571Y61625000D01*
X182778571Y61267857D01*
X182707142Y60982142D01*
X182635714Y60839285D01*
X182564285Y60767857D01*
X182421428Y60696428D01*
X182278571Y60696428D01*
X182135714Y60767857D01*
X182064285Y60839285D01*
X181992857Y60982142D01*
X181921428Y61267857D01*
X181921428Y61625000D01*
X181992857Y61910714D01*
X182064285Y62053571D01*
X182135714Y62125000D01*
X182278571Y62196428D01*
X183635714Y61553571D02*
X183492857Y61625000D01*
X183421428Y61696428D01*
X183350000Y61839285D01*
X183350000Y61910714D01*
X183421428Y62053571D01*
X183492857Y62125000D01*
X183635714Y62196428D01*
X183921428Y62196428D01*
X184064285Y62125000D01*
X184135714Y62053571D01*
X184207142Y61910714D01*
X184207142Y61839285D01*
X184135714Y61696428D01*
X184064285Y61625000D01*
X183921428Y61553571D01*
X183635714Y61553571D01*
X183492857Y61482142D01*
X183421428Y61410714D01*
X183350000Y61267857D01*
X183350000Y60982142D01*
X183421428Y60839285D01*
X183492857Y60767857D01*
X183635714Y60696428D01*
X183921428Y60696428D01*
X184064285Y60767857D01*
X184135714Y60839285D01*
X184207142Y60982142D01*
X184207142Y61267857D01*
X184135714Y61410714D01*
X184064285Y61482142D01*
X183921428Y61553571D01*
X185635714Y60696428D02*
X184778571Y60696428D01*
X185207142Y60696428D02*
X185207142Y62196428D01*
X185064285Y61982142D01*
X184921428Y61839285D01*
X184778571Y61767857D01*
X186207142Y62053571D02*
X186278571Y62125000D01*
X186421428Y62196428D01*
X186778571Y62196428D01*
X186921428Y62125000D01*
X186992857Y62053571D01*
X187064285Y61910714D01*
X187064285Y61767857D01*
X186992857Y61553571D01*
X186135714Y60696428D01*
X187064285Y60696428D01*
D11*
%TO.C,D1*%
X69200000Y91425000D02*
X68700000Y92325000D01*
X68700000Y92325000D02*
X69700000Y92325000D01*
X69700000Y92325000D02*
X69200000Y91425000D01*
X68700000Y91325000D02*
X69700000Y91325000D01*
X68450000Y94525000D02*
X68450000Y89125000D01*
X68450000Y89125000D02*
X69950000Y89125000D01*
X69950000Y89125000D02*
X69950000Y94525000D01*
X69950000Y94525000D02*
X68450000Y94525000D01*
%TO.C,D2*%
X89275000Y91575000D02*
X88775000Y92475000D01*
X88775000Y92475000D02*
X89775000Y92475000D01*
X89775000Y92475000D02*
X89275000Y91575000D01*
X88775000Y91475000D02*
X89775000Y91475000D01*
X88525000Y94675000D02*
X88525000Y89275000D01*
X88525000Y89275000D02*
X90025000Y89275000D01*
X90025000Y89275000D02*
X90025000Y94675000D01*
X90025000Y94675000D02*
X88525000Y94675000D01*
%TO.C,D3*%
X112140138Y90426522D02*
X111720481Y91366675D01*
X111720481Y91366675D02*
X112716675Y91279519D01*
X112716675Y91279519D02*
X112140138Y90426522D01*
X111633325Y90370481D02*
X112629519Y90283325D01*
X111663174Y93580092D02*
X111192533Y88200641D01*
X111192533Y88200641D02*
X112686826Y88069908D01*
X112686826Y88069908D02*
X113157467Y93449359D01*
X113157467Y93449359D02*
X111663174Y93580092D01*
%TO.C,D4*%
X130965138Y88801522D02*
X130545481Y89741675D01*
X130545481Y89741675D02*
X131541675Y89654519D01*
X131541675Y89654519D02*
X130965138Y88801522D01*
X130458325Y88745481D02*
X131454519Y88658325D01*
X130488174Y91955092D02*
X130017533Y86575641D01*
X130017533Y86575641D02*
X131511826Y86444908D01*
X131511826Y86444908D02*
X131982467Y91824359D01*
X131982467Y91824359D02*
X130488174Y91955092D01*
%TO.C,D5*%
X149815138Y87151522D02*
X149395481Y88091675D01*
X149395481Y88091675D02*
X150391675Y88004519D01*
X150391675Y88004519D02*
X149815138Y87151522D01*
X149308325Y87095481D02*
X150304519Y87008325D01*
X149338174Y90305092D02*
X148867533Y84925641D01*
X148867533Y84925641D02*
X150361826Y84794908D01*
X150361826Y84794908D02*
X150832467Y90174359D01*
X150832467Y90174359D02*
X149338174Y90305092D01*
%TO.C,D6*%
X161348478Y77115138D02*
X160408325Y76695481D01*
X160408325Y76695481D02*
X160495481Y77691675D01*
X160495481Y77691675D02*
X161348478Y77115138D01*
X161404519Y76608325D02*
X161491675Y77604519D01*
X158194908Y76638174D02*
X163574359Y76167533D01*
X163574359Y76167533D02*
X163705092Y77661826D01*
X163705092Y77661826D02*
X158325641Y78132467D01*
X158325641Y78132467D02*
X158194908Y76638174D01*
%TO.C,D7*%
X65400000Y63950000D02*
X65400000Y62450000D01*
X70800000Y63950000D02*
X65400000Y63950000D01*
X70800000Y62450000D02*
X70800000Y63950000D01*
X65400000Y62450000D02*
X70800000Y62450000D01*
X68600000Y62700000D02*
X68600000Y63700000D01*
X67600000Y63700000D02*
X68500000Y63200000D01*
X67600000Y62700000D02*
X67600000Y63700000D01*
X68500000Y63200000D02*
X67600000Y62700000D01*
%TO.C,D8*%
X91675000Y63775000D02*
X91675000Y62275000D01*
X97075000Y63775000D02*
X91675000Y63775000D01*
X97075000Y62275000D02*
X97075000Y63775000D01*
X91675000Y62275000D02*
X97075000Y62275000D01*
X94875000Y62525000D02*
X94875000Y63525000D01*
X93875000Y63525000D02*
X94775000Y63025000D01*
X93875000Y62525000D02*
X93875000Y63525000D01*
X94775000Y63025000D02*
X93875000Y62525000D01*
%TO.C,D9*%
X107650641Y63032467D02*
X107519908Y61538174D01*
X113030092Y62561826D02*
X107650641Y63032467D01*
X112899359Y61067533D02*
X113030092Y62561826D01*
X107519908Y61538174D02*
X112899359Y61067533D01*
X110729519Y61508325D02*
X110816675Y62504519D01*
X109820481Y62591675D02*
X110673478Y62015138D01*
X109733325Y61595481D02*
X109820481Y62591675D01*
X110673478Y62015138D02*
X109733325Y61595481D01*
%TO.C,D10*%
X130950641Y61232467D02*
X130819908Y59738174D01*
X136330092Y60761826D02*
X130950641Y61232467D01*
X136199359Y59267533D02*
X136330092Y60761826D01*
X130819908Y59738174D02*
X136199359Y59267533D01*
X134029519Y59708325D02*
X134116675Y60704519D01*
X133120481Y60791675D02*
X133973478Y60215138D01*
X133033325Y59795481D02*
X133120481Y60791675D01*
X133973478Y60215138D02*
X133033325Y59795481D01*
%TO.C,D11*%
X149300641Y59557467D02*
X149169908Y58063174D01*
X154680092Y59086826D02*
X149300641Y59557467D01*
X154549359Y57592533D02*
X154680092Y59086826D01*
X149169908Y58063174D02*
X154549359Y57592533D01*
X152379519Y58033325D02*
X152466675Y59029519D01*
X151470481Y59116675D02*
X152323478Y58540138D01*
X151383325Y58120481D02*
X151470481Y59116675D01*
X152323478Y58540138D02*
X151383325Y58120481D01*
%TO.C,D12*%
X174398478Y56840138D02*
X173458325Y56420481D01*
X173458325Y56420481D02*
X173545481Y57416675D01*
X173545481Y57416675D02*
X174398478Y56840138D01*
X174454519Y56333325D02*
X174541675Y57329519D01*
X171244908Y56363174D02*
X176624359Y55892533D01*
X176624359Y55892533D02*
X176755092Y57386826D01*
X176755092Y57386826D02*
X171375641Y57857467D01*
X171375641Y57857467D02*
X171244908Y56363174D01*
%TO.C,D13*%
X72325000Y55650000D02*
X72825000Y54750000D01*
X72825000Y54750000D02*
X71825000Y54750000D01*
X71825000Y54750000D02*
X72325000Y55650000D01*
X72825000Y55750000D02*
X71825000Y55750000D01*
X73075000Y52550000D02*
X73075000Y57950000D01*
X73075000Y57950000D02*
X71575000Y57950000D01*
X71575000Y57950000D02*
X71575000Y52550000D01*
X71575000Y52550000D02*
X73075000Y52550000D01*
%TO.C,D14*%
X98575000Y55350000D02*
X99075000Y54450000D01*
X99075000Y54450000D02*
X98075000Y54450000D01*
X98075000Y54450000D02*
X98575000Y55350000D01*
X99075000Y55450000D02*
X98075000Y55450000D01*
X99325000Y52250000D02*
X99325000Y57650000D01*
X99325000Y57650000D02*
X97825000Y57650000D01*
X97825000Y57650000D02*
X97825000Y52250000D01*
X97825000Y52250000D02*
X99325000Y52250000D01*
%TO.C,D15*%
X119984862Y53798478D02*
X120404519Y52858325D01*
X120404519Y52858325D02*
X119408325Y52945481D01*
X119408325Y52945481D02*
X119984862Y53798478D01*
X120491675Y53854519D02*
X119495481Y53941675D01*
X120461826Y50644908D02*
X120932467Y56024359D01*
X120932467Y56024359D02*
X119438174Y56155092D01*
X119438174Y56155092D02*
X118967533Y50775641D01*
X118967533Y50775641D02*
X120461826Y50644908D01*
%TO.C,D16*%
X139034862Y52123478D02*
X139454519Y51183325D01*
X139454519Y51183325D02*
X138458325Y51270481D01*
X138458325Y51270481D02*
X139034862Y52123478D01*
X139541675Y52179519D02*
X138545481Y52266675D01*
X139511826Y48969908D02*
X139982467Y54349359D01*
X139982467Y54349359D02*
X138488174Y54480092D01*
X138488174Y54480092D02*
X138017533Y49100641D01*
X138017533Y49100641D02*
X139511826Y48969908D01*
%TO.C,D17*%
X158109862Y51073478D02*
X158529519Y50133325D01*
X158529519Y50133325D02*
X157533325Y50220481D01*
X157533325Y50220481D02*
X158109862Y51073478D01*
X158616675Y51129519D02*
X157620481Y51216675D01*
X158586826Y47919908D02*
X159057467Y53299359D01*
X159057467Y53299359D02*
X157563174Y53430092D01*
X157563174Y53430092D02*
X157092533Y48050641D01*
X157092533Y48050641D02*
X158586826Y47919908D01*
%TO.C,D18*%
X176067533Y45750641D02*
X177561826Y45619908D01*
X176538174Y51130092D02*
X176067533Y45750641D01*
X178032467Y50999359D02*
X176538174Y51130092D01*
X177561826Y45619908D02*
X178032467Y50999359D01*
X177591675Y48829519D02*
X176595481Y48916675D01*
X176508325Y47920481D02*
X177084862Y48773478D01*
X177504519Y47833325D02*
X176508325Y47920481D01*
X177084862Y48773478D02*
X177504519Y47833325D01*
%TO.C,D19*%
X198423338Y75817875D02*
X198292605Y77312168D01*
X193043887Y75347234D02*
X198423338Y75817875D01*
X192913154Y76841527D02*
X193043887Y75347234D01*
X198292605Y77312168D02*
X192913154Y76841527D01*
X195126571Y76784220D02*
X195213727Y75788026D01*
X196209921Y75875182D02*
X195269768Y76294839D01*
X196122765Y76871376D02*
X196209921Y75875182D01*
X195269768Y76294839D02*
X196122765Y76871376D01*
%TO.C,D20*%
X217405092Y77438174D02*
X217274359Y78932467D01*
X212025641Y76967533D02*
X217405092Y77438174D01*
X211894908Y78461826D02*
X212025641Y76967533D01*
X217274359Y78932467D02*
X211894908Y78461826D01*
X214108325Y78404519D02*
X214195481Y77408325D01*
X215191675Y77495481D02*
X214251522Y77915138D01*
X215104519Y78491675D02*
X215191675Y77495481D01*
X214251522Y77915138D02*
X215104519Y78491675D01*
%TO.C,D21*%
X236555092Y78963174D02*
X236424359Y80457467D01*
X231175641Y78492533D02*
X236555092Y78963174D01*
X231044908Y79986826D02*
X231175641Y78492533D01*
X236424359Y80457467D02*
X231044908Y79986826D01*
X233258325Y79929519D02*
X233345481Y78933325D01*
X234341675Y79020481D02*
X233401522Y79440138D01*
X234254519Y80016675D02*
X234341675Y79020481D01*
X233401522Y79440138D02*
X234254519Y80016675D01*
%TO.C,D22*%
X255980092Y80863174D02*
X255849359Y82357467D01*
X250600641Y80392533D02*
X255980092Y80863174D01*
X250469908Y81886826D02*
X250600641Y80392533D01*
X255849359Y82357467D02*
X250469908Y81886826D01*
X252683325Y81829519D02*
X252770481Y80833325D01*
X253766675Y80920481D02*
X252826522Y81340138D01*
X253679519Y81916675D02*
X253766675Y80920481D01*
X252826522Y81340138D02*
X253679519Y81916675D01*
%TO.C,D23*%
X276000000Y81800000D02*
X276000000Y83300000D01*
X270600000Y81800000D02*
X276000000Y81800000D01*
X270600000Y83300000D02*
X270600000Y81800000D01*
X276000000Y83300000D02*
X270600000Y83300000D01*
X272800000Y83050000D02*
X272800000Y82050000D01*
X273800000Y82050000D02*
X272900000Y82550000D01*
X273800000Y83050000D02*
X273800000Y82050000D01*
X272900000Y82550000D02*
X273800000Y83050000D01*
%TO.C,D24*%
X294050000Y82550000D02*
X294950000Y83050000D01*
X294950000Y83050000D02*
X294950000Y82050000D01*
X294950000Y82050000D02*
X294050000Y82550000D01*
X293950000Y83050000D02*
X293950000Y82050000D01*
X297150000Y83300000D02*
X291750000Y83300000D01*
X291750000Y83300000D02*
X291750000Y81800000D01*
X291750000Y81800000D02*
X297150000Y81800000D01*
X297150000Y81800000D02*
X297150000Y83300000D01*
%TO.C,D25*%
X201526522Y57440138D02*
X202379519Y58016675D01*
X202379519Y58016675D02*
X202466675Y57020481D01*
X202466675Y57020481D02*
X201526522Y57440138D01*
X201383325Y57929519D02*
X201470481Y56933325D01*
X204549359Y58457467D02*
X199169908Y57986826D01*
X199169908Y57986826D02*
X199300641Y56492533D01*
X199300641Y56492533D02*
X204680092Y56963174D01*
X204680092Y56963174D02*
X204549359Y58457467D01*
%TO.C,D26*%
X220344768Y59419839D02*
X221197765Y59996376D01*
X221197765Y59996376D02*
X221284921Y59000182D01*
X221284921Y59000182D02*
X220344768Y59419839D01*
X220201571Y59909220D02*
X220288727Y58913026D01*
X223367605Y60437168D02*
X217988154Y59966527D01*
X217988154Y59966527D02*
X218118887Y58472234D01*
X218118887Y58472234D02*
X223498338Y58942875D01*
X223498338Y58942875D02*
X223367605Y60437168D01*
%TO.C,D27*%
X239294768Y61044839D02*
X240147765Y61621376D01*
X240147765Y61621376D02*
X240234921Y60625182D01*
X240234921Y60625182D02*
X239294768Y61044839D01*
X239151571Y61534220D02*
X239238727Y60538026D01*
X242317605Y62062168D02*
X236938154Y61591527D01*
X236938154Y61591527D02*
X237068887Y60097234D01*
X237068887Y60097234D02*
X242448338Y60567875D01*
X242448338Y60567875D02*
X242317605Y62062168D01*
%TO.C,D28*%
X258501522Y62440138D02*
X259354519Y63016675D01*
X259354519Y63016675D02*
X259441675Y62020481D01*
X259441675Y62020481D02*
X258501522Y62440138D01*
X258358325Y62929519D02*
X258445481Y61933325D01*
X261524359Y63457467D02*
X256144908Y62986826D01*
X256144908Y62986826D02*
X256275641Y61492533D01*
X256275641Y61492533D02*
X261655092Y61963174D01*
X261655092Y61963174D02*
X261524359Y63457467D01*
%TO.C,D29*%
X278450000Y63475000D02*
X279350000Y63975000D01*
X279350000Y63975000D02*
X279350000Y62975000D01*
X279350000Y62975000D02*
X278450000Y63475000D01*
X278350000Y63975000D02*
X278350000Y62975000D01*
X281550000Y64225000D02*
X276150000Y64225000D01*
X276150000Y64225000D02*
X276150000Y62725000D01*
X276150000Y62725000D02*
X281550000Y62725000D01*
X281550000Y62725000D02*
X281550000Y64225000D01*
%TO.C,D30*%
X302725000Y62500000D02*
X302725000Y64000000D01*
X297325000Y62500000D02*
X302725000Y62500000D01*
X297325000Y64000000D02*
X297325000Y62500000D01*
X302725000Y64000000D02*
X297325000Y64000000D01*
X299525000Y63750000D02*
X299525000Y62750000D01*
X300525000Y62750000D02*
X299625000Y63250000D01*
X300525000Y63750000D02*
X300525000Y62750000D01*
X299625000Y63250000D02*
X300525000Y63750000D01*
%TO.C,D31*%
X198338174Y46494908D02*
X199832467Y46625641D01*
X197867533Y51874359D02*
X198338174Y46494908D01*
X199361826Y52005092D02*
X197867533Y51874359D01*
X199832467Y46625641D02*
X199361826Y52005092D01*
X199304519Y49791675D02*
X198308325Y49704519D01*
X198395481Y48708325D02*
X198815138Y49648478D01*
X199391675Y48795481D02*
X198395481Y48708325D01*
X198815138Y49648478D02*
X199391675Y48795481D01*
%TO.C,D32*%
X217492875Y48076662D02*
X218987168Y48207395D01*
X217022234Y53456113D02*
X217492875Y48076662D01*
X218516527Y53586846D02*
X217022234Y53456113D01*
X218987168Y48207395D02*
X218516527Y53586846D01*
X218459220Y51373429D02*
X217463026Y51286273D01*
X217550182Y50290079D02*
X217969839Y51230232D01*
X218546376Y50377235D02*
X217550182Y50290079D01*
X217969839Y51230232D02*
X218546376Y50377235D01*
%TO.C,D33*%
X236338174Y49694908D02*
X237832467Y49825641D01*
X235867533Y55074359D02*
X236338174Y49694908D01*
X237361826Y55205092D02*
X235867533Y55074359D01*
X237832467Y49825641D02*
X237361826Y55205092D01*
X237304519Y52991675D02*
X236308325Y52904519D01*
X236395481Y51908325D02*
X236815138Y52848478D01*
X237391675Y51995481D02*
X236395481Y51908325D01*
X236815138Y52848478D02*
X237391675Y51995481D01*
%TO.C,D34*%
X255438174Y50669908D02*
X256932467Y50800641D01*
X254967533Y56049359D02*
X255438174Y50669908D01*
X256461826Y56180092D02*
X254967533Y56049359D01*
X256932467Y50800641D02*
X256461826Y56180092D01*
X256404519Y53966675D02*
X255408325Y53879519D01*
X255495481Y52883325D02*
X255915138Y53823478D01*
X256491675Y52970481D02*
X255495481Y52883325D01*
X255915138Y53823478D02*
X256491675Y52970481D01*
%TO.C,D35*%
X278700000Y51300000D02*
X280200000Y51300000D01*
X278700000Y56700000D02*
X278700000Y51300000D01*
X280200000Y56700000D02*
X278700000Y56700000D01*
X280200000Y51300000D02*
X280200000Y56700000D01*
X279950000Y54500000D02*
X278950000Y54500000D01*
X278950000Y53500000D02*
X279450000Y54400000D01*
X279950000Y53500000D02*
X278950000Y53500000D01*
X279450000Y54400000D02*
X279950000Y53500000D01*
%TO.C,D36*%
X304825000Y51300000D02*
X306325000Y51300000D01*
X304825000Y56700000D02*
X304825000Y51300000D01*
X306325000Y56700000D02*
X304825000Y56700000D01*
X306325000Y51300000D02*
X306325000Y56700000D01*
X306075000Y54500000D02*
X305075000Y54500000D01*
X305075000Y53500000D02*
X305575000Y54400000D01*
X306075000Y53500000D02*
X305075000Y53500000D01*
X305575000Y54400000D02*
X306075000Y53500000D01*
%TO.C,SW37*%
X193575000Y96525000D02*
X193325000Y96525000D01*
X193575000Y102525000D02*
X193575000Y96525000D01*
X193575000Y102525000D02*
X193325000Y102525000D01*
X190075000Y102525000D02*
X190325000Y102525000D01*
X190075000Y96525000D02*
X190325000Y96525000D01*
X190075000Y102525000D02*
X190075000Y96525000D01*
%TO.C,U1*%
D12*
X176503571Y102110714D02*
X176503571Y102860714D01*
X176753571Y102325000D01*
X177003571Y102860714D01*
X177003571Y102110714D01*
X177360714Y102110714D02*
X177360714Y102610714D01*
X177360714Y102860714D02*
X177325000Y102825000D01*
X177360714Y102789285D01*
X177396428Y102825000D01*
X177360714Y102860714D01*
X177360714Y102789285D01*
X178039285Y102146428D02*
X177967857Y102110714D01*
X177825000Y102110714D01*
X177753571Y102146428D01*
X177717857Y102182142D01*
X177682142Y102253571D01*
X177682142Y102467857D01*
X177717857Y102539285D01*
X177753571Y102575000D01*
X177825000Y102610714D01*
X177967857Y102610714D01*
X178039285Y102575000D01*
X178360714Y102110714D02*
X178360714Y102610714D01*
X178360714Y102467857D02*
X178396428Y102539285D01*
X178432142Y102575000D01*
X178503571Y102610714D01*
X178575000Y102610714D01*
X178932142Y102110714D02*
X178860714Y102146428D01*
X178825000Y102182142D01*
X178789285Y102253571D01*
X178789285Y102467857D01*
X178825000Y102539285D01*
X178860714Y102575000D01*
X178932142Y102610714D01*
X179039285Y102610714D01*
X179110714Y102575000D01*
X179146428Y102539285D01*
X179182142Y102467857D01*
X179182142Y102253571D01*
X179146428Y102182142D01*
X179110714Y102146428D01*
X179039285Y102110714D01*
X178932142Y102110714D01*
X179503571Y102860714D02*
X179503571Y102253571D01*
X179539285Y102182142D01*
X179575000Y102146428D01*
X179646428Y102110714D01*
X179789285Y102110714D01*
X179860714Y102146428D01*
X179896428Y102182142D01*
X179932142Y102253571D01*
X179932142Y102860714D01*
X180253571Y102146428D02*
X180360714Y102110714D01*
X180539285Y102110714D01*
X180610714Y102146428D01*
X180646428Y102182142D01*
X180682142Y102253571D01*
X180682142Y102325000D01*
X180646428Y102396428D01*
X180610714Y102432142D01*
X180539285Y102467857D01*
X180396428Y102503571D01*
X180325000Y102539285D01*
X180289285Y102575000D01*
X180253571Y102646428D01*
X180253571Y102717857D01*
X180289285Y102789285D01*
X180325000Y102825000D01*
X180396428Y102860714D01*
X180575000Y102860714D01*
X180682142Y102825000D01*
X181253571Y102503571D02*
X181360714Y102467857D01*
X181396428Y102432142D01*
X181432142Y102360714D01*
X181432142Y102253571D01*
X181396428Y102182142D01*
X181360714Y102146428D01*
X181289285Y102110714D01*
X181003571Y102110714D01*
X181003571Y102860714D01*
X181253571Y102860714D01*
X181325000Y102825000D01*
X181360714Y102789285D01*
X181396428Y102717857D01*
X181396428Y102646428D01*
X181360714Y102575000D01*
X181325000Y102539285D01*
X181253571Y102503571D01*
X181003571Y102503571D01*
D11*
%TO.C,SW1*%
X59066666Y97995238D02*
X59209523Y97947619D01*
X59447619Y97947619D01*
X59542857Y97995238D01*
X59590476Y98042857D01*
X59638095Y98138095D01*
X59638095Y98233333D01*
X59590476Y98328571D01*
X59542857Y98376190D01*
X59447619Y98423809D01*
X59257142Y98471428D01*
X59161904Y98519047D01*
X59114285Y98566666D01*
X59066666Y98661904D01*
X59066666Y98757142D01*
X59114285Y98852380D01*
X59161904Y98900000D01*
X59257142Y98947619D01*
X59495238Y98947619D01*
X59638095Y98900000D01*
X59971428Y98947619D02*
X60209523Y97947619D01*
X60400000Y98661904D01*
X60590476Y97947619D01*
X60828571Y98947619D01*
X61733333Y97947619D02*
X61161904Y97947619D01*
X61447619Y97947619D02*
X61447619Y98947619D01*
X61352380Y98804761D01*
X61257142Y98709523D01*
X61161904Y98661904D01*
%TO.C,SW7*%
X59466666Y78895238D02*
X59609523Y78847619D01*
X59847619Y78847619D01*
X59942857Y78895238D01*
X59990476Y78942857D01*
X60038095Y79038095D01*
X60038095Y79133333D01*
X59990476Y79228571D01*
X59942857Y79276190D01*
X59847619Y79323809D01*
X59657142Y79371428D01*
X59561904Y79419047D01*
X59514285Y79466666D01*
X59466666Y79561904D01*
X59466666Y79657142D01*
X59514285Y79752380D01*
X59561904Y79800000D01*
X59657142Y79847619D01*
X59895238Y79847619D01*
X60038095Y79800000D01*
X60371428Y79847619D02*
X60609523Y78847619D01*
X60800000Y79561904D01*
X60990476Y78847619D01*
X61228571Y79847619D01*
X61514285Y79847619D02*
X62180952Y79847619D01*
X61752380Y78847619D01*
%TO.C,SW2*%
X79066666Y97995238D02*
X79209523Y97947619D01*
X79447619Y97947619D01*
X79542857Y97995238D01*
X79590476Y98042857D01*
X79638095Y98138095D01*
X79638095Y98233333D01*
X79590476Y98328571D01*
X79542857Y98376190D01*
X79447619Y98423809D01*
X79257142Y98471428D01*
X79161904Y98519047D01*
X79114285Y98566666D01*
X79066666Y98661904D01*
X79066666Y98757142D01*
X79114285Y98852380D01*
X79161904Y98900000D01*
X79257142Y98947619D01*
X79495238Y98947619D01*
X79638095Y98900000D01*
X79971428Y98947619D02*
X80209523Y97947619D01*
X80400000Y98661904D01*
X80590476Y97947619D01*
X80828571Y98947619D01*
X81161904Y98852380D02*
X81209523Y98900000D01*
X81304761Y98947619D01*
X81542857Y98947619D01*
X81638095Y98900000D01*
X81685714Y98852380D01*
X81733333Y98757142D01*
X81733333Y98661904D01*
X81685714Y98519047D01*
X81114285Y97947619D01*
X81733333Y97947619D01*
%TO.C,SW3*%
X102507562Y97883684D02*
X102645725Y97823796D01*
X102882914Y97803044D01*
X102981940Y97842182D01*
X103033528Y97885469D01*
X103089267Y97976195D01*
X103097567Y98071070D01*
X103058430Y98170096D01*
X103015142Y98221685D01*
X102924417Y98277423D01*
X102738816Y98341462D01*
X102648090Y98397200D01*
X102604803Y98448788D01*
X102565665Y98547814D01*
X102573966Y98642690D01*
X102629704Y98733415D01*
X102681292Y98776703D01*
X102780318Y98815840D01*
X103017508Y98795089D01*
X103155671Y98735200D01*
X103491886Y98753586D02*
X103641920Y97736640D01*
X103893925Y98431607D01*
X104021422Y97703438D01*
X104345767Y98678881D01*
X104630394Y98653980D02*
X105247086Y98600026D01*
X104881819Y98249575D01*
X105024133Y98237124D01*
X105114858Y98181386D01*
X105158146Y98129798D01*
X105197283Y98030772D01*
X105176532Y97793583D01*
X105120793Y97702857D01*
X105069205Y97659570D01*
X104970179Y97620432D01*
X104685552Y97645334D01*
X104594827Y97701072D01*
X104551539Y97752661D01*
%TO.C,SW4*%
X121507562Y96083684D02*
X121645725Y96023796D01*
X121882914Y96003044D01*
X121981940Y96042182D01*
X122033528Y96085469D01*
X122089267Y96176195D01*
X122097567Y96271070D01*
X122058430Y96370096D01*
X122015142Y96421685D01*
X121924417Y96477423D01*
X121738816Y96541462D01*
X121648090Y96597200D01*
X121604803Y96648788D01*
X121565665Y96747814D01*
X121573966Y96842690D01*
X121629704Y96933415D01*
X121681292Y96976703D01*
X121780318Y97015840D01*
X122017508Y96995089D01*
X122155671Y96935200D01*
X122491886Y96953586D02*
X122641920Y95936640D01*
X122893925Y96631607D01*
X123021422Y95903438D01*
X123345767Y96878881D01*
X124123159Y96476262D02*
X124065055Y95812132D01*
X123919172Y96876516D02*
X123619728Y96185700D01*
X124236420Y96131746D01*
%TO.C,SW5*%
X140407562Y94483684D02*
X140545725Y94423796D01*
X140782914Y94403044D01*
X140881940Y94442182D01*
X140933528Y94485469D01*
X140989267Y94576195D01*
X140997567Y94671070D01*
X140958430Y94770096D01*
X140915142Y94821685D01*
X140824417Y94877423D01*
X140638816Y94941462D01*
X140548090Y94997200D01*
X140504803Y95048788D01*
X140465665Y95147814D01*
X140473966Y95242690D01*
X140529704Y95333415D01*
X140581292Y95376703D01*
X140680318Y95415840D01*
X140917508Y95395089D01*
X141055671Y95335200D01*
X141391886Y95353586D02*
X141541920Y94336640D01*
X141793925Y95031607D01*
X141921422Y94303438D01*
X142245767Y95278881D01*
X143099648Y95204176D02*
X142625270Y95245679D01*
X142536329Y94775451D01*
X142587918Y94818738D01*
X142686943Y94857876D01*
X142924133Y94837124D01*
X143014858Y94781386D01*
X143058146Y94729798D01*
X143097283Y94630772D01*
X143076532Y94393583D01*
X143020793Y94302857D01*
X142969205Y94259570D01*
X142870179Y94220432D01*
X142632990Y94241184D01*
X142542265Y94296922D01*
X142498977Y94348510D01*
%TO.C,SW6*%
X159407562Y92983684D02*
X159545725Y92923796D01*
X159782914Y92903044D01*
X159881940Y92942182D01*
X159933528Y92985469D01*
X159989267Y93076195D01*
X159997567Y93171070D01*
X159958430Y93270096D01*
X159915142Y93321685D01*
X159824417Y93377423D01*
X159638816Y93441462D01*
X159548090Y93497200D01*
X159504803Y93548788D01*
X159465665Y93647814D01*
X159473966Y93742690D01*
X159529704Y93833415D01*
X159581292Y93876703D01*
X159680318Y93915840D01*
X159917508Y93895089D01*
X160055671Y93835200D01*
X160391886Y93853586D02*
X160541920Y92836640D01*
X160793925Y93531607D01*
X160921422Y92803438D01*
X161245767Y93778881D01*
X162052211Y93708327D02*
X161862459Y93724928D01*
X161763433Y93685790D01*
X161711845Y93642503D01*
X161604519Y93508490D01*
X161540480Y93322889D01*
X161507277Y92943386D01*
X161546415Y92844360D01*
X161589702Y92792772D01*
X161680428Y92737034D01*
X161870179Y92720432D01*
X161969205Y92759570D01*
X162020793Y92802857D01*
X162076532Y92893583D01*
X162097283Y93130772D01*
X162058146Y93229798D01*
X162014858Y93281386D01*
X161924133Y93337124D01*
X161734381Y93353725D01*
X161635355Y93314588D01*
X161583767Y93271301D01*
X161528029Y93180575D01*
%TO.C,SW8*%
X83766666Y78895238D02*
X83909523Y78847619D01*
X84147619Y78847619D01*
X84242857Y78895238D01*
X84290476Y78942857D01*
X84338095Y79038095D01*
X84338095Y79133333D01*
X84290476Y79228571D01*
X84242857Y79276190D01*
X84147619Y79323809D01*
X83957142Y79371428D01*
X83861904Y79419047D01*
X83814285Y79466666D01*
X83766666Y79561904D01*
X83766666Y79657142D01*
X83814285Y79752380D01*
X83861904Y79800000D01*
X83957142Y79847619D01*
X84195238Y79847619D01*
X84338095Y79800000D01*
X84671428Y79847619D02*
X84909523Y78847619D01*
X85100000Y79561904D01*
X85290476Y78847619D01*
X85528571Y79847619D01*
X86052380Y79419047D02*
X85957142Y79466666D01*
X85909523Y79514285D01*
X85861904Y79609523D01*
X85861904Y79657142D01*
X85909523Y79752380D01*
X85957142Y79800000D01*
X86052380Y79847619D01*
X86242857Y79847619D01*
X86338095Y79800000D01*
X86385714Y79752380D01*
X86433333Y79657142D01*
X86433333Y79609523D01*
X86385714Y79514285D01*
X86338095Y79466666D01*
X86242857Y79419047D01*
X86052380Y79419047D01*
X85957142Y79371428D01*
X85909523Y79323809D01*
X85861904Y79228571D01*
X85861904Y79038095D01*
X85909523Y78942857D01*
X85957142Y78895238D01*
X86052380Y78847619D01*
X86242857Y78847619D01*
X86338095Y78895238D01*
X86385714Y78942857D01*
X86433333Y79038095D01*
X86433333Y79228571D01*
X86385714Y79323809D01*
X86338095Y79371428D01*
X86242857Y79419047D01*
%TO.C,SW9*%
X105507562Y78483684D02*
X105645725Y78423796D01*
X105882914Y78403044D01*
X105981940Y78442182D01*
X106033528Y78485469D01*
X106089267Y78576195D01*
X106097567Y78671070D01*
X106058430Y78770096D01*
X106015142Y78821685D01*
X105924417Y78877423D01*
X105738816Y78941462D01*
X105648090Y78997200D01*
X105604803Y79048788D01*
X105565665Y79147814D01*
X105573966Y79242690D01*
X105629704Y79333415D01*
X105681292Y79376703D01*
X105780318Y79415840D01*
X106017508Y79395089D01*
X106155671Y79335200D01*
X106491886Y79353586D02*
X106641920Y78336640D01*
X106893925Y79031607D01*
X107021422Y78303438D01*
X107345767Y79278881D01*
X107685552Y78245334D02*
X107875303Y78228733D01*
X107974329Y78267870D01*
X108025918Y78311158D01*
X108133244Y78445171D01*
X108197283Y78630772D01*
X108230485Y79010275D01*
X108191348Y79109301D01*
X108148060Y79160889D01*
X108057335Y79216627D01*
X107867584Y79233228D01*
X107768558Y79194091D01*
X107716969Y79150803D01*
X107661231Y79060078D01*
X107640480Y78822889D01*
X107679617Y78723863D01*
X107722905Y78672275D01*
X107813630Y78616536D01*
X108003381Y78599935D01*
X108102407Y78639072D01*
X108153995Y78682360D01*
X108209734Y78773085D01*
%TO.C,SW10*%
X124033183Y76825187D02*
X124171346Y76765299D01*
X124408536Y76744547D01*
X124507562Y76783684D01*
X124559150Y76826972D01*
X124614888Y76917697D01*
X124623189Y77012573D01*
X124584051Y77111599D01*
X124540764Y77163187D01*
X124450038Y77218926D01*
X124264437Y77282965D01*
X124173712Y77338703D01*
X124130424Y77390291D01*
X124091287Y77489317D01*
X124099588Y77584193D01*
X124155326Y77674918D01*
X124206914Y77718206D01*
X124305940Y77757343D01*
X124543129Y77736592D01*
X124681292Y77676703D01*
X125017508Y77695089D02*
X125167541Y76678143D01*
X125419547Y77373109D01*
X125547044Y76644941D01*
X125871389Y77620384D01*
X126685552Y76545334D02*
X126116298Y76595137D01*
X126400925Y76570236D02*
X126488081Y77566430D01*
X126380754Y77432417D01*
X126277578Y77345842D01*
X126178552Y77306705D01*
X127389400Y77487575D02*
X127484275Y77479275D01*
X127575001Y77423536D01*
X127618288Y77371948D01*
X127657426Y77272922D01*
X127688262Y77079021D01*
X127667511Y76841831D01*
X127603472Y76656230D01*
X127547734Y76565505D01*
X127496146Y76522217D01*
X127397120Y76483080D01*
X127302244Y76491381D01*
X127211519Y76547119D01*
X127168231Y76598707D01*
X127129094Y76697733D01*
X127098257Y76891635D01*
X127119008Y77128824D01*
X127183047Y77314425D01*
X127238786Y77405150D01*
X127290374Y77448438D01*
X127389400Y77487575D01*
%TO.C,SW11*%
X143033183Y75225187D02*
X143171346Y75165299D01*
X143408536Y75144547D01*
X143507562Y75183684D01*
X143559150Y75226972D01*
X143614888Y75317697D01*
X143623189Y75412573D01*
X143584051Y75511599D01*
X143540764Y75563187D01*
X143450038Y75618926D01*
X143264437Y75682965D01*
X143173712Y75738703D01*
X143130424Y75790291D01*
X143091287Y75889317D01*
X143099588Y75984193D01*
X143155326Y76074918D01*
X143206914Y76118206D01*
X143305940Y76157343D01*
X143543129Y76136592D01*
X143681292Y76076703D01*
X144017508Y76095089D02*
X144167541Y75078143D01*
X144419547Y75773109D01*
X144547044Y75044941D01*
X144871389Y76020384D01*
X145685552Y74945334D02*
X145116298Y74995137D01*
X145400925Y74970236D02*
X145488081Y75966430D01*
X145380754Y75832417D01*
X145277578Y75745842D01*
X145178552Y75706705D01*
X146634309Y74862329D02*
X146065055Y74912132D01*
X146349682Y74887230D02*
X146436838Y75883425D01*
X146329511Y75749412D01*
X146226335Y75662837D01*
X146127309Y75623700D01*
%TO.C,SW12*%
X161933183Y73625187D02*
X162071346Y73565299D01*
X162308536Y73544547D01*
X162407562Y73583684D01*
X162459150Y73626972D01*
X162514888Y73717697D01*
X162523189Y73812573D01*
X162484051Y73911599D01*
X162440764Y73963187D01*
X162350038Y74018926D01*
X162164437Y74082965D01*
X162073712Y74138703D01*
X162030424Y74190291D01*
X161991287Y74289317D01*
X161999588Y74384193D01*
X162055326Y74474918D01*
X162106914Y74518206D01*
X162205940Y74557343D01*
X162443129Y74536592D01*
X162581292Y74476703D01*
X162917508Y74495089D02*
X163067541Y73478143D01*
X163319547Y74173109D01*
X163447044Y73444941D01*
X163771389Y74420384D01*
X164585552Y73345334D02*
X164016298Y73395137D01*
X164300925Y73370236D02*
X164388081Y74366430D01*
X164280754Y74232417D01*
X164177578Y74145842D01*
X164078552Y74106705D01*
X165043910Y74213451D02*
X165095498Y74256738D01*
X165194524Y74295876D01*
X165431713Y74275124D01*
X165522439Y74219386D01*
X165565726Y74167798D01*
X165604864Y74068772D01*
X165596563Y73973896D01*
X165536674Y73835733D01*
X164917617Y73316282D01*
X165534309Y73262329D01*
%TO.C,SW13*%
X61890476Y59895238D02*
X62033333Y59847619D01*
X62271428Y59847619D01*
X62366666Y59895238D01*
X62414285Y59942857D01*
X62461904Y60038095D01*
X62461904Y60133333D01*
X62414285Y60228571D01*
X62366666Y60276190D01*
X62271428Y60323809D01*
X62080952Y60371428D01*
X61985714Y60419047D01*
X61938095Y60466666D01*
X61890476Y60561904D01*
X61890476Y60657142D01*
X61938095Y60752380D01*
X61985714Y60800000D01*
X62080952Y60847619D01*
X62319047Y60847619D01*
X62461904Y60800000D01*
X62795238Y60847619D02*
X63033333Y59847619D01*
X63223809Y60561904D01*
X63414285Y59847619D01*
X63652380Y60847619D01*
X64557142Y59847619D02*
X63985714Y59847619D01*
X64271428Y59847619D02*
X64271428Y60847619D01*
X64176190Y60704761D01*
X64080952Y60609523D01*
X63985714Y60561904D01*
X64890476Y60847619D02*
X65509523Y60847619D01*
X65176190Y60466666D01*
X65319047Y60466666D01*
X65414285Y60419047D01*
X65461904Y60371428D01*
X65509523Y60276190D01*
X65509523Y60038095D01*
X65461904Y59942857D01*
X65414285Y59895238D01*
X65319047Y59847619D01*
X65033333Y59847619D01*
X64938095Y59895238D01*
X64890476Y59942857D01*
%TO.C,SW14*%
X88090476Y59895238D02*
X88233333Y59847619D01*
X88471428Y59847619D01*
X88566666Y59895238D01*
X88614285Y59942857D01*
X88661904Y60038095D01*
X88661904Y60133333D01*
X88614285Y60228571D01*
X88566666Y60276190D01*
X88471428Y60323809D01*
X88280952Y60371428D01*
X88185714Y60419047D01*
X88138095Y60466666D01*
X88090476Y60561904D01*
X88090476Y60657142D01*
X88138095Y60752380D01*
X88185714Y60800000D01*
X88280952Y60847619D01*
X88519047Y60847619D01*
X88661904Y60800000D01*
X88995238Y60847619D02*
X89233333Y59847619D01*
X89423809Y60561904D01*
X89614285Y59847619D01*
X89852380Y60847619D01*
X90757142Y59847619D02*
X90185714Y59847619D01*
X90471428Y59847619D02*
X90471428Y60847619D01*
X90376190Y60704761D01*
X90280952Y60609523D01*
X90185714Y60561904D01*
X91614285Y60514285D02*
X91614285Y59847619D01*
X91376190Y60895238D02*
X91138095Y60180952D01*
X91757142Y60180952D01*
%TO.C,SW15*%
X110033183Y59025187D02*
X110171346Y58965299D01*
X110408536Y58944547D01*
X110507562Y58983684D01*
X110559150Y59026972D01*
X110614888Y59117697D01*
X110623189Y59212573D01*
X110584051Y59311599D01*
X110540764Y59363187D01*
X110450038Y59418926D01*
X110264437Y59482965D01*
X110173712Y59538703D01*
X110130424Y59590291D01*
X110091287Y59689317D01*
X110099588Y59784193D01*
X110155326Y59874918D01*
X110206914Y59918206D01*
X110305940Y59957343D01*
X110543129Y59936592D01*
X110681292Y59876703D01*
X111017508Y59895089D02*
X111167541Y58878143D01*
X111419547Y59573109D01*
X111547044Y58844941D01*
X111871389Y59820384D01*
X112685552Y58745334D02*
X112116298Y58795137D01*
X112400925Y58770236D02*
X112488081Y59766430D01*
X112380754Y59632417D01*
X112277578Y59545842D01*
X112178552Y59506705D01*
X113674027Y59662674D02*
X113199648Y59704176D01*
X113110708Y59233948D01*
X113162296Y59277236D01*
X113261322Y59316373D01*
X113498511Y59295622D01*
X113589237Y59239883D01*
X113632524Y59188295D01*
X113671661Y59089269D01*
X113650910Y58852080D01*
X113595172Y58761355D01*
X113543584Y58718067D01*
X113444558Y58678930D01*
X113207368Y58699681D01*
X113116643Y58755419D01*
X113073355Y58807008D01*
%TO.C,SW16*%
X129033183Y57325187D02*
X129171346Y57265299D01*
X129408536Y57244547D01*
X129507562Y57283684D01*
X129559150Y57326972D01*
X129614888Y57417697D01*
X129623189Y57512573D01*
X129584051Y57611599D01*
X129540764Y57663187D01*
X129450038Y57718926D01*
X129264437Y57782965D01*
X129173712Y57838703D01*
X129130424Y57890291D01*
X129091287Y57989317D01*
X129099588Y58084193D01*
X129155326Y58174918D01*
X129206914Y58218206D01*
X129305940Y58257343D01*
X129543129Y58236592D01*
X129681292Y58176703D01*
X130017508Y58195089D02*
X130167541Y57178143D01*
X130419547Y57873109D01*
X130547044Y57144941D01*
X130871389Y58120384D01*
X131685552Y57045334D02*
X131116298Y57095137D01*
X131400925Y57070236D02*
X131488081Y58066430D01*
X131380754Y57932417D01*
X131277578Y57845842D01*
X131178552Y57806705D01*
X132626589Y57966824D02*
X132436838Y57983425D01*
X132337812Y57944288D01*
X132286224Y57901000D01*
X132178897Y57766987D01*
X132114858Y57581386D01*
X132081656Y57201883D01*
X132120793Y57102857D01*
X132164081Y57051269D01*
X132254806Y56995531D01*
X132444558Y56978930D01*
X132543584Y57018067D01*
X132595172Y57061355D01*
X132650910Y57152080D01*
X132671661Y57389269D01*
X132632524Y57488295D01*
X132589237Y57539883D01*
X132498511Y57595622D01*
X132308760Y57612223D01*
X132209734Y57573085D01*
X132158146Y57529798D01*
X132102407Y57439072D01*
%TO.C,SW17*%
X148033183Y55725187D02*
X148171346Y55665299D01*
X148408536Y55644547D01*
X148507562Y55683684D01*
X148559150Y55726972D01*
X148614888Y55817697D01*
X148623189Y55912573D01*
X148584051Y56011599D01*
X148540764Y56063187D01*
X148450038Y56118926D01*
X148264437Y56182965D01*
X148173712Y56238703D01*
X148130424Y56290291D01*
X148091287Y56389317D01*
X148099588Y56484193D01*
X148155326Y56574918D01*
X148206914Y56618206D01*
X148305940Y56657343D01*
X148543129Y56636592D01*
X148681292Y56576703D01*
X149017508Y56595089D02*
X149167541Y55578143D01*
X149419547Y56273109D01*
X149547044Y55544941D01*
X149871389Y56520384D01*
X150685552Y55445334D02*
X150116298Y55495137D01*
X150400925Y55470236D02*
X150488081Y56466430D01*
X150380754Y56332417D01*
X150277578Y56245842D01*
X150178552Y56206705D01*
X151104773Y56412477D02*
X151768903Y56354373D01*
X151254806Y55395531D01*
%TO.C,SW18*%
X167033183Y54025187D02*
X167171346Y53965299D01*
X167408536Y53944547D01*
X167507562Y53983684D01*
X167559150Y54026972D01*
X167614888Y54117697D01*
X167623189Y54212573D01*
X167584051Y54311599D01*
X167540764Y54363187D01*
X167450038Y54418926D01*
X167264437Y54482965D01*
X167173712Y54538703D01*
X167130424Y54590291D01*
X167091287Y54689317D01*
X167099588Y54784193D01*
X167155326Y54874918D01*
X167206914Y54918206D01*
X167305940Y54957343D01*
X167543129Y54936592D01*
X167681292Y54876703D01*
X168017508Y54895089D02*
X168167541Y53878143D01*
X168419547Y54573109D01*
X168547044Y53844941D01*
X168871389Y54820384D01*
X169685552Y53745334D02*
X169116298Y53795137D01*
X169400925Y53770236D02*
X169488081Y54766430D01*
X169380754Y54632417D01*
X169277578Y54545842D01*
X169178552Y54506705D01*
X170304609Y54264785D02*
X170213884Y54320523D01*
X170170596Y54372111D01*
X170131459Y54471137D01*
X170135609Y54518575D01*
X170191348Y54609301D01*
X170242936Y54652588D01*
X170341962Y54691725D01*
X170531713Y54675124D01*
X170622439Y54619386D01*
X170665726Y54567798D01*
X170704864Y54468772D01*
X170700713Y54421334D01*
X170644975Y54330609D01*
X170593387Y54287321D01*
X170494361Y54248184D01*
X170304609Y54264785D01*
X170205584Y54225648D01*
X170153995Y54182360D01*
X170098257Y54091635D01*
X170081656Y53901883D01*
X170120793Y53802857D01*
X170164081Y53751269D01*
X170254806Y53695531D01*
X170444558Y53678930D01*
X170543584Y53718067D01*
X170595172Y53761355D01*
X170650910Y53852080D01*
X170667511Y54041831D01*
X170628374Y54140857D01*
X170585086Y54192445D01*
X170494361Y54248184D01*
%TO.C,SW19*%
X194561540Y91709766D02*
X194708004Y91674779D01*
X194945193Y91695531D01*
X195035918Y91751269D01*
X195079206Y91802857D01*
X195118343Y91901883D01*
X195110043Y91996759D01*
X195054304Y92087484D01*
X195002716Y92130772D01*
X194903690Y92169909D01*
X194709788Y92200746D01*
X194610762Y92239883D01*
X194559174Y92283171D01*
X194503436Y92373896D01*
X194495135Y92468772D01*
X194534273Y92567798D01*
X194577560Y92619386D01*
X194668286Y92675124D01*
X194905475Y92695876D01*
X195051939Y92660889D01*
X195379853Y92737378D02*
X195704198Y91761935D01*
X195831696Y92490104D01*
X196083701Y91795137D01*
X196233735Y92812083D01*
X197222209Y91894744D02*
X196652955Y91844941D01*
X196937582Y91869842D02*
X196850426Y92866037D01*
X196768002Y92715423D01*
X196681426Y92612247D01*
X196590701Y92556508D01*
X197696588Y91936247D02*
X197886339Y91952848D01*
X197977064Y92008586D01*
X198020352Y92060174D01*
X198102777Y92210788D01*
X198133614Y92404690D01*
X198100411Y92784193D01*
X198044673Y92874918D01*
X197993085Y92918206D01*
X197894059Y92957343D01*
X197704308Y92940742D01*
X197613582Y92885004D01*
X197570295Y92833415D01*
X197531157Y92734389D01*
X197551909Y92497200D01*
X197607647Y92406475D01*
X197659235Y92363187D01*
X197758261Y92324050D01*
X197948013Y92340651D01*
X198038738Y92396389D01*
X198082026Y92447978D01*
X198121163Y92547003D01*
%TO.C,SW20*%
X213561540Y93309766D02*
X213708004Y93274779D01*
X213945193Y93295531D01*
X214035918Y93351269D01*
X214079206Y93402857D01*
X214118343Y93501883D01*
X214110043Y93596759D01*
X214054304Y93687484D01*
X214002716Y93730772D01*
X213903690Y93769909D01*
X213709788Y93800746D01*
X213610762Y93839883D01*
X213559174Y93883171D01*
X213503436Y93973896D01*
X213495135Y94068772D01*
X213534273Y94167798D01*
X213577560Y94219386D01*
X213668286Y94275124D01*
X213905475Y94295876D01*
X214051939Y94260889D01*
X214379853Y94337378D02*
X214704198Y93361935D01*
X214831696Y94090104D01*
X215083701Y93395137D01*
X215233735Y94412083D01*
X215574100Y94346260D02*
X215617388Y94397848D01*
X215708113Y94453586D01*
X215945302Y94474338D01*
X216044328Y94435200D01*
X216095916Y94391913D01*
X216151655Y94301187D01*
X216159955Y94206312D01*
X216124968Y94059848D01*
X215605517Y93440790D01*
X216222209Y93494744D01*
X216751745Y94544892D02*
X216846621Y94553193D01*
X216945647Y94514055D01*
X216997235Y94470768D01*
X217052974Y94380042D01*
X217117013Y94194441D01*
X217137764Y93957252D01*
X217106927Y93763350D01*
X217067790Y93664325D01*
X217024502Y93612736D01*
X216933777Y93556998D01*
X216838901Y93548697D01*
X216739875Y93587835D01*
X216688287Y93631122D01*
X216632549Y93721848D01*
X216568510Y93907449D01*
X216547758Y94144638D01*
X216578595Y94338540D01*
X216617732Y94437566D01*
X216661020Y94489154D01*
X216751745Y94544892D01*
%TO.C,SW21*%
X232561540Y95109766D02*
X232708004Y95074779D01*
X232945193Y95095531D01*
X233035918Y95151269D01*
X233079206Y95202857D01*
X233118343Y95301883D01*
X233110043Y95396759D01*
X233054304Y95487484D01*
X233002716Y95530772D01*
X232903690Y95569909D01*
X232709788Y95600746D01*
X232610762Y95639883D01*
X232559174Y95683171D01*
X232503436Y95773896D01*
X232495135Y95868772D01*
X232534273Y95967798D01*
X232577560Y96019386D01*
X232668286Y96075124D01*
X232905475Y96095876D01*
X233051939Y96060889D01*
X233379853Y96137378D02*
X233704198Y95161935D01*
X233831696Y95890104D01*
X234083701Y95195137D01*
X234233735Y96212083D01*
X234574100Y96146260D02*
X234617388Y96197848D01*
X234708113Y96253586D01*
X234945302Y96274338D01*
X235044328Y96235200D01*
X235095916Y96191913D01*
X235151655Y96101187D01*
X235159955Y96006312D01*
X235124968Y95859848D01*
X234605517Y95240790D01*
X235222209Y95294744D01*
X236170966Y95377749D02*
X235601712Y95327946D01*
X235886339Y95352848D02*
X235799183Y96349042D01*
X235716758Y96198428D01*
X235630183Y96095252D01*
X235539458Y96039514D01*
%TO.C,SW22*%
X251561540Y96709766D02*
X251708004Y96674779D01*
X251945193Y96695531D01*
X252035918Y96751269D01*
X252079206Y96802857D01*
X252118343Y96901883D01*
X252110043Y96996759D01*
X252054304Y97087484D01*
X252002716Y97130772D01*
X251903690Y97169909D01*
X251709788Y97200746D01*
X251610762Y97239883D01*
X251559174Y97283171D01*
X251503436Y97373896D01*
X251495135Y97468772D01*
X251534273Y97567798D01*
X251577560Y97619386D01*
X251668286Y97675124D01*
X251905475Y97695876D01*
X252051939Y97660889D01*
X252379853Y97737378D02*
X252704198Y96761935D01*
X252831696Y97490104D01*
X253083701Y96795137D01*
X253233735Y97812083D01*
X253574100Y97746260D02*
X253617388Y97797848D01*
X253708113Y97853586D01*
X253945302Y97874338D01*
X254044328Y97835200D01*
X254095916Y97791913D01*
X254151655Y97701187D01*
X254159955Y97606312D01*
X254124968Y97459848D01*
X253605517Y96840790D01*
X254222209Y96894744D01*
X254522857Y97829265D02*
X254566144Y97880853D01*
X254656870Y97936592D01*
X254894059Y97957343D01*
X254993085Y97918206D01*
X255044673Y97874918D01*
X255100411Y97784193D01*
X255108712Y97689317D01*
X255073725Y97542853D01*
X254554274Y96923796D01*
X255170966Y96977749D01*
%TO.C,SW23*%
X273790476Y97995238D02*
X273933333Y97947619D01*
X274171428Y97947619D01*
X274266666Y97995238D01*
X274314285Y98042857D01*
X274361904Y98138095D01*
X274361904Y98233333D01*
X274314285Y98328571D01*
X274266666Y98376190D01*
X274171428Y98423809D01*
X273980952Y98471428D01*
X273885714Y98519047D01*
X273838095Y98566666D01*
X273790476Y98661904D01*
X273790476Y98757142D01*
X273838095Y98852380D01*
X273885714Y98900000D01*
X273980952Y98947619D01*
X274219047Y98947619D01*
X274361904Y98900000D01*
X274695238Y98947619D02*
X274933333Y97947619D01*
X275123809Y98661904D01*
X275314285Y97947619D01*
X275552380Y98947619D01*
X275885714Y98852380D02*
X275933333Y98900000D01*
X276028571Y98947619D01*
X276266666Y98947619D01*
X276361904Y98900000D01*
X276409523Y98852380D01*
X276457142Y98757142D01*
X276457142Y98661904D01*
X276409523Y98519047D01*
X275838095Y97947619D01*
X276457142Y97947619D01*
X276790476Y98947619D02*
X277409523Y98947619D01*
X277076190Y98566666D01*
X277219047Y98566666D01*
X277314285Y98519047D01*
X277361904Y98471428D01*
X277409523Y98376190D01*
X277409523Y98138095D01*
X277361904Y98042857D01*
X277314285Y97995238D01*
X277219047Y97947619D01*
X276933333Y97947619D01*
X276838095Y97995238D01*
X276790476Y98042857D01*
%TO.C,SW24*%
X295290476Y97895238D02*
X295433333Y97847619D01*
X295671428Y97847619D01*
X295766666Y97895238D01*
X295814285Y97942857D01*
X295861904Y98038095D01*
X295861904Y98133333D01*
X295814285Y98228571D01*
X295766666Y98276190D01*
X295671428Y98323809D01*
X295480952Y98371428D01*
X295385714Y98419047D01*
X295338095Y98466666D01*
X295290476Y98561904D01*
X295290476Y98657142D01*
X295338095Y98752380D01*
X295385714Y98800000D01*
X295480952Y98847619D01*
X295719047Y98847619D01*
X295861904Y98800000D01*
X296195238Y98847619D02*
X296433333Y97847619D01*
X296623809Y98561904D01*
X296814285Y97847619D01*
X297052380Y98847619D01*
X297385714Y98752380D02*
X297433333Y98800000D01*
X297528571Y98847619D01*
X297766666Y98847619D01*
X297861904Y98800000D01*
X297909523Y98752380D01*
X297957142Y98657142D01*
X297957142Y98561904D01*
X297909523Y98419047D01*
X297338095Y97847619D01*
X297957142Y97847619D01*
X298814285Y98514285D02*
X298814285Y97847619D01*
X298576190Y98895238D02*
X298338095Y98180952D01*
X298957142Y98180952D01*
%TO.C,SW25*%
X200961540Y73209766D02*
X201108004Y73174779D01*
X201345193Y73195531D01*
X201435918Y73251269D01*
X201479206Y73302857D01*
X201518343Y73401883D01*
X201510043Y73496759D01*
X201454304Y73587484D01*
X201402716Y73630772D01*
X201303690Y73669909D01*
X201109788Y73700746D01*
X201010762Y73739883D01*
X200959174Y73783171D01*
X200903436Y73873896D01*
X200895135Y73968772D01*
X200934273Y74067798D01*
X200977560Y74119386D01*
X201068286Y74175124D01*
X201305475Y74195876D01*
X201451939Y74160889D01*
X201779853Y74237378D02*
X202104198Y73261935D01*
X202231696Y73990104D01*
X202483701Y73295137D01*
X202633735Y74312083D01*
X202974100Y74246260D02*
X203017388Y74297848D01*
X203108113Y74353586D01*
X203345302Y74374338D01*
X203444328Y74335200D01*
X203495916Y74291913D01*
X203551655Y74201187D01*
X203559955Y74106312D01*
X203524968Y73959848D01*
X203005517Y73340790D01*
X203622209Y73394744D01*
X204436373Y74469794D02*
X203961994Y74428291D01*
X203956059Y73949762D01*
X203999347Y74001350D01*
X204090072Y74057089D01*
X204327261Y74077840D01*
X204426287Y74038703D01*
X204477875Y73995415D01*
X204533614Y73904690D01*
X204554365Y73667501D01*
X204515228Y73568475D01*
X204471940Y73516887D01*
X204381215Y73461148D01*
X204144026Y73440397D01*
X204045000Y73479534D01*
X203993411Y73522822D01*
%TO.C,SW26*%
X219961540Y74809766D02*
X220108004Y74774779D01*
X220345193Y74795531D01*
X220435918Y74851269D01*
X220479206Y74902857D01*
X220518343Y75001883D01*
X220510043Y75096759D01*
X220454304Y75187484D01*
X220402716Y75230772D01*
X220303690Y75269909D01*
X220109788Y75300746D01*
X220010762Y75339883D01*
X219959174Y75383171D01*
X219903436Y75473896D01*
X219895135Y75568772D01*
X219934273Y75667798D01*
X219977560Y75719386D01*
X220068286Y75775124D01*
X220305475Y75795876D01*
X220451939Y75760889D01*
X220779853Y75837378D02*
X221104198Y74861935D01*
X221231696Y75590104D01*
X221483701Y74895137D01*
X221633735Y75912083D01*
X221974100Y75846260D02*
X222017388Y75897848D01*
X222108113Y75953586D01*
X222345302Y75974338D01*
X222444328Y75935200D01*
X222495916Y75891913D01*
X222551655Y75801187D01*
X222559955Y75706312D01*
X222524968Y75559848D01*
X222005517Y74940790D01*
X222622209Y74994744D01*
X223388935Y76065644D02*
X223199183Y76049042D01*
X223108458Y75993304D01*
X223065170Y75941716D01*
X222982745Y75791102D01*
X222951909Y75597200D01*
X222985111Y75217697D01*
X223040849Y75126972D01*
X223092437Y75083684D01*
X223191463Y75044547D01*
X223381215Y75061148D01*
X223471940Y75116887D01*
X223515228Y75168475D01*
X223554365Y75267501D01*
X223533614Y75504690D01*
X223477875Y75595415D01*
X223426287Y75638703D01*
X223327261Y75677840D01*
X223137510Y75661239D01*
X223046784Y75605501D01*
X223003497Y75553913D01*
X222964360Y75454887D01*
%TO.C,SW27*%
X238961540Y76509766D02*
X239108004Y76474779D01*
X239345193Y76495531D01*
X239435918Y76551269D01*
X239479206Y76602857D01*
X239518343Y76701883D01*
X239510043Y76796759D01*
X239454304Y76887484D01*
X239402716Y76930772D01*
X239303690Y76969909D01*
X239109788Y77000746D01*
X239010762Y77039883D01*
X238959174Y77083171D01*
X238903436Y77173896D01*
X238895135Y77268772D01*
X238934273Y77367798D01*
X238977560Y77419386D01*
X239068286Y77475124D01*
X239305475Y77495876D01*
X239451939Y77460889D01*
X239779853Y77537378D02*
X240104198Y76561935D01*
X240231696Y77290104D01*
X240483701Y76595137D01*
X240633735Y77612083D01*
X240974100Y77546260D02*
X241017388Y77597848D01*
X241108113Y77653586D01*
X241345302Y77674338D01*
X241444328Y77635200D01*
X241495916Y77591913D01*
X241551655Y77501187D01*
X241559955Y77406312D01*
X241524968Y77259848D01*
X241005517Y76640790D01*
X241622209Y76694744D01*
X241867118Y77719991D02*
X242531248Y77778094D01*
X242191463Y76744547D01*
%TO.C,SW28*%
X257961540Y78209766D02*
X258108004Y78174779D01*
X258345193Y78195531D01*
X258435918Y78251269D01*
X258479206Y78302857D01*
X258518343Y78401883D01*
X258510043Y78496759D01*
X258454304Y78587484D01*
X258402716Y78630772D01*
X258303690Y78669909D01*
X258109788Y78700746D01*
X258010762Y78739883D01*
X257959174Y78783171D01*
X257903436Y78873896D01*
X257895135Y78968772D01*
X257934273Y79067798D01*
X257977560Y79119386D01*
X258068286Y79175124D01*
X258305475Y79195876D01*
X258451939Y79160889D01*
X258779853Y79237378D02*
X259104198Y78261935D01*
X259231696Y78990104D01*
X259483701Y78295137D01*
X259633735Y79312083D01*
X259974100Y79246260D02*
X260017388Y79297848D01*
X260108113Y79353586D01*
X260345302Y79374338D01*
X260444328Y79335200D01*
X260495916Y79291913D01*
X260551655Y79201187D01*
X260559955Y79106312D01*
X260524968Y78959848D01*
X260005517Y78340790D01*
X260622209Y78394744D01*
X261141660Y79013801D02*
X261042634Y79052939D01*
X260991046Y79096226D01*
X260935308Y79186952D01*
X260931157Y79234389D01*
X260970295Y79333415D01*
X261013582Y79385004D01*
X261104308Y79440742D01*
X261294059Y79457343D01*
X261393085Y79418206D01*
X261444673Y79374918D01*
X261500411Y79284193D01*
X261504562Y79236755D01*
X261465424Y79137729D01*
X261422137Y79086141D01*
X261331411Y79030402D01*
X261141660Y79013801D01*
X261050935Y78958063D01*
X261007647Y78906475D01*
X260968510Y78807449D01*
X260985111Y78617697D01*
X261040849Y78526972D01*
X261092437Y78483684D01*
X261191463Y78444547D01*
X261381215Y78461148D01*
X261471940Y78516887D01*
X261515228Y78568475D01*
X261554365Y78667501D01*
X261537764Y78857252D01*
X261482026Y78947978D01*
X261430437Y78991265D01*
X261331411Y79030402D01*
%TO.C,SW29*%
X279590476Y78995238D02*
X279733333Y78947619D01*
X279971428Y78947619D01*
X280066666Y78995238D01*
X280114285Y79042857D01*
X280161904Y79138095D01*
X280161904Y79233333D01*
X280114285Y79328571D01*
X280066666Y79376190D01*
X279971428Y79423809D01*
X279780952Y79471428D01*
X279685714Y79519047D01*
X279638095Y79566666D01*
X279590476Y79661904D01*
X279590476Y79757142D01*
X279638095Y79852380D01*
X279685714Y79900000D01*
X279780952Y79947619D01*
X280019047Y79947619D01*
X280161904Y79900000D01*
X280495238Y79947619D02*
X280733333Y78947619D01*
X280923809Y79661904D01*
X281114285Y78947619D01*
X281352380Y79947619D01*
X281685714Y79852380D02*
X281733333Y79900000D01*
X281828571Y79947619D01*
X282066666Y79947619D01*
X282161904Y79900000D01*
X282209523Y79852380D01*
X282257142Y79757142D01*
X282257142Y79661904D01*
X282209523Y79519047D01*
X281638095Y78947619D01*
X282257142Y78947619D01*
X282733333Y78947619D02*
X282923809Y78947619D01*
X283019047Y78995238D01*
X283066666Y79042857D01*
X283161904Y79185714D01*
X283209523Y79376190D01*
X283209523Y79757142D01*
X283161904Y79852380D01*
X283114285Y79900000D01*
X283019047Y79947619D01*
X282828571Y79947619D01*
X282733333Y79900000D01*
X282685714Y79852380D01*
X282638095Y79757142D01*
X282638095Y79519047D01*
X282685714Y79423809D01*
X282733333Y79376190D01*
X282828571Y79328571D01*
X283019047Y79328571D01*
X283114285Y79376190D01*
X283161904Y79423809D01*
X283209523Y79519047D01*
%TO.C,SW30*%
X300990476Y78995238D02*
X301133333Y78947619D01*
X301371428Y78947619D01*
X301466666Y78995238D01*
X301514285Y79042857D01*
X301561904Y79138095D01*
X301561904Y79233333D01*
X301514285Y79328571D01*
X301466666Y79376190D01*
X301371428Y79423809D01*
X301180952Y79471428D01*
X301085714Y79519047D01*
X301038095Y79566666D01*
X300990476Y79661904D01*
X300990476Y79757142D01*
X301038095Y79852380D01*
X301085714Y79900000D01*
X301180952Y79947619D01*
X301419047Y79947619D01*
X301561904Y79900000D01*
X301895238Y79947619D02*
X302133333Y78947619D01*
X302323809Y79661904D01*
X302514285Y78947619D01*
X302752380Y79947619D01*
X303038095Y79947619D02*
X303657142Y79947619D01*
X303323809Y79566666D01*
X303466666Y79566666D01*
X303561904Y79519047D01*
X303609523Y79471428D01*
X303657142Y79376190D01*
X303657142Y79138095D01*
X303609523Y79042857D01*
X303561904Y78995238D01*
X303466666Y78947619D01*
X303180952Y78947619D01*
X303085714Y78995238D01*
X303038095Y79042857D01*
X304276190Y79947619D02*
X304371428Y79947619D01*
X304466666Y79900000D01*
X304514285Y79852380D01*
X304561904Y79757142D01*
X304609523Y79566666D01*
X304609523Y79328571D01*
X304561904Y79138095D01*
X304514285Y79042857D01*
X304466666Y78995238D01*
X304371428Y78947619D01*
X304276190Y78947619D01*
X304180952Y78995238D01*
X304133333Y79042857D01*
X304085714Y79138095D01*
X304038095Y79328571D01*
X304038095Y79566666D01*
X304085714Y79757142D01*
X304133333Y79852380D01*
X304180952Y79900000D01*
X304276190Y79947619D01*
%TO.C,SW31*%
X188361540Y53009766D02*
X188508004Y52974779D01*
X188745193Y52995531D01*
X188835918Y53051269D01*
X188879206Y53102857D01*
X188918343Y53201883D01*
X188910043Y53296759D01*
X188854304Y53387484D01*
X188802716Y53430772D01*
X188703690Y53469909D01*
X188509788Y53500746D01*
X188410762Y53539883D01*
X188359174Y53583171D01*
X188303436Y53673896D01*
X188295135Y53768772D01*
X188334273Y53867798D01*
X188377560Y53919386D01*
X188468286Y53975124D01*
X188705475Y53995876D01*
X188851939Y53960889D01*
X189179853Y54037378D02*
X189504198Y53061935D01*
X189631696Y53790104D01*
X189883701Y53095137D01*
X190033735Y54112083D01*
X190318362Y54136985D02*
X190935054Y54190939D01*
X190636191Y53782384D01*
X190778504Y53794835D01*
X190877530Y53755697D01*
X190929118Y53712410D01*
X190984857Y53621685D01*
X191005608Y53384495D01*
X190966471Y53285469D01*
X190923183Y53233881D01*
X190832458Y53178143D01*
X190547831Y53153241D01*
X190448805Y53192378D01*
X190397217Y53235666D01*
X191970966Y53277749D02*
X191401712Y53227946D01*
X191686339Y53252848D02*
X191599183Y54249042D01*
X191516758Y54098428D01*
X191430183Y53995252D01*
X191339458Y53939514D01*
%TO.C,SW32*%
X207461540Y54609766D02*
X207608004Y54574779D01*
X207845193Y54595531D01*
X207935918Y54651269D01*
X207979206Y54702857D01*
X208018343Y54801883D01*
X208010043Y54896759D01*
X207954304Y54987484D01*
X207902716Y55030772D01*
X207803690Y55069909D01*
X207609788Y55100746D01*
X207510762Y55139883D01*
X207459174Y55183171D01*
X207403436Y55273896D01*
X207395135Y55368772D01*
X207434273Y55467798D01*
X207477560Y55519386D01*
X207568286Y55575124D01*
X207805475Y55595876D01*
X207951939Y55560889D01*
X208279853Y55637378D02*
X208604198Y54661935D01*
X208731696Y55390104D01*
X208983701Y54695137D01*
X209133735Y55712083D01*
X209418362Y55736985D02*
X210035054Y55790939D01*
X209736191Y55382384D01*
X209878504Y55394835D01*
X209977530Y55355697D01*
X210029118Y55312410D01*
X210084857Y55221685D01*
X210105608Y54984495D01*
X210066471Y54885469D01*
X210023183Y54833881D01*
X209932458Y54778143D01*
X209647831Y54753241D01*
X209548805Y54792378D01*
X209497217Y54835666D01*
X210422857Y55729265D02*
X210466144Y55780853D01*
X210556870Y55836592D01*
X210794059Y55857343D01*
X210893085Y55818206D01*
X210944673Y55774918D01*
X211000411Y55684193D01*
X211008712Y55589317D01*
X210973725Y55442853D01*
X210454274Y54823796D01*
X211070966Y54877749D01*
%TO.C,SW33*%
X226361540Y56309766D02*
X226508004Y56274779D01*
X226745193Y56295531D01*
X226835918Y56351269D01*
X226879206Y56402857D01*
X226918343Y56501883D01*
X226910043Y56596759D01*
X226854304Y56687484D01*
X226802716Y56730772D01*
X226703690Y56769909D01*
X226509788Y56800746D01*
X226410762Y56839883D01*
X226359174Y56883171D01*
X226303436Y56973896D01*
X226295135Y57068772D01*
X226334273Y57167798D01*
X226377560Y57219386D01*
X226468286Y57275124D01*
X226705475Y57295876D01*
X226851939Y57260889D01*
X227179853Y57337378D02*
X227504198Y56361935D01*
X227631696Y57090104D01*
X227883701Y56395137D01*
X228033735Y57412083D01*
X228318362Y57436985D02*
X228935054Y57490939D01*
X228636191Y57082384D01*
X228778504Y57094835D01*
X228877530Y57055697D01*
X228929118Y57012410D01*
X228984857Y56921685D01*
X229005608Y56684495D01*
X228966471Y56585469D01*
X228923183Y56533881D01*
X228832458Y56478143D01*
X228547831Y56453241D01*
X228448805Y56492378D01*
X228397217Y56535666D01*
X229267118Y57519991D02*
X229883810Y57573944D01*
X229584948Y57165389D01*
X229727261Y57177840D01*
X229826287Y57138703D01*
X229877875Y57095415D01*
X229933614Y57004690D01*
X229954365Y56767501D01*
X229915228Y56668475D01*
X229871940Y56616887D01*
X229781215Y56561148D01*
X229496588Y56536247D01*
X229397562Y56575384D01*
X229345974Y56618672D01*
%TO.C,SW34*%
X245361540Y58009766D02*
X245508004Y57974779D01*
X245745193Y57995531D01*
X245835918Y58051269D01*
X245879206Y58102857D01*
X245918343Y58201883D01*
X245910043Y58296759D01*
X245854304Y58387484D01*
X245802716Y58430772D01*
X245703690Y58469909D01*
X245509788Y58500746D01*
X245410762Y58539883D01*
X245359174Y58583171D01*
X245303436Y58673896D01*
X245295135Y58768772D01*
X245334273Y58867798D01*
X245377560Y58919386D01*
X245468286Y58975124D01*
X245705475Y58995876D01*
X245851939Y58960889D01*
X246179853Y59037378D02*
X246504198Y58061935D01*
X246631696Y58790104D01*
X246883701Y58095137D01*
X247033735Y59112083D01*
X247318362Y59136985D02*
X247935054Y59190939D01*
X247636191Y58782384D01*
X247778504Y58794835D01*
X247877530Y58755697D01*
X247929118Y58712410D01*
X247984857Y58621685D01*
X248005608Y58384495D01*
X247966471Y58285469D01*
X247923183Y58233881D01*
X247832458Y58178143D01*
X247547831Y58153241D01*
X247448805Y58192378D01*
X247397217Y58235666D01*
X248817987Y58933579D02*
X248876090Y58269449D01*
X248547595Y59292330D02*
X248372660Y58560011D01*
X248989352Y58613965D01*
%TO.C,SW35*%
X269090476Y58995238D02*
X269233333Y58947619D01*
X269471428Y58947619D01*
X269566666Y58995238D01*
X269614285Y59042857D01*
X269661904Y59138095D01*
X269661904Y59233333D01*
X269614285Y59328571D01*
X269566666Y59376190D01*
X269471428Y59423809D01*
X269280952Y59471428D01*
X269185714Y59519047D01*
X269138095Y59566666D01*
X269090476Y59661904D01*
X269090476Y59757142D01*
X269138095Y59852380D01*
X269185714Y59900000D01*
X269280952Y59947619D01*
X269519047Y59947619D01*
X269661904Y59900000D01*
X269995238Y59947619D02*
X270233333Y58947619D01*
X270423809Y59661904D01*
X270614285Y58947619D01*
X270852380Y59947619D01*
X271138095Y59947619D02*
X271757142Y59947619D01*
X271423809Y59566666D01*
X271566666Y59566666D01*
X271661904Y59519047D01*
X271709523Y59471428D01*
X271757142Y59376190D01*
X271757142Y59138095D01*
X271709523Y59042857D01*
X271661904Y58995238D01*
X271566666Y58947619D01*
X271280952Y58947619D01*
X271185714Y58995238D01*
X271138095Y59042857D01*
X272661904Y59947619D02*
X272185714Y59947619D01*
X272138095Y59471428D01*
X272185714Y59519047D01*
X272280952Y59566666D01*
X272519047Y59566666D01*
X272614285Y59519047D01*
X272661904Y59471428D01*
X272709523Y59376190D01*
X272709523Y59138095D01*
X272661904Y59042857D01*
X272614285Y58995238D01*
X272519047Y58947619D01*
X272280952Y58947619D01*
X272185714Y58995238D01*
X272138095Y59042857D01*
%TO.C,SW36*%
X295290476Y58895238D02*
X295433333Y58847619D01*
X295671428Y58847619D01*
X295766666Y58895238D01*
X295814285Y58942857D01*
X295861904Y59038095D01*
X295861904Y59133333D01*
X295814285Y59228571D01*
X295766666Y59276190D01*
X295671428Y59323809D01*
X295480952Y59371428D01*
X295385714Y59419047D01*
X295338095Y59466666D01*
X295290476Y59561904D01*
X295290476Y59657142D01*
X295338095Y59752380D01*
X295385714Y59800000D01*
X295480952Y59847619D01*
X295719047Y59847619D01*
X295861904Y59800000D01*
X296195238Y59847619D02*
X296433333Y58847619D01*
X296623809Y59561904D01*
X296814285Y58847619D01*
X297052380Y59847619D01*
X297338095Y59847619D02*
X297957142Y59847619D01*
X297623809Y59466666D01*
X297766666Y59466666D01*
X297861904Y59419047D01*
X297909523Y59371428D01*
X297957142Y59276190D01*
X297957142Y59038095D01*
X297909523Y58942857D01*
X297861904Y58895238D01*
X297766666Y58847619D01*
X297480952Y58847619D01*
X297385714Y58895238D01*
X297338095Y58942857D01*
X298814285Y59847619D02*
X298623809Y59847619D01*
X298528571Y59800000D01*
X298480952Y59752380D01*
X298385714Y59609523D01*
X298338095Y59419047D01*
X298338095Y59038095D01*
X298385714Y58942857D01*
X298433333Y58895238D01*
X298528571Y58847619D01*
X298719047Y58847619D01*
X298814285Y58895238D01*
X298861904Y58942857D01*
X298909523Y59038095D01*
X298909523Y59276190D01*
X298861904Y59371428D01*
X298814285Y59419047D01*
X298719047Y59466666D01*
X298528571Y59466666D01*
X298433333Y59419047D01*
X298385714Y59371428D01*
X298338095Y59276190D01*
%TD*%
M02*
