M48
; DRILL file {KiCad (5.1.6-0-10_14)} date Wednesday, August 12, 2020 at 10:04:19 PM
; FORMAT={-:-/ absolute / metric / decimal}
; #@! TF.CreationDate,2020-08-12T22:04:19+09:00
; #@! TF.GenerationSoftware,Kicad,Pcbnew,(5.1.6-0-10_14)
; #@! TF.FileFunction,NonPlated,1,2,NPTH
FMAT,2
METRIC
T1C1.700
T2C2.200
T3C4.000
%
G90
G05
T1
X101.139Y71.543
X111.261Y70.657
X297.72Y71.7
X307.88Y71.7
X125.139Y50.343
X135.261Y49.457
X191.939Y84.157
X202.061Y85.043
X106.139Y52.043
X116.261Y51.157
X210.939Y85.757
X221.061Y86.643
X136.039Y87.543
X146.161Y86.657
X255.339Y70.657
X265.461Y71.543
X98.139Y90.943
X108.261Y90.057
X158.039Y66.643
X168.161Y65.757
X248.939Y89.157
X259.061Y90.043
X139.139Y68.243
X149.261Y67.357
X55.32Y90.7
X65.48Y90.7
X204.839Y47.057
X214.961Y47.943
X292.02Y51.6
X302.18Y51.6
X185.739Y45.457
X195.861Y46.343
X144.139Y48.743
X154.261Y47.857
X120.139Y69.843
X130.261Y68.957
X270.52Y90.7
X280.68Y90.7
X229.939Y87.557
X240.061Y88.443
X292.02Y90.6
X302.18Y90.6
X155.039Y86.043
X165.161Y85.157
X217.339Y67.257
X227.461Y68.143
X242.739Y50.457
X252.861Y51.343
X276.32Y71.7
X286.48Y71.7
X75.32Y90.7
X85.48Y90.7
X163.139Y47.043
X173.261Y46.157
X55.72Y71.6
X65.88Y71.6
X117.139Y89.143
X127.261Y88.257
X84.82Y52.6
X94.98Y52.6
X223.739Y48.757
X233.861Y49.643
X198.339Y65.657
X208.461Y66.543
X58.62Y52.6
X68.78Y52.6
X236.339Y68.957
X246.461Y69.843
X265.82Y51.7
X275.98Y51.7
X80.02Y71.6
X90.18Y71.6
T2
X310.0Y45.0
X51.0Y100.0
X310.0Y100.0
X179.4Y35.25
X51.0Y45.0
X159.0Y100.0
X198.725Y100.0
T3
X297.1Y90.6
X160.1Y85.6
X222.4Y67.7
X247.8Y50.9
X281.4Y71.7
X80.4Y90.7
X168.2Y46.6
X60.8Y71.6
X122.2Y88.7
X89.9Y52.6
X228.8Y49.2
X203.4Y66.1
X63.7Y52.6
X241.4Y69.4
X270.9Y51.7
X85.1Y71.6
X106.2Y71.1
X302.8Y71.7
X130.2Y49.9
X197.0Y84.6
X111.2Y51.6
X216.0Y86.2
X141.1Y87.1
X260.4Y71.1
X103.2Y90.5
X163.1Y66.2
X254.0Y89.6
X144.2Y67.8
X60.4Y90.7
X209.9Y47.5
X297.1Y51.6
X190.8Y45.9
X149.2Y48.3
X125.2Y69.4
X275.6Y90.7
X235.0Y88.0
T0
M30
