M48
; DRILL file {KiCad (5.1.6-0-10_14)} date Wednesday, August 12, 2020 at 10:04:19 PM
; FORMAT={-:-/ absolute / metric / decimal}
; #@! TF.CreationDate,2020-08-12T22:04:19+09:00
; #@! TF.GenerationSoftware,Kicad,Pcbnew,(5.1.6-0-10_14)
; #@! TF.FileFunction,Plated,1,2,PTH
FMAT,2
METRIC
T1C0.400
T2C0.813
T3C1.300
T4C1.500
%
G90
G05
T1
X184.5Y43.575
X201.5Y50.7
X206.227Y54.127
T2
X176.718Y44.579
X177.382Y52.171
X217.673Y54.627
X218.337Y47.036
X198.518Y53.046
X199.182Y45.454
X255.618Y57.221
X256.282Y49.629
X279.45Y57.81
X279.45Y50.19
X198.129Y57.143
X205.721Y57.807
X149.518Y83.754
X150.182Y91.346
X157.154Y77.482
X164.746Y76.818
X64.29Y63.2
X71.91Y63.2
X69.2Y95.635
X69.2Y88.015
X89.275Y95.785
X89.275Y88.165
X111.843Y87.029
X112.507Y94.621
X269.49Y82.55
X277.11Y82.55
X191.873Y75.998
X199.464Y76.662
X275.04Y63.475
X282.66Y63.475
X290.64Y82.55
X298.26Y82.55
X296.215Y63.25
X303.835Y63.25
X255.104Y62.143
X262.696Y62.807
X157.743Y46.879
X158.407Y54.471
X130.668Y85.404
X131.332Y92.996
X236.518Y56.246
X237.182Y48.654
X216.948Y59.123
X224.539Y59.787
X90.565Y63.025
X98.185Y63.025
X210.854Y77.618
X218.446Y78.282
X171.289Y97.978
X171.289Y95.438
X171.289Y92.898
X171.289Y90.358
X171.289Y87.818
X171.289Y85.278
X171.289Y82.738
X171.289Y80.198
X171.289Y77.658
X171.289Y75.118
X171.289Y72.578
X171.289Y70.038
X186.509Y97.978
X186.509Y95.438
X186.509Y92.898
X186.509Y90.358
X186.509Y87.818
X186.509Y85.278
X186.509Y82.738
X186.509Y80.198
X186.509Y77.658
X186.509Y75.118
X186.509Y72.578
X186.509Y70.038
X106.479Y62.382
X114.071Y61.718
X129.779Y60.582
X137.371Y59.918
X148.129Y58.907
X155.721Y58.243
X170.204Y57.207
X177.796Y56.543
X72.325Y59.06
X72.325Y51.44
X98.575Y58.76
X98.575Y51.14
X119.618Y49.604
X120.282Y57.196
X138.668Y47.929
X139.332Y55.521
X230.004Y79.143
X237.596Y79.807
X249.429Y81.043
X257.021Y81.707
X305.575Y57.81
X305.575Y50.19
X235.898Y60.748
X243.489Y61.412
T3
X191.825Y102.775
X191.825Y96.275
T4
X224.783Y51.398
X230.888Y54.482
X199.383Y68.298
X205.488Y71.382
X59.89Y55.14
X66.24Y57.68
X237.383Y71.598
X243.488Y74.682
X267.09Y54.24
X273.44Y56.78
X81.29Y74.14
X87.64Y76.68
X102.626Y73.962
X109.173Y75.939
X298.99Y74.24
X305.34Y76.78
X126.626Y52.762
X133.173Y54.739
X192.983Y86.798
X199.088Y89.882
X107.626Y54.462
X114.173Y56.439
X211.983Y88.398
X218.088Y91.482
X137.526Y89.962
X144.073Y91.939
X256.383Y73.298
X262.488Y76.382
X99.626Y93.362
X106.173Y95.339
X159.526Y69.062
X166.073Y71.039
X249.983Y91.798
X256.088Y94.882
X140.626Y70.662
X147.173Y72.639
X56.59Y93.24
X62.94Y95.78
X205.883Y49.698
X211.988Y52.782
X293.29Y54.14
X299.64Y56.68
X186.783Y48.098
X192.888Y51.182
X145.626Y51.162
X152.173Y53.139
X121.626Y72.262
X128.173Y74.239
X271.79Y93.24
X278.14Y95.78
X230.983Y90.198
X237.088Y93.282
X293.29Y93.14
X299.64Y95.68
X156.526Y88.462
X163.073Y90.439
X218.383Y69.898
X224.488Y72.982
X243.783Y53.098
X249.888Y56.182
X277.59Y74.24
X283.94Y76.78
X76.59Y93.24
X82.94Y95.78
X164.626Y49.462
X171.173Y51.439
X56.99Y74.14
X63.34Y76.68
X118.626Y91.562
X125.173Y93.539
X86.09Y55.14
X92.44Y57.68
T0
M30
