%TF.GenerationSoftware,KiCad,Pcbnew,(5.1.6-0-10_14)*%
%TF.CreationDate,2020-09-01T22:17:50+09:00*%
%TF.ProjectId,cool836,636f6f6c-3833-4362-9e6b-696361645f70,rev?*%
%TF.SameCoordinates,Original*%
%TF.FileFunction,Legend,Top*%
%TF.FilePolarity,Positive*%
%FSLAX46Y46*%
G04 Gerber Fmt 4.6, Leading zero omitted, Abs format (unit mm)*
G04 Created by KiCad (PCBNEW (5.1.6-0-10_14)) date 2020-09-01 22:17:50*
%MOMM*%
%LPD*%
G01*
G04 APERTURE LIST*
%ADD10C,0.075000*%
%ADD11C,0.100000*%
%ADD12C,0.300000*%
%ADD13C,0.150000*%
%ADD14C,0.120000*%
G04 APERTURE END LIST*
D10*
X316844047Y161378571D02*
X316844047Y161683333D01*
X316786904Y161950000D02*
X316805952Y161911904D01*
X316805952Y161835714D01*
X316786904Y161797619D01*
X316767857Y161778571D01*
X316729761Y161759523D01*
X316615476Y161759523D01*
X316577380Y161778571D01*
X316558333Y161797619D01*
X316539285Y161835714D01*
X316539285Y161911904D01*
X316558333Y161950000D01*
X316539285Y162292857D02*
X316805952Y162292857D01*
X316539285Y162121428D02*
X316748809Y162121428D01*
X316786904Y162140476D01*
X316805952Y162178571D01*
X316805952Y162235714D01*
X316786904Y162273809D01*
X316767857Y162292857D01*
X316539285Y162426190D02*
X316539285Y162578571D01*
X316405952Y162483333D02*
X316748809Y162483333D01*
X316786904Y162502380D01*
X316805952Y162540476D01*
X316805952Y162578571D01*
X316844047Y162616666D02*
X316844047Y162921428D01*
X313805952Y162921428D02*
X313805952Y162616666D01*
X313863095Y162350000D02*
X313844047Y162388095D01*
X313844047Y162464285D01*
X313863095Y162502380D01*
X313882142Y162521428D01*
X313920238Y162540476D01*
X314034523Y162540476D01*
X314072619Y162521428D01*
X314091666Y162502380D01*
X314110714Y162464285D01*
X314110714Y162388095D01*
X314091666Y162350000D01*
X314110714Y162007142D02*
X313844047Y162007142D01*
X314110714Y162178571D02*
X313901190Y162178571D01*
X313863095Y162159523D01*
X313844047Y162121428D01*
X313844047Y162064285D01*
X313863095Y162026190D01*
X313882142Y162007142D01*
X314110714Y161873809D02*
X314110714Y161721428D01*
X314244047Y161816666D02*
X313901190Y161816666D01*
X313863095Y161797619D01*
X313844047Y161759523D01*
X313844047Y161721428D01*
X313805952Y161683333D02*
X313805952Y161378571D01*
X313780952Y109921428D02*
X313780952Y109616666D01*
X313838095Y109350000D02*
X313819047Y109388095D01*
X313819047Y109464285D01*
X313838095Y109502380D01*
X313857142Y109521428D01*
X313895238Y109540476D01*
X314009523Y109540476D01*
X314047619Y109521428D01*
X314066666Y109502380D01*
X314085714Y109464285D01*
X314085714Y109388095D01*
X314066666Y109350000D01*
X314085714Y109007142D02*
X313819047Y109007142D01*
X314085714Y109178571D02*
X313876190Y109178571D01*
X313838095Y109159523D01*
X313819047Y109121428D01*
X313819047Y109064285D01*
X313838095Y109026190D01*
X313857142Y109007142D01*
X314085714Y108873809D02*
X314085714Y108721428D01*
X314219047Y108816666D02*
X313876190Y108816666D01*
X313838095Y108797619D01*
X313819047Y108759523D01*
X313819047Y108721428D01*
X313780952Y108683333D02*
X313780952Y108378571D01*
X316894047Y108378571D02*
X316894047Y108683333D01*
X316836904Y108950000D02*
X316855952Y108911904D01*
X316855952Y108835714D01*
X316836904Y108797619D01*
X316817857Y108778571D01*
X316779761Y108759523D01*
X316665476Y108759523D01*
X316627380Y108778571D01*
X316608333Y108797619D01*
X316589285Y108835714D01*
X316589285Y108911904D01*
X316608333Y108950000D01*
X316589285Y109292857D02*
X316855952Y109292857D01*
X316589285Y109121428D02*
X316798809Y109121428D01*
X316836904Y109140476D01*
X316855952Y109178571D01*
X316855952Y109235714D01*
X316836904Y109273809D01*
X316817857Y109292857D01*
X316589285Y109426190D02*
X316589285Y109578571D01*
X316455952Y109483333D02*
X316798809Y109483333D01*
X316836904Y109502380D01*
X316855952Y109540476D01*
X316855952Y109578571D01*
X316894047Y109616666D02*
X316894047Y109921428D01*
X316869047Y85378571D02*
X316869047Y85683333D01*
X316811904Y85950000D02*
X316830952Y85911904D01*
X316830952Y85835714D01*
X316811904Y85797619D01*
X316792857Y85778571D01*
X316754761Y85759523D01*
X316640476Y85759523D01*
X316602380Y85778571D01*
X316583333Y85797619D01*
X316564285Y85835714D01*
X316564285Y85911904D01*
X316583333Y85950000D01*
X316564285Y86292857D02*
X316830952Y86292857D01*
X316564285Y86121428D02*
X316773809Y86121428D01*
X316811904Y86140476D01*
X316830952Y86178571D01*
X316830952Y86235714D01*
X316811904Y86273809D01*
X316792857Y86292857D01*
X316564285Y86426190D02*
X316564285Y86578571D01*
X316430952Y86483333D02*
X316773809Y86483333D01*
X316811904Y86502380D01*
X316830952Y86540476D01*
X316830952Y86578571D01*
X316869047Y86616666D02*
X316869047Y86921428D01*
X314030952Y86946428D02*
X314030952Y86641666D01*
X314088095Y86375000D02*
X314069047Y86413095D01*
X314069047Y86489285D01*
X314088095Y86527380D01*
X314107142Y86546428D01*
X314145238Y86565476D01*
X314259523Y86565476D01*
X314297619Y86546428D01*
X314316666Y86527380D01*
X314335714Y86489285D01*
X314335714Y86413095D01*
X314316666Y86375000D01*
X314335714Y86032142D02*
X314069047Y86032142D01*
X314335714Y86203571D02*
X314126190Y86203571D01*
X314088095Y86184523D01*
X314069047Y86146428D01*
X314069047Y86089285D01*
X314088095Y86051190D01*
X314107142Y86032142D01*
X314335714Y85898809D02*
X314335714Y85746428D01*
X314469047Y85841666D02*
X314126190Y85841666D01*
X314088095Y85822619D01*
X314069047Y85784523D01*
X314069047Y85746428D01*
X314030952Y85708333D02*
X314030952Y85403571D01*
X314080952Y35771428D02*
X314080952Y35466666D01*
X314138095Y35200000D02*
X314119047Y35238095D01*
X314119047Y35314285D01*
X314138095Y35352380D01*
X314157142Y35371428D01*
X314195238Y35390476D01*
X314309523Y35390476D01*
X314347619Y35371428D01*
X314366666Y35352380D01*
X314385714Y35314285D01*
X314385714Y35238095D01*
X314366666Y35200000D01*
X314385714Y34857142D02*
X314119047Y34857142D01*
X314385714Y35028571D02*
X314176190Y35028571D01*
X314138095Y35009523D01*
X314119047Y34971428D01*
X314119047Y34914285D01*
X314138095Y34876190D01*
X314157142Y34857142D01*
X314385714Y34723809D02*
X314385714Y34571428D01*
X314519047Y34666666D02*
X314176190Y34666666D01*
X314138095Y34647619D01*
X314119047Y34609523D01*
X314119047Y34571428D01*
X314080952Y34533333D02*
X314080952Y34228571D01*
X316894047Y34228571D02*
X316894047Y34533333D01*
X316836904Y34800000D02*
X316855952Y34761904D01*
X316855952Y34685714D01*
X316836904Y34647619D01*
X316817857Y34628571D01*
X316779761Y34609523D01*
X316665476Y34609523D01*
X316627380Y34628571D01*
X316608333Y34647619D01*
X316589285Y34685714D01*
X316589285Y34761904D01*
X316608333Y34800000D01*
X316589285Y35142857D02*
X316855952Y35142857D01*
X316589285Y34971428D02*
X316798809Y34971428D01*
X316836904Y34990476D01*
X316855952Y35028571D01*
X316855952Y35085714D01*
X316836904Y35123809D01*
X316817857Y35142857D01*
X316589285Y35276190D02*
X316589285Y35428571D01*
X316455952Y35333333D02*
X316798809Y35333333D01*
X316836904Y35352380D01*
X316855952Y35390476D01*
X316855952Y35428571D01*
X316894047Y35466666D02*
X316894047Y35771428D01*
X316844047Y3203571D02*
X316844047Y3508333D01*
X316786904Y3775000D02*
X316805952Y3736904D01*
X316805952Y3660714D01*
X316786904Y3622619D01*
X316767857Y3603571D01*
X316729761Y3584523D01*
X316615476Y3584523D01*
X316577380Y3603571D01*
X316558333Y3622619D01*
X316539285Y3660714D01*
X316539285Y3736904D01*
X316558333Y3775000D01*
X316539285Y4117857D02*
X316805952Y4117857D01*
X316539285Y3946428D02*
X316748809Y3946428D01*
X316786904Y3965476D01*
X316805952Y4003571D01*
X316805952Y4060714D01*
X316786904Y4098809D01*
X316767857Y4117857D01*
X316539285Y4251190D02*
X316539285Y4403571D01*
X316405952Y4308333D02*
X316748809Y4308333D01*
X316786904Y4327380D01*
X316805952Y4365476D01*
X316805952Y4403571D01*
X316844047Y4441666D02*
X316844047Y4746428D01*
X314280952Y4771428D02*
X314280952Y4466666D01*
X314338095Y4200000D02*
X314319047Y4238095D01*
X314319047Y4314285D01*
X314338095Y4352380D01*
X314357142Y4371428D01*
X314395238Y4390476D01*
X314509523Y4390476D01*
X314547619Y4371428D01*
X314566666Y4352380D01*
X314585714Y4314285D01*
X314585714Y4238095D01*
X314566666Y4200000D01*
X314585714Y3857142D02*
X314319047Y3857142D01*
X314585714Y4028571D02*
X314376190Y4028571D01*
X314338095Y4009523D01*
X314319047Y3971428D01*
X314319047Y3914285D01*
X314338095Y3876190D01*
X314357142Y3857142D01*
X314585714Y3723809D02*
X314585714Y3571428D01*
X314719047Y3666666D02*
X314376190Y3666666D01*
X314338095Y3647619D01*
X314319047Y3609523D01*
X314319047Y3571428D01*
X314280952Y3533333D02*
X314280952Y3228571D01*
X314305952Y-48603571D02*
X314305952Y-48908333D01*
X314363095Y-49175000D02*
X314344047Y-49136904D01*
X314344047Y-49060714D01*
X314363095Y-49022619D01*
X314382142Y-49003571D01*
X314420238Y-48984523D01*
X314534523Y-48984523D01*
X314572619Y-49003571D01*
X314591666Y-49022619D01*
X314610714Y-49060714D01*
X314610714Y-49136904D01*
X314591666Y-49175000D01*
X314610714Y-49517857D02*
X314344047Y-49517857D01*
X314610714Y-49346428D02*
X314401190Y-49346428D01*
X314363095Y-49365476D01*
X314344047Y-49403571D01*
X314344047Y-49460714D01*
X314363095Y-49498809D01*
X314382142Y-49517857D01*
X314610714Y-49651190D02*
X314610714Y-49803571D01*
X314744047Y-49708333D02*
X314401190Y-49708333D01*
X314363095Y-49727380D01*
X314344047Y-49765476D01*
X314344047Y-49803571D01*
X314305952Y-49841666D02*
X314305952Y-50146428D01*
X316869047Y-50096428D02*
X316869047Y-49791666D01*
X316811904Y-49525000D02*
X316830952Y-49563095D01*
X316830952Y-49639285D01*
X316811904Y-49677380D01*
X316792857Y-49696428D01*
X316754761Y-49715476D01*
X316640476Y-49715476D01*
X316602380Y-49696428D01*
X316583333Y-49677380D01*
X316564285Y-49639285D01*
X316564285Y-49563095D01*
X316583333Y-49525000D01*
X316564285Y-49182142D02*
X316830952Y-49182142D01*
X316564285Y-49353571D02*
X316773809Y-49353571D01*
X316811904Y-49334523D01*
X316830952Y-49296428D01*
X316830952Y-49239285D01*
X316811904Y-49201190D01*
X316792857Y-49182142D01*
X316564285Y-49048809D02*
X316564285Y-48896428D01*
X316430952Y-48991666D02*
X316773809Y-48991666D01*
X316811904Y-48972619D01*
X316830952Y-48934523D01*
X316830952Y-48896428D01*
X316869047Y-48858333D02*
X316869047Y-48553571D01*
X316969047Y-68571428D02*
X316969047Y-68266666D01*
X316911904Y-68000000D02*
X316930952Y-68038095D01*
X316930952Y-68114285D01*
X316911904Y-68152380D01*
X316892857Y-68171428D01*
X316854761Y-68190476D01*
X316740476Y-68190476D01*
X316702380Y-68171428D01*
X316683333Y-68152380D01*
X316664285Y-68114285D01*
X316664285Y-68038095D01*
X316683333Y-68000000D01*
X316664285Y-67657142D02*
X316930952Y-67657142D01*
X316664285Y-67828571D02*
X316873809Y-67828571D01*
X316911904Y-67809523D01*
X316930952Y-67771428D01*
X316930952Y-67714285D01*
X316911904Y-67676190D01*
X316892857Y-67657142D01*
X316664285Y-67523809D02*
X316664285Y-67371428D01*
X316530952Y-67466666D02*
X316873809Y-67466666D01*
X316911904Y-67447619D01*
X316930952Y-67409523D01*
X316930952Y-67371428D01*
X316969047Y-67333333D02*
X316969047Y-67028571D01*
X314580952Y-67028571D02*
X314580952Y-67333333D01*
X314638095Y-67600000D02*
X314619047Y-67561904D01*
X314619047Y-67485714D01*
X314638095Y-67447619D01*
X314657142Y-67428571D01*
X314695238Y-67409523D01*
X314809523Y-67409523D01*
X314847619Y-67428571D01*
X314866666Y-67447619D01*
X314885714Y-67485714D01*
X314885714Y-67561904D01*
X314866666Y-67600000D01*
X314885714Y-67942857D02*
X314619047Y-67942857D01*
X314885714Y-67771428D02*
X314676190Y-67771428D01*
X314638095Y-67790476D01*
X314619047Y-67828571D01*
X314619047Y-67885714D01*
X314638095Y-67923809D01*
X314657142Y-67942857D01*
X314885714Y-68076190D02*
X314885714Y-68228571D01*
X315019047Y-68133333D02*
X314676190Y-68133333D01*
X314638095Y-68152380D01*
X314619047Y-68190476D01*
X314619047Y-68228571D01*
X314580952Y-68266666D02*
X314580952Y-68571428D01*
X314630952Y-61753571D02*
X314630952Y-62058333D01*
X314688095Y-62325000D02*
X314669047Y-62286904D01*
X314669047Y-62210714D01*
X314688095Y-62172619D01*
X314707142Y-62153571D01*
X314745238Y-62134523D01*
X314859523Y-62134523D01*
X314897619Y-62153571D01*
X314916666Y-62172619D01*
X314935714Y-62210714D01*
X314935714Y-62286904D01*
X314916666Y-62325000D01*
X314935714Y-62667857D02*
X314669047Y-62667857D01*
X314935714Y-62496428D02*
X314726190Y-62496428D01*
X314688095Y-62515476D01*
X314669047Y-62553571D01*
X314669047Y-62610714D01*
X314688095Y-62648809D01*
X314707142Y-62667857D01*
X314935714Y-62801190D02*
X314935714Y-62953571D01*
X315069047Y-62858333D02*
X314726190Y-62858333D01*
X314688095Y-62877380D01*
X314669047Y-62915476D01*
X314669047Y-62953571D01*
X314630952Y-62991666D02*
X314630952Y-63296428D01*
X316969047Y-63321428D02*
X316969047Y-63016666D01*
X316911904Y-62750000D02*
X316930952Y-62788095D01*
X316930952Y-62864285D01*
X316911904Y-62902380D01*
X316892857Y-62921428D01*
X316854761Y-62940476D01*
X316740476Y-62940476D01*
X316702380Y-62921428D01*
X316683333Y-62902380D01*
X316664285Y-62864285D01*
X316664285Y-62788095D01*
X316683333Y-62750000D01*
X316664285Y-62407142D02*
X316930952Y-62407142D01*
X316664285Y-62578571D02*
X316873809Y-62578571D01*
X316911904Y-62559523D01*
X316930952Y-62521428D01*
X316930952Y-62464285D01*
X316911904Y-62426190D01*
X316892857Y-62407142D01*
X316664285Y-62273809D02*
X316664285Y-62121428D01*
X316530952Y-62216666D02*
X316873809Y-62216666D01*
X316911904Y-62197619D01*
X316930952Y-62159523D01*
X316930952Y-62121428D01*
X316969047Y-62083333D02*
X316969047Y-61778571D01*
X316969047Y-87171428D02*
X316969047Y-86866666D01*
X316911904Y-86600000D02*
X316930952Y-86638095D01*
X316930952Y-86714285D01*
X316911904Y-86752380D01*
X316892857Y-86771428D01*
X316854761Y-86790476D01*
X316740476Y-86790476D01*
X316702380Y-86771428D01*
X316683333Y-86752380D01*
X316664285Y-86714285D01*
X316664285Y-86638095D01*
X316683333Y-86600000D01*
X316664285Y-86257142D02*
X316930952Y-86257142D01*
X316664285Y-86428571D02*
X316873809Y-86428571D01*
X316911904Y-86409523D01*
X316930952Y-86371428D01*
X316930952Y-86314285D01*
X316911904Y-86276190D01*
X316892857Y-86257142D01*
X316664285Y-86123809D02*
X316664285Y-85971428D01*
X316530952Y-86066666D02*
X316873809Y-86066666D01*
X316911904Y-86047619D01*
X316930952Y-86009523D01*
X316930952Y-85971428D01*
X316969047Y-85933333D02*
X316969047Y-85628571D01*
X314155952Y-85603571D02*
X314155952Y-85908333D01*
X314213095Y-86175000D02*
X314194047Y-86136904D01*
X314194047Y-86060714D01*
X314213095Y-86022619D01*
X314232142Y-86003571D01*
X314270238Y-85984523D01*
X314384523Y-85984523D01*
X314422619Y-86003571D01*
X314441666Y-86022619D01*
X314460714Y-86060714D01*
X314460714Y-86136904D01*
X314441666Y-86175000D01*
X314460714Y-86517857D02*
X314194047Y-86517857D01*
X314460714Y-86346428D02*
X314251190Y-86346428D01*
X314213095Y-86365476D01*
X314194047Y-86403571D01*
X314194047Y-86460714D01*
X314213095Y-86498809D01*
X314232142Y-86517857D01*
X314460714Y-86651190D02*
X314460714Y-86803571D01*
X314594047Y-86708333D02*
X314251190Y-86708333D01*
X314213095Y-86727380D01*
X314194047Y-86765476D01*
X314194047Y-86803571D01*
X314155952Y-86841666D02*
X314155952Y-87146428D01*
X314155952Y-78428571D02*
X314155952Y-78733333D01*
X314213095Y-79000000D02*
X314194047Y-78961904D01*
X314194047Y-78885714D01*
X314213095Y-78847619D01*
X314232142Y-78828571D01*
X314270238Y-78809523D01*
X314384523Y-78809523D01*
X314422619Y-78828571D01*
X314441666Y-78847619D01*
X314460714Y-78885714D01*
X314460714Y-78961904D01*
X314441666Y-79000000D01*
X314460714Y-79342857D02*
X314194047Y-79342857D01*
X314460714Y-79171428D02*
X314251190Y-79171428D01*
X314213095Y-79190476D01*
X314194047Y-79228571D01*
X314194047Y-79285714D01*
X314213095Y-79323809D01*
X314232142Y-79342857D01*
X314460714Y-79476190D02*
X314460714Y-79628571D01*
X314594047Y-79533333D02*
X314251190Y-79533333D01*
X314213095Y-79552380D01*
X314194047Y-79590476D01*
X314194047Y-79628571D01*
X314155952Y-79666666D02*
X314155952Y-79971428D01*
X316944047Y-79996428D02*
X316944047Y-79691666D01*
X316886904Y-79425000D02*
X316905952Y-79463095D01*
X316905952Y-79539285D01*
X316886904Y-79577380D01*
X316867857Y-79596428D01*
X316829761Y-79615476D01*
X316715476Y-79615476D01*
X316677380Y-79596428D01*
X316658333Y-79577380D01*
X316639285Y-79539285D01*
X316639285Y-79463095D01*
X316658333Y-79425000D01*
X316639285Y-79082142D02*
X316905952Y-79082142D01*
X316639285Y-79253571D02*
X316848809Y-79253571D01*
X316886904Y-79234523D01*
X316905952Y-79196428D01*
X316905952Y-79139285D01*
X316886904Y-79101190D01*
X316867857Y-79082142D01*
X316639285Y-78948809D02*
X316639285Y-78796428D01*
X316505952Y-78891666D02*
X316848809Y-78891666D01*
X316886904Y-78872619D01*
X316905952Y-78834523D01*
X316905952Y-78796428D01*
X316944047Y-78758333D02*
X316944047Y-78453571D01*
D11*
X296370238Y-56251190D02*
X295989285Y-56251190D01*
X295989285Y-56251190D02*
X295608333Y-56251190D01*
X295275000Y-56322619D02*
X295322619Y-56298809D01*
X295417857Y-56298809D01*
X295465476Y-56322619D01*
X295489285Y-56346428D01*
X295513095Y-56394047D01*
X295513095Y-56536904D01*
X295489285Y-56584523D01*
X295465476Y-56608333D01*
X295417857Y-56632142D01*
X295322619Y-56632142D01*
X295275000Y-56608333D01*
X294846428Y-56632142D02*
X294846428Y-56298809D01*
X295060714Y-56632142D02*
X295060714Y-56370238D01*
X295036904Y-56322619D01*
X294989285Y-56298809D01*
X294917857Y-56298809D01*
X294870238Y-56322619D01*
X294846428Y-56346428D01*
X294679761Y-56632142D02*
X294489285Y-56632142D01*
X294608333Y-56798809D02*
X294608333Y-56370238D01*
X294584523Y-56322619D01*
X294536904Y-56298809D01*
X294489285Y-56298809D01*
X294441666Y-56251190D02*
X294060714Y-56251190D01*
X294060714Y-56251190D02*
X293679761Y-56251190D01*
X293679761Y-58748809D02*
X294060714Y-58748809D01*
X294060714Y-58748809D02*
X294441666Y-58748809D01*
X294775000Y-58677380D02*
X294727380Y-58701190D01*
X294632142Y-58701190D01*
X294584523Y-58677380D01*
X294560714Y-58653571D01*
X294536904Y-58605952D01*
X294536904Y-58463095D01*
X294560714Y-58415476D01*
X294584523Y-58391666D01*
X294632142Y-58367857D01*
X294727380Y-58367857D01*
X294775000Y-58391666D01*
X295203571Y-58367857D02*
X295203571Y-58701190D01*
X294989285Y-58367857D02*
X294989285Y-58629761D01*
X295013095Y-58677380D01*
X295060714Y-58701190D01*
X295132142Y-58701190D01*
X295179761Y-58677380D01*
X295203571Y-58653571D01*
X295370238Y-58367857D02*
X295560714Y-58367857D01*
X295441666Y-58201190D02*
X295441666Y-58629761D01*
X295465476Y-58677380D01*
X295513095Y-58701190D01*
X295560714Y-58701190D01*
X295608333Y-58748809D02*
X295989285Y-58748809D01*
X295989285Y-58748809D02*
X296370238Y-58748809D01*
X294754761Y-75673809D02*
X295135714Y-75673809D01*
X295135714Y-75673809D02*
X295516666Y-75673809D01*
X295850000Y-75602380D02*
X295802380Y-75626190D01*
X295707142Y-75626190D01*
X295659523Y-75602380D01*
X295635714Y-75578571D01*
X295611904Y-75530952D01*
X295611904Y-75388095D01*
X295635714Y-75340476D01*
X295659523Y-75316666D01*
X295707142Y-75292857D01*
X295802380Y-75292857D01*
X295850000Y-75316666D01*
X296278571Y-75292857D02*
X296278571Y-75626190D01*
X296064285Y-75292857D02*
X296064285Y-75554761D01*
X296088095Y-75602380D01*
X296135714Y-75626190D01*
X296207142Y-75626190D01*
X296254761Y-75602380D01*
X296278571Y-75578571D01*
X296445238Y-75292857D02*
X296635714Y-75292857D01*
X296516666Y-75126190D02*
X296516666Y-75554761D01*
X296540476Y-75602380D01*
X296588095Y-75626190D01*
X296635714Y-75626190D01*
X296683333Y-75673809D02*
X297064285Y-75673809D01*
X297064285Y-75673809D02*
X297445238Y-75673809D01*
X297445238Y-72726190D02*
X297064285Y-72726190D01*
X297064285Y-72726190D02*
X296683333Y-72726190D01*
X296350000Y-72797619D02*
X296397619Y-72773809D01*
X296492857Y-72773809D01*
X296540476Y-72797619D01*
X296564285Y-72821428D01*
X296588095Y-72869047D01*
X296588095Y-73011904D01*
X296564285Y-73059523D01*
X296540476Y-73083333D01*
X296492857Y-73107142D01*
X296397619Y-73107142D01*
X296350000Y-73083333D01*
X295921428Y-73107142D02*
X295921428Y-72773809D01*
X296135714Y-73107142D02*
X296135714Y-72845238D01*
X296111904Y-72797619D01*
X296064285Y-72773809D01*
X295992857Y-72773809D01*
X295945238Y-72797619D01*
X295921428Y-72821428D01*
X295754761Y-73107142D02*
X295564285Y-73107142D01*
X295683333Y-73273809D02*
X295683333Y-72845238D01*
X295659523Y-72797619D01*
X295611904Y-72773809D01*
X295564285Y-72773809D01*
X295516666Y-72726190D02*
X295135714Y-72726190D01*
X295135714Y-72726190D02*
X294754761Y-72726190D01*
X59295238Y-72576190D02*
X58914285Y-72576190D01*
X58914285Y-72576190D02*
X58533333Y-72576190D01*
X58200000Y-72647619D02*
X58247619Y-72623809D01*
X58342857Y-72623809D01*
X58390476Y-72647619D01*
X58414285Y-72671428D01*
X58438095Y-72719047D01*
X58438095Y-72861904D01*
X58414285Y-72909523D01*
X58390476Y-72933333D01*
X58342857Y-72957142D01*
X58247619Y-72957142D01*
X58200000Y-72933333D01*
X57771428Y-72957142D02*
X57771428Y-72623809D01*
X57985714Y-72957142D02*
X57985714Y-72695238D01*
X57961904Y-72647619D01*
X57914285Y-72623809D01*
X57842857Y-72623809D01*
X57795238Y-72647619D01*
X57771428Y-72671428D01*
X57604761Y-72957142D02*
X57414285Y-72957142D01*
X57533333Y-73123809D02*
X57533333Y-72695238D01*
X57509523Y-72647619D01*
X57461904Y-72623809D01*
X57414285Y-72623809D01*
X57366666Y-72576190D02*
X56985714Y-72576190D01*
X56985714Y-72576190D02*
X56604761Y-72576190D01*
X56604761Y-75848809D02*
X56985714Y-75848809D01*
X56985714Y-75848809D02*
X57366666Y-75848809D01*
X57700000Y-75777380D02*
X57652380Y-75801190D01*
X57557142Y-75801190D01*
X57509523Y-75777380D01*
X57485714Y-75753571D01*
X57461904Y-75705952D01*
X57461904Y-75563095D01*
X57485714Y-75515476D01*
X57509523Y-75491666D01*
X57557142Y-75467857D01*
X57652380Y-75467857D01*
X57700000Y-75491666D01*
X58128571Y-75467857D02*
X58128571Y-75801190D01*
X57914285Y-75467857D02*
X57914285Y-75729761D01*
X57938095Y-75777380D01*
X57985714Y-75801190D01*
X58057142Y-75801190D01*
X58104761Y-75777380D01*
X58128571Y-75753571D01*
X58295238Y-75467857D02*
X58485714Y-75467857D01*
X58366666Y-75301190D02*
X58366666Y-75729761D01*
X58390476Y-75777380D01*
X58438095Y-75801190D01*
X58485714Y-75801190D01*
X58533333Y-75848809D02*
X58914285Y-75848809D01*
X58914285Y-75848809D02*
X59295238Y-75848809D01*
X56704761Y-58773809D02*
X57085714Y-58773809D01*
X57085714Y-58773809D02*
X57466666Y-58773809D01*
X57800000Y-58702380D02*
X57752380Y-58726190D01*
X57657142Y-58726190D01*
X57609523Y-58702380D01*
X57585714Y-58678571D01*
X57561904Y-58630952D01*
X57561904Y-58488095D01*
X57585714Y-58440476D01*
X57609523Y-58416666D01*
X57657142Y-58392857D01*
X57752380Y-58392857D01*
X57800000Y-58416666D01*
X58228571Y-58392857D02*
X58228571Y-58726190D01*
X58014285Y-58392857D02*
X58014285Y-58654761D01*
X58038095Y-58702380D01*
X58085714Y-58726190D01*
X58157142Y-58726190D01*
X58204761Y-58702380D01*
X58228571Y-58678571D01*
X58395238Y-58392857D02*
X58585714Y-58392857D01*
X58466666Y-58226190D02*
X58466666Y-58654761D01*
X58490476Y-58702380D01*
X58538095Y-58726190D01*
X58585714Y-58726190D01*
X58633333Y-58773809D02*
X59014285Y-58773809D01*
X59014285Y-58773809D02*
X59395238Y-58773809D01*
X59470238Y-56226190D02*
X59089285Y-56226190D01*
X59089285Y-56226190D02*
X58708333Y-56226190D01*
X58375000Y-56297619D02*
X58422619Y-56273809D01*
X58517857Y-56273809D01*
X58565476Y-56297619D01*
X58589285Y-56321428D01*
X58613095Y-56369047D01*
X58613095Y-56511904D01*
X58589285Y-56559523D01*
X58565476Y-56583333D01*
X58517857Y-56607142D01*
X58422619Y-56607142D01*
X58375000Y-56583333D01*
X57946428Y-56607142D02*
X57946428Y-56273809D01*
X58160714Y-56607142D02*
X58160714Y-56345238D01*
X58136904Y-56297619D01*
X58089285Y-56273809D01*
X58017857Y-56273809D01*
X57970238Y-56297619D01*
X57946428Y-56321428D01*
X57779761Y-56607142D02*
X57589285Y-56607142D01*
X57708333Y-56773809D02*
X57708333Y-56345238D01*
X57684523Y-56297619D01*
X57636904Y-56273809D01*
X57589285Y-56273809D01*
X57541666Y-56226190D02*
X57160714Y-56226190D01*
X57160714Y-56226190D02*
X56779761Y-56226190D01*
X64286061Y28354303D02*
X63906036Y28380877D01*
X63906036Y28380877D02*
X63526012Y28407451D01*
X63188508Y28359448D02*
X63237672Y28379878D01*
X63332678Y28373235D01*
X63378520Y28346161D01*
X63400611Y28320749D01*
X63421041Y28271585D01*
X63411075Y28129076D01*
X63384002Y28083234D01*
X63358590Y28061143D01*
X63309426Y28040713D01*
X63214420Y28047357D01*
X63168577Y28074430D01*
X62739389Y28080574D02*
X62762641Y28413096D01*
X62953153Y28065626D02*
X62971422Y28326893D01*
X62950993Y28376057D01*
X62905150Y28403130D01*
X62833896Y28408113D01*
X62784732Y28387683D01*
X62759320Y28365592D01*
X62573128Y28092200D02*
X62383116Y28105487D01*
X62490248Y27930922D02*
X62520143Y28358450D01*
X62499714Y28407614D01*
X62453871Y28434687D01*
X62406368Y28438009D01*
X62362187Y28488833D02*
X61982163Y28515407D01*
X61982163Y28515407D02*
X61602138Y28541981D01*
X61570935Y9606161D02*
X61951365Y9626098D01*
X61951365Y9626098D02*
X62331796Y9646036D01*
X62660934Y9734812D02*
X62614626Y9708543D01*
X62519519Y9703558D01*
X62470719Y9724843D01*
X62445696Y9747374D01*
X62419427Y9793682D01*
X62411950Y9936343D01*
X62433235Y9985143D01*
X62455766Y10010166D01*
X62502073Y10036435D01*
X62597181Y10041419D01*
X62645981Y10020135D01*
X63072719Y10066341D02*
X63090164Y9733465D01*
X62858727Y10055126D02*
X62872434Y9793581D01*
X62898703Y9747273D01*
X62947503Y9725988D01*
X63018833Y9729726D01*
X63065141Y9755996D01*
X63087672Y9781019D01*
X63239157Y10075064D02*
X63429372Y10085033D01*
X63301765Y10245240D02*
X63324195Y9817256D01*
X63350464Y9770949D01*
X63399264Y9749664D01*
X63446818Y9752156D01*
X63496863Y9707095D02*
X63877294Y9727032D01*
X63877294Y9727032D02*
X64257724Y9746970D01*
X297288938Y9820696D02*
X297668963Y9794122D01*
X297668963Y9794122D02*
X298048987Y9767548D01*
X298386491Y9815551D02*
X298337327Y9795121D01*
X298242321Y9801764D01*
X298196479Y9828838D01*
X298174388Y9854250D01*
X298153958Y9903414D01*
X298163924Y10045923D01*
X298190997Y10091765D01*
X298216409Y10113856D01*
X298265573Y10134286D01*
X298360579Y10127642D01*
X298406422Y10100569D01*
X298835610Y10094425D02*
X298812358Y9761903D01*
X298621846Y10109373D02*
X298603577Y9848106D01*
X298624006Y9798942D01*
X298669849Y9771869D01*
X298741103Y9766886D01*
X298790267Y9787316D01*
X298815679Y9809407D01*
X299001871Y10082799D02*
X299191883Y10069512D01*
X299084751Y10244077D02*
X299054856Y9816549D01*
X299075285Y9767385D01*
X299121128Y9740312D01*
X299168631Y9736990D01*
X299212812Y9686166D02*
X299592836Y9659592D01*
X299592836Y9659592D02*
X299972861Y9633018D01*
X299947861Y28566981D02*
X299567836Y28540407D01*
X299567836Y28540407D02*
X299187812Y28513833D01*
X298860273Y28419327D02*
X298906115Y28446400D01*
X299001121Y28453043D01*
X299050285Y28432614D01*
X299075698Y28410523D01*
X299102771Y28364681D01*
X299112736Y28222172D01*
X299092306Y28173008D01*
X299070216Y28147595D01*
X299024374Y28120522D01*
X298929367Y28113878D01*
X298880204Y28134308D01*
X298454337Y28080661D02*
X298431085Y28413182D01*
X298668101Y28095609D02*
X298649831Y28356876D01*
X298622758Y28402718D01*
X298573594Y28423148D01*
X298502339Y28418165D01*
X298456497Y28391092D01*
X298434407Y28365679D01*
X298288076Y28069035D02*
X298098064Y28055748D01*
X298228448Y27897792D02*
X298198552Y28325319D01*
X298171479Y28371161D01*
X298122315Y28391591D01*
X298074812Y28388269D01*
X298023987Y28432451D02*
X297643963Y28405877D01*
X297643963Y28405877D02*
X297263938Y28379303D01*
X306729761Y94501190D02*
X307110714Y94501190D01*
X307110714Y94501190D02*
X307491666Y94501190D01*
X307825000Y94572619D02*
X307777380Y94548809D01*
X307682142Y94548809D01*
X307634523Y94572619D01*
X307610714Y94596428D01*
X307586904Y94644047D01*
X307586904Y94786904D01*
X307610714Y94834523D01*
X307634523Y94858333D01*
X307682142Y94882142D01*
X307777380Y94882142D01*
X307825000Y94858333D01*
X308253571Y94882142D02*
X308253571Y94548809D01*
X308039285Y94882142D02*
X308039285Y94620238D01*
X308063095Y94572619D01*
X308110714Y94548809D01*
X308182142Y94548809D01*
X308229761Y94572619D01*
X308253571Y94596428D01*
X308420238Y94882142D02*
X308610714Y94882142D01*
X308491666Y95048809D02*
X308491666Y94620238D01*
X308515476Y94572619D01*
X308563095Y94548809D01*
X308610714Y94548809D01*
X308658333Y94501190D02*
X309039285Y94501190D01*
X309039285Y94501190D02*
X309420238Y94501190D01*
X309470238Y101548809D02*
X309089285Y101548809D01*
X309089285Y101548809D02*
X308708333Y101548809D01*
X308375000Y101477380D02*
X308422619Y101501190D01*
X308517857Y101501190D01*
X308565476Y101477380D01*
X308589285Y101453571D01*
X308613095Y101405952D01*
X308613095Y101263095D01*
X308589285Y101215476D01*
X308565476Y101191666D01*
X308517857Y101167857D01*
X308422619Y101167857D01*
X308375000Y101191666D01*
X307946428Y101167857D02*
X307946428Y101501190D01*
X308160714Y101167857D02*
X308160714Y101429761D01*
X308136904Y101477380D01*
X308089285Y101501190D01*
X308017857Y101501190D01*
X307970238Y101477380D01*
X307946428Y101453571D01*
X307779761Y101167857D02*
X307589285Y101167857D01*
X307708333Y101001190D02*
X307708333Y101429761D01*
X307684523Y101477380D01*
X307636904Y101501190D01*
X307589285Y101501190D01*
X307541666Y101548809D02*
X307160714Y101548809D01*
X307160714Y101548809D02*
X306779761Y101548809D01*
X53720238Y101648809D02*
X53339285Y101648809D01*
X53339285Y101648809D02*
X52958333Y101648809D01*
X52625000Y101577380D02*
X52672619Y101601190D01*
X52767857Y101601190D01*
X52815476Y101577380D01*
X52839285Y101553571D01*
X52863095Y101505952D01*
X52863095Y101363095D01*
X52839285Y101315476D01*
X52815476Y101291666D01*
X52767857Y101267857D01*
X52672619Y101267857D01*
X52625000Y101291666D01*
X52196428Y101267857D02*
X52196428Y101601190D01*
X52410714Y101267857D02*
X52410714Y101529761D01*
X52386904Y101577380D01*
X52339285Y101601190D01*
X52267857Y101601190D01*
X52220238Y101577380D01*
X52196428Y101553571D01*
X52029761Y101267857D02*
X51839285Y101267857D01*
X51958333Y101101190D02*
X51958333Y101529761D01*
X51934523Y101577380D01*
X51886904Y101601190D01*
X51839285Y101601190D01*
X51791666Y101648809D02*
X51410714Y101648809D01*
X51410714Y101648809D02*
X51029761Y101648809D01*
X51054761Y94376190D02*
X51435714Y94376190D01*
X51435714Y94376190D02*
X51816666Y94376190D01*
X52150000Y94447619D02*
X52102380Y94423809D01*
X52007142Y94423809D01*
X51959523Y94447619D01*
X51935714Y94471428D01*
X51911904Y94519047D01*
X51911904Y94661904D01*
X51935714Y94709523D01*
X51959523Y94733333D01*
X52007142Y94757142D01*
X52102380Y94757142D01*
X52150000Y94733333D01*
X52578571Y94757142D02*
X52578571Y94423809D01*
X52364285Y94757142D02*
X52364285Y94495238D01*
X52388095Y94447619D01*
X52435714Y94423809D01*
X52507142Y94423809D01*
X52554761Y94447619D01*
X52578571Y94471428D01*
X52745238Y94757142D02*
X52935714Y94757142D01*
X52816666Y94923809D02*
X52816666Y94495238D01*
X52840476Y94447619D01*
X52888095Y94423809D01*
X52935714Y94423809D01*
X52983333Y94376190D02*
X53364285Y94376190D01*
X53364285Y94376190D02*
X53745238Y94376190D01*
D12*
X291471428Y-79932142D02*
X291328571Y-80003571D01*
X291042857Y-80003571D01*
X290900000Y-79932142D01*
X290828571Y-79860714D01*
X290757142Y-79717857D01*
X290757142Y-79289285D01*
X290828571Y-79146428D01*
X290900000Y-79075000D01*
X291042857Y-79003571D01*
X291328571Y-79003571D01*
X291471428Y-79075000D01*
X292328571Y-80003571D02*
X292185714Y-79932142D01*
X292114285Y-79860714D01*
X292042857Y-79717857D01*
X292042857Y-79289285D01*
X292114285Y-79146428D01*
X292185714Y-79075000D01*
X292328571Y-79003571D01*
X292542857Y-79003571D01*
X292685714Y-79075000D01*
X292757142Y-79146428D01*
X292828571Y-79289285D01*
X292828571Y-79717857D01*
X292757142Y-79860714D01*
X292685714Y-79932142D01*
X292542857Y-80003571D01*
X292328571Y-80003571D01*
X293685714Y-80003571D02*
X293542857Y-79932142D01*
X293471428Y-79860714D01*
X293400000Y-79717857D01*
X293400000Y-79289285D01*
X293471428Y-79146428D01*
X293542857Y-79075000D01*
X293685714Y-79003571D01*
X293900000Y-79003571D01*
X294042857Y-79075000D01*
X294114285Y-79146428D01*
X294185714Y-79289285D01*
X294185714Y-79717857D01*
X294114285Y-79860714D01*
X294042857Y-79932142D01*
X293900000Y-80003571D01*
X293685714Y-80003571D01*
X295042857Y-80003571D02*
X294900000Y-79932142D01*
X294828571Y-79789285D01*
X294828571Y-78503571D01*
X295828571Y-79146428D02*
X295685714Y-79075000D01*
X295614285Y-79003571D01*
X295542857Y-78860714D01*
X295542857Y-78789285D01*
X295614285Y-78646428D01*
X295685714Y-78575000D01*
X295828571Y-78503571D01*
X296114285Y-78503571D01*
X296257142Y-78575000D01*
X296328571Y-78646428D01*
X296400000Y-78789285D01*
X296400000Y-78860714D01*
X296328571Y-79003571D01*
X296257142Y-79075000D01*
X296114285Y-79146428D01*
X295828571Y-79146428D01*
X295685714Y-79217857D01*
X295614285Y-79289285D01*
X295542857Y-79432142D01*
X295542857Y-79717857D01*
X295614285Y-79860714D01*
X295685714Y-79932142D01*
X295828571Y-80003571D01*
X296114285Y-80003571D01*
X296257142Y-79932142D01*
X296328571Y-79860714D01*
X296400000Y-79717857D01*
X296400000Y-79432142D01*
X296328571Y-79289285D01*
X296257142Y-79217857D01*
X296114285Y-79146428D01*
X296900000Y-78503571D02*
X297828571Y-78503571D01*
X297328571Y-79075000D01*
X297542857Y-79075000D01*
X297685714Y-79146428D01*
X297757142Y-79217857D01*
X297828571Y-79360714D01*
X297828571Y-79717857D01*
X297757142Y-79860714D01*
X297685714Y-79932142D01*
X297542857Y-80003571D01*
X297114285Y-80003571D01*
X296971428Y-79932142D01*
X296900000Y-79860714D01*
X299114285Y-78503571D02*
X298828571Y-78503571D01*
X298685714Y-78575000D01*
X298614285Y-78646428D01*
X298471428Y-78860714D01*
X298400000Y-79146428D01*
X298400000Y-79717857D01*
X298471428Y-79860714D01*
X298542857Y-79932142D01*
X298685714Y-80003571D01*
X298971428Y-80003571D01*
X299114285Y-79932142D01*
X299185714Y-79860714D01*
X299257142Y-79717857D01*
X299257142Y-79360714D01*
X299185714Y-79217857D01*
X299114285Y-79146428D01*
X298971428Y-79075000D01*
X298685714Y-79075000D01*
X298542857Y-79146428D01*
X298471428Y-79217857D01*
X298400000Y-79360714D01*
X299828571Y-79575000D02*
X300542857Y-79575000D01*
X299685714Y-80003571D02*
X300185714Y-78503571D01*
X300685714Y-80003571D01*
X321782142Y155746428D02*
X321853571Y155603571D01*
X321853571Y155317857D01*
X321782142Y155175000D01*
X321710714Y155103571D01*
X321567857Y155032142D01*
X321139285Y155032142D01*
X320996428Y155103571D01*
X320925000Y155175000D01*
X320853571Y155317857D01*
X320853571Y155603571D01*
X320925000Y155746428D01*
X321853571Y156603571D02*
X321782142Y156460714D01*
X321710714Y156389285D01*
X321567857Y156317857D01*
X321139285Y156317857D01*
X320996428Y156389285D01*
X320925000Y156460714D01*
X320853571Y156603571D01*
X320853571Y156817857D01*
X320925000Y156960714D01*
X320996428Y157032142D01*
X321139285Y157103571D01*
X321567857Y157103571D01*
X321710714Y157032142D01*
X321782142Y156960714D01*
X321853571Y156817857D01*
X321853571Y156603571D01*
X321853571Y157960714D02*
X321782142Y157817857D01*
X321710714Y157746428D01*
X321567857Y157675000D01*
X321139285Y157675000D01*
X320996428Y157746428D01*
X320925000Y157817857D01*
X320853571Y157960714D01*
X320853571Y158175000D01*
X320925000Y158317857D01*
X320996428Y158389285D01*
X321139285Y158460714D01*
X321567857Y158460714D01*
X321710714Y158389285D01*
X321782142Y158317857D01*
X321853571Y158175000D01*
X321853571Y157960714D01*
X321853571Y159317857D02*
X321782142Y159175000D01*
X321639285Y159103571D01*
X320353571Y159103571D01*
X320996428Y160103571D02*
X320925000Y159960714D01*
X320853571Y159889285D01*
X320710714Y159817857D01*
X320639285Y159817857D01*
X320496428Y159889285D01*
X320425000Y159960714D01*
X320353571Y160103571D01*
X320353571Y160389285D01*
X320425000Y160532142D01*
X320496428Y160603571D01*
X320639285Y160675000D01*
X320710714Y160675000D01*
X320853571Y160603571D01*
X320925000Y160532142D01*
X320996428Y160389285D01*
X320996428Y160103571D01*
X321067857Y159960714D01*
X321139285Y159889285D01*
X321282142Y159817857D01*
X321567857Y159817857D01*
X321710714Y159889285D01*
X321782142Y159960714D01*
X321853571Y160103571D01*
X321853571Y160389285D01*
X321782142Y160532142D01*
X321710714Y160603571D01*
X321567857Y160675000D01*
X321282142Y160675000D01*
X321139285Y160603571D01*
X321067857Y160532142D01*
X320996428Y160389285D01*
X320353571Y161175000D02*
X320353571Y162103571D01*
X320925000Y161603571D01*
X320925000Y161817857D01*
X320996428Y161960714D01*
X321067857Y162032142D01*
X321210714Y162103571D01*
X321567857Y162103571D01*
X321710714Y162032142D01*
X321782142Y161960714D01*
X321853571Y161817857D01*
X321853571Y161389285D01*
X321782142Y161246428D01*
X321710714Y161175000D01*
X320353571Y163389285D02*
X320353571Y163103571D01*
X320425000Y162960714D01*
X320496428Y162889285D01*
X320710714Y162746428D01*
X320996428Y162675000D01*
X321567857Y162675000D01*
X321710714Y162746428D01*
X321782142Y162817857D01*
X321853571Y162960714D01*
X321853571Y163246428D01*
X321782142Y163389285D01*
X321710714Y163460714D01*
X321567857Y163532142D01*
X321210714Y163532142D01*
X321067857Y163460714D01*
X320996428Y163389285D01*
X320925000Y163246428D01*
X320925000Y162960714D01*
X320996428Y162817857D01*
X321067857Y162746428D01*
X321210714Y162675000D01*
X321425000Y164103571D02*
X321425000Y164817857D01*
X321853571Y163960714D02*
X320353571Y164460714D01*
X321853571Y164960714D01*
X291921428Y-62907142D02*
X291778571Y-62978571D01*
X291492857Y-62978571D01*
X291350000Y-62907142D01*
X291278571Y-62835714D01*
X291207142Y-62692857D01*
X291207142Y-62264285D01*
X291278571Y-62121428D01*
X291350000Y-62050000D01*
X291492857Y-61978571D01*
X291778571Y-61978571D01*
X291921428Y-62050000D01*
X292778571Y-62978571D02*
X292635714Y-62907142D01*
X292564285Y-62835714D01*
X292492857Y-62692857D01*
X292492857Y-62264285D01*
X292564285Y-62121428D01*
X292635714Y-62050000D01*
X292778571Y-61978571D01*
X292992857Y-61978571D01*
X293135714Y-62050000D01*
X293207142Y-62121428D01*
X293278571Y-62264285D01*
X293278571Y-62692857D01*
X293207142Y-62835714D01*
X293135714Y-62907142D01*
X292992857Y-62978571D01*
X292778571Y-62978571D01*
X294135714Y-62978571D02*
X293992857Y-62907142D01*
X293921428Y-62835714D01*
X293850000Y-62692857D01*
X293850000Y-62264285D01*
X293921428Y-62121428D01*
X293992857Y-62050000D01*
X294135714Y-61978571D01*
X294350000Y-61978571D01*
X294492857Y-62050000D01*
X294564285Y-62121428D01*
X294635714Y-62264285D01*
X294635714Y-62692857D01*
X294564285Y-62835714D01*
X294492857Y-62907142D01*
X294350000Y-62978571D01*
X294135714Y-62978571D01*
X295492857Y-62978571D02*
X295350000Y-62907142D01*
X295278571Y-62764285D01*
X295278571Y-61478571D01*
X296278571Y-62121428D02*
X296135714Y-62050000D01*
X296064285Y-61978571D01*
X295992857Y-61835714D01*
X295992857Y-61764285D01*
X296064285Y-61621428D01*
X296135714Y-61550000D01*
X296278571Y-61478571D01*
X296564285Y-61478571D01*
X296707142Y-61550000D01*
X296778571Y-61621428D01*
X296850000Y-61764285D01*
X296850000Y-61835714D01*
X296778571Y-61978571D01*
X296707142Y-62050000D01*
X296564285Y-62121428D01*
X296278571Y-62121428D01*
X296135714Y-62192857D01*
X296064285Y-62264285D01*
X295992857Y-62407142D01*
X295992857Y-62692857D01*
X296064285Y-62835714D01*
X296135714Y-62907142D01*
X296278571Y-62978571D01*
X296564285Y-62978571D01*
X296707142Y-62907142D01*
X296778571Y-62835714D01*
X296850000Y-62692857D01*
X296850000Y-62407142D01*
X296778571Y-62264285D01*
X296707142Y-62192857D01*
X296564285Y-62121428D01*
X297350000Y-61478571D02*
X298278571Y-61478571D01*
X297778571Y-62050000D01*
X297992857Y-62050000D01*
X298135714Y-62121428D01*
X298207142Y-62192857D01*
X298278571Y-62335714D01*
X298278571Y-62692857D01*
X298207142Y-62835714D01*
X298135714Y-62907142D01*
X297992857Y-62978571D01*
X297564285Y-62978571D01*
X297421428Y-62907142D01*
X297350000Y-62835714D01*
X299564285Y-61478571D02*
X299278571Y-61478571D01*
X299135714Y-61550000D01*
X299064285Y-61621428D01*
X298921428Y-61835714D01*
X298850000Y-62121428D01*
X298850000Y-62692857D01*
X298921428Y-62835714D01*
X298992857Y-62907142D01*
X299135714Y-62978571D01*
X299421428Y-62978571D01*
X299564285Y-62907142D01*
X299635714Y-62835714D01*
X299707142Y-62692857D01*
X299707142Y-62335714D01*
X299635714Y-62192857D01*
X299564285Y-62121428D01*
X299421428Y-62050000D01*
X299135714Y-62050000D01*
X298992857Y-62121428D01*
X298921428Y-62192857D01*
X298850000Y-62335714D01*
X300278571Y-62550000D02*
X300992857Y-62550000D01*
X300135714Y-62978571D02*
X300635714Y-61478571D01*
X301135714Y-62978571D01*
X290846428Y90917857D02*
X290703571Y90846428D01*
X290417857Y90846428D01*
X290275000Y90917857D01*
X290203571Y90989285D01*
X290132142Y91132142D01*
X290132142Y91560714D01*
X290203571Y91703571D01*
X290275000Y91775000D01*
X290417857Y91846428D01*
X290703571Y91846428D01*
X290846428Y91775000D01*
X291703571Y90846428D02*
X291560714Y90917857D01*
X291489285Y90989285D01*
X291417857Y91132142D01*
X291417857Y91560714D01*
X291489285Y91703571D01*
X291560714Y91775000D01*
X291703571Y91846428D01*
X291917857Y91846428D01*
X292060714Y91775000D01*
X292132142Y91703571D01*
X292203571Y91560714D01*
X292203571Y91132142D01*
X292132142Y90989285D01*
X292060714Y90917857D01*
X291917857Y90846428D01*
X291703571Y90846428D01*
X293060714Y90846428D02*
X292917857Y90917857D01*
X292846428Y90989285D01*
X292775000Y91132142D01*
X292775000Y91560714D01*
X292846428Y91703571D01*
X292917857Y91775000D01*
X293060714Y91846428D01*
X293275000Y91846428D01*
X293417857Y91775000D01*
X293489285Y91703571D01*
X293560714Y91560714D01*
X293560714Y91132142D01*
X293489285Y90989285D01*
X293417857Y90917857D01*
X293275000Y90846428D01*
X293060714Y90846428D01*
X294417857Y90846428D02*
X294275000Y90917857D01*
X294203571Y91060714D01*
X294203571Y92346428D01*
X295203571Y91703571D02*
X295060714Y91775000D01*
X294989285Y91846428D01*
X294917857Y91989285D01*
X294917857Y92060714D01*
X294989285Y92203571D01*
X295060714Y92275000D01*
X295203571Y92346428D01*
X295489285Y92346428D01*
X295632142Y92275000D01*
X295703571Y92203571D01*
X295775000Y92060714D01*
X295775000Y91989285D01*
X295703571Y91846428D01*
X295632142Y91775000D01*
X295489285Y91703571D01*
X295203571Y91703571D01*
X295060714Y91632142D01*
X294989285Y91560714D01*
X294917857Y91417857D01*
X294917857Y91132142D01*
X294989285Y90989285D01*
X295060714Y90917857D01*
X295203571Y90846428D01*
X295489285Y90846428D01*
X295632142Y90917857D01*
X295703571Y90989285D01*
X295775000Y91132142D01*
X295775000Y91417857D01*
X295703571Y91560714D01*
X295632142Y91632142D01*
X295489285Y91703571D01*
X296275000Y92346428D02*
X297203571Y92346428D01*
X296703571Y91775000D01*
X296917857Y91775000D01*
X297060714Y91703571D01*
X297132142Y91632142D01*
X297203571Y91489285D01*
X297203571Y91132142D01*
X297132142Y90989285D01*
X297060714Y90917857D01*
X296917857Y90846428D01*
X296489285Y90846428D01*
X296346428Y90917857D01*
X296275000Y90989285D01*
X298489285Y92346428D02*
X298203571Y92346428D01*
X298060714Y92275000D01*
X297989285Y92203571D01*
X297846428Y91989285D01*
X297775000Y91703571D01*
X297775000Y91132142D01*
X297846428Y90989285D01*
X297917857Y90917857D01*
X298060714Y90846428D01*
X298346428Y90846428D01*
X298489285Y90917857D01*
X298560714Y90989285D01*
X298632142Y91132142D01*
X298632142Y91489285D01*
X298560714Y91632142D01*
X298489285Y91703571D01*
X298346428Y91775000D01*
X298060714Y91775000D01*
X297917857Y91703571D01*
X297846428Y91632142D01*
X297775000Y91489285D01*
X299203571Y91275000D02*
X299917857Y91275000D01*
X299060714Y90846428D02*
X299560714Y92346428D01*
X300060714Y90846428D01*
X69678571Y-52042857D02*
X69821428Y-51971428D01*
X70107142Y-51971428D01*
X70250000Y-52042857D01*
X70321428Y-52114285D01*
X70392857Y-52257142D01*
X70392857Y-52685714D01*
X70321428Y-52828571D01*
X70250000Y-52900000D01*
X70107142Y-52971428D01*
X69821428Y-52971428D01*
X69678571Y-52900000D01*
X68821428Y-51971428D02*
X68964285Y-52042857D01*
X69035714Y-52114285D01*
X69107142Y-52257142D01*
X69107142Y-52685714D01*
X69035714Y-52828571D01*
X68964285Y-52900000D01*
X68821428Y-52971428D01*
X68607142Y-52971428D01*
X68464285Y-52900000D01*
X68392857Y-52828571D01*
X68321428Y-52685714D01*
X68321428Y-52257142D01*
X68392857Y-52114285D01*
X68464285Y-52042857D01*
X68607142Y-51971428D01*
X68821428Y-51971428D01*
X67464285Y-51971428D02*
X67607142Y-52042857D01*
X67678571Y-52114285D01*
X67750000Y-52257142D01*
X67750000Y-52685714D01*
X67678571Y-52828571D01*
X67607142Y-52900000D01*
X67464285Y-52971428D01*
X67250000Y-52971428D01*
X67107142Y-52900000D01*
X67035714Y-52828571D01*
X66964285Y-52685714D01*
X66964285Y-52257142D01*
X67035714Y-52114285D01*
X67107142Y-52042857D01*
X67250000Y-51971428D01*
X67464285Y-51971428D01*
X66107142Y-51971428D02*
X66250000Y-52042857D01*
X66321428Y-52185714D01*
X66321428Y-53471428D01*
X65321428Y-52828571D02*
X65464285Y-52900000D01*
X65535714Y-52971428D01*
X65607142Y-53114285D01*
X65607142Y-53185714D01*
X65535714Y-53328571D01*
X65464285Y-53400000D01*
X65321428Y-53471428D01*
X65035714Y-53471428D01*
X64892857Y-53400000D01*
X64821428Y-53328571D01*
X64750000Y-53185714D01*
X64750000Y-53114285D01*
X64821428Y-52971428D01*
X64892857Y-52900000D01*
X65035714Y-52828571D01*
X65321428Y-52828571D01*
X65464285Y-52757142D01*
X65535714Y-52685714D01*
X65607142Y-52542857D01*
X65607142Y-52257142D01*
X65535714Y-52114285D01*
X65464285Y-52042857D01*
X65321428Y-51971428D01*
X65035714Y-51971428D01*
X64892857Y-52042857D01*
X64821428Y-52114285D01*
X64750000Y-52257142D01*
X64750000Y-52542857D01*
X64821428Y-52685714D01*
X64892857Y-52757142D01*
X65035714Y-52828571D01*
X64250000Y-53471428D02*
X63321428Y-53471428D01*
X63821428Y-52900000D01*
X63607142Y-52900000D01*
X63464285Y-52828571D01*
X63392857Y-52757142D01*
X63321428Y-52614285D01*
X63321428Y-52257142D01*
X63392857Y-52114285D01*
X63464285Y-52042857D01*
X63607142Y-51971428D01*
X64035714Y-51971428D01*
X64178571Y-52042857D01*
X64250000Y-52114285D01*
X62035714Y-53471428D02*
X62321428Y-53471428D01*
X62464285Y-53400000D01*
X62535714Y-53328571D01*
X62678571Y-53114285D01*
X62750000Y-52828571D01*
X62750000Y-52257142D01*
X62678571Y-52114285D01*
X62607142Y-52042857D01*
X62464285Y-51971428D01*
X62178571Y-51971428D01*
X62035714Y-52042857D01*
X61964285Y-52114285D01*
X61892857Y-52257142D01*
X61892857Y-52614285D01*
X61964285Y-52757142D01*
X62035714Y-52828571D01*
X62178571Y-52900000D01*
X62464285Y-52900000D01*
X62607142Y-52828571D01*
X62678571Y-52757142D01*
X62750000Y-52614285D01*
X61321428Y-52400000D02*
X60607142Y-52400000D01*
X61464285Y-51971428D02*
X60964285Y-53471428D01*
X60464285Y-51971428D01*
X66978571Y106482142D02*
X67121428Y106553571D01*
X67407142Y106553571D01*
X67550000Y106482142D01*
X67621428Y106410714D01*
X67692857Y106267857D01*
X67692857Y105839285D01*
X67621428Y105696428D01*
X67550000Y105625000D01*
X67407142Y105553571D01*
X67121428Y105553571D01*
X66978571Y105625000D01*
X66121428Y106553571D02*
X66264285Y106482142D01*
X66335714Y106410714D01*
X66407142Y106267857D01*
X66407142Y105839285D01*
X66335714Y105696428D01*
X66264285Y105625000D01*
X66121428Y105553571D01*
X65907142Y105553571D01*
X65764285Y105625000D01*
X65692857Y105696428D01*
X65621428Y105839285D01*
X65621428Y106267857D01*
X65692857Y106410714D01*
X65764285Y106482142D01*
X65907142Y106553571D01*
X66121428Y106553571D01*
X64764285Y106553571D02*
X64907142Y106482142D01*
X64978571Y106410714D01*
X65050000Y106267857D01*
X65050000Y105839285D01*
X64978571Y105696428D01*
X64907142Y105625000D01*
X64764285Y105553571D01*
X64550000Y105553571D01*
X64407142Y105625000D01*
X64335714Y105696428D01*
X64264285Y105839285D01*
X64264285Y106267857D01*
X64335714Y106410714D01*
X64407142Y106482142D01*
X64550000Y106553571D01*
X64764285Y106553571D01*
X63407142Y106553571D02*
X63550000Y106482142D01*
X63621428Y106339285D01*
X63621428Y105053571D01*
X62621428Y105696428D02*
X62764285Y105625000D01*
X62835714Y105553571D01*
X62907142Y105410714D01*
X62907142Y105339285D01*
X62835714Y105196428D01*
X62764285Y105125000D01*
X62621428Y105053571D01*
X62335714Y105053571D01*
X62192857Y105125000D01*
X62121428Y105196428D01*
X62050000Y105339285D01*
X62050000Y105410714D01*
X62121428Y105553571D01*
X62192857Y105625000D01*
X62335714Y105696428D01*
X62621428Y105696428D01*
X62764285Y105767857D01*
X62835714Y105839285D01*
X62907142Y105982142D01*
X62907142Y106267857D01*
X62835714Y106410714D01*
X62764285Y106482142D01*
X62621428Y106553571D01*
X62335714Y106553571D01*
X62192857Y106482142D01*
X62121428Y106410714D01*
X62050000Y106267857D01*
X62050000Y105982142D01*
X62121428Y105839285D01*
X62192857Y105767857D01*
X62335714Y105696428D01*
X61550000Y105053571D02*
X60621428Y105053571D01*
X61121428Y105625000D01*
X60907142Y105625000D01*
X60764285Y105696428D01*
X60692857Y105767857D01*
X60621428Y105910714D01*
X60621428Y106267857D01*
X60692857Y106410714D01*
X60764285Y106482142D01*
X60907142Y106553571D01*
X61335714Y106553571D01*
X61478571Y106482142D01*
X61550000Y106410714D01*
X59335714Y105053571D02*
X59621428Y105053571D01*
X59764285Y105125000D01*
X59835714Y105196428D01*
X59978571Y105410714D01*
X60050000Y105696428D01*
X60050000Y106267857D01*
X59978571Y106410714D01*
X59907142Y106482142D01*
X59764285Y106553571D01*
X59478571Y106553571D01*
X59335714Y106482142D01*
X59264285Y106410714D01*
X59192857Y106267857D01*
X59192857Y105910714D01*
X59264285Y105767857D01*
X59335714Y105696428D01*
X59478571Y105625000D01*
X59764285Y105625000D01*
X59907142Y105696428D01*
X59978571Y105767857D01*
X60050000Y105910714D01*
X58621428Y106125000D02*
X57907142Y106125000D01*
X58764285Y106553571D02*
X58264285Y105053571D01*
X57764285Y106553571D01*
X174546428Y54942857D02*
X174403571Y54871428D01*
X174117857Y54871428D01*
X173975000Y54942857D01*
X173903571Y55014285D01*
X173832142Y55157142D01*
X173832142Y55585714D01*
X173903571Y55728571D01*
X173975000Y55800000D01*
X174117857Y55871428D01*
X174403571Y55871428D01*
X174546428Y55800000D01*
X175403571Y54871428D02*
X175260714Y54942857D01*
X175189285Y55014285D01*
X175117857Y55157142D01*
X175117857Y55585714D01*
X175189285Y55728571D01*
X175260714Y55800000D01*
X175403571Y55871428D01*
X175617857Y55871428D01*
X175760714Y55800000D01*
X175832142Y55728571D01*
X175903571Y55585714D01*
X175903571Y55157142D01*
X175832142Y55014285D01*
X175760714Y54942857D01*
X175617857Y54871428D01*
X175403571Y54871428D01*
X176760714Y54871428D02*
X176617857Y54942857D01*
X176546428Y55014285D01*
X176475000Y55157142D01*
X176475000Y55585714D01*
X176546428Y55728571D01*
X176617857Y55800000D01*
X176760714Y55871428D01*
X176975000Y55871428D01*
X177117857Y55800000D01*
X177189285Y55728571D01*
X177260714Y55585714D01*
X177260714Y55157142D01*
X177189285Y55014285D01*
X177117857Y54942857D01*
X176975000Y54871428D01*
X176760714Y54871428D01*
X178117857Y54871428D02*
X177975000Y54942857D01*
X177903571Y55085714D01*
X177903571Y56371428D01*
X178903571Y55728571D02*
X178760714Y55800000D01*
X178689285Y55871428D01*
X178617857Y56014285D01*
X178617857Y56085714D01*
X178689285Y56228571D01*
X178760714Y56300000D01*
X178903571Y56371428D01*
X179189285Y56371428D01*
X179332142Y56300000D01*
X179403571Y56228571D01*
X179475000Y56085714D01*
X179475000Y56014285D01*
X179403571Y55871428D01*
X179332142Y55800000D01*
X179189285Y55728571D01*
X178903571Y55728571D01*
X178760714Y55657142D01*
X178689285Y55585714D01*
X178617857Y55442857D01*
X178617857Y55157142D01*
X178689285Y55014285D01*
X178760714Y54942857D01*
X178903571Y54871428D01*
X179189285Y54871428D01*
X179332142Y54942857D01*
X179403571Y55014285D01*
X179475000Y55157142D01*
X179475000Y55442857D01*
X179403571Y55585714D01*
X179332142Y55657142D01*
X179189285Y55728571D01*
X179975000Y56371428D02*
X180903571Y56371428D01*
X180403571Y55800000D01*
X180617857Y55800000D01*
X180760714Y55728571D01*
X180832142Y55657142D01*
X180903571Y55514285D01*
X180903571Y55157142D01*
X180832142Y55014285D01*
X180760714Y54942857D01*
X180617857Y54871428D01*
X180189285Y54871428D01*
X180046428Y54942857D01*
X179975000Y55014285D01*
X182189285Y56371428D02*
X181903571Y56371428D01*
X181760714Y56300000D01*
X181689285Y56228571D01*
X181546428Y56014285D01*
X181475000Y55728571D01*
X181475000Y55157142D01*
X181546428Y55014285D01*
X181617857Y54942857D01*
X181760714Y54871428D01*
X182046428Y54871428D01*
X182189285Y54942857D01*
X182260714Y55014285D01*
X182332142Y55157142D01*
X182332142Y55514285D01*
X182260714Y55657142D01*
X182189285Y55728571D01*
X182046428Y55800000D01*
X181760714Y55800000D01*
X181617857Y55728571D01*
X181546428Y55657142D01*
X181475000Y55514285D01*
X182903571Y55300000D02*
X183617857Y55300000D01*
X182760714Y54871428D02*
X183260714Y56371428D01*
X183760714Y54871428D01*
X170046428Y52321428D02*
X170046428Y53821428D01*
X170046428Y52392857D02*
X169903571Y52321428D01*
X169617857Y52321428D01*
X169475000Y52392857D01*
X169403571Y52464285D01*
X169332142Y52607142D01*
X169332142Y53035714D01*
X169403571Y53178571D01*
X169475000Y53250000D01*
X169617857Y53321428D01*
X169903571Y53321428D01*
X170046428Y53250000D01*
X171332142Y52392857D02*
X171189285Y52321428D01*
X170903571Y52321428D01*
X170760714Y52392857D01*
X170689285Y52535714D01*
X170689285Y53107142D01*
X170760714Y53250000D01*
X170903571Y53321428D01*
X171189285Y53321428D01*
X171332142Y53250000D01*
X171403571Y53107142D01*
X171403571Y52964285D01*
X170689285Y52821428D01*
X171975000Y52392857D02*
X172117857Y52321428D01*
X172403571Y52321428D01*
X172546428Y52392857D01*
X172617857Y52535714D01*
X172617857Y52607142D01*
X172546428Y52750000D01*
X172403571Y52821428D01*
X172189285Y52821428D01*
X172046428Y52892857D01*
X171975000Y53035714D01*
X171975000Y53107142D01*
X172046428Y53250000D01*
X172189285Y53321428D01*
X172403571Y53321428D01*
X172546428Y53250000D01*
X173260714Y52321428D02*
X173260714Y53321428D01*
X173260714Y53821428D02*
X173189285Y53750000D01*
X173260714Y53678571D01*
X173332142Y53750000D01*
X173260714Y53821428D01*
X173260714Y53678571D01*
X174617857Y53321428D02*
X174617857Y52107142D01*
X174546428Y51964285D01*
X174475000Y51892857D01*
X174332142Y51821428D01*
X174117857Y51821428D01*
X173975000Y51892857D01*
X174617857Y52392857D02*
X174475000Y52321428D01*
X174189285Y52321428D01*
X174046428Y52392857D01*
X173975000Y52464285D01*
X173903571Y52607142D01*
X173903571Y53035714D01*
X173975000Y53178571D01*
X174046428Y53250000D01*
X174189285Y53321428D01*
X174475000Y53321428D01*
X174617857Y53250000D01*
X175332142Y53321428D02*
X175332142Y52321428D01*
X175332142Y53178571D02*
X175403571Y53250000D01*
X175546428Y53321428D01*
X175760714Y53321428D01*
X175903571Y53250000D01*
X175975000Y53107142D01*
X175975000Y52321428D01*
X177260714Y52392857D02*
X177117857Y52321428D01*
X176832142Y52321428D01*
X176689285Y52392857D01*
X176617857Y52535714D01*
X176617857Y53107142D01*
X176689285Y53250000D01*
X176832142Y53321428D01*
X177117857Y53321428D01*
X177260714Y53250000D01*
X177332142Y53107142D01*
X177332142Y52964285D01*
X176617857Y52821428D01*
X178617857Y52321428D02*
X178617857Y53821428D01*
X178617857Y52392857D02*
X178475000Y52321428D01*
X178189285Y52321428D01*
X178046428Y52392857D01*
X177975000Y52464285D01*
X177903571Y52607142D01*
X177903571Y53035714D01*
X177975000Y53178571D01*
X178046428Y53250000D01*
X178189285Y53321428D01*
X178475000Y53321428D01*
X178617857Y53250000D01*
X180475000Y52321428D02*
X180475000Y53821428D01*
X180475000Y53250000D02*
X180617857Y53321428D01*
X180903571Y53321428D01*
X181046428Y53250000D01*
X181117857Y53178571D01*
X181189285Y53035714D01*
X181189285Y52607142D01*
X181117857Y52464285D01*
X181046428Y52392857D01*
X180903571Y52321428D01*
X180617857Y52321428D01*
X180475000Y52392857D01*
X181689285Y53321428D02*
X182046428Y52321428D01*
X182403571Y53321428D02*
X182046428Y52321428D01*
X181903571Y51964285D01*
X181832142Y51892857D01*
X181689285Y51821428D01*
X184117857Y52321428D02*
X184117857Y53321428D01*
X184117857Y53178571D02*
X184189285Y53250000D01*
X184332142Y53321428D01*
X184546428Y53321428D01*
X184689285Y53250000D01*
X184760714Y53107142D01*
X184760714Y52321428D01*
X184760714Y53107142D02*
X184832142Y53250000D01*
X184975000Y53321428D01*
X185189285Y53321428D01*
X185332142Y53250000D01*
X185403571Y53107142D01*
X185403571Y52321428D01*
X186117857Y52464285D02*
X186189285Y52392857D01*
X186117857Y52321428D01*
X186046428Y52392857D01*
X186117857Y52464285D01*
X186117857Y52321428D01*
X186832142Y52321428D02*
X186832142Y53821428D01*
X186975000Y52892857D02*
X187403571Y52321428D01*
X187403571Y53321428D02*
X186832142Y52750000D01*
X188046428Y52321428D02*
X188046428Y53321428D01*
X188046428Y53821428D02*
X187975000Y53750000D01*
X188046428Y53678571D01*
X188117857Y53750000D01*
X188046428Y53821428D01*
X188046428Y53678571D01*
X171189285Y50771428D02*
X171546428Y49771428D01*
X171903571Y50771428D01*
X173046428Y49842857D02*
X172903571Y49771428D01*
X172617857Y49771428D01*
X172475000Y49842857D01*
X172403571Y49985714D01*
X172403571Y50557142D01*
X172475000Y50700000D01*
X172617857Y50771428D01*
X172903571Y50771428D01*
X173046428Y50700000D01*
X173117857Y50557142D01*
X173117857Y50414285D01*
X172403571Y50271428D01*
X173760714Y49771428D02*
X173760714Y50771428D01*
X173760714Y50485714D02*
X173832142Y50628571D01*
X173903571Y50700000D01*
X174046428Y50771428D01*
X174189285Y50771428D01*
X174689285Y49914285D02*
X174760714Y49842857D01*
X174689285Y49771428D01*
X174617857Y49842857D01*
X174689285Y49914285D01*
X174689285Y49771428D01*
X175332142Y51128571D02*
X175403571Y51200000D01*
X175546428Y51271428D01*
X175903571Y51271428D01*
X176046428Y51200000D01*
X176117857Y51128571D01*
X176189285Y50985714D01*
X176189285Y50842857D01*
X176117857Y50628571D01*
X175260714Y49771428D01*
X176189285Y49771428D01*
X177117857Y51271428D02*
X177260714Y51271428D01*
X177403571Y51200000D01*
X177475000Y51128571D01*
X177546428Y50985714D01*
X177617857Y50700000D01*
X177617857Y50342857D01*
X177546428Y50057142D01*
X177475000Y49914285D01*
X177403571Y49842857D01*
X177260714Y49771428D01*
X177117857Y49771428D01*
X176975000Y49842857D01*
X176903571Y49914285D01*
X176832142Y50057142D01*
X176760714Y50342857D01*
X176760714Y50700000D01*
X176832142Y50985714D01*
X176903571Y51128571D01*
X176975000Y51200000D01*
X177117857Y51271428D01*
X178189285Y51128571D02*
X178260714Y51200000D01*
X178403571Y51271428D01*
X178760714Y51271428D01*
X178903571Y51200000D01*
X178975000Y51128571D01*
X179046428Y50985714D01*
X179046428Y50842857D01*
X178975000Y50628571D01*
X178117857Y49771428D01*
X179046428Y49771428D01*
X179975000Y51271428D02*
X180117857Y51271428D01*
X180260714Y51200000D01*
X180332142Y51128571D01*
X180403571Y50985714D01*
X180475000Y50700000D01*
X180475000Y50342857D01*
X180403571Y50057142D01*
X180332142Y49914285D01*
X180260714Y49842857D01*
X180117857Y49771428D01*
X179975000Y49771428D01*
X179832142Y49842857D01*
X179760714Y49914285D01*
X179689285Y50057142D01*
X179617857Y50342857D01*
X179617857Y50700000D01*
X179689285Y50985714D01*
X179760714Y51128571D01*
X179832142Y51200000D01*
X179975000Y51271428D01*
X181403571Y51271428D02*
X181546428Y51271428D01*
X181689285Y51200000D01*
X181760714Y51128571D01*
X181832142Y50985714D01*
X181903571Y50700000D01*
X181903571Y50342857D01*
X181832142Y50057142D01*
X181760714Y49914285D01*
X181689285Y49842857D01*
X181546428Y49771428D01*
X181403571Y49771428D01*
X181260714Y49842857D01*
X181189285Y49914285D01*
X181117857Y50057142D01*
X181046428Y50342857D01*
X181046428Y50700000D01*
X181117857Y50985714D01*
X181189285Y51128571D01*
X181260714Y51200000D01*
X181403571Y51271428D01*
X182617857Y49771428D02*
X182903571Y49771428D01*
X183046428Y49842857D01*
X183117857Y49914285D01*
X183260714Y50128571D01*
X183332142Y50414285D01*
X183332142Y50985714D01*
X183260714Y51128571D01*
X183189285Y51200000D01*
X183046428Y51271428D01*
X182760714Y51271428D01*
X182617857Y51200000D01*
X182546428Y51128571D01*
X182475000Y50985714D01*
X182475000Y50628571D01*
X182546428Y50485714D01*
X182617857Y50414285D01*
X182760714Y50342857D01*
X183046428Y50342857D01*
X183189285Y50414285D01*
X183260714Y50485714D01*
X183332142Y50628571D01*
X184260714Y51271428D02*
X184403571Y51271428D01*
X184546428Y51200000D01*
X184617857Y51128571D01*
X184689285Y50985714D01*
X184760714Y50700000D01*
X184760714Y50342857D01*
X184689285Y50057142D01*
X184617857Y49914285D01*
X184546428Y49842857D01*
X184403571Y49771428D01*
X184260714Y49771428D01*
X184117857Y49842857D01*
X184046428Y49914285D01*
X183975000Y50057142D01*
X183903571Y50342857D01*
X183903571Y50700000D01*
X183975000Y50985714D01*
X184046428Y51128571D01*
X184117857Y51200000D01*
X184260714Y51271428D01*
X186189285Y49771428D02*
X185332142Y49771428D01*
X185760714Y49771428D02*
X185760714Y51271428D01*
X185617857Y51057142D01*
X185475000Y50914285D01*
X185332142Y50842857D01*
D13*
%TO.C,D1*%
X68325000Y80500000D02*
X67825000Y81400000D01*
X67825000Y81400000D02*
X68825000Y81400000D01*
X68825000Y81400000D02*
X68325000Y80500000D01*
X67825000Y80400000D02*
X68825000Y80400000D01*
X67575000Y83600000D02*
X67575000Y78200000D01*
X67575000Y78200000D02*
X69075000Y78200000D01*
X69075000Y78200000D02*
X69075000Y83600000D01*
X69075000Y83600000D02*
X67575000Y83600000D01*
%TO.C,D2*%
X88400000Y80650000D02*
X87900000Y81550000D01*
X87900000Y81550000D02*
X88900000Y81550000D01*
X88900000Y81550000D02*
X88400000Y80650000D01*
X87900000Y80550000D02*
X88900000Y80550000D01*
X87650000Y83750000D02*
X87650000Y78350000D01*
X87650000Y78350000D02*
X89150000Y78350000D01*
X89150000Y78350000D02*
X89150000Y83750000D01*
X89150000Y83750000D02*
X87650000Y83750000D01*
%TO.C,D3*%
X111265138Y79501522D02*
X110845481Y80441675D01*
X110845481Y80441675D02*
X111841675Y80354519D01*
X111841675Y80354519D02*
X111265138Y79501522D01*
X110758325Y79445481D02*
X111754519Y79358325D01*
X110788174Y82655092D02*
X110317533Y77275641D01*
X110317533Y77275641D02*
X111811826Y77144908D01*
X111811826Y77144908D02*
X112282467Y82524359D01*
X112282467Y82524359D02*
X110788174Y82655092D01*
%TO.C,D4*%
X130090138Y77876522D02*
X129670481Y78816675D01*
X129670481Y78816675D02*
X130666675Y78729519D01*
X130666675Y78729519D02*
X130090138Y77876522D01*
X129583325Y77820481D02*
X130579519Y77733325D01*
X129613174Y81030092D02*
X129142533Y75650641D01*
X129142533Y75650641D02*
X130636826Y75519908D01*
X130636826Y75519908D02*
X131107467Y80899359D01*
X131107467Y80899359D02*
X129613174Y81030092D01*
%TO.C,D5*%
X148940138Y76226522D02*
X148520481Y77166675D01*
X148520481Y77166675D02*
X149516675Y77079519D01*
X149516675Y77079519D02*
X148940138Y76226522D01*
X148433325Y76170481D02*
X149429519Y76083325D01*
X148463174Y79380092D02*
X147992533Y74000641D01*
X147992533Y74000641D02*
X149486826Y73869908D01*
X149486826Y73869908D02*
X149957467Y79249359D01*
X149957467Y79249359D02*
X148463174Y79380092D01*
%TO.C,D6*%
X160473478Y66190138D02*
X159533325Y65770481D01*
X159533325Y65770481D02*
X159620481Y66766675D01*
X159620481Y66766675D02*
X160473478Y66190138D01*
X160529519Y65683325D02*
X160616675Y66679519D01*
X157319908Y65713174D02*
X162699359Y65242533D01*
X162699359Y65242533D02*
X162830092Y66736826D01*
X162830092Y66736826D02*
X157450641Y67207467D01*
X157450641Y67207467D02*
X157319908Y65713174D01*
%TO.C,D7*%
X64525000Y53025000D02*
X64525000Y51525000D01*
X69925000Y53025000D02*
X64525000Y53025000D01*
X69925000Y51525000D02*
X69925000Y53025000D01*
X64525000Y51525000D02*
X69925000Y51525000D01*
X67725000Y51775000D02*
X67725000Y52775000D01*
X66725000Y52775000D02*
X67625000Y52275000D01*
X66725000Y51775000D02*
X66725000Y52775000D01*
X67625000Y52275000D02*
X66725000Y51775000D01*
%TO.C,D8*%
X90800000Y52850000D02*
X90800000Y51350000D01*
X96200000Y52850000D02*
X90800000Y52850000D01*
X96200000Y51350000D02*
X96200000Y52850000D01*
X90800000Y51350000D02*
X96200000Y51350000D01*
X94000000Y51600000D02*
X94000000Y52600000D01*
X93000000Y52600000D02*
X93900000Y52100000D01*
X93000000Y51600000D02*
X93000000Y52600000D01*
X93900000Y52100000D02*
X93000000Y51600000D01*
%TO.C,D9*%
X106775641Y52107467D02*
X106644908Y50613174D01*
X112155092Y51636826D02*
X106775641Y52107467D01*
X112024359Y50142533D02*
X112155092Y51636826D01*
X106644908Y50613174D02*
X112024359Y50142533D01*
X109854519Y50583325D02*
X109941675Y51579519D01*
X108945481Y51666675D02*
X109798478Y51090138D01*
X108858325Y50670481D02*
X108945481Y51666675D01*
X109798478Y51090138D02*
X108858325Y50670481D01*
%TO.C,D10*%
X130075641Y50307467D02*
X129944908Y48813174D01*
X135455092Y49836826D02*
X130075641Y50307467D01*
X135324359Y48342533D02*
X135455092Y49836826D01*
X129944908Y48813174D02*
X135324359Y48342533D01*
X133154519Y48783325D02*
X133241675Y49779519D01*
X132245481Y49866675D02*
X133098478Y49290138D01*
X132158325Y48870481D02*
X132245481Y49866675D01*
X133098478Y49290138D02*
X132158325Y48870481D01*
%TO.C,D11*%
X148425641Y48632467D02*
X148294908Y47138174D01*
X153805092Y48161826D02*
X148425641Y48632467D01*
X153674359Y46667533D02*
X153805092Y48161826D01*
X148294908Y47138174D02*
X153674359Y46667533D01*
X151504519Y47108325D02*
X151591675Y48104519D01*
X150595481Y48191675D02*
X151448478Y47615138D01*
X150508325Y47195481D02*
X150595481Y48191675D01*
X151448478Y47615138D02*
X150508325Y47195481D01*
%TO.C,D12*%
X173523478Y45915138D02*
X172583325Y45495481D01*
X172583325Y45495481D02*
X172670481Y46491675D01*
X172670481Y46491675D02*
X173523478Y45915138D01*
X173579519Y45408325D02*
X173666675Y46404519D01*
X170369908Y45438174D02*
X175749359Y44967533D01*
X175749359Y44967533D02*
X175880092Y46461826D01*
X175880092Y46461826D02*
X170500641Y46932467D01*
X170500641Y46932467D02*
X170369908Y45438174D01*
%TO.C,D13*%
X71450000Y44725000D02*
X71950000Y43825000D01*
X71950000Y43825000D02*
X70950000Y43825000D01*
X70950000Y43825000D02*
X71450000Y44725000D01*
X71950000Y44825000D02*
X70950000Y44825000D01*
X72200000Y41625000D02*
X72200000Y47025000D01*
X72200000Y47025000D02*
X70700000Y47025000D01*
X70700000Y47025000D02*
X70700000Y41625000D01*
X70700000Y41625000D02*
X72200000Y41625000D01*
%TO.C,D14*%
X97700000Y44425000D02*
X98200000Y43525000D01*
X98200000Y43525000D02*
X97200000Y43525000D01*
X97200000Y43525000D02*
X97700000Y44425000D01*
X98200000Y44525000D02*
X97200000Y44525000D01*
X98450000Y41325000D02*
X98450000Y46725000D01*
X98450000Y46725000D02*
X96950000Y46725000D01*
X96950000Y46725000D02*
X96950000Y41325000D01*
X96950000Y41325000D02*
X98450000Y41325000D01*
%TO.C,D15*%
X119109862Y42873478D02*
X119529519Y41933325D01*
X119529519Y41933325D02*
X118533325Y42020481D01*
X118533325Y42020481D02*
X119109862Y42873478D01*
X119616675Y42929519D02*
X118620481Y43016675D01*
X119586826Y39719908D02*
X120057467Y45099359D01*
X120057467Y45099359D02*
X118563174Y45230092D01*
X118563174Y45230092D02*
X118092533Y39850641D01*
X118092533Y39850641D02*
X119586826Y39719908D01*
%TO.C,D16*%
X138159862Y41198478D02*
X138579519Y40258325D01*
X138579519Y40258325D02*
X137583325Y40345481D01*
X137583325Y40345481D02*
X138159862Y41198478D01*
X138666675Y41254519D02*
X137670481Y41341675D01*
X138636826Y38044908D02*
X139107467Y43424359D01*
X139107467Y43424359D02*
X137613174Y43555092D01*
X137613174Y43555092D02*
X137142533Y38175641D01*
X137142533Y38175641D02*
X138636826Y38044908D01*
%TO.C,D17*%
X157234862Y40148478D02*
X157654519Y39208325D01*
X157654519Y39208325D02*
X156658325Y39295481D01*
X156658325Y39295481D02*
X157234862Y40148478D01*
X157741675Y40204519D02*
X156745481Y40291675D01*
X157711826Y36994908D02*
X158182467Y42374359D01*
X158182467Y42374359D02*
X156688174Y42505092D01*
X156688174Y42505092D02*
X156217533Y37125641D01*
X156217533Y37125641D02*
X157711826Y36994908D01*
%TO.C,D18*%
X175192533Y34825641D02*
X176686826Y34694908D01*
X175663174Y40205092D02*
X175192533Y34825641D01*
X177157467Y40074359D02*
X175663174Y40205092D01*
X176686826Y34694908D02*
X177157467Y40074359D01*
X176716675Y37904519D02*
X175720481Y37991675D01*
X175633325Y36995481D02*
X176209862Y37848478D01*
X176629519Y36908325D02*
X175633325Y36995481D01*
X176209862Y37848478D02*
X176629519Y36908325D01*
%TO.C,D19*%
X197548338Y64892875D02*
X197417605Y66387168D01*
X192168887Y64422234D02*
X197548338Y64892875D01*
X192038154Y65916527D02*
X192168887Y64422234D01*
X197417605Y66387168D02*
X192038154Y65916527D01*
X194251571Y65859220D02*
X194338727Y64863026D01*
X195334921Y64950182D02*
X194394768Y65369839D01*
X195247765Y65946376D02*
X195334921Y64950182D01*
X194394768Y65369839D02*
X195247765Y65946376D01*
%TO.C,D20*%
X216530092Y66513174D02*
X216399359Y68007467D01*
X211150641Y66042533D02*
X216530092Y66513174D01*
X211019908Y67536826D02*
X211150641Y66042533D01*
X216399359Y68007467D02*
X211019908Y67536826D01*
X213233325Y67479519D02*
X213320481Y66483325D01*
X214316675Y66570481D02*
X213376522Y66990138D01*
X214229519Y67566675D02*
X214316675Y66570481D01*
X213376522Y66990138D02*
X214229519Y67566675D01*
%TO.C,D21*%
X235680092Y68038174D02*
X235549359Y69532467D01*
X230300641Y67567533D02*
X235680092Y68038174D01*
X230169908Y69061826D02*
X230300641Y67567533D01*
X235549359Y69532467D02*
X230169908Y69061826D01*
X232383325Y69004519D02*
X232470481Y68008325D01*
X233466675Y68095481D02*
X232526522Y68515138D01*
X233379519Y69091675D02*
X233466675Y68095481D01*
X232526522Y68515138D02*
X233379519Y69091675D01*
%TO.C,D22*%
X255105092Y69938174D02*
X254974359Y71432467D01*
X249725641Y69467533D02*
X255105092Y69938174D01*
X249594908Y70961826D02*
X249725641Y69467533D01*
X254974359Y71432467D02*
X249594908Y70961826D01*
X251808325Y70904519D02*
X251895481Y69908325D01*
X252891675Y69995481D02*
X251951522Y70415138D01*
X252804519Y70991675D02*
X252891675Y69995481D01*
X251951522Y70415138D02*
X252804519Y70991675D01*
%TO.C,D23*%
X275125000Y70875000D02*
X275125000Y72375000D01*
X269725000Y70875000D02*
X275125000Y70875000D01*
X269725000Y72375000D02*
X269725000Y70875000D01*
X275125000Y72375000D02*
X269725000Y72375000D01*
X271925000Y72125000D02*
X271925000Y71125000D01*
X272925000Y71125000D02*
X272025000Y71625000D01*
X272925000Y72125000D02*
X272925000Y71125000D01*
X272025000Y71625000D02*
X272925000Y72125000D01*
%TO.C,D24*%
X293175000Y71625000D02*
X294075000Y72125000D01*
X294075000Y72125000D02*
X294075000Y71125000D01*
X294075000Y71125000D02*
X293175000Y71625000D01*
X293075000Y72125000D02*
X293075000Y71125000D01*
X296275000Y72375000D02*
X290875000Y72375000D01*
X290875000Y72375000D02*
X290875000Y70875000D01*
X290875000Y70875000D02*
X296275000Y70875000D01*
X296275000Y70875000D02*
X296275000Y72375000D01*
%TO.C,D25*%
X200651522Y46515138D02*
X201504519Y47091675D01*
X201504519Y47091675D02*
X201591675Y46095481D01*
X201591675Y46095481D02*
X200651522Y46515138D01*
X200508325Y47004519D02*
X200595481Y46008325D01*
X203674359Y47532467D02*
X198294908Y47061826D01*
X198294908Y47061826D02*
X198425641Y45567533D01*
X198425641Y45567533D02*
X203805092Y46038174D01*
X203805092Y46038174D02*
X203674359Y47532467D01*
%TO.C,D26*%
X219469768Y48494839D02*
X220322765Y49071376D01*
X220322765Y49071376D02*
X220409921Y48075182D01*
X220409921Y48075182D02*
X219469768Y48494839D01*
X219326571Y48984220D02*
X219413727Y47988026D01*
X222492605Y49512168D02*
X217113154Y49041527D01*
X217113154Y49041527D02*
X217243887Y47547234D01*
X217243887Y47547234D02*
X222623338Y48017875D01*
X222623338Y48017875D02*
X222492605Y49512168D01*
%TO.C,D27*%
X238419768Y50119839D02*
X239272765Y50696376D01*
X239272765Y50696376D02*
X239359921Y49700182D01*
X239359921Y49700182D02*
X238419768Y50119839D01*
X238276571Y50609220D02*
X238363727Y49613026D01*
X241442605Y51137168D02*
X236063154Y50666527D01*
X236063154Y50666527D02*
X236193887Y49172234D01*
X236193887Y49172234D02*
X241573338Y49642875D01*
X241573338Y49642875D02*
X241442605Y51137168D01*
%TO.C,D28*%
X257626522Y51515138D02*
X258479519Y52091675D01*
X258479519Y52091675D02*
X258566675Y51095481D01*
X258566675Y51095481D02*
X257626522Y51515138D01*
X257483325Y52004519D02*
X257570481Y51008325D01*
X260649359Y52532467D02*
X255269908Y52061826D01*
X255269908Y52061826D02*
X255400641Y50567533D01*
X255400641Y50567533D02*
X260780092Y51038174D01*
X260780092Y51038174D02*
X260649359Y52532467D01*
%TO.C,D29*%
X277575000Y52550000D02*
X278475000Y53050000D01*
X278475000Y53050000D02*
X278475000Y52050000D01*
X278475000Y52050000D02*
X277575000Y52550000D01*
X277475000Y53050000D02*
X277475000Y52050000D01*
X280675000Y53300000D02*
X275275000Y53300000D01*
X275275000Y53300000D02*
X275275000Y51800000D01*
X275275000Y51800000D02*
X280675000Y51800000D01*
X280675000Y51800000D02*
X280675000Y53300000D01*
%TO.C,D30*%
X301850000Y51575000D02*
X301850000Y53075000D01*
X296450000Y51575000D02*
X301850000Y51575000D01*
X296450000Y53075000D02*
X296450000Y51575000D01*
X301850000Y53075000D02*
X296450000Y53075000D01*
X298650000Y52825000D02*
X298650000Y51825000D01*
X299650000Y51825000D02*
X298750000Y52325000D01*
X299650000Y52825000D02*
X299650000Y51825000D01*
X298750000Y52325000D02*
X299650000Y52825000D01*
%TO.C,D31*%
X197463174Y35569908D02*
X198957467Y35700641D01*
X196992533Y40949359D02*
X197463174Y35569908D01*
X198486826Y41080092D02*
X196992533Y40949359D01*
X198957467Y35700641D02*
X198486826Y41080092D01*
X198429519Y38866675D02*
X197433325Y38779519D01*
X197520481Y37783325D02*
X197940138Y38723478D01*
X198516675Y37870481D02*
X197520481Y37783325D01*
X197940138Y38723478D02*
X198516675Y37870481D01*
%TO.C,D32*%
X216617875Y37151662D02*
X218112168Y37282395D01*
X216147234Y42531113D02*
X216617875Y37151662D01*
X217641527Y42661846D02*
X216147234Y42531113D01*
X218112168Y37282395D02*
X217641527Y42661846D01*
X217584220Y40448429D02*
X216588026Y40361273D01*
X216675182Y39365079D02*
X217094839Y40305232D01*
X217671376Y39452235D02*
X216675182Y39365079D01*
X217094839Y40305232D02*
X217671376Y39452235D01*
%TO.C,D33*%
X235463174Y38769908D02*
X236957467Y38900641D01*
X234992533Y44149359D02*
X235463174Y38769908D01*
X236486826Y44280092D02*
X234992533Y44149359D01*
X236957467Y38900641D02*
X236486826Y44280092D01*
X236429519Y42066675D02*
X235433325Y41979519D01*
X235520481Y40983325D02*
X235940138Y41923478D01*
X236516675Y41070481D02*
X235520481Y40983325D01*
X235940138Y41923478D02*
X236516675Y41070481D01*
%TO.C,D34*%
X254563174Y39744908D02*
X256057467Y39875641D01*
X254092533Y45124359D02*
X254563174Y39744908D01*
X255586826Y45255092D02*
X254092533Y45124359D01*
X256057467Y39875641D02*
X255586826Y45255092D01*
X255529519Y43041675D02*
X254533325Y42954519D01*
X254620481Y41958325D02*
X255040138Y42898478D01*
X255616675Y42045481D02*
X254620481Y41958325D01*
X255040138Y42898478D02*
X255616675Y42045481D01*
%TO.C,D35*%
X277825000Y40375000D02*
X279325000Y40375000D01*
X277825000Y45775000D02*
X277825000Y40375000D01*
X279325000Y45775000D02*
X277825000Y45775000D01*
X279325000Y40375000D02*
X279325000Y45775000D01*
X279075000Y43575000D02*
X278075000Y43575000D01*
X278075000Y42575000D02*
X278575000Y43475000D01*
X279075000Y42575000D02*
X278075000Y42575000D01*
X278575000Y43475000D02*
X279075000Y42575000D01*
%TO.C,D36*%
X303950000Y40375000D02*
X305450000Y40375000D01*
X303950000Y45775000D02*
X303950000Y40375000D01*
X305450000Y45775000D02*
X303950000Y45775000D01*
X305450000Y40375000D02*
X305450000Y45775000D01*
X305200000Y43575000D02*
X304200000Y43575000D01*
X304200000Y42575000D02*
X304700000Y43475000D01*
X305200000Y42575000D02*
X304200000Y42575000D01*
X304700000Y43475000D02*
X305200000Y42575000D01*
%TO.C,SW37*%
X192700000Y85600000D02*
X192450000Y85600000D01*
X192700000Y91600000D02*
X192700000Y85600000D01*
X192700000Y91600000D02*
X192450000Y91600000D01*
X189200000Y91600000D02*
X189450000Y91600000D01*
X189200000Y85600000D02*
X189450000Y85600000D01*
X189200000Y91600000D02*
X189200000Y85600000D01*
%TO.C,U1*%
D14*
X175628571Y91185714D02*
X175628571Y91935714D01*
X175878571Y91400000D01*
X176128571Y91935714D01*
X176128571Y91185714D01*
X176485714Y91185714D02*
X176485714Y91685714D01*
X176485714Y91935714D02*
X176450000Y91900000D01*
X176485714Y91864285D01*
X176521428Y91900000D01*
X176485714Y91935714D01*
X176485714Y91864285D01*
X177164285Y91221428D02*
X177092857Y91185714D01*
X176950000Y91185714D01*
X176878571Y91221428D01*
X176842857Y91257142D01*
X176807142Y91328571D01*
X176807142Y91542857D01*
X176842857Y91614285D01*
X176878571Y91650000D01*
X176950000Y91685714D01*
X177092857Y91685714D01*
X177164285Y91650000D01*
X177485714Y91185714D02*
X177485714Y91685714D01*
X177485714Y91542857D02*
X177521428Y91614285D01*
X177557142Y91650000D01*
X177628571Y91685714D01*
X177700000Y91685714D01*
X178057142Y91185714D02*
X177985714Y91221428D01*
X177950000Y91257142D01*
X177914285Y91328571D01*
X177914285Y91542857D01*
X177950000Y91614285D01*
X177985714Y91650000D01*
X178057142Y91685714D01*
X178164285Y91685714D01*
X178235714Y91650000D01*
X178271428Y91614285D01*
X178307142Y91542857D01*
X178307142Y91328571D01*
X178271428Y91257142D01*
X178235714Y91221428D01*
X178164285Y91185714D01*
X178057142Y91185714D01*
X178628571Y91935714D02*
X178628571Y91328571D01*
X178664285Y91257142D01*
X178700000Y91221428D01*
X178771428Y91185714D01*
X178914285Y91185714D01*
X178985714Y91221428D01*
X179021428Y91257142D01*
X179057142Y91328571D01*
X179057142Y91935714D01*
X179378571Y91221428D02*
X179485714Y91185714D01*
X179664285Y91185714D01*
X179735714Y91221428D01*
X179771428Y91257142D01*
X179807142Y91328571D01*
X179807142Y91400000D01*
X179771428Y91471428D01*
X179735714Y91507142D01*
X179664285Y91542857D01*
X179521428Y91578571D01*
X179450000Y91614285D01*
X179414285Y91650000D01*
X179378571Y91721428D01*
X179378571Y91792857D01*
X179414285Y91864285D01*
X179450000Y91900000D01*
X179521428Y91935714D01*
X179700000Y91935714D01*
X179807142Y91900000D01*
X180378571Y91578571D02*
X180485714Y91542857D01*
X180521428Y91507142D01*
X180557142Y91435714D01*
X180557142Y91328571D01*
X180521428Y91257142D01*
X180485714Y91221428D01*
X180414285Y91185714D01*
X180128571Y91185714D01*
X180128571Y91935714D01*
X180378571Y91935714D01*
X180450000Y91900000D01*
X180485714Y91864285D01*
X180521428Y91792857D01*
X180521428Y91721428D01*
X180485714Y91650000D01*
X180450000Y91614285D01*
X180378571Y91578571D01*
X180128571Y91578571D01*
D13*
%TO.C,SW1*%
X58191666Y87070238D02*
X58334523Y87022619D01*
X58572619Y87022619D01*
X58667857Y87070238D01*
X58715476Y87117857D01*
X58763095Y87213095D01*
X58763095Y87308333D01*
X58715476Y87403571D01*
X58667857Y87451190D01*
X58572619Y87498809D01*
X58382142Y87546428D01*
X58286904Y87594047D01*
X58239285Y87641666D01*
X58191666Y87736904D01*
X58191666Y87832142D01*
X58239285Y87927380D01*
X58286904Y87975000D01*
X58382142Y88022619D01*
X58620238Y88022619D01*
X58763095Y87975000D01*
X59096428Y88022619D02*
X59334523Y87022619D01*
X59525000Y87736904D01*
X59715476Y87022619D01*
X59953571Y88022619D01*
X60858333Y87022619D02*
X60286904Y87022619D01*
X60572619Y87022619D02*
X60572619Y88022619D01*
X60477380Y87879761D01*
X60382142Y87784523D01*
X60286904Y87736904D01*
%TO.C,SW7*%
X58591666Y67970238D02*
X58734523Y67922619D01*
X58972619Y67922619D01*
X59067857Y67970238D01*
X59115476Y68017857D01*
X59163095Y68113095D01*
X59163095Y68208333D01*
X59115476Y68303571D01*
X59067857Y68351190D01*
X58972619Y68398809D01*
X58782142Y68446428D01*
X58686904Y68494047D01*
X58639285Y68541666D01*
X58591666Y68636904D01*
X58591666Y68732142D01*
X58639285Y68827380D01*
X58686904Y68875000D01*
X58782142Y68922619D01*
X59020238Y68922619D01*
X59163095Y68875000D01*
X59496428Y68922619D02*
X59734523Y67922619D01*
X59925000Y68636904D01*
X60115476Y67922619D01*
X60353571Y68922619D01*
X60639285Y68922619D02*
X61305952Y68922619D01*
X60877380Y67922619D01*
%TO.C,SW2*%
X78191666Y87070238D02*
X78334523Y87022619D01*
X78572619Y87022619D01*
X78667857Y87070238D01*
X78715476Y87117857D01*
X78763095Y87213095D01*
X78763095Y87308333D01*
X78715476Y87403571D01*
X78667857Y87451190D01*
X78572619Y87498809D01*
X78382142Y87546428D01*
X78286904Y87594047D01*
X78239285Y87641666D01*
X78191666Y87736904D01*
X78191666Y87832142D01*
X78239285Y87927380D01*
X78286904Y87975000D01*
X78382142Y88022619D01*
X78620238Y88022619D01*
X78763095Y87975000D01*
X79096428Y88022619D02*
X79334523Y87022619D01*
X79525000Y87736904D01*
X79715476Y87022619D01*
X79953571Y88022619D01*
X80286904Y87927380D02*
X80334523Y87975000D01*
X80429761Y88022619D01*
X80667857Y88022619D01*
X80763095Y87975000D01*
X80810714Y87927380D01*
X80858333Y87832142D01*
X80858333Y87736904D01*
X80810714Y87594047D01*
X80239285Y87022619D01*
X80858333Y87022619D01*
%TO.C,SW3*%
X101632562Y86958684D02*
X101770725Y86898796D01*
X102007914Y86878044D01*
X102106940Y86917182D01*
X102158528Y86960469D01*
X102214267Y87051195D01*
X102222567Y87146070D01*
X102183430Y87245096D01*
X102140142Y87296685D01*
X102049417Y87352423D01*
X101863816Y87416462D01*
X101773090Y87472200D01*
X101729803Y87523788D01*
X101690665Y87622814D01*
X101698966Y87717690D01*
X101754704Y87808415D01*
X101806292Y87851703D01*
X101905318Y87890840D01*
X102142508Y87870089D01*
X102280671Y87810200D01*
X102616886Y87828586D02*
X102766920Y86811640D01*
X103018925Y87506607D01*
X103146422Y86778438D01*
X103470767Y87753881D01*
X103755394Y87728980D02*
X104372086Y87675026D01*
X104006819Y87324575D01*
X104149133Y87312124D01*
X104239858Y87256386D01*
X104283146Y87204798D01*
X104322283Y87105772D01*
X104301532Y86868583D01*
X104245793Y86777857D01*
X104194205Y86734570D01*
X104095179Y86695432D01*
X103810552Y86720334D01*
X103719827Y86776072D01*
X103676539Y86827661D01*
%TO.C,SW4*%
X120632562Y85158684D02*
X120770725Y85098796D01*
X121007914Y85078044D01*
X121106940Y85117182D01*
X121158528Y85160469D01*
X121214267Y85251195D01*
X121222567Y85346070D01*
X121183430Y85445096D01*
X121140142Y85496685D01*
X121049417Y85552423D01*
X120863816Y85616462D01*
X120773090Y85672200D01*
X120729803Y85723788D01*
X120690665Y85822814D01*
X120698966Y85917690D01*
X120754704Y86008415D01*
X120806292Y86051703D01*
X120905318Y86090840D01*
X121142508Y86070089D01*
X121280671Y86010200D01*
X121616886Y86028586D02*
X121766920Y85011640D01*
X122018925Y85706607D01*
X122146422Y84978438D01*
X122470767Y85953881D01*
X123248159Y85551262D02*
X123190055Y84887132D01*
X123044172Y85951516D02*
X122744728Y85260700D01*
X123361420Y85206746D01*
%TO.C,SW5*%
X139532562Y83558684D02*
X139670725Y83498796D01*
X139907914Y83478044D01*
X140006940Y83517182D01*
X140058528Y83560469D01*
X140114267Y83651195D01*
X140122567Y83746070D01*
X140083430Y83845096D01*
X140040142Y83896685D01*
X139949417Y83952423D01*
X139763816Y84016462D01*
X139673090Y84072200D01*
X139629803Y84123788D01*
X139590665Y84222814D01*
X139598966Y84317690D01*
X139654704Y84408415D01*
X139706292Y84451703D01*
X139805318Y84490840D01*
X140042508Y84470089D01*
X140180671Y84410200D01*
X140516886Y84428586D02*
X140666920Y83411640D01*
X140918925Y84106607D01*
X141046422Y83378438D01*
X141370767Y84353881D01*
X142224648Y84279176D02*
X141750270Y84320679D01*
X141661329Y83850451D01*
X141712918Y83893738D01*
X141811943Y83932876D01*
X142049133Y83912124D01*
X142139858Y83856386D01*
X142183146Y83804798D01*
X142222283Y83705772D01*
X142201532Y83468583D01*
X142145793Y83377857D01*
X142094205Y83334570D01*
X141995179Y83295432D01*
X141757990Y83316184D01*
X141667265Y83371922D01*
X141623977Y83423510D01*
%TO.C,SW6*%
X158532562Y82058684D02*
X158670725Y81998796D01*
X158907914Y81978044D01*
X159006940Y82017182D01*
X159058528Y82060469D01*
X159114267Y82151195D01*
X159122567Y82246070D01*
X159083430Y82345096D01*
X159040142Y82396685D01*
X158949417Y82452423D01*
X158763816Y82516462D01*
X158673090Y82572200D01*
X158629803Y82623788D01*
X158590665Y82722814D01*
X158598966Y82817690D01*
X158654704Y82908415D01*
X158706292Y82951703D01*
X158805318Y82990840D01*
X159042508Y82970089D01*
X159180671Y82910200D01*
X159516886Y82928586D02*
X159666920Y81911640D01*
X159918925Y82606607D01*
X160046422Y81878438D01*
X160370767Y82853881D01*
X161177211Y82783327D02*
X160987459Y82799928D01*
X160888433Y82760790D01*
X160836845Y82717503D01*
X160729519Y82583490D01*
X160665480Y82397889D01*
X160632277Y82018386D01*
X160671415Y81919360D01*
X160714702Y81867772D01*
X160805428Y81812034D01*
X160995179Y81795432D01*
X161094205Y81834570D01*
X161145793Y81877857D01*
X161201532Y81968583D01*
X161222283Y82205772D01*
X161183146Y82304798D01*
X161139858Y82356386D01*
X161049133Y82412124D01*
X160859381Y82428725D01*
X160760355Y82389588D01*
X160708767Y82346301D01*
X160653029Y82255575D01*
%TO.C,SW8*%
X82891666Y67970238D02*
X83034523Y67922619D01*
X83272619Y67922619D01*
X83367857Y67970238D01*
X83415476Y68017857D01*
X83463095Y68113095D01*
X83463095Y68208333D01*
X83415476Y68303571D01*
X83367857Y68351190D01*
X83272619Y68398809D01*
X83082142Y68446428D01*
X82986904Y68494047D01*
X82939285Y68541666D01*
X82891666Y68636904D01*
X82891666Y68732142D01*
X82939285Y68827380D01*
X82986904Y68875000D01*
X83082142Y68922619D01*
X83320238Y68922619D01*
X83463095Y68875000D01*
X83796428Y68922619D02*
X84034523Y67922619D01*
X84225000Y68636904D01*
X84415476Y67922619D01*
X84653571Y68922619D01*
X85177380Y68494047D02*
X85082142Y68541666D01*
X85034523Y68589285D01*
X84986904Y68684523D01*
X84986904Y68732142D01*
X85034523Y68827380D01*
X85082142Y68875000D01*
X85177380Y68922619D01*
X85367857Y68922619D01*
X85463095Y68875000D01*
X85510714Y68827380D01*
X85558333Y68732142D01*
X85558333Y68684523D01*
X85510714Y68589285D01*
X85463095Y68541666D01*
X85367857Y68494047D01*
X85177380Y68494047D01*
X85082142Y68446428D01*
X85034523Y68398809D01*
X84986904Y68303571D01*
X84986904Y68113095D01*
X85034523Y68017857D01*
X85082142Y67970238D01*
X85177380Y67922619D01*
X85367857Y67922619D01*
X85463095Y67970238D01*
X85510714Y68017857D01*
X85558333Y68113095D01*
X85558333Y68303571D01*
X85510714Y68398809D01*
X85463095Y68446428D01*
X85367857Y68494047D01*
%TO.C,SW9*%
X104632562Y67558684D02*
X104770725Y67498796D01*
X105007914Y67478044D01*
X105106940Y67517182D01*
X105158528Y67560469D01*
X105214267Y67651195D01*
X105222567Y67746070D01*
X105183430Y67845096D01*
X105140142Y67896685D01*
X105049417Y67952423D01*
X104863816Y68016462D01*
X104773090Y68072200D01*
X104729803Y68123788D01*
X104690665Y68222814D01*
X104698966Y68317690D01*
X104754704Y68408415D01*
X104806292Y68451703D01*
X104905318Y68490840D01*
X105142508Y68470089D01*
X105280671Y68410200D01*
X105616886Y68428586D02*
X105766920Y67411640D01*
X106018925Y68106607D01*
X106146422Y67378438D01*
X106470767Y68353881D01*
X106810552Y67320334D02*
X107000303Y67303733D01*
X107099329Y67342870D01*
X107150918Y67386158D01*
X107258244Y67520171D01*
X107322283Y67705772D01*
X107355485Y68085275D01*
X107316348Y68184301D01*
X107273060Y68235889D01*
X107182335Y68291627D01*
X106992584Y68308228D01*
X106893558Y68269091D01*
X106841969Y68225803D01*
X106786231Y68135078D01*
X106765480Y67897889D01*
X106804617Y67798863D01*
X106847905Y67747275D01*
X106938630Y67691536D01*
X107128381Y67674935D01*
X107227407Y67714072D01*
X107278995Y67757360D01*
X107334734Y67848085D01*
%TO.C,SW10*%
X123158183Y65900187D02*
X123296346Y65840299D01*
X123533536Y65819547D01*
X123632562Y65858684D01*
X123684150Y65901972D01*
X123739888Y65992697D01*
X123748189Y66087573D01*
X123709051Y66186599D01*
X123665764Y66238187D01*
X123575038Y66293926D01*
X123389437Y66357965D01*
X123298712Y66413703D01*
X123255424Y66465291D01*
X123216287Y66564317D01*
X123224588Y66659193D01*
X123280326Y66749918D01*
X123331914Y66793206D01*
X123430940Y66832343D01*
X123668129Y66811592D01*
X123806292Y66751703D01*
X124142508Y66770089D02*
X124292541Y65753143D01*
X124544547Y66448109D01*
X124672044Y65719941D01*
X124996389Y66695384D01*
X125810552Y65620334D02*
X125241298Y65670137D01*
X125525925Y65645236D02*
X125613081Y66641430D01*
X125505754Y66507417D01*
X125402578Y66420842D01*
X125303552Y66381705D01*
X126514400Y66562575D02*
X126609275Y66554275D01*
X126700001Y66498536D01*
X126743288Y66446948D01*
X126782426Y66347922D01*
X126813262Y66154021D01*
X126792511Y65916831D01*
X126728472Y65731230D01*
X126672734Y65640505D01*
X126621146Y65597217D01*
X126522120Y65558080D01*
X126427244Y65566381D01*
X126336519Y65622119D01*
X126293231Y65673707D01*
X126254094Y65772733D01*
X126223257Y65966635D01*
X126244008Y66203824D01*
X126308047Y66389425D01*
X126363786Y66480150D01*
X126415374Y66523438D01*
X126514400Y66562575D01*
%TO.C,SW11*%
X142158183Y64300187D02*
X142296346Y64240299D01*
X142533536Y64219547D01*
X142632562Y64258684D01*
X142684150Y64301972D01*
X142739888Y64392697D01*
X142748189Y64487573D01*
X142709051Y64586599D01*
X142665764Y64638187D01*
X142575038Y64693926D01*
X142389437Y64757965D01*
X142298712Y64813703D01*
X142255424Y64865291D01*
X142216287Y64964317D01*
X142224588Y65059193D01*
X142280326Y65149918D01*
X142331914Y65193206D01*
X142430940Y65232343D01*
X142668129Y65211592D01*
X142806292Y65151703D01*
X143142508Y65170089D02*
X143292541Y64153143D01*
X143544547Y64848109D01*
X143672044Y64119941D01*
X143996389Y65095384D01*
X144810552Y64020334D02*
X144241298Y64070137D01*
X144525925Y64045236D02*
X144613081Y65041430D01*
X144505754Y64907417D01*
X144402578Y64820842D01*
X144303552Y64781705D01*
X145759309Y63937329D02*
X145190055Y63987132D01*
X145474682Y63962230D02*
X145561838Y64958425D01*
X145454511Y64824412D01*
X145351335Y64737837D01*
X145252309Y64698700D01*
%TO.C,SW12*%
X161058183Y62700187D02*
X161196346Y62640299D01*
X161433536Y62619547D01*
X161532562Y62658684D01*
X161584150Y62701972D01*
X161639888Y62792697D01*
X161648189Y62887573D01*
X161609051Y62986599D01*
X161565764Y63038187D01*
X161475038Y63093926D01*
X161289437Y63157965D01*
X161198712Y63213703D01*
X161155424Y63265291D01*
X161116287Y63364317D01*
X161124588Y63459193D01*
X161180326Y63549918D01*
X161231914Y63593206D01*
X161330940Y63632343D01*
X161568129Y63611592D01*
X161706292Y63551703D01*
X162042508Y63570089D02*
X162192541Y62553143D01*
X162444547Y63248109D01*
X162572044Y62519941D01*
X162896389Y63495384D01*
X163710552Y62420334D02*
X163141298Y62470137D01*
X163425925Y62445236D02*
X163513081Y63441430D01*
X163405754Y63307417D01*
X163302578Y63220842D01*
X163203552Y63181705D01*
X164168910Y63288451D02*
X164220498Y63331738D01*
X164319524Y63370876D01*
X164556713Y63350124D01*
X164647439Y63294386D01*
X164690726Y63242798D01*
X164729864Y63143772D01*
X164721563Y63048896D01*
X164661674Y62910733D01*
X164042617Y62391282D01*
X164659309Y62337329D01*
%TO.C,SW13*%
X61015476Y48970238D02*
X61158333Y48922619D01*
X61396428Y48922619D01*
X61491666Y48970238D01*
X61539285Y49017857D01*
X61586904Y49113095D01*
X61586904Y49208333D01*
X61539285Y49303571D01*
X61491666Y49351190D01*
X61396428Y49398809D01*
X61205952Y49446428D01*
X61110714Y49494047D01*
X61063095Y49541666D01*
X61015476Y49636904D01*
X61015476Y49732142D01*
X61063095Y49827380D01*
X61110714Y49875000D01*
X61205952Y49922619D01*
X61444047Y49922619D01*
X61586904Y49875000D01*
X61920238Y49922619D02*
X62158333Y48922619D01*
X62348809Y49636904D01*
X62539285Y48922619D01*
X62777380Y49922619D01*
X63682142Y48922619D02*
X63110714Y48922619D01*
X63396428Y48922619D02*
X63396428Y49922619D01*
X63301190Y49779761D01*
X63205952Y49684523D01*
X63110714Y49636904D01*
X64015476Y49922619D02*
X64634523Y49922619D01*
X64301190Y49541666D01*
X64444047Y49541666D01*
X64539285Y49494047D01*
X64586904Y49446428D01*
X64634523Y49351190D01*
X64634523Y49113095D01*
X64586904Y49017857D01*
X64539285Y48970238D01*
X64444047Y48922619D01*
X64158333Y48922619D01*
X64063095Y48970238D01*
X64015476Y49017857D01*
%TO.C,SW14*%
X87215476Y48970238D02*
X87358333Y48922619D01*
X87596428Y48922619D01*
X87691666Y48970238D01*
X87739285Y49017857D01*
X87786904Y49113095D01*
X87786904Y49208333D01*
X87739285Y49303571D01*
X87691666Y49351190D01*
X87596428Y49398809D01*
X87405952Y49446428D01*
X87310714Y49494047D01*
X87263095Y49541666D01*
X87215476Y49636904D01*
X87215476Y49732142D01*
X87263095Y49827380D01*
X87310714Y49875000D01*
X87405952Y49922619D01*
X87644047Y49922619D01*
X87786904Y49875000D01*
X88120238Y49922619D02*
X88358333Y48922619D01*
X88548809Y49636904D01*
X88739285Y48922619D01*
X88977380Y49922619D01*
X89882142Y48922619D02*
X89310714Y48922619D01*
X89596428Y48922619D02*
X89596428Y49922619D01*
X89501190Y49779761D01*
X89405952Y49684523D01*
X89310714Y49636904D01*
X90739285Y49589285D02*
X90739285Y48922619D01*
X90501190Y49970238D02*
X90263095Y49255952D01*
X90882142Y49255952D01*
%TO.C,SW15*%
X109158183Y48100187D02*
X109296346Y48040299D01*
X109533536Y48019547D01*
X109632562Y48058684D01*
X109684150Y48101972D01*
X109739888Y48192697D01*
X109748189Y48287573D01*
X109709051Y48386599D01*
X109665764Y48438187D01*
X109575038Y48493926D01*
X109389437Y48557965D01*
X109298712Y48613703D01*
X109255424Y48665291D01*
X109216287Y48764317D01*
X109224588Y48859193D01*
X109280326Y48949918D01*
X109331914Y48993206D01*
X109430940Y49032343D01*
X109668129Y49011592D01*
X109806292Y48951703D01*
X110142508Y48970089D02*
X110292541Y47953143D01*
X110544547Y48648109D01*
X110672044Y47919941D01*
X110996389Y48895384D01*
X111810552Y47820334D02*
X111241298Y47870137D01*
X111525925Y47845236D02*
X111613081Y48841430D01*
X111505754Y48707417D01*
X111402578Y48620842D01*
X111303552Y48581705D01*
X112799027Y48737674D02*
X112324648Y48779176D01*
X112235708Y48308948D01*
X112287296Y48352236D01*
X112386322Y48391373D01*
X112623511Y48370622D01*
X112714237Y48314883D01*
X112757524Y48263295D01*
X112796661Y48164269D01*
X112775910Y47927080D01*
X112720172Y47836355D01*
X112668584Y47793067D01*
X112569558Y47753930D01*
X112332368Y47774681D01*
X112241643Y47830419D01*
X112198355Y47882008D01*
%TO.C,SW16*%
X128158183Y46400187D02*
X128296346Y46340299D01*
X128533536Y46319547D01*
X128632562Y46358684D01*
X128684150Y46401972D01*
X128739888Y46492697D01*
X128748189Y46587573D01*
X128709051Y46686599D01*
X128665764Y46738187D01*
X128575038Y46793926D01*
X128389437Y46857965D01*
X128298712Y46913703D01*
X128255424Y46965291D01*
X128216287Y47064317D01*
X128224588Y47159193D01*
X128280326Y47249918D01*
X128331914Y47293206D01*
X128430940Y47332343D01*
X128668129Y47311592D01*
X128806292Y47251703D01*
X129142508Y47270089D02*
X129292541Y46253143D01*
X129544547Y46948109D01*
X129672044Y46219941D01*
X129996389Y47195384D01*
X130810552Y46120334D02*
X130241298Y46170137D01*
X130525925Y46145236D02*
X130613081Y47141430D01*
X130505754Y47007417D01*
X130402578Y46920842D01*
X130303552Y46881705D01*
X131751589Y47041824D02*
X131561838Y47058425D01*
X131462812Y47019288D01*
X131411224Y46976000D01*
X131303897Y46841987D01*
X131239858Y46656386D01*
X131206656Y46276883D01*
X131245793Y46177857D01*
X131289081Y46126269D01*
X131379806Y46070531D01*
X131569558Y46053930D01*
X131668584Y46093067D01*
X131720172Y46136355D01*
X131775910Y46227080D01*
X131796661Y46464269D01*
X131757524Y46563295D01*
X131714237Y46614883D01*
X131623511Y46670622D01*
X131433760Y46687223D01*
X131334734Y46648085D01*
X131283146Y46604798D01*
X131227407Y46514072D01*
%TO.C,SW17*%
X147158183Y44800187D02*
X147296346Y44740299D01*
X147533536Y44719547D01*
X147632562Y44758684D01*
X147684150Y44801972D01*
X147739888Y44892697D01*
X147748189Y44987573D01*
X147709051Y45086599D01*
X147665764Y45138187D01*
X147575038Y45193926D01*
X147389437Y45257965D01*
X147298712Y45313703D01*
X147255424Y45365291D01*
X147216287Y45464317D01*
X147224588Y45559193D01*
X147280326Y45649918D01*
X147331914Y45693206D01*
X147430940Y45732343D01*
X147668129Y45711592D01*
X147806292Y45651703D01*
X148142508Y45670089D02*
X148292541Y44653143D01*
X148544547Y45348109D01*
X148672044Y44619941D01*
X148996389Y45595384D01*
X149810552Y44520334D02*
X149241298Y44570137D01*
X149525925Y44545236D02*
X149613081Y45541430D01*
X149505754Y45407417D01*
X149402578Y45320842D01*
X149303552Y45281705D01*
X150229773Y45487477D02*
X150893903Y45429373D01*
X150379806Y44470531D01*
%TO.C,SW18*%
X166158183Y43100187D02*
X166296346Y43040299D01*
X166533536Y43019547D01*
X166632562Y43058684D01*
X166684150Y43101972D01*
X166739888Y43192697D01*
X166748189Y43287573D01*
X166709051Y43386599D01*
X166665764Y43438187D01*
X166575038Y43493926D01*
X166389437Y43557965D01*
X166298712Y43613703D01*
X166255424Y43665291D01*
X166216287Y43764317D01*
X166224588Y43859193D01*
X166280326Y43949918D01*
X166331914Y43993206D01*
X166430940Y44032343D01*
X166668129Y44011592D01*
X166806292Y43951703D01*
X167142508Y43970089D02*
X167292541Y42953143D01*
X167544547Y43648109D01*
X167672044Y42919941D01*
X167996389Y43895384D01*
X168810552Y42820334D02*
X168241298Y42870137D01*
X168525925Y42845236D02*
X168613081Y43841430D01*
X168505754Y43707417D01*
X168402578Y43620842D01*
X168303552Y43581705D01*
X169429609Y43339785D02*
X169338884Y43395523D01*
X169295596Y43447111D01*
X169256459Y43546137D01*
X169260609Y43593575D01*
X169316348Y43684301D01*
X169367936Y43727588D01*
X169466962Y43766725D01*
X169656713Y43750124D01*
X169747439Y43694386D01*
X169790726Y43642798D01*
X169829864Y43543772D01*
X169825713Y43496334D01*
X169769975Y43405609D01*
X169718387Y43362321D01*
X169619361Y43323184D01*
X169429609Y43339785D01*
X169330584Y43300648D01*
X169278995Y43257360D01*
X169223257Y43166635D01*
X169206656Y42976883D01*
X169245793Y42877857D01*
X169289081Y42826269D01*
X169379806Y42770531D01*
X169569558Y42753930D01*
X169668584Y42793067D01*
X169720172Y42836355D01*
X169775910Y42927080D01*
X169792511Y43116831D01*
X169753374Y43215857D01*
X169710086Y43267445D01*
X169619361Y43323184D01*
%TO.C,SW19*%
X193686540Y80784766D02*
X193833004Y80749779D01*
X194070193Y80770531D01*
X194160918Y80826269D01*
X194204206Y80877857D01*
X194243343Y80976883D01*
X194235043Y81071759D01*
X194179304Y81162484D01*
X194127716Y81205772D01*
X194028690Y81244909D01*
X193834788Y81275746D01*
X193735762Y81314883D01*
X193684174Y81358171D01*
X193628436Y81448896D01*
X193620135Y81543772D01*
X193659273Y81642798D01*
X193702560Y81694386D01*
X193793286Y81750124D01*
X194030475Y81770876D01*
X194176939Y81735889D01*
X194504853Y81812378D02*
X194829198Y80836935D01*
X194956696Y81565104D01*
X195208701Y80870137D01*
X195358735Y81887083D01*
X196347209Y80969744D02*
X195777955Y80919941D01*
X196062582Y80944842D02*
X195975426Y81941037D01*
X195893002Y81790423D01*
X195806426Y81687247D01*
X195715701Y81631508D01*
X196821588Y81011247D02*
X197011339Y81027848D01*
X197102064Y81083586D01*
X197145352Y81135174D01*
X197227777Y81285788D01*
X197258614Y81479690D01*
X197225411Y81859193D01*
X197169673Y81949918D01*
X197118085Y81993206D01*
X197019059Y82032343D01*
X196829308Y82015742D01*
X196738582Y81960004D01*
X196695295Y81908415D01*
X196656157Y81809389D01*
X196676909Y81572200D01*
X196732647Y81481475D01*
X196784235Y81438187D01*
X196883261Y81399050D01*
X197073013Y81415651D01*
X197163738Y81471389D01*
X197207026Y81522978D01*
X197246163Y81622003D01*
%TO.C,SW20*%
X212686540Y82384766D02*
X212833004Y82349779D01*
X213070193Y82370531D01*
X213160918Y82426269D01*
X213204206Y82477857D01*
X213243343Y82576883D01*
X213235043Y82671759D01*
X213179304Y82762484D01*
X213127716Y82805772D01*
X213028690Y82844909D01*
X212834788Y82875746D01*
X212735762Y82914883D01*
X212684174Y82958171D01*
X212628436Y83048896D01*
X212620135Y83143772D01*
X212659273Y83242798D01*
X212702560Y83294386D01*
X212793286Y83350124D01*
X213030475Y83370876D01*
X213176939Y83335889D01*
X213504853Y83412378D02*
X213829198Y82436935D01*
X213956696Y83165104D01*
X214208701Y82470137D01*
X214358735Y83487083D01*
X214699100Y83421260D02*
X214742388Y83472848D01*
X214833113Y83528586D01*
X215070302Y83549338D01*
X215169328Y83510200D01*
X215220916Y83466913D01*
X215276655Y83376187D01*
X215284955Y83281312D01*
X215249968Y83134848D01*
X214730517Y82515790D01*
X215347209Y82569744D01*
X215876745Y83619892D02*
X215971621Y83628193D01*
X216070647Y83589055D01*
X216122235Y83545768D01*
X216177974Y83455042D01*
X216242013Y83269441D01*
X216262764Y83032252D01*
X216231927Y82838350D01*
X216192790Y82739325D01*
X216149502Y82687736D01*
X216058777Y82631998D01*
X215963901Y82623697D01*
X215864875Y82662835D01*
X215813287Y82706122D01*
X215757549Y82796848D01*
X215693510Y82982449D01*
X215672758Y83219638D01*
X215703595Y83413540D01*
X215742732Y83512566D01*
X215786020Y83564154D01*
X215876745Y83619892D01*
%TO.C,SW21*%
X231686540Y84184766D02*
X231833004Y84149779D01*
X232070193Y84170531D01*
X232160918Y84226269D01*
X232204206Y84277857D01*
X232243343Y84376883D01*
X232235043Y84471759D01*
X232179304Y84562484D01*
X232127716Y84605772D01*
X232028690Y84644909D01*
X231834788Y84675746D01*
X231735762Y84714883D01*
X231684174Y84758171D01*
X231628436Y84848896D01*
X231620135Y84943772D01*
X231659273Y85042798D01*
X231702560Y85094386D01*
X231793286Y85150124D01*
X232030475Y85170876D01*
X232176939Y85135889D01*
X232504853Y85212378D02*
X232829198Y84236935D01*
X232956696Y84965104D01*
X233208701Y84270137D01*
X233358735Y85287083D01*
X233699100Y85221260D02*
X233742388Y85272848D01*
X233833113Y85328586D01*
X234070302Y85349338D01*
X234169328Y85310200D01*
X234220916Y85266913D01*
X234276655Y85176187D01*
X234284955Y85081312D01*
X234249968Y84934848D01*
X233730517Y84315790D01*
X234347209Y84369744D01*
X235295966Y84452749D02*
X234726712Y84402946D01*
X235011339Y84427848D02*
X234924183Y85424042D01*
X234841758Y85273428D01*
X234755183Y85170252D01*
X234664458Y85114514D01*
%TO.C,SW22*%
X250686540Y85784766D02*
X250833004Y85749779D01*
X251070193Y85770531D01*
X251160918Y85826269D01*
X251204206Y85877857D01*
X251243343Y85976883D01*
X251235043Y86071759D01*
X251179304Y86162484D01*
X251127716Y86205772D01*
X251028690Y86244909D01*
X250834788Y86275746D01*
X250735762Y86314883D01*
X250684174Y86358171D01*
X250628436Y86448896D01*
X250620135Y86543772D01*
X250659273Y86642798D01*
X250702560Y86694386D01*
X250793286Y86750124D01*
X251030475Y86770876D01*
X251176939Y86735889D01*
X251504853Y86812378D02*
X251829198Y85836935D01*
X251956696Y86565104D01*
X252208701Y85870137D01*
X252358735Y86887083D01*
X252699100Y86821260D02*
X252742388Y86872848D01*
X252833113Y86928586D01*
X253070302Y86949338D01*
X253169328Y86910200D01*
X253220916Y86866913D01*
X253276655Y86776187D01*
X253284955Y86681312D01*
X253249968Y86534848D01*
X252730517Y85915790D01*
X253347209Y85969744D01*
X253647857Y86904265D02*
X253691144Y86955853D01*
X253781870Y87011592D01*
X254019059Y87032343D01*
X254118085Y86993206D01*
X254169673Y86949918D01*
X254225411Y86859193D01*
X254233712Y86764317D01*
X254198725Y86617853D01*
X253679274Y85998796D01*
X254295966Y86052749D01*
%TO.C,SW23*%
X272915476Y87070238D02*
X273058333Y87022619D01*
X273296428Y87022619D01*
X273391666Y87070238D01*
X273439285Y87117857D01*
X273486904Y87213095D01*
X273486904Y87308333D01*
X273439285Y87403571D01*
X273391666Y87451190D01*
X273296428Y87498809D01*
X273105952Y87546428D01*
X273010714Y87594047D01*
X272963095Y87641666D01*
X272915476Y87736904D01*
X272915476Y87832142D01*
X272963095Y87927380D01*
X273010714Y87975000D01*
X273105952Y88022619D01*
X273344047Y88022619D01*
X273486904Y87975000D01*
X273820238Y88022619D02*
X274058333Y87022619D01*
X274248809Y87736904D01*
X274439285Y87022619D01*
X274677380Y88022619D01*
X275010714Y87927380D02*
X275058333Y87975000D01*
X275153571Y88022619D01*
X275391666Y88022619D01*
X275486904Y87975000D01*
X275534523Y87927380D01*
X275582142Y87832142D01*
X275582142Y87736904D01*
X275534523Y87594047D01*
X274963095Y87022619D01*
X275582142Y87022619D01*
X275915476Y88022619D02*
X276534523Y88022619D01*
X276201190Y87641666D01*
X276344047Y87641666D01*
X276439285Y87594047D01*
X276486904Y87546428D01*
X276534523Y87451190D01*
X276534523Y87213095D01*
X276486904Y87117857D01*
X276439285Y87070238D01*
X276344047Y87022619D01*
X276058333Y87022619D01*
X275963095Y87070238D01*
X275915476Y87117857D01*
%TO.C,SW24*%
X294415476Y86970238D02*
X294558333Y86922619D01*
X294796428Y86922619D01*
X294891666Y86970238D01*
X294939285Y87017857D01*
X294986904Y87113095D01*
X294986904Y87208333D01*
X294939285Y87303571D01*
X294891666Y87351190D01*
X294796428Y87398809D01*
X294605952Y87446428D01*
X294510714Y87494047D01*
X294463095Y87541666D01*
X294415476Y87636904D01*
X294415476Y87732142D01*
X294463095Y87827380D01*
X294510714Y87875000D01*
X294605952Y87922619D01*
X294844047Y87922619D01*
X294986904Y87875000D01*
X295320238Y87922619D02*
X295558333Y86922619D01*
X295748809Y87636904D01*
X295939285Y86922619D01*
X296177380Y87922619D01*
X296510714Y87827380D02*
X296558333Y87875000D01*
X296653571Y87922619D01*
X296891666Y87922619D01*
X296986904Y87875000D01*
X297034523Y87827380D01*
X297082142Y87732142D01*
X297082142Y87636904D01*
X297034523Y87494047D01*
X296463095Y86922619D01*
X297082142Y86922619D01*
X297939285Y87589285D02*
X297939285Y86922619D01*
X297701190Y87970238D02*
X297463095Y87255952D01*
X298082142Y87255952D01*
%TO.C,SW25*%
X200086540Y62284766D02*
X200233004Y62249779D01*
X200470193Y62270531D01*
X200560918Y62326269D01*
X200604206Y62377857D01*
X200643343Y62476883D01*
X200635043Y62571759D01*
X200579304Y62662484D01*
X200527716Y62705772D01*
X200428690Y62744909D01*
X200234788Y62775746D01*
X200135762Y62814883D01*
X200084174Y62858171D01*
X200028436Y62948896D01*
X200020135Y63043772D01*
X200059273Y63142798D01*
X200102560Y63194386D01*
X200193286Y63250124D01*
X200430475Y63270876D01*
X200576939Y63235889D01*
X200904853Y63312378D02*
X201229198Y62336935D01*
X201356696Y63065104D01*
X201608701Y62370137D01*
X201758735Y63387083D01*
X202099100Y63321260D02*
X202142388Y63372848D01*
X202233113Y63428586D01*
X202470302Y63449338D01*
X202569328Y63410200D01*
X202620916Y63366913D01*
X202676655Y63276187D01*
X202684955Y63181312D01*
X202649968Y63034848D01*
X202130517Y62415790D01*
X202747209Y62469744D01*
X203561373Y63544794D02*
X203086994Y63503291D01*
X203081059Y63024762D01*
X203124347Y63076350D01*
X203215072Y63132089D01*
X203452261Y63152840D01*
X203551287Y63113703D01*
X203602875Y63070415D01*
X203658614Y62979690D01*
X203679365Y62742501D01*
X203640228Y62643475D01*
X203596940Y62591887D01*
X203506215Y62536148D01*
X203269026Y62515397D01*
X203170000Y62554534D01*
X203118411Y62597822D01*
%TO.C,SW26*%
X219086540Y63884766D02*
X219233004Y63849779D01*
X219470193Y63870531D01*
X219560918Y63926269D01*
X219604206Y63977857D01*
X219643343Y64076883D01*
X219635043Y64171759D01*
X219579304Y64262484D01*
X219527716Y64305772D01*
X219428690Y64344909D01*
X219234788Y64375746D01*
X219135762Y64414883D01*
X219084174Y64458171D01*
X219028436Y64548896D01*
X219020135Y64643772D01*
X219059273Y64742798D01*
X219102560Y64794386D01*
X219193286Y64850124D01*
X219430475Y64870876D01*
X219576939Y64835889D01*
X219904853Y64912378D02*
X220229198Y63936935D01*
X220356696Y64665104D01*
X220608701Y63970137D01*
X220758735Y64987083D01*
X221099100Y64921260D02*
X221142388Y64972848D01*
X221233113Y65028586D01*
X221470302Y65049338D01*
X221569328Y65010200D01*
X221620916Y64966913D01*
X221676655Y64876187D01*
X221684955Y64781312D01*
X221649968Y64634848D01*
X221130517Y64015790D01*
X221747209Y64069744D01*
X222513935Y65140644D02*
X222324183Y65124042D01*
X222233458Y65068304D01*
X222190170Y65016716D01*
X222107745Y64866102D01*
X222076909Y64672200D01*
X222110111Y64292697D01*
X222165849Y64201972D01*
X222217437Y64158684D01*
X222316463Y64119547D01*
X222506215Y64136148D01*
X222596940Y64191887D01*
X222640228Y64243475D01*
X222679365Y64342501D01*
X222658614Y64579690D01*
X222602875Y64670415D01*
X222551287Y64713703D01*
X222452261Y64752840D01*
X222262510Y64736239D01*
X222171784Y64680501D01*
X222128497Y64628913D01*
X222089360Y64529887D01*
%TO.C,SW27*%
X238086540Y65584766D02*
X238233004Y65549779D01*
X238470193Y65570531D01*
X238560918Y65626269D01*
X238604206Y65677857D01*
X238643343Y65776883D01*
X238635043Y65871759D01*
X238579304Y65962484D01*
X238527716Y66005772D01*
X238428690Y66044909D01*
X238234788Y66075746D01*
X238135762Y66114883D01*
X238084174Y66158171D01*
X238028436Y66248896D01*
X238020135Y66343772D01*
X238059273Y66442798D01*
X238102560Y66494386D01*
X238193286Y66550124D01*
X238430475Y66570876D01*
X238576939Y66535889D01*
X238904853Y66612378D02*
X239229198Y65636935D01*
X239356696Y66365104D01*
X239608701Y65670137D01*
X239758735Y66687083D01*
X240099100Y66621260D02*
X240142388Y66672848D01*
X240233113Y66728586D01*
X240470302Y66749338D01*
X240569328Y66710200D01*
X240620916Y66666913D01*
X240676655Y66576187D01*
X240684955Y66481312D01*
X240649968Y66334848D01*
X240130517Y65715790D01*
X240747209Y65769744D01*
X240992118Y66794991D02*
X241656248Y66853094D01*
X241316463Y65819547D01*
%TO.C,SW28*%
X257086540Y67284766D02*
X257233004Y67249779D01*
X257470193Y67270531D01*
X257560918Y67326269D01*
X257604206Y67377857D01*
X257643343Y67476883D01*
X257635043Y67571759D01*
X257579304Y67662484D01*
X257527716Y67705772D01*
X257428690Y67744909D01*
X257234788Y67775746D01*
X257135762Y67814883D01*
X257084174Y67858171D01*
X257028436Y67948896D01*
X257020135Y68043772D01*
X257059273Y68142798D01*
X257102560Y68194386D01*
X257193286Y68250124D01*
X257430475Y68270876D01*
X257576939Y68235889D01*
X257904853Y68312378D02*
X258229198Y67336935D01*
X258356696Y68065104D01*
X258608701Y67370137D01*
X258758735Y68387083D01*
X259099100Y68321260D02*
X259142388Y68372848D01*
X259233113Y68428586D01*
X259470302Y68449338D01*
X259569328Y68410200D01*
X259620916Y68366913D01*
X259676655Y68276187D01*
X259684955Y68181312D01*
X259649968Y68034848D01*
X259130517Y67415790D01*
X259747209Y67469744D01*
X260266660Y68088801D02*
X260167634Y68127939D01*
X260116046Y68171226D01*
X260060308Y68261952D01*
X260056157Y68309389D01*
X260095295Y68408415D01*
X260138582Y68460004D01*
X260229308Y68515742D01*
X260419059Y68532343D01*
X260518085Y68493206D01*
X260569673Y68449918D01*
X260625411Y68359193D01*
X260629562Y68311755D01*
X260590424Y68212729D01*
X260547137Y68161141D01*
X260456411Y68105402D01*
X260266660Y68088801D01*
X260175935Y68033063D01*
X260132647Y67981475D01*
X260093510Y67882449D01*
X260110111Y67692697D01*
X260165849Y67601972D01*
X260217437Y67558684D01*
X260316463Y67519547D01*
X260506215Y67536148D01*
X260596940Y67591887D01*
X260640228Y67643475D01*
X260679365Y67742501D01*
X260662764Y67932252D01*
X260607026Y68022978D01*
X260555437Y68066265D01*
X260456411Y68105402D01*
%TO.C,SW29*%
X278715476Y68070238D02*
X278858333Y68022619D01*
X279096428Y68022619D01*
X279191666Y68070238D01*
X279239285Y68117857D01*
X279286904Y68213095D01*
X279286904Y68308333D01*
X279239285Y68403571D01*
X279191666Y68451190D01*
X279096428Y68498809D01*
X278905952Y68546428D01*
X278810714Y68594047D01*
X278763095Y68641666D01*
X278715476Y68736904D01*
X278715476Y68832142D01*
X278763095Y68927380D01*
X278810714Y68975000D01*
X278905952Y69022619D01*
X279144047Y69022619D01*
X279286904Y68975000D01*
X279620238Y69022619D02*
X279858333Y68022619D01*
X280048809Y68736904D01*
X280239285Y68022619D01*
X280477380Y69022619D01*
X280810714Y68927380D02*
X280858333Y68975000D01*
X280953571Y69022619D01*
X281191666Y69022619D01*
X281286904Y68975000D01*
X281334523Y68927380D01*
X281382142Y68832142D01*
X281382142Y68736904D01*
X281334523Y68594047D01*
X280763095Y68022619D01*
X281382142Y68022619D01*
X281858333Y68022619D02*
X282048809Y68022619D01*
X282144047Y68070238D01*
X282191666Y68117857D01*
X282286904Y68260714D01*
X282334523Y68451190D01*
X282334523Y68832142D01*
X282286904Y68927380D01*
X282239285Y68975000D01*
X282144047Y69022619D01*
X281953571Y69022619D01*
X281858333Y68975000D01*
X281810714Y68927380D01*
X281763095Y68832142D01*
X281763095Y68594047D01*
X281810714Y68498809D01*
X281858333Y68451190D01*
X281953571Y68403571D01*
X282144047Y68403571D01*
X282239285Y68451190D01*
X282286904Y68498809D01*
X282334523Y68594047D01*
%TO.C,SW30*%
X300115476Y68070238D02*
X300258333Y68022619D01*
X300496428Y68022619D01*
X300591666Y68070238D01*
X300639285Y68117857D01*
X300686904Y68213095D01*
X300686904Y68308333D01*
X300639285Y68403571D01*
X300591666Y68451190D01*
X300496428Y68498809D01*
X300305952Y68546428D01*
X300210714Y68594047D01*
X300163095Y68641666D01*
X300115476Y68736904D01*
X300115476Y68832142D01*
X300163095Y68927380D01*
X300210714Y68975000D01*
X300305952Y69022619D01*
X300544047Y69022619D01*
X300686904Y68975000D01*
X301020238Y69022619D02*
X301258333Y68022619D01*
X301448809Y68736904D01*
X301639285Y68022619D01*
X301877380Y69022619D01*
X302163095Y69022619D02*
X302782142Y69022619D01*
X302448809Y68641666D01*
X302591666Y68641666D01*
X302686904Y68594047D01*
X302734523Y68546428D01*
X302782142Y68451190D01*
X302782142Y68213095D01*
X302734523Y68117857D01*
X302686904Y68070238D01*
X302591666Y68022619D01*
X302305952Y68022619D01*
X302210714Y68070238D01*
X302163095Y68117857D01*
X303401190Y69022619D02*
X303496428Y69022619D01*
X303591666Y68975000D01*
X303639285Y68927380D01*
X303686904Y68832142D01*
X303734523Y68641666D01*
X303734523Y68403571D01*
X303686904Y68213095D01*
X303639285Y68117857D01*
X303591666Y68070238D01*
X303496428Y68022619D01*
X303401190Y68022619D01*
X303305952Y68070238D01*
X303258333Y68117857D01*
X303210714Y68213095D01*
X303163095Y68403571D01*
X303163095Y68641666D01*
X303210714Y68832142D01*
X303258333Y68927380D01*
X303305952Y68975000D01*
X303401190Y69022619D01*
%TO.C,SW31*%
X187486540Y42084766D02*
X187633004Y42049779D01*
X187870193Y42070531D01*
X187960918Y42126269D01*
X188004206Y42177857D01*
X188043343Y42276883D01*
X188035043Y42371759D01*
X187979304Y42462484D01*
X187927716Y42505772D01*
X187828690Y42544909D01*
X187634788Y42575746D01*
X187535762Y42614883D01*
X187484174Y42658171D01*
X187428436Y42748896D01*
X187420135Y42843772D01*
X187459273Y42942798D01*
X187502560Y42994386D01*
X187593286Y43050124D01*
X187830475Y43070876D01*
X187976939Y43035889D01*
X188304853Y43112378D02*
X188629198Y42136935D01*
X188756696Y42865104D01*
X189008701Y42170137D01*
X189158735Y43187083D01*
X189443362Y43211985D02*
X190060054Y43265939D01*
X189761191Y42857384D01*
X189903504Y42869835D01*
X190002530Y42830697D01*
X190054118Y42787410D01*
X190109857Y42696685D01*
X190130608Y42459495D01*
X190091471Y42360469D01*
X190048183Y42308881D01*
X189957458Y42253143D01*
X189672831Y42228241D01*
X189573805Y42267378D01*
X189522217Y42310666D01*
X191095966Y42352749D02*
X190526712Y42302946D01*
X190811339Y42327848D02*
X190724183Y43324042D01*
X190641758Y43173428D01*
X190555183Y43070252D01*
X190464458Y43014514D01*
%TO.C,SW32*%
X206586540Y43684766D02*
X206733004Y43649779D01*
X206970193Y43670531D01*
X207060918Y43726269D01*
X207104206Y43777857D01*
X207143343Y43876883D01*
X207135043Y43971759D01*
X207079304Y44062484D01*
X207027716Y44105772D01*
X206928690Y44144909D01*
X206734788Y44175746D01*
X206635762Y44214883D01*
X206584174Y44258171D01*
X206528436Y44348896D01*
X206520135Y44443772D01*
X206559273Y44542798D01*
X206602560Y44594386D01*
X206693286Y44650124D01*
X206930475Y44670876D01*
X207076939Y44635889D01*
X207404853Y44712378D02*
X207729198Y43736935D01*
X207856696Y44465104D01*
X208108701Y43770137D01*
X208258735Y44787083D01*
X208543362Y44811985D02*
X209160054Y44865939D01*
X208861191Y44457384D01*
X209003504Y44469835D01*
X209102530Y44430697D01*
X209154118Y44387410D01*
X209209857Y44296685D01*
X209230608Y44059495D01*
X209191471Y43960469D01*
X209148183Y43908881D01*
X209057458Y43853143D01*
X208772831Y43828241D01*
X208673805Y43867378D01*
X208622217Y43910666D01*
X209547857Y44804265D02*
X209591144Y44855853D01*
X209681870Y44911592D01*
X209919059Y44932343D01*
X210018085Y44893206D01*
X210069673Y44849918D01*
X210125411Y44759193D01*
X210133712Y44664317D01*
X210098725Y44517853D01*
X209579274Y43898796D01*
X210195966Y43952749D01*
%TO.C,SW33*%
X225486540Y45384766D02*
X225633004Y45349779D01*
X225870193Y45370531D01*
X225960918Y45426269D01*
X226004206Y45477857D01*
X226043343Y45576883D01*
X226035043Y45671759D01*
X225979304Y45762484D01*
X225927716Y45805772D01*
X225828690Y45844909D01*
X225634788Y45875746D01*
X225535762Y45914883D01*
X225484174Y45958171D01*
X225428436Y46048896D01*
X225420135Y46143772D01*
X225459273Y46242798D01*
X225502560Y46294386D01*
X225593286Y46350124D01*
X225830475Y46370876D01*
X225976939Y46335889D01*
X226304853Y46412378D02*
X226629198Y45436935D01*
X226756696Y46165104D01*
X227008701Y45470137D01*
X227158735Y46487083D01*
X227443362Y46511985D02*
X228060054Y46565939D01*
X227761191Y46157384D01*
X227903504Y46169835D01*
X228002530Y46130697D01*
X228054118Y46087410D01*
X228109857Y45996685D01*
X228130608Y45759495D01*
X228091471Y45660469D01*
X228048183Y45608881D01*
X227957458Y45553143D01*
X227672831Y45528241D01*
X227573805Y45567378D01*
X227522217Y45610666D01*
X228392118Y46594991D02*
X229008810Y46648944D01*
X228709948Y46240389D01*
X228852261Y46252840D01*
X228951287Y46213703D01*
X229002875Y46170415D01*
X229058614Y46079690D01*
X229079365Y45842501D01*
X229040228Y45743475D01*
X228996940Y45691887D01*
X228906215Y45636148D01*
X228621588Y45611247D01*
X228522562Y45650384D01*
X228470974Y45693672D01*
%TO.C,SW34*%
X244486540Y47084766D02*
X244633004Y47049779D01*
X244870193Y47070531D01*
X244960918Y47126269D01*
X245004206Y47177857D01*
X245043343Y47276883D01*
X245035043Y47371759D01*
X244979304Y47462484D01*
X244927716Y47505772D01*
X244828690Y47544909D01*
X244634788Y47575746D01*
X244535762Y47614883D01*
X244484174Y47658171D01*
X244428436Y47748896D01*
X244420135Y47843772D01*
X244459273Y47942798D01*
X244502560Y47994386D01*
X244593286Y48050124D01*
X244830475Y48070876D01*
X244976939Y48035889D01*
X245304853Y48112378D02*
X245629198Y47136935D01*
X245756696Y47865104D01*
X246008701Y47170137D01*
X246158735Y48187083D01*
X246443362Y48211985D02*
X247060054Y48265939D01*
X246761191Y47857384D01*
X246903504Y47869835D01*
X247002530Y47830697D01*
X247054118Y47787410D01*
X247109857Y47696685D01*
X247130608Y47459495D01*
X247091471Y47360469D01*
X247048183Y47308881D01*
X246957458Y47253143D01*
X246672831Y47228241D01*
X246573805Y47267378D01*
X246522217Y47310666D01*
X247942987Y48008579D02*
X248001090Y47344449D01*
X247672595Y48367330D02*
X247497660Y47635011D01*
X248114352Y47688965D01*
%TO.C,SW35*%
X268215476Y48070238D02*
X268358333Y48022619D01*
X268596428Y48022619D01*
X268691666Y48070238D01*
X268739285Y48117857D01*
X268786904Y48213095D01*
X268786904Y48308333D01*
X268739285Y48403571D01*
X268691666Y48451190D01*
X268596428Y48498809D01*
X268405952Y48546428D01*
X268310714Y48594047D01*
X268263095Y48641666D01*
X268215476Y48736904D01*
X268215476Y48832142D01*
X268263095Y48927380D01*
X268310714Y48975000D01*
X268405952Y49022619D01*
X268644047Y49022619D01*
X268786904Y48975000D01*
X269120238Y49022619D02*
X269358333Y48022619D01*
X269548809Y48736904D01*
X269739285Y48022619D01*
X269977380Y49022619D01*
X270263095Y49022619D02*
X270882142Y49022619D01*
X270548809Y48641666D01*
X270691666Y48641666D01*
X270786904Y48594047D01*
X270834523Y48546428D01*
X270882142Y48451190D01*
X270882142Y48213095D01*
X270834523Y48117857D01*
X270786904Y48070238D01*
X270691666Y48022619D01*
X270405952Y48022619D01*
X270310714Y48070238D01*
X270263095Y48117857D01*
X271786904Y49022619D02*
X271310714Y49022619D01*
X271263095Y48546428D01*
X271310714Y48594047D01*
X271405952Y48641666D01*
X271644047Y48641666D01*
X271739285Y48594047D01*
X271786904Y48546428D01*
X271834523Y48451190D01*
X271834523Y48213095D01*
X271786904Y48117857D01*
X271739285Y48070238D01*
X271644047Y48022619D01*
X271405952Y48022619D01*
X271310714Y48070238D01*
X271263095Y48117857D01*
%TO.C,SW36*%
X294415476Y47970238D02*
X294558333Y47922619D01*
X294796428Y47922619D01*
X294891666Y47970238D01*
X294939285Y48017857D01*
X294986904Y48113095D01*
X294986904Y48208333D01*
X294939285Y48303571D01*
X294891666Y48351190D01*
X294796428Y48398809D01*
X294605952Y48446428D01*
X294510714Y48494047D01*
X294463095Y48541666D01*
X294415476Y48636904D01*
X294415476Y48732142D01*
X294463095Y48827380D01*
X294510714Y48875000D01*
X294605952Y48922619D01*
X294844047Y48922619D01*
X294986904Y48875000D01*
X295320238Y48922619D02*
X295558333Y47922619D01*
X295748809Y48636904D01*
X295939285Y47922619D01*
X296177380Y48922619D01*
X296463095Y48922619D02*
X297082142Y48922619D01*
X296748809Y48541666D01*
X296891666Y48541666D01*
X296986904Y48494047D01*
X297034523Y48446428D01*
X297082142Y48351190D01*
X297082142Y48113095D01*
X297034523Y48017857D01*
X296986904Y47970238D01*
X296891666Y47922619D01*
X296605952Y47922619D01*
X296510714Y47970238D01*
X296463095Y48017857D01*
X297939285Y48922619D02*
X297748809Y48922619D01*
X297653571Y48875000D01*
X297605952Y48827380D01*
X297510714Y48684523D01*
X297463095Y48494047D01*
X297463095Y48113095D01*
X297510714Y48017857D01*
X297558333Y47970238D01*
X297653571Y47922619D01*
X297844047Y47922619D01*
X297939285Y47970238D01*
X297986904Y48017857D01*
X298034523Y48113095D01*
X298034523Y48351190D01*
X297986904Y48446428D01*
X297939285Y48494047D01*
X297844047Y48541666D01*
X297653571Y48541666D01*
X297558333Y48494047D01*
X297510714Y48446428D01*
X297463095Y48351190D01*
%TD*%
M02*
