M48
; DRILL file {KiCad (5.1.6-0-10_14)} date Tuesday, September 01, 2020 at 10:18:08 PM
; FORMAT={-:-/ absolute / metric / decimal}
; #@! TF.CreationDate,2020-09-01T22:18:08+09:00
; #@! TF.GenerationSoftware,Kicad,Pcbnew,(5.1.6-0-10_14)
; #@! TF.FileFunction,Plated,1,2,PTH
FMAT,2
METRIC
T1C0.400
T2C0.813
T3C1.300
T4C1.500
%
G90
G05
T1
X183.625Y32.65
X200.625Y39.775
X205.352Y43.202
T2
X156.279Y66.557
X163.871Y65.893
X89.69Y52.1
X97.31Y52.1
X235.643Y45.321
X236.307Y37.729
X229.129Y68.218
X236.721Y68.882
X248.554Y70.118
X256.146Y70.782
X105.604Y51.457
X113.196Y50.793
X289.765Y71.625
X297.385Y71.625
X197.254Y46.218
X204.846Y46.882
X197.643Y42.121
X198.307Y34.529
X216.798Y43.702
X217.462Y36.111
X97.7Y47.835
X97.7Y40.215
X63.415Y52.275
X71.035Y52.275
X235.023Y49.823
X242.614Y50.487
X110.968Y76.104
X111.632Y83.696
X137.793Y37.004
X138.457Y44.596
X156.868Y35.954
X157.532Y43.546
X129.793Y74.479
X130.457Y82.071
X175.843Y33.654
X176.507Y41.246
X304.7Y46.885
X304.7Y39.265
X190.998Y65.073
X198.589Y65.737
X209.979Y66.693
X217.571Y67.357
X128.904Y49.657
X136.496Y48.993
X254.229Y51.218
X261.821Y51.882
X68.325Y84.71
X68.325Y77.09
X268.615Y71.625
X276.235Y71.625
X278.575Y46.885
X278.575Y39.265
X216.073Y48.198
X223.664Y48.862
X88.4Y84.86
X88.4Y77.24
X274.165Y52.55
X281.785Y52.55
X295.34Y52.325
X302.96Y52.325
X254.743Y46.296
X255.407Y38.704
X147.254Y47.982
X154.846Y47.318
X148.643Y72.829
X149.307Y80.421
X169.329Y46.282
X176.921Y45.618
X71.45Y48.135
X71.45Y40.515
X170.414Y87.053
X170.414Y84.513
X170.414Y81.973
X170.414Y79.433
X170.414Y76.893
X170.414Y74.353
X170.414Y71.813
X170.414Y69.273
X170.414Y66.733
X170.414Y64.193
X170.414Y61.653
X170.414Y59.113
X185.634Y87.053
X185.634Y84.513
X185.634Y81.973
X185.634Y79.433
X185.634Y76.893
X185.634Y74.353
X185.634Y71.813
X185.634Y69.273
X185.634Y66.733
X185.634Y64.193
X185.634Y61.653
X185.634Y59.113
X118.743Y38.679
X119.407Y46.271
T3
X190.95Y91.85
X190.95Y85.35
T4
X292.415Y82.215
X298.765Y84.755
X292.415Y43.215
X298.765Y45.755
X101.751Y63.037
X108.298Y65.014
X266.215Y43.315
X272.565Y45.855
X242.908Y42.173
X249.013Y45.257
X198.508Y57.373
X204.613Y60.457
X223.908Y40.473
X230.013Y43.557
X298.115Y63.315
X304.465Y65.855
X249.108Y80.873
X255.213Y83.957
X205.008Y38.773
X211.113Y41.857
X55.715Y82.315
X62.065Y84.855
X217.508Y58.973
X223.613Y62.057
X185.908Y37.173
X192.013Y40.257
X255.508Y62.373
X261.613Y65.457
X236.508Y60.673
X242.613Y63.757
X106.751Y43.537
X113.298Y45.514
X230.108Y79.273
X236.213Y82.357
X192.108Y75.873
X198.213Y78.957
X276.715Y63.315
X283.065Y65.855
X75.715Y82.315
X82.065Y84.855
X59.015Y44.215
X65.365Y46.755
X163.751Y38.537
X170.298Y40.514
X270.915Y82.315
X277.265Y84.855
X80.415Y63.215
X86.765Y65.755
X136.651Y79.037
X143.198Y81.014
X120.751Y61.337
X127.298Y63.314
X98.751Y82.437
X105.298Y84.414
X139.751Y59.737
X146.298Y61.714
X85.215Y44.215
X91.565Y46.755
X211.108Y77.473
X217.213Y80.557
X125.751Y41.837
X132.298Y43.814
X117.751Y80.637
X124.298Y82.614
X56.115Y63.215
X62.465Y65.755
X158.651Y58.137
X165.198Y60.114
X144.751Y40.237
X151.298Y42.214
X155.651Y77.537
X162.198Y79.514
T0
M30
