%TF.GenerationSoftware,KiCad,Pcbnew,(5.1.6-0-10_14)*%
%TF.CreationDate,2020-09-01T22:17:50+09:00*%
%TF.ProjectId,cool836,636f6f6c-3833-4362-9e6b-696361645f70,rev?*%
%TF.SameCoordinates,Original*%
%TF.FileFunction,Copper,L1,Top*%
%TF.FilePolarity,Positive*%
%FSLAX46Y46*%
G04 Gerber Fmt 4.6, Leading zero omitted, Abs format (unit mm)*
G04 Created by KiCad (PCBNEW (5.1.6-0-10_14)) date 2020-09-01 22:17:50*
%MOMM*%
%LPD*%
G01*
G04 APERTURE LIST*
%TA.AperFunction,WasherPad*%
%ADD10C,3.000000*%
%TD*%
%TA.AperFunction,WasherPad*%
%ADD11C,5.000000*%
%TD*%
%TA.AperFunction,ComponentPad*%
%ADD12C,1.524000*%
%TD*%
%TA.AperFunction,ComponentPad*%
%ADD13C,2.200000*%
%TD*%
%TA.AperFunction,SMDPad,CuDef*%
%ADD14R,0.950000X1.300000*%
%TD*%
%TA.AperFunction,ComponentPad*%
%ADD15C,1.397000*%
%TD*%
%TA.AperFunction,ComponentPad*%
%ADD16R,1.397000X1.397000*%
%TD*%
%TA.AperFunction,SMDPad,CuDef*%
%ADD17C,0.100000*%
%TD*%
%TA.AperFunction,ComponentPad*%
%ADD18C,0.100000*%
%TD*%
%TA.AperFunction,SMDPad,CuDef*%
%ADD19R,1.300000X0.950000*%
%TD*%
%TA.AperFunction,ComponentPad*%
%ADD20C,2.000000*%
%TD*%
%TA.AperFunction,ViaPad*%
%ADD21C,0.800000*%
%TD*%
%TA.AperFunction,Conductor*%
%ADD22C,0.250000*%
%TD*%
G04 APERTURE END LIST*
D10*
%TO.P,REF\u002A\u002A,*%
%TO.N,*%
X198000000Y-81125000D03*
%TD*%
%TO.P,REF\u002A\u002A,*%
%TO.N,*%
X309275000Y-81125000D03*
%TD*%
%TO.P,REF\u002A\u002A,*%
%TO.N,*%
X158275000Y-81125000D03*
%TD*%
%TO.P,REF\u002A\u002A,*%
%TO.N,*%
X50275000Y-81125000D03*
%TD*%
%TO.P,REF\u002A\u002A,*%
%TO.N,*%
X322175000Y61950000D03*
%TD*%
%TO.P,REF\u002A\u002A,*%
%TO.N,*%
X322175000Y173225000D03*
%TD*%
%TO.P,REF\u002A\u002A,*%
%TO.N,*%
X322175000Y22225000D03*
%TD*%
%TO.P,REF\u002A\u002A,*%
%TO.N,*%
X322175000Y-85775000D03*
%TD*%
%TO.P,REF\u002A\u002A,*%
%TO.N,*%
X158725000Y-64100000D03*
%TD*%
%TO.P,REF\u002A\u002A,*%
%TO.N,*%
X50725000Y-64100000D03*
%TD*%
%TO.P,REF\u002A\u002A,*%
%TO.N,*%
X309725000Y-64100000D03*
%TD*%
%TO.P,REF\u002A\u002A,*%
%TO.N,*%
X198450000Y-64100000D03*
%TD*%
%TO.P,REF\u002A\u002A,*%
%TO.N,*%
X51050000Y4125000D03*
%TD*%
%TO.P,REF\u002A\u002A,*%
%TO.N,*%
X51050000Y-50875000D03*
%TD*%
%TO.P,REF\u002A\u002A,*%
%TO.N,*%
X202050000Y-50875000D03*
%TD*%
%TO.P,REF\u002A\u002A,*%
%TO.N,*%
X162325000Y-50875000D03*
%TD*%
%TO.P,REF\u002A\u002A,*%
%TO.N,*%
X181650000Y13885000D03*
%TD*%
%TO.P,REF\u002A\u002A,*%
%TO.N,*%
X310050000Y4125000D03*
%TD*%
%TO.P,REF\u002A\u002A,*%
%TO.N,*%
X310050000Y-50875000D03*
%TD*%
%TO.P,REF\u002A\u002A,*%
%TO.N,*%
X309525000Y106950000D03*
%TD*%
%TO.P,REF\u002A\u002A,*%
%TO.N,*%
X309525000Y161950000D03*
%TD*%
%TO.P,REF\u002A\u002A,*%
%TO.N,*%
X181125000Y171710000D03*
%TD*%
%TO.P,REF\u002A\u002A,*%
%TO.N,*%
X201525000Y106950000D03*
%TD*%
%TO.P,REF\u002A\u002A,*%
%TO.N,*%
X161800000Y106950000D03*
%TD*%
%TO.P,REF\u002A\u002A,*%
%TO.N,*%
X50525000Y106950000D03*
%TD*%
%TO.P,REF\u002A\u002A,*%
%TO.N,*%
X50525000Y161950000D03*
%TD*%
D11*
%TO.P,REF\u002A\u002A,*%
%TO.N,*%
X197850000Y89075000D03*
%TD*%
D12*
%TO.P,U1,1*%
%TO.N,Net-(U1-Pad1)*%
X170413600Y87053000D03*
%TO.P,U1,2*%
%TO.N,Net-(U1-Pad2)*%
X170413600Y84513000D03*
%TO.P,U1,3*%
%TO.N,GND*%
X170413600Y81973000D03*
%TO.P,U1,4*%
X170413600Y79433000D03*
%TO.P,U1,5*%
%TO.N,col0*%
X170413600Y76893000D03*
%TO.P,U1,6*%
%TO.N,row1*%
X170413600Y74353000D03*
%TO.P,U1,7*%
%TO.N,Net-(U1-Pad7)*%
X170413600Y71813000D03*
%TO.P,U1,8*%
%TO.N,row3*%
X170413600Y69273000D03*
%TO.P,U1,9*%
%TO.N,row4*%
X170413600Y66733000D03*
%TO.P,U1,10*%
%TO.N,row5*%
X170413600Y64193000D03*
%TO.P,U1,11*%
%TO.N,col2*%
X170413600Y61653000D03*
%TO.P,U1,12*%
%TO.N,col1*%
X170413600Y59113000D03*
%TO.P,U1,13*%
%TO.N,col5*%
X185633600Y59113000D03*
%TO.P,U1,14*%
%TO.N,row2*%
X185633600Y61653000D03*
%TO.P,U1,15*%
%TO.N,Net-(U1-Pad15)*%
X185633600Y64193000D03*
%TO.P,U1,16*%
%TO.N,col4*%
X185633600Y66733000D03*
%TO.P,U1,17*%
%TO.N,Net-(U1-Pad17)*%
X185633600Y69273000D03*
%TO.P,U1,18*%
%TO.N,Net-(U1-Pad18)*%
X185633600Y71813000D03*
%TO.P,U1,19*%
%TO.N,row0*%
X185633600Y74353000D03*
%TO.P,U1,20*%
%TO.N,col3*%
X185633600Y76893000D03*
%TO.P,U1,21*%
%TO.N,VCC*%
X185633600Y79433000D03*
%TO.P,U1,22*%
%TO.N,reset*%
X185633600Y81973000D03*
%TO.P,U1,23*%
%TO.N,GND*%
X185633600Y84513000D03*
%TO.P,U1,24*%
%TO.N,Net-(U1-Pad24)*%
X185633600Y87053000D03*
%TD*%
D11*
%TO.P,REF\u002A\u002A,*%
%TO.N,*%
X178525000Y24325000D03*
%TD*%
%TO.P,REF\u002A\u002A,*%
%TO.N,*%
X50125000Y34075000D03*
%TD*%
%TO.P,REF\u002A\u002A,*%
%TO.N,*%
X50125000Y89075000D03*
%TD*%
%TO.P,REF\u002A\u002A,*%
%TO.N,*%
X158125000Y89075000D03*
%TD*%
%TO.P,REF\u002A\u002A,*%
%TO.N,*%
X309125000Y34075000D03*
%TD*%
%TO.P,REF\u002A\u002A,*%
%TO.N,*%
X309125000Y89075000D03*
%TD*%
D13*
%TO.P,SW1,1*%
%TO.N,col0*%
X55715000Y82315000D03*
%TO.P,SW1,2*%
%TO.N,Net-(D1-Pad2)*%
X62065000Y84855000D03*
%TD*%
%TO.P,SW7,2*%
%TO.N,Net-(D7-Pad2)*%
X62465000Y65755000D03*
%TO.P,SW7,1*%
%TO.N,col1*%
X56115000Y63215000D03*
%TD*%
D14*
%TO.P,D1,2*%
%TO.N,Net-(D1-Pad2)*%
X68325000Y82675000D03*
D15*
X68325000Y84710000D03*
D16*
%TO.P,D1,1*%
%TO.N,row0*%
X68325000Y77090000D03*
D14*
X68325000Y79125000D03*
%TD*%
%TO.P,D2,2*%
%TO.N,Net-(D2-Pad2)*%
X88400000Y82825000D03*
D15*
X88400000Y84860000D03*
D16*
%TO.P,D2,1*%
%TO.N,row1*%
X88400000Y77240000D03*
D14*
X88400000Y79275000D03*
%TD*%
%TA.AperFunction,SMDPad,CuDef*%
D17*
%TO.P,D3,2*%
%TO.N,Net-(D3-Pad2)*%
G36*
X111871242Y80979320D02*
G01*
X110924857Y81062118D01*
X111038160Y82357172D01*
X111984545Y82274374D01*
X111871242Y80979320D01*
G37*
%TD.AperFunction*%
D15*
X111632063Y83695502D03*
%TA.AperFunction,ComponentPad*%
D18*
%TO.P,D3,1*%
%TO.N,row2*%
G36*
X111602901Y75347778D02*
G01*
X110211217Y75469534D01*
X110332973Y76861218D01*
X111724657Y76739462D01*
X111602901Y75347778D01*
G37*
%TD.AperFunction*%
%TA.AperFunction,SMDPad,CuDef*%
D17*
G36*
X111561840Y77442828D02*
G01*
X110615455Y77525626D01*
X110728758Y78820680D01*
X111675143Y78737882D01*
X111561840Y77442828D01*
G37*
%TD.AperFunction*%
%TD*%
%TA.AperFunction,SMDPad,CuDef*%
%TO.P,D4,2*%
%TO.N,Net-(D4-Pad2)*%
G36*
X130696242Y79354320D02*
G01*
X129749857Y79437118D01*
X129863160Y80732172D01*
X130809545Y80649374D01*
X130696242Y79354320D01*
G37*
%TD.AperFunction*%
D15*
X130457063Y82070502D03*
%TA.AperFunction,ComponentPad*%
D18*
%TO.P,D4,1*%
%TO.N,row3*%
G36*
X130427901Y73722778D02*
G01*
X129036217Y73844534D01*
X129157973Y75236218D01*
X130549657Y75114462D01*
X130427901Y73722778D01*
G37*
%TD.AperFunction*%
%TA.AperFunction,SMDPad,CuDef*%
D17*
G36*
X130386840Y75817828D02*
G01*
X129440455Y75900626D01*
X129553758Y77195680D01*
X130500143Y77112882D01*
X130386840Y75817828D01*
G37*
%TD.AperFunction*%
%TD*%
%TA.AperFunction,SMDPad,CuDef*%
%TO.P,D5,2*%
%TO.N,Net-(D5-Pad2)*%
G36*
X149546242Y77704320D02*
G01*
X148599857Y77787118D01*
X148713160Y79082172D01*
X149659545Y78999374D01*
X149546242Y77704320D01*
G37*
%TD.AperFunction*%
D15*
X149307063Y80420502D03*
%TA.AperFunction,ComponentPad*%
D18*
%TO.P,D5,1*%
%TO.N,row4*%
G36*
X149277901Y72072778D02*
G01*
X147886217Y72194534D01*
X148007973Y73586218D01*
X149399657Y73464462D01*
X149277901Y72072778D01*
G37*
%TD.AperFunction*%
%TA.AperFunction,SMDPad,CuDef*%
D17*
G36*
X149236840Y74167828D02*
G01*
X148290455Y74250626D01*
X148403758Y75545680D01*
X149350143Y75462882D01*
X149236840Y74167828D01*
G37*
%TD.AperFunction*%
%TD*%
%TA.AperFunction,SMDPad,CuDef*%
%TO.P,D6,2*%
%TO.N,Net-(D6-Pad2)*%
G36*
X158995680Y66796242D02*
G01*
X158912882Y65849857D01*
X157617828Y65963160D01*
X157700626Y66909545D01*
X158995680Y66796242D01*
G37*
%TD.AperFunction*%
D15*
X156279498Y66557063D03*
%TA.AperFunction,ComponentPad*%
D18*
%TO.P,D6,1*%
%TO.N,row5*%
G36*
X164627222Y66527901D02*
G01*
X164505466Y65136217D01*
X163113782Y65257973D01*
X163235538Y66649657D01*
X164627222Y66527901D01*
G37*
%TD.AperFunction*%
%TA.AperFunction,SMDPad,CuDef*%
D17*
G36*
X162532172Y66486840D02*
G01*
X162449374Y65540455D01*
X161154320Y65653758D01*
X161237118Y66600143D01*
X162532172Y66486840D01*
G37*
%TD.AperFunction*%
%TD*%
D19*
%TO.P,D7,1*%
%TO.N,row0*%
X69000000Y52275000D03*
D16*
X71035000Y52275000D03*
D15*
%TO.P,D7,2*%
%TO.N,Net-(D7-Pad2)*%
X63415000Y52275000D03*
D19*
X65450000Y52275000D03*
%TD*%
%TO.P,D8,1*%
%TO.N,row1*%
X95275000Y52100000D03*
D16*
X97310000Y52100000D03*
D15*
%TO.P,D8,2*%
%TO.N,Net-(D8-Pad2)*%
X89690000Y52100000D03*
D19*
X91725000Y52100000D03*
%TD*%
%TA.AperFunction,SMDPad,CuDef*%
D17*
%TO.P,D9,1*%
%TO.N,row2*%
G36*
X111857172Y51386840D02*
G01*
X111774374Y50440455D01*
X110479320Y50553758D01*
X110562118Y51500143D01*
X111857172Y51386840D01*
G37*
%TD.AperFunction*%
%TA.AperFunction,ComponentPad*%
D18*
G36*
X113952222Y51427901D02*
G01*
X113830466Y50036217D01*
X112438782Y50157973D01*
X112560538Y51549657D01*
X113952222Y51427901D01*
G37*
%TD.AperFunction*%
D15*
%TO.P,D9,2*%
%TO.N,Net-(D9-Pad2)*%
X105604498Y51457063D03*
%TA.AperFunction,SMDPad,CuDef*%
D17*
G36*
X108320680Y51696242D02*
G01*
X108237882Y50749857D01*
X106942828Y50863160D01*
X107025626Y51809545D01*
X108320680Y51696242D01*
G37*
%TD.AperFunction*%
%TD*%
%TA.AperFunction,SMDPad,CuDef*%
%TO.P,D10,1*%
%TO.N,row3*%
G36*
X135157172Y49586840D02*
G01*
X135074374Y48640455D01*
X133779320Y48753758D01*
X133862118Y49700143D01*
X135157172Y49586840D01*
G37*
%TD.AperFunction*%
%TA.AperFunction,ComponentPad*%
D18*
G36*
X137252222Y49627901D02*
G01*
X137130466Y48236217D01*
X135738782Y48357973D01*
X135860538Y49749657D01*
X137252222Y49627901D01*
G37*
%TD.AperFunction*%
D15*
%TO.P,D10,2*%
%TO.N,Net-(D10-Pad2)*%
X128904498Y49657063D03*
%TA.AperFunction,SMDPad,CuDef*%
D17*
G36*
X131620680Y49896242D02*
G01*
X131537882Y48949857D01*
X130242828Y49063160D01*
X130325626Y50009545D01*
X131620680Y49896242D01*
G37*
%TD.AperFunction*%
%TD*%
%TA.AperFunction,SMDPad,CuDef*%
%TO.P,D11,1*%
%TO.N,row4*%
G36*
X153507172Y47911840D02*
G01*
X153424374Y46965455D01*
X152129320Y47078758D01*
X152212118Y48025143D01*
X153507172Y47911840D01*
G37*
%TD.AperFunction*%
%TA.AperFunction,ComponentPad*%
D18*
G36*
X155602222Y47952901D02*
G01*
X155480466Y46561217D01*
X154088782Y46682973D01*
X154210538Y48074657D01*
X155602222Y47952901D01*
G37*
%TD.AperFunction*%
D15*
%TO.P,D11,2*%
%TO.N,Net-(D11-Pad2)*%
X147254498Y47982063D03*
%TA.AperFunction,SMDPad,CuDef*%
D17*
G36*
X149970680Y48221242D02*
G01*
X149887882Y47274857D01*
X148592828Y47388160D01*
X148675626Y48334545D01*
X149970680Y48221242D01*
G37*
%TD.AperFunction*%
%TD*%
%TA.AperFunction,SMDPad,CuDef*%
%TO.P,D12,2*%
%TO.N,Net-(D12-Pad2)*%
G36*
X172045680Y46521242D02*
G01*
X171962882Y45574857D01*
X170667828Y45688160D01*
X170750626Y46634545D01*
X172045680Y46521242D01*
G37*
%TD.AperFunction*%
D15*
X169329498Y46282063D03*
%TA.AperFunction,ComponentPad*%
D18*
%TO.P,D12,1*%
%TO.N,row5*%
G36*
X177677222Y46252901D02*
G01*
X177555466Y44861217D01*
X176163782Y44982973D01*
X176285538Y46374657D01*
X177677222Y46252901D01*
G37*
%TD.AperFunction*%
%TA.AperFunction,SMDPad,CuDef*%
D17*
G36*
X175582172Y46211840D02*
G01*
X175499374Y45265455D01*
X174204320Y45378758D01*
X174287118Y46325143D01*
X175582172Y46211840D01*
G37*
%TD.AperFunction*%
%TD*%
D14*
%TO.P,D13,2*%
%TO.N,Net-(D13-Pad2)*%
X71450000Y42550000D03*
D15*
X71450000Y40515000D03*
D16*
%TO.P,D13,1*%
%TO.N,row0*%
X71450000Y48135000D03*
D14*
X71450000Y46100000D03*
%TD*%
%TO.P,D14,2*%
%TO.N,Net-(D14-Pad2)*%
X97700000Y42250000D03*
D15*
X97700000Y40215000D03*
D16*
%TO.P,D14,1*%
%TO.N,row1*%
X97700000Y47835000D03*
D14*
X97700000Y45800000D03*
%TD*%
%TA.AperFunction,SMDPad,CuDef*%
D17*
%TO.P,D15,2*%
%TO.N,Net-(D15-Pad2)*%
G36*
X118503758Y41395680D02*
G01*
X119450143Y41312882D01*
X119336840Y40017828D01*
X118390455Y40100626D01*
X118503758Y41395680D01*
G37*
%TD.AperFunction*%
D15*
X118742937Y38679498D03*
%TA.AperFunction,ComponentPad*%
D18*
%TO.P,D15,1*%
%TO.N,row2*%
G36*
X118772099Y47027222D02*
G01*
X120163783Y46905466D01*
X120042027Y45513782D01*
X118650343Y45635538D01*
X118772099Y47027222D01*
G37*
%TD.AperFunction*%
%TA.AperFunction,SMDPad,CuDef*%
D17*
G36*
X118813160Y44932172D02*
G01*
X119759545Y44849374D01*
X119646242Y43554320D01*
X118699857Y43637118D01*
X118813160Y44932172D01*
G37*
%TD.AperFunction*%
%TD*%
%TA.AperFunction,SMDPad,CuDef*%
%TO.P,D16,2*%
%TO.N,Net-(D16-Pad2)*%
G36*
X137553758Y39720680D02*
G01*
X138500143Y39637882D01*
X138386840Y38342828D01*
X137440455Y38425626D01*
X137553758Y39720680D01*
G37*
%TD.AperFunction*%
D15*
X137792937Y37004498D03*
%TA.AperFunction,ComponentPad*%
D18*
%TO.P,D16,1*%
%TO.N,row3*%
G36*
X137822099Y45352222D02*
G01*
X139213783Y45230466D01*
X139092027Y43838782D01*
X137700343Y43960538D01*
X137822099Y45352222D01*
G37*
%TD.AperFunction*%
%TA.AperFunction,SMDPad,CuDef*%
D17*
G36*
X137863160Y43257172D02*
G01*
X138809545Y43174374D01*
X138696242Y41879320D01*
X137749857Y41962118D01*
X137863160Y43257172D01*
G37*
%TD.AperFunction*%
%TD*%
%TA.AperFunction,SMDPad,CuDef*%
%TO.P,D17,2*%
%TO.N,Net-(D17-Pad2)*%
G36*
X156628758Y38670680D02*
G01*
X157575143Y38587882D01*
X157461840Y37292828D01*
X156515455Y37375626D01*
X156628758Y38670680D01*
G37*
%TD.AperFunction*%
D15*
X156867937Y35954498D03*
%TA.AperFunction,ComponentPad*%
D18*
%TO.P,D17,1*%
%TO.N,row4*%
G36*
X156897099Y44302222D02*
G01*
X158288783Y44180466D01*
X158167027Y42788782D01*
X156775343Y42910538D01*
X156897099Y44302222D01*
G37*
%TD.AperFunction*%
%TA.AperFunction,SMDPad,CuDef*%
D17*
G36*
X156938160Y42207172D02*
G01*
X157884545Y42124374D01*
X157771242Y40829320D01*
X156824857Y40912118D01*
X156938160Y42207172D01*
G37*
%TD.AperFunction*%
%TD*%
%TA.AperFunction,SMDPad,CuDef*%
%TO.P,D18,1*%
%TO.N,row5*%
G36*
X175913160Y39907172D02*
G01*
X176859545Y39824374D01*
X176746242Y38529320D01*
X175799857Y38612118D01*
X175913160Y39907172D01*
G37*
%TD.AperFunction*%
%TA.AperFunction,ComponentPad*%
D18*
G36*
X175872099Y42002222D02*
G01*
X177263783Y41880466D01*
X177142027Y40488782D01*
X175750343Y40610538D01*
X175872099Y42002222D01*
G37*
%TD.AperFunction*%
D15*
%TO.P,D18,2*%
%TO.N,Net-(D18-Pad2)*%
X175842937Y33654498D03*
%TA.AperFunction,SMDPad,CuDef*%
D17*
G36*
X175603758Y36370680D02*
G01*
X176550143Y36287882D01*
X176436840Y34992828D01*
X175490455Y35075626D01*
X175603758Y36370680D01*
G37*
%TD.AperFunction*%
%TD*%
%TA.AperFunction,SMDPad,CuDef*%
%TO.P,D19,1*%
%TO.N,row0*%
G36*
X192418872Y64720156D02*
G01*
X192336074Y65666541D01*
X193631128Y65779844D01*
X193713926Y64833459D01*
X192418872Y64720156D01*
G37*
%TD.AperFunction*%
%TA.AperFunction,ComponentPad*%
D18*
G36*
X190362780Y64315918D02*
G01*
X190241024Y65707602D01*
X191632708Y65829358D01*
X191754464Y64437674D01*
X190362780Y64315918D01*
G37*
%TD.AperFunction*%
D15*
%TO.P,D19,2*%
%TO.N,Net-(D19-Pad2)*%
X198588748Y65736764D03*
%TA.AperFunction,SMDPad,CuDef*%
D17*
G36*
X195955364Y65029558D02*
G01*
X195872566Y65975943D01*
X197167620Y66089246D01*
X197250418Y65142861D01*
X195955364Y65029558D01*
G37*
%TD.AperFunction*%
%TD*%
%TA.AperFunction,SMDPad,CuDef*%
%TO.P,D20,1*%
%TO.N,row1*%
G36*
X211400626Y66340455D02*
G01*
X211317828Y67286840D01*
X212612882Y67400143D01*
X212695680Y66453758D01*
X211400626Y66340455D01*
G37*
%TD.AperFunction*%
%TA.AperFunction,ComponentPad*%
D18*
G36*
X209344534Y65936217D02*
G01*
X209222778Y67327901D01*
X210614462Y67449657D01*
X210736218Y66057973D01*
X209344534Y65936217D01*
G37*
%TD.AperFunction*%
D15*
%TO.P,D20,2*%
%TO.N,Net-(D20-Pad2)*%
X217570502Y67357063D03*
%TA.AperFunction,SMDPad,CuDef*%
D17*
G36*
X214937118Y66649857D02*
G01*
X214854320Y67596242D01*
X216149374Y67709545D01*
X216232172Y66763160D01*
X214937118Y66649857D01*
G37*
%TD.AperFunction*%
%TD*%
%TA.AperFunction,SMDPad,CuDef*%
%TO.P,D21,1*%
%TO.N,row2*%
G36*
X230550626Y67865455D02*
G01*
X230467828Y68811840D01*
X231762882Y68925143D01*
X231845680Y67978758D01*
X230550626Y67865455D01*
G37*
%TD.AperFunction*%
%TA.AperFunction,ComponentPad*%
D18*
G36*
X228494534Y67461217D02*
G01*
X228372778Y68852901D01*
X229764462Y68974657D01*
X229886218Y67582973D01*
X228494534Y67461217D01*
G37*
%TD.AperFunction*%
D15*
%TO.P,D21,2*%
%TO.N,Net-(D21-Pad2)*%
X236720502Y68882063D03*
%TA.AperFunction,SMDPad,CuDef*%
D17*
G36*
X234087118Y68174857D02*
G01*
X234004320Y69121242D01*
X235299374Y69234545D01*
X235382172Y68288160D01*
X234087118Y68174857D01*
G37*
%TD.AperFunction*%
%TD*%
%TA.AperFunction,SMDPad,CuDef*%
%TO.P,D22,1*%
%TO.N,row3*%
G36*
X249975626Y69765455D02*
G01*
X249892828Y70711840D01*
X251187882Y70825143D01*
X251270680Y69878758D01*
X249975626Y69765455D01*
G37*
%TD.AperFunction*%
%TA.AperFunction,ComponentPad*%
D18*
G36*
X247919534Y69361217D02*
G01*
X247797778Y70752901D01*
X249189462Y70874657D01*
X249311218Y69482973D01*
X247919534Y69361217D01*
G37*
%TD.AperFunction*%
D15*
%TO.P,D22,2*%
%TO.N,Net-(D22-Pad2)*%
X256145502Y70782063D03*
%TA.AperFunction,SMDPad,CuDef*%
D17*
G36*
X253512118Y70074857D02*
G01*
X253429320Y71021242D01*
X254724374Y71134545D01*
X254807172Y70188160D01*
X253512118Y70074857D01*
G37*
%TD.AperFunction*%
%TD*%
D19*
%TO.P,D23,1*%
%TO.N,row4*%
X270650000Y71625000D03*
D16*
X268615000Y71625000D03*
D15*
%TO.P,D23,2*%
%TO.N,Net-(D23-Pad2)*%
X276235000Y71625000D03*
D19*
X274200000Y71625000D03*
%TD*%
%TO.P,D24,2*%
%TO.N,Net-(D24-Pad2)*%
X295350000Y71625000D03*
D15*
X297385000Y71625000D03*
D16*
%TO.P,D24,1*%
%TO.N,row5*%
X289765000Y71625000D03*
D19*
X291800000Y71625000D03*
%TD*%
%TA.AperFunction,SMDPad,CuDef*%
D17*
%TO.P,D25,2*%
%TO.N,Net-(D25-Pad2)*%
G36*
X202212118Y46174857D02*
G01*
X202129320Y47121242D01*
X203424374Y47234545D01*
X203507172Y46288160D01*
X202212118Y46174857D01*
G37*
%TD.AperFunction*%
D15*
X204845502Y46882063D03*
%TA.AperFunction,ComponentPad*%
D18*
%TO.P,D25,1*%
%TO.N,row0*%
G36*
X196619534Y45461217D02*
G01*
X196497778Y46852901D01*
X197889462Y46974657D01*
X198011218Y45582973D01*
X196619534Y45461217D01*
G37*
%TD.AperFunction*%
%TA.AperFunction,SMDPad,CuDef*%
D17*
G36*
X198675626Y45865455D02*
G01*
X198592828Y46811840D01*
X199887882Y46925143D01*
X199970680Y45978758D01*
X198675626Y45865455D01*
G37*
%TD.AperFunction*%
%TD*%
%TA.AperFunction,SMDPad,CuDef*%
%TO.P,D26,2*%
%TO.N,Net-(D26-Pad2)*%
G36*
X221030364Y48154558D02*
G01*
X220947566Y49100943D01*
X222242620Y49214246D01*
X222325418Y48267861D01*
X221030364Y48154558D01*
G37*
%TD.AperFunction*%
D15*
X223663748Y48861764D03*
%TA.AperFunction,ComponentPad*%
D18*
%TO.P,D26,1*%
%TO.N,row1*%
G36*
X215437780Y47440918D02*
G01*
X215316024Y48832602D01*
X216707708Y48954358D01*
X216829464Y47562674D01*
X215437780Y47440918D01*
G37*
%TD.AperFunction*%
%TA.AperFunction,SMDPad,CuDef*%
D17*
G36*
X217493872Y47845156D02*
G01*
X217411074Y48791541D01*
X218706128Y48904844D01*
X218788926Y47958459D01*
X217493872Y47845156D01*
G37*
%TD.AperFunction*%
%TD*%
%TA.AperFunction,SMDPad,CuDef*%
%TO.P,D27,2*%
%TO.N,Net-(D27-Pad2)*%
G36*
X239980364Y49779558D02*
G01*
X239897566Y50725943D01*
X241192620Y50839246D01*
X241275418Y49892861D01*
X239980364Y49779558D01*
G37*
%TD.AperFunction*%
D15*
X242613748Y50486764D03*
%TA.AperFunction,ComponentPad*%
D18*
%TO.P,D27,1*%
%TO.N,row2*%
G36*
X234387780Y49065918D02*
G01*
X234266024Y50457602D01*
X235657708Y50579358D01*
X235779464Y49187674D01*
X234387780Y49065918D01*
G37*
%TD.AperFunction*%
%TA.AperFunction,SMDPad,CuDef*%
D17*
G36*
X236443872Y49470156D02*
G01*
X236361074Y50416541D01*
X237656128Y50529844D01*
X237738926Y49583459D01*
X236443872Y49470156D01*
G37*
%TD.AperFunction*%
%TD*%
%TA.AperFunction,SMDPad,CuDef*%
%TO.P,D28,2*%
%TO.N,Net-(D28-Pad2)*%
G36*
X259187118Y51174857D02*
G01*
X259104320Y52121242D01*
X260399374Y52234545D01*
X260482172Y51288160D01*
X259187118Y51174857D01*
G37*
%TD.AperFunction*%
D15*
X261820502Y51882063D03*
%TA.AperFunction,ComponentPad*%
D18*
%TO.P,D28,1*%
%TO.N,row3*%
G36*
X253594534Y50461217D02*
G01*
X253472778Y51852901D01*
X254864462Y51974657D01*
X254986218Y50582973D01*
X253594534Y50461217D01*
G37*
%TD.AperFunction*%
%TA.AperFunction,SMDPad,CuDef*%
D17*
G36*
X255650626Y50865455D02*
G01*
X255567828Y51811840D01*
X256862882Y51925143D01*
X256945680Y50978758D01*
X255650626Y50865455D01*
G37*
%TD.AperFunction*%
%TD*%
D19*
%TO.P,D29,2*%
%TO.N,Net-(D29-Pad2)*%
X279750000Y52550000D03*
D15*
X281785000Y52550000D03*
D16*
%TO.P,D29,1*%
%TO.N,row4*%
X274165000Y52550000D03*
D19*
X276200000Y52550000D03*
%TD*%
%TO.P,D30,1*%
%TO.N,row5*%
X297375000Y52325000D03*
D16*
X295340000Y52325000D03*
D15*
%TO.P,D30,2*%
%TO.N,Net-(D30-Pad2)*%
X302960000Y52325000D03*
D19*
X300925000Y52325000D03*
%TD*%
%TA.AperFunction,SMDPad,CuDef*%
D17*
%TO.P,D31,1*%
%TO.N,row0*%
G36*
X197290455Y40699374D02*
G01*
X198236840Y40782172D01*
X198350143Y39487118D01*
X197403758Y39404320D01*
X197290455Y40699374D01*
G37*
%TD.AperFunction*%
%TA.AperFunction,ComponentPad*%
D18*
G36*
X196886217Y42755466D02*
G01*
X198277901Y42877222D01*
X198399657Y41485538D01*
X197007973Y41363782D01*
X196886217Y42755466D01*
G37*
%TD.AperFunction*%
D15*
%TO.P,D31,2*%
%TO.N,Net-(D31-Pad2)*%
X198307063Y34529498D03*
%TA.AperFunction,SMDPad,CuDef*%
D17*
G36*
X197599857Y37162882D02*
G01*
X198546242Y37245680D01*
X198659545Y35950626D01*
X197713160Y35867828D01*
X197599857Y37162882D01*
G37*
%TD.AperFunction*%
%TD*%
%TA.AperFunction,SMDPad,CuDef*%
%TO.P,D32,1*%
%TO.N,row1*%
G36*
X216445156Y42281128D02*
G01*
X217391541Y42363926D01*
X217504844Y41068872D01*
X216558459Y40986074D01*
X216445156Y42281128D01*
G37*
%TD.AperFunction*%
%TA.AperFunction,ComponentPad*%
D18*
G36*
X216040918Y44337220D02*
G01*
X217432602Y44458976D01*
X217554358Y43067292D01*
X216162674Y42945536D01*
X216040918Y44337220D01*
G37*
%TD.AperFunction*%
D15*
%TO.P,D32,2*%
%TO.N,Net-(D32-Pad2)*%
X217461764Y36111252D03*
%TA.AperFunction,SMDPad,CuDef*%
D17*
G36*
X216754558Y38744636D02*
G01*
X217700943Y38827434D01*
X217814246Y37532380D01*
X216867861Y37449582D01*
X216754558Y38744636D01*
G37*
%TD.AperFunction*%
%TD*%
%TA.AperFunction,SMDPad,CuDef*%
%TO.P,D33,1*%
%TO.N,row2*%
G36*
X235290455Y43899374D02*
G01*
X236236840Y43982172D01*
X236350143Y42687118D01*
X235403758Y42604320D01*
X235290455Y43899374D01*
G37*
%TD.AperFunction*%
%TA.AperFunction,ComponentPad*%
D18*
G36*
X234886217Y45955466D02*
G01*
X236277901Y46077222D01*
X236399657Y44685538D01*
X235007973Y44563782D01*
X234886217Y45955466D01*
G37*
%TD.AperFunction*%
D15*
%TO.P,D33,2*%
%TO.N,Net-(D33-Pad2)*%
X236307063Y37729498D03*
%TA.AperFunction,SMDPad,CuDef*%
D17*
G36*
X235599857Y40362882D02*
G01*
X236546242Y40445680D01*
X236659545Y39150626D01*
X235713160Y39067828D01*
X235599857Y40362882D01*
G37*
%TD.AperFunction*%
%TD*%
%TA.AperFunction,SMDPad,CuDef*%
%TO.P,D34,1*%
%TO.N,row3*%
G36*
X254390455Y44874374D02*
G01*
X255336840Y44957172D01*
X255450143Y43662118D01*
X254503758Y43579320D01*
X254390455Y44874374D01*
G37*
%TD.AperFunction*%
%TA.AperFunction,ComponentPad*%
D18*
G36*
X253986217Y46930466D02*
G01*
X255377901Y47052222D01*
X255499657Y45660538D01*
X254107973Y45538782D01*
X253986217Y46930466D01*
G37*
%TD.AperFunction*%
D15*
%TO.P,D34,2*%
%TO.N,Net-(D34-Pad2)*%
X255407063Y38704498D03*
%TA.AperFunction,SMDPad,CuDef*%
D17*
G36*
X254699857Y41337882D02*
G01*
X255646242Y41420680D01*
X255759545Y40125626D01*
X254813160Y40042828D01*
X254699857Y41337882D01*
G37*
%TD.AperFunction*%
%TD*%
D14*
%TO.P,D35,1*%
%TO.N,row4*%
X278575000Y44850000D03*
D16*
X278575000Y46885000D03*
D15*
%TO.P,D35,2*%
%TO.N,Net-(D35-Pad2)*%
X278575000Y39265000D03*
D14*
X278575000Y41300000D03*
%TD*%
%TO.P,D36,1*%
%TO.N,row5*%
X304700000Y44850000D03*
D16*
X304700000Y46885000D03*
D15*
%TO.P,D36,2*%
%TO.N,Net-(D36-Pad2)*%
X304700000Y39265000D03*
D14*
X304700000Y41300000D03*
%TD*%
D13*
%TO.P,SW2,1*%
%TO.N,col0*%
X75715000Y82315000D03*
%TO.P,SW2,2*%
%TO.N,Net-(D2-Pad2)*%
X82065000Y84855000D03*
%TD*%
%TO.P,SW3,1*%
%TO.N,col0*%
X98750874Y82437398D03*
%TO.P,SW3,2*%
%TO.N,Net-(D3-Pad2)*%
X105298086Y84414293D03*
%TD*%
%TO.P,SW4,1*%
%TO.N,col0*%
X117750874Y80637398D03*
%TO.P,SW4,2*%
%TO.N,Net-(D4-Pad2)*%
X124298086Y82614293D03*
%TD*%
%TO.P,SW5,1*%
%TO.N,col0*%
X136650874Y79037398D03*
%TO.P,SW5,2*%
%TO.N,Net-(D5-Pad2)*%
X143198086Y81014293D03*
%TD*%
%TO.P,SW6,1*%
%TO.N,col0*%
X155650874Y77537398D03*
%TO.P,SW6,2*%
%TO.N,Net-(D6-Pad2)*%
X162198086Y79514293D03*
%TD*%
%TO.P,SW8,2*%
%TO.N,Net-(D8-Pad2)*%
X86765000Y65755000D03*
%TO.P,SW8,1*%
%TO.N,col1*%
X80415000Y63215000D03*
%TD*%
%TO.P,SW9,2*%
%TO.N,Net-(D9-Pad2)*%
X108298086Y65014293D03*
%TO.P,SW9,1*%
%TO.N,col1*%
X101750874Y63037398D03*
%TD*%
%TO.P,SW10,2*%
%TO.N,Net-(D10-Pad2)*%
X127298086Y63314293D03*
%TO.P,SW10,1*%
%TO.N,col1*%
X120750874Y61337398D03*
%TD*%
%TO.P,SW11,2*%
%TO.N,Net-(D11-Pad2)*%
X146298086Y61714293D03*
%TO.P,SW11,1*%
%TO.N,col1*%
X139750874Y59737398D03*
%TD*%
%TO.P,SW12,2*%
%TO.N,Net-(D12-Pad2)*%
X165198086Y60114293D03*
%TO.P,SW12,1*%
%TO.N,col1*%
X158650874Y58137398D03*
%TD*%
%TO.P,SW13,1*%
%TO.N,col2*%
X59015000Y44215000D03*
%TO.P,SW13,2*%
%TO.N,Net-(D13-Pad2)*%
X65365000Y46755000D03*
%TD*%
%TO.P,SW14,1*%
%TO.N,col2*%
X85215000Y44215000D03*
%TO.P,SW14,2*%
%TO.N,Net-(D14-Pad2)*%
X91565000Y46755000D03*
%TD*%
%TO.P,SW15,1*%
%TO.N,col2*%
X106750874Y43537398D03*
%TO.P,SW15,2*%
%TO.N,Net-(D15-Pad2)*%
X113298086Y45514293D03*
%TD*%
%TO.P,SW16,1*%
%TO.N,col2*%
X125750874Y41837398D03*
%TO.P,SW16,2*%
%TO.N,Net-(D16-Pad2)*%
X132298086Y43814293D03*
%TD*%
%TO.P,SW17,1*%
%TO.N,col2*%
X144750874Y40237398D03*
%TO.P,SW17,2*%
%TO.N,Net-(D17-Pad2)*%
X151298086Y42214293D03*
%TD*%
%TO.P,SW18,1*%
%TO.N,col2*%
X163750874Y38537398D03*
%TO.P,SW18,2*%
%TO.N,Net-(D18-Pad2)*%
X170298086Y40514293D03*
%TD*%
%TO.P,SW19,2*%
%TO.N,Net-(D19-Pad2)*%
X198212583Y78957045D03*
%TO.P,SW19,1*%
%TO.N,col3*%
X192108123Y75873271D03*
%TD*%
%TO.P,SW20,2*%
%TO.N,Net-(D20-Pad2)*%
X217212583Y80557045D03*
%TO.P,SW20,1*%
%TO.N,col3*%
X211108123Y77473271D03*
%TD*%
%TO.P,SW21,2*%
%TO.N,Net-(D21-Pad2)*%
X236212583Y82357045D03*
%TO.P,SW21,1*%
%TO.N,col3*%
X230108123Y79273271D03*
%TD*%
%TO.P,SW22,2*%
%TO.N,Net-(D22-Pad2)*%
X255212583Y83957045D03*
%TO.P,SW22,1*%
%TO.N,col3*%
X249108123Y80873271D03*
%TD*%
%TO.P,SW23,2*%
%TO.N,Net-(D23-Pad2)*%
X277265000Y84855000D03*
%TO.P,SW23,1*%
%TO.N,col3*%
X270915000Y82315000D03*
%TD*%
%TO.P,SW24,2*%
%TO.N,Net-(D24-Pad2)*%
X298765000Y84755000D03*
%TO.P,SW24,1*%
%TO.N,col3*%
X292415000Y82215000D03*
%TD*%
%TO.P,SW25,1*%
%TO.N,col4*%
X198508123Y57373271D03*
%TO.P,SW25,2*%
%TO.N,Net-(D25-Pad2)*%
X204612583Y60457045D03*
%TD*%
%TO.P,SW26,1*%
%TO.N,col4*%
X217508123Y58973271D03*
%TO.P,SW26,2*%
%TO.N,Net-(D26-Pad2)*%
X223612583Y62057045D03*
%TD*%
%TO.P,SW27,1*%
%TO.N,col4*%
X236508123Y60673271D03*
%TO.P,SW27,2*%
%TO.N,Net-(D27-Pad2)*%
X242612583Y63757045D03*
%TD*%
%TO.P,SW28,1*%
%TO.N,col4*%
X255508123Y62373271D03*
%TO.P,SW28,2*%
%TO.N,Net-(D28-Pad2)*%
X261612583Y65457045D03*
%TD*%
%TO.P,SW29,1*%
%TO.N,col4*%
X276715000Y63315000D03*
%TO.P,SW29,2*%
%TO.N,Net-(D29-Pad2)*%
X283065000Y65855000D03*
%TD*%
%TO.P,SW30,1*%
%TO.N,col4*%
X298115000Y63315000D03*
%TO.P,SW30,2*%
%TO.N,Net-(D30-Pad2)*%
X304465000Y65855000D03*
%TD*%
%TO.P,SW31,2*%
%TO.N,Net-(D31-Pad2)*%
X192012583Y40257045D03*
%TO.P,SW31,1*%
%TO.N,col5*%
X185908123Y37173271D03*
%TD*%
%TO.P,SW32,2*%
%TO.N,Net-(D32-Pad2)*%
X211112583Y41857045D03*
%TO.P,SW32,1*%
%TO.N,col5*%
X205008123Y38773271D03*
%TD*%
%TO.P,SW33,2*%
%TO.N,Net-(D33-Pad2)*%
X230012583Y43557045D03*
%TO.P,SW33,1*%
%TO.N,col5*%
X223908123Y40473271D03*
%TD*%
%TO.P,SW34,2*%
%TO.N,Net-(D34-Pad2)*%
X249012583Y45257045D03*
%TO.P,SW34,1*%
%TO.N,col5*%
X242908123Y42173271D03*
%TD*%
%TO.P,SW35,2*%
%TO.N,Net-(D35-Pad2)*%
X272565000Y45855000D03*
%TO.P,SW35,1*%
%TO.N,col5*%
X266215000Y43315000D03*
%TD*%
%TO.P,SW36,2*%
%TO.N,Net-(D36-Pad2)*%
X298765000Y45755000D03*
%TO.P,SW36,1*%
%TO.N,col5*%
X292415000Y43215000D03*
%TD*%
D20*
%TO.P,SW37,1*%
%TO.N,reset*%
X190950000Y85350000D03*
%TO.P,SW37,2*%
%TO.N,GND*%
X190950000Y91850000D03*
%TD*%
D21*
%TO.N,row2*%
X200625000Y39775000D03*
%TO.N,row3*%
X205352232Y43202232D03*
%TO.N,row4*%
X183625000Y32650000D03*
%TD*%
D22*
%TO.N,Net-(D1-Pad2)*%
X68325000Y84710000D02*
X68325000Y82675000D01*
X62210000Y84710000D02*
X62065000Y84855000D01*
X68325000Y84710000D02*
X62210000Y84710000D01*
%TO.N,row0*%
X68325000Y79125000D02*
X68325000Y77090000D01*
X71450000Y46100000D02*
X71450000Y48135000D01*
X69000000Y52275000D02*
X71035000Y52275000D01*
X197431860Y46395299D02*
X197254498Y46217937D01*
X199281754Y46395299D02*
X197431860Y46395299D01*
X192847638Y65072638D02*
X193025000Y65250000D01*
X190997744Y65072638D02*
X192847638Y65072638D01*
X190997744Y52474691D02*
X197254498Y46217937D01*
X190997744Y65072638D02*
X190997744Y52474691D01*
X197642937Y40270608D02*
X197820299Y40093246D01*
X197642937Y42120502D02*
X197642937Y40270608D01*
%TO.N,Net-(D2-Pad2)*%
X82070000Y84860000D02*
X82065000Y84855000D01*
X88400000Y84860000D02*
X82070000Y84860000D01*
X88400000Y84860000D02*
X88400000Y82825000D01*
%TO.N,row1*%
X88400000Y79275000D02*
X88400000Y77240000D01*
X97310000Y52100000D02*
X95275000Y52100000D01*
X97700000Y47835000D02*
X97700000Y45800000D01*
X216250106Y48375000D02*
X216072744Y48197638D01*
X218100000Y48375000D02*
X216250106Y48375000D01*
X216797638Y41852362D02*
X216975000Y41675000D01*
X216797638Y43702256D02*
X216797638Y41852362D01*
X211829392Y66692937D02*
X212006754Y66870299D01*
X209979498Y66692937D02*
X211829392Y66692937D01*
X92242232Y73397768D02*
X88400000Y77240000D01*
X145796211Y73397768D02*
X92242232Y73397768D01*
X148269133Y75870690D02*
X145796211Y73397768D01*
X168410599Y72349999D02*
X152922662Y72349999D01*
X149401971Y75870690D02*
X148269133Y75870690D01*
X152922662Y72349999D02*
X149401971Y75870690D01*
X170413600Y74353000D02*
X168410599Y72349999D01*
%TO.N,Net-(D3-Pad2)*%
X111454701Y83518140D02*
X111632063Y83695502D01*
X111454701Y81668246D02*
X111454701Y83518140D01*
X106016877Y83695502D02*
X105298086Y84414293D01*
X111632063Y83695502D02*
X106016877Y83695502D01*
%TO.N,row2*%
X201175001Y39224999D02*
X200625000Y39775000D01*
X119407063Y46270502D02*
X132981837Y46270502D01*
X147327340Y31924999D02*
X197348001Y31924999D01*
X132981837Y46270502D02*
X147327340Y31924999D01*
X111145299Y76281860D02*
X110967937Y76104498D01*
X111145299Y78131754D02*
X111145299Y76281860D01*
X119229701Y46093140D02*
X119407063Y46270502D01*
X119229701Y44243246D02*
X119229701Y46093140D01*
X113018140Y50970299D02*
X113195502Y50792937D01*
X111168246Y50970299D02*
X113018140Y50970299D01*
X236872638Y49822638D02*
X237050000Y50000000D01*
X235022744Y49822638D02*
X236872638Y49822638D01*
X235642937Y43470608D02*
X235820299Y43293246D01*
X235642937Y45320502D02*
X235642937Y43470608D01*
X230979392Y68217937D02*
X231156754Y68395299D01*
X229129498Y68217937D02*
X230979392Y68217937D01*
X197348001Y31924999D02*
X201175001Y35751999D01*
X201175001Y35751999D02*
X201175001Y39224999D01*
%TO.N,Net-(D4-Pad2)*%
X124841877Y82070502D02*
X124298086Y82614293D01*
X130457063Y82070502D02*
X124841877Y82070502D01*
X130457063Y80220608D02*
X130279701Y80043246D01*
X130457063Y82070502D02*
X130457063Y80220608D01*
%TO.N,row3*%
X129970299Y74656860D02*
X129792937Y74479498D01*
X129970299Y76506754D02*
X129970299Y74656860D01*
X136318140Y49170299D02*
X136495502Y48992937D01*
X134468246Y49170299D02*
X136318140Y49170299D01*
X138457063Y42745608D02*
X138279701Y42568246D01*
X138457063Y44595502D02*
X138457063Y42745608D01*
X254742937Y44445608D02*
X254920299Y44268246D01*
X254742937Y46295502D02*
X254742937Y44445608D01*
X256079392Y51217937D02*
X256256754Y51395299D01*
X254229498Y51217937D02*
X256079392Y51217937D01*
X250404392Y70117937D02*
X250581754Y70295299D01*
X248554498Y70117937D02*
X250404392Y70117937D01*
X138488793Y44627232D02*
X159747768Y44627232D01*
X176470493Y43865489D02*
X177855491Y42480491D01*
X160509511Y43865489D02*
X176470493Y43865489D01*
X159747768Y44627232D02*
X160509511Y43865489D01*
X138457063Y44595502D02*
X138488793Y44627232D01*
X192094509Y42480491D02*
X193755491Y42480491D01*
X177855491Y42480491D02*
X192094509Y42480491D01*
X192094509Y42480491D02*
X192444509Y42480491D01*
X194477232Y43202232D02*
X205352232Y43202232D01*
X193755491Y42480491D02*
X194477232Y43202232D01*
%TO.N,Net-(D5-Pad2)*%
X149129701Y80243140D02*
X149307063Y80420502D01*
X149129701Y78393246D02*
X149129701Y80243140D01*
X143791877Y80420502D02*
X143198086Y81014293D01*
X149307063Y80420502D02*
X143791877Y80420502D01*
%TO.N,row4*%
X148820299Y73006860D02*
X148642937Y72829498D01*
X148820299Y74856754D02*
X148820299Y73006860D01*
X152995608Y47317937D02*
X152818246Y47495299D01*
X154845502Y47317937D02*
X152995608Y47317937D01*
X157354701Y43368140D02*
X157532063Y43545502D01*
X157354701Y41518246D02*
X157354701Y43368140D01*
X274165000Y52550000D02*
X276200000Y52550000D01*
X268615000Y71625000D02*
X270650000Y71625000D01*
X278575000Y46885000D02*
X278575000Y44850000D01*
X175351656Y32630997D02*
X183605997Y32630997D01*
X183605997Y32630997D02*
X183625000Y32650000D01*
X174932653Y33050000D02*
X175351656Y32630997D01*
X163593080Y33050000D02*
X174932653Y33050000D01*
X157354701Y39288379D02*
X163593080Y33050000D01*
X157354701Y41518246D02*
X157354701Y39288379D01*
%TO.N,Net-(D6-Pad2)*%
X156456860Y66379701D02*
X156279498Y66557063D01*
X158306754Y66379701D02*
X156456860Y66379701D01*
%TO.N,row5*%
X163693140Y66070299D02*
X163870502Y65892937D01*
X161843246Y66070299D02*
X163693140Y66070299D01*
X176743140Y45795299D02*
X176920502Y45617937D01*
X174893246Y45795299D02*
X176743140Y45795299D01*
X176329701Y41068140D02*
X176507063Y41245502D01*
X176329701Y39218246D02*
X176329701Y41068140D01*
X289765000Y71625000D02*
X291800000Y71625000D01*
X295340000Y52325000D02*
X297375000Y52325000D01*
X304700000Y46885000D02*
X304700000Y44850000D01*
X168713663Y65892937D02*
X170413600Y64193000D01*
X163870502Y65892937D02*
X168713663Y65892937D01*
X279025000Y71625000D02*
X289765000Y71625000D01*
X256775000Y69075000D02*
X276475000Y69075000D01*
X190834053Y66760265D02*
X200418365Y66760265D01*
X227875000Y66375000D02*
X254075000Y66375000D01*
X200418365Y66760265D02*
X202778630Y64400000D01*
X254075000Y66375000D02*
X256775000Y69075000D01*
X171500601Y63105999D02*
X187179787Y63105999D01*
X202778630Y64400000D02*
X225900000Y64400000D01*
X276475000Y69075000D02*
X279025000Y71625000D01*
X187179787Y63105999D02*
X190834053Y66760265D01*
X225900000Y64400000D02*
X227875000Y66375000D01*
X170413600Y64193000D02*
X171500601Y63105999D01*
%TO.N,Net-(D7-Pad2)*%
X65450000Y52275000D02*
X63415000Y52275000D01*
%TO.N,Net-(D8-Pad2)*%
X91725000Y52100000D02*
X89690000Y52100000D01*
%TO.N,Net-(D9-Pad2)*%
X107454392Y51457063D02*
X107631754Y51279701D01*
X105604498Y51457063D02*
X107454392Y51457063D01*
%TO.N,Net-(D10-Pad2)*%
X129081860Y49479701D02*
X128904498Y49657063D01*
X130931754Y49479701D02*
X129081860Y49479701D01*
%TO.N,Net-(D11-Pad2)*%
X147431860Y47804701D02*
X147254498Y47982063D01*
X149281754Y47804701D02*
X147431860Y47804701D01*
X145650001Y61066208D02*
X146298086Y61714293D01*
X145650001Y49586560D02*
X145650001Y61066208D01*
X147254498Y47982063D02*
X145650001Y49586560D01*
%TO.N,Net-(D12-Pad2)*%
X171179392Y46282063D02*
X171356754Y46104701D01*
X169329498Y46282063D02*
X171179392Y46282063D01*
X168460670Y56851709D02*
X165198086Y60114293D01*
X168460670Y47150891D02*
X168460670Y56851709D01*
X169329498Y46282063D02*
X168460670Y47150891D01*
%TO.N,Net-(D13-Pad2)*%
X71450000Y42550000D02*
X71450000Y40515000D01*
%TO.N,Net-(D14-Pad2)*%
X97700000Y42250000D02*
X97700000Y40215000D01*
%TO.N,Net-(D15-Pad2)*%
X118920299Y38856860D02*
X118742937Y38679498D01*
X118920299Y40706754D02*
X118920299Y38856860D01*
%TO.N,Net-(D16-Pad2)*%
X137970299Y37181860D02*
X137792937Y37004498D01*
X137970299Y39031754D02*
X137970299Y37181860D01*
%TO.N,Net-(D17-Pad2)*%
X157045299Y36131860D02*
X156867937Y35954498D01*
X157045299Y37981754D02*
X157045299Y36131860D01*
%TO.N,Net-(D18-Pad2)*%
X176020299Y33831860D02*
X175842937Y33654498D01*
X176020299Y35681754D02*
X176020299Y33831860D01*
%TO.N,Net-(D19-Pad2)*%
X198411386Y65559402D02*
X198588748Y65736764D01*
X196561492Y65559402D02*
X198411386Y65559402D01*
%TO.N,Net-(D20-Pad2)*%
X217393140Y67179701D02*
X217570502Y67357063D01*
X215543246Y67179701D02*
X217393140Y67179701D01*
%TO.N,Net-(D21-Pad2)*%
X234870608Y68882063D02*
X234693246Y68704701D01*
X236720502Y68882063D02*
X234870608Y68882063D01*
%TO.N,Net-(D22-Pad2)*%
X255968140Y70604701D02*
X256145502Y70782063D01*
X254118246Y70604701D02*
X255968140Y70604701D01*
%TO.N,Net-(D23-Pad2)*%
X274200000Y71625000D02*
X276235000Y71625000D01*
%TO.N,Net-(D24-Pad2)*%
X295350000Y71625000D02*
X297385000Y71625000D01*
%TO.N,Net-(D25-Pad2)*%
X204668140Y46704701D02*
X204845502Y46882063D01*
X202818246Y46704701D02*
X204668140Y46704701D01*
%TO.N,Net-(D26-Pad2)*%
X223486386Y48684402D02*
X223663748Y48861764D01*
X221636492Y48684402D02*
X223486386Y48684402D01*
%TO.N,Net-(D27-Pad2)*%
X242436386Y50309402D02*
X242613748Y50486764D01*
X240586492Y50309402D02*
X242436386Y50309402D01*
%TO.N,Net-(D28-Pad2)*%
X259970608Y51882063D02*
X259793246Y51704701D01*
X261820502Y51882063D02*
X259970608Y51882063D01*
%TO.N,Net-(D29-Pad2)*%
X279750000Y52550000D02*
X281785000Y52550000D01*
%TO.N,Net-(D30-Pad2)*%
X302960000Y52325000D02*
X300925000Y52325000D01*
%TO.N,Net-(D31-Pad2)*%
X198129701Y34706860D02*
X198307063Y34529498D01*
X198129701Y36556754D02*
X198129701Y34706860D01*
%TO.N,Net-(D32-Pad2)*%
X217284402Y36288614D02*
X217461764Y36111252D01*
X217284402Y38138508D02*
X217284402Y36288614D01*
%TO.N,Net-(D33-Pad2)*%
X236307063Y39579392D02*
X236129701Y39756754D01*
X236307063Y37729498D02*
X236307063Y39579392D01*
%TO.N,Net-(D34-Pad2)*%
X255407063Y40554392D02*
X255229701Y40731754D01*
X255407063Y38704498D02*
X255407063Y40554392D01*
%TO.N,Net-(D35-Pad2)*%
X278575000Y39265000D02*
X278575000Y41300000D01*
%TO.N,Net-(D36-Pad2)*%
X304700000Y39265000D02*
X304700000Y41300000D01*
%TD*%
M02*
