%TF.GenerationSoftware,KiCad,Pcbnew,(5.1.6-0-10_14)*%
%TF.CreationDate,2020-09-01T22:17:50+09:00*%
%TF.ProjectId,cool836,636f6f6c-3833-4362-9e6b-696361645f70,rev?*%
%TF.SameCoordinates,Original*%
%TF.FileFunction,Legend,Bot*%
%TF.FilePolarity,Positive*%
%FSLAX46Y46*%
G04 Gerber Fmt 4.6, Leading zero omitted, Abs format (unit mm)*
G04 Created by KiCad (PCBNEW (5.1.6-0-10_14)) date 2020-09-01 22:17:50*
%MOMM*%
%LPD*%
G01*
G04 APERTURE LIST*
%ADD10C,0.300000*%
%ADD11C,0.150000*%
%ADD12C,0.125000*%
G04 APERTURE END LIST*
D10*
X280310714Y53796428D02*
X280310714Y55296428D01*
X280310714Y53867857D02*
X280453571Y53796428D01*
X280739285Y53796428D01*
X280882142Y53867857D01*
X280953571Y53939285D01*
X281025000Y54082142D01*
X281025000Y54510714D01*
X280953571Y54653571D01*
X280882142Y54725000D01*
X280739285Y54796428D01*
X280453571Y54796428D01*
X280310714Y54725000D01*
X279596428Y53796428D02*
X279596428Y54796428D01*
X279596428Y55296428D02*
X279667857Y55225000D01*
X279596428Y55153571D01*
X279525000Y55225000D01*
X279596428Y55296428D01*
X279596428Y55153571D01*
X278667857Y53796428D02*
X278810714Y53867857D01*
X278882142Y53939285D01*
X278953571Y54082142D01*
X278953571Y54510714D01*
X278882142Y54653571D01*
X278810714Y54725000D01*
X278667857Y54796428D01*
X278453571Y54796428D01*
X278310714Y54725000D01*
X278239285Y54653571D01*
X278167857Y54510714D01*
X278167857Y54082142D01*
X278239285Y53939285D01*
X278310714Y53867857D01*
X278453571Y53796428D01*
X278667857Y53796428D01*
X276882142Y53796428D02*
X276882142Y55296428D01*
X276882142Y53867857D02*
X277025000Y53796428D01*
X277310714Y53796428D01*
X277453571Y53867857D01*
X277525000Y53939285D01*
X277596428Y54082142D01*
X277596428Y54510714D01*
X277525000Y54653571D01*
X277453571Y54725000D01*
X277310714Y54796428D01*
X277025000Y54796428D01*
X276882142Y54725000D01*
X275596428Y53867857D02*
X275739285Y53796428D01*
X276025000Y53796428D01*
X276167857Y53867857D01*
X276239285Y54010714D01*
X276239285Y54582142D01*
X276167857Y54725000D01*
X276025000Y54796428D01*
X275739285Y54796428D01*
X275596428Y54725000D01*
X275525000Y54582142D01*
X275525000Y54439285D01*
X276239285Y54296428D01*
X300985714Y53646428D02*
X300985714Y55146428D01*
X300985714Y53717857D02*
X301128571Y53646428D01*
X301414285Y53646428D01*
X301557142Y53717857D01*
X301628571Y53789285D01*
X301700000Y53932142D01*
X301700000Y54360714D01*
X301628571Y54503571D01*
X301557142Y54575000D01*
X301414285Y54646428D01*
X301128571Y54646428D01*
X300985714Y54575000D01*
X300271428Y53646428D02*
X300271428Y54646428D01*
X300271428Y55146428D02*
X300342857Y55075000D01*
X300271428Y55003571D01*
X300200000Y55075000D01*
X300271428Y55146428D01*
X300271428Y55003571D01*
X299342857Y53646428D02*
X299485714Y53717857D01*
X299557142Y53789285D01*
X299628571Y53932142D01*
X299628571Y54360714D01*
X299557142Y54503571D01*
X299485714Y54575000D01*
X299342857Y54646428D01*
X299128571Y54646428D01*
X298985714Y54575000D01*
X298914285Y54503571D01*
X298842857Y54360714D01*
X298842857Y53932142D01*
X298914285Y53789285D01*
X298985714Y53717857D01*
X299128571Y53646428D01*
X299342857Y53646428D01*
X297557142Y53646428D02*
X297557142Y55146428D01*
X297557142Y53717857D02*
X297700000Y53646428D01*
X297985714Y53646428D01*
X298128571Y53717857D01*
X298200000Y53789285D01*
X298271428Y53932142D01*
X298271428Y54360714D01*
X298200000Y54503571D01*
X298128571Y54575000D01*
X297985714Y54646428D01*
X297700000Y54646428D01*
X297557142Y54575000D01*
X296271428Y53717857D02*
X296414285Y53646428D01*
X296700000Y53646428D01*
X296842857Y53717857D01*
X296914285Y53860714D01*
X296914285Y54432142D01*
X296842857Y54575000D01*
X296700000Y54646428D01*
X296414285Y54646428D01*
X296271428Y54575000D01*
X296200000Y54432142D01*
X296200000Y54289285D01*
X296914285Y54146428D01*
X295160714Y72921428D02*
X295160714Y74421428D01*
X295160714Y72992857D02*
X295303571Y72921428D01*
X295589285Y72921428D01*
X295732142Y72992857D01*
X295803571Y73064285D01*
X295875000Y73207142D01*
X295875000Y73635714D01*
X295803571Y73778571D01*
X295732142Y73850000D01*
X295589285Y73921428D01*
X295303571Y73921428D01*
X295160714Y73850000D01*
X294446428Y72921428D02*
X294446428Y73921428D01*
X294446428Y74421428D02*
X294517857Y74350000D01*
X294446428Y74278571D01*
X294375000Y74350000D01*
X294446428Y74421428D01*
X294446428Y74278571D01*
X293517857Y72921428D02*
X293660714Y72992857D01*
X293732142Y73064285D01*
X293803571Y73207142D01*
X293803571Y73635714D01*
X293732142Y73778571D01*
X293660714Y73850000D01*
X293517857Y73921428D01*
X293303571Y73921428D01*
X293160714Y73850000D01*
X293089285Y73778571D01*
X293017857Y73635714D01*
X293017857Y73207142D01*
X293089285Y73064285D01*
X293160714Y72992857D01*
X293303571Y72921428D01*
X293517857Y72921428D01*
X291732142Y72921428D02*
X291732142Y74421428D01*
X291732142Y72992857D02*
X291875000Y72921428D01*
X292160714Y72921428D01*
X292303571Y72992857D01*
X292375000Y73064285D01*
X292446428Y73207142D01*
X292446428Y73635714D01*
X292375000Y73778571D01*
X292303571Y73850000D01*
X292160714Y73921428D01*
X291875000Y73921428D01*
X291732142Y73850000D01*
X290446428Y72992857D02*
X290589285Y72921428D01*
X290875000Y72921428D01*
X291017857Y72992857D01*
X291089285Y73135714D01*
X291089285Y73707142D01*
X291017857Y73850000D01*
X290875000Y73921428D01*
X290589285Y73921428D01*
X290446428Y73850000D01*
X290375000Y73707142D01*
X290375000Y73564285D01*
X291089285Y73421428D01*
X274385714Y73121428D02*
X274385714Y74621428D01*
X274385714Y73192857D02*
X274528571Y73121428D01*
X274814285Y73121428D01*
X274957142Y73192857D01*
X275028571Y73264285D01*
X275100000Y73407142D01*
X275100000Y73835714D01*
X275028571Y73978571D01*
X274957142Y74050000D01*
X274814285Y74121428D01*
X274528571Y74121428D01*
X274385714Y74050000D01*
X273671428Y73121428D02*
X273671428Y74121428D01*
X273671428Y74621428D02*
X273742857Y74550000D01*
X273671428Y74478571D01*
X273600000Y74550000D01*
X273671428Y74621428D01*
X273671428Y74478571D01*
X272742857Y73121428D02*
X272885714Y73192857D01*
X272957142Y73264285D01*
X273028571Y73407142D01*
X273028571Y73835714D01*
X272957142Y73978571D01*
X272885714Y74050000D01*
X272742857Y74121428D01*
X272528571Y74121428D01*
X272385714Y74050000D01*
X272314285Y73978571D01*
X272242857Y73835714D01*
X272242857Y73407142D01*
X272314285Y73264285D01*
X272385714Y73192857D01*
X272528571Y73121428D01*
X272742857Y73121428D01*
X270957142Y73121428D02*
X270957142Y74621428D01*
X270957142Y73192857D02*
X271100000Y73121428D01*
X271385714Y73121428D01*
X271528571Y73192857D01*
X271600000Y73264285D01*
X271671428Y73407142D01*
X271671428Y73835714D01*
X271600000Y73978571D01*
X271528571Y74050000D01*
X271385714Y74121428D01*
X271100000Y74121428D01*
X270957142Y74050000D01*
X269671428Y73192857D02*
X269814285Y73121428D01*
X270100000Y73121428D01*
X270242857Y73192857D01*
X270314285Y73335714D01*
X270314285Y73907142D01*
X270242857Y74050000D01*
X270100000Y74121428D01*
X269814285Y74121428D01*
X269671428Y74050000D01*
X269600000Y73907142D01*
X269600000Y73764285D01*
X270314285Y73621428D01*
X196987109Y67151434D02*
X196856375Y68645726D01*
X196980883Y67222591D02*
X197129422Y67163885D01*
X197414049Y67188787D01*
X197550137Y67272394D01*
X197615069Y67349777D01*
X197673775Y67498316D01*
X197636422Y67925256D01*
X197552815Y68061344D01*
X197475432Y68126276D01*
X197326894Y68184982D01*
X197042266Y68160080D01*
X196906178Y68076472D01*
X196275541Y67089180D02*
X196188385Y68085375D01*
X196144807Y68583472D02*
X196222190Y68518541D01*
X196157258Y68441159D01*
X196079876Y68506090D01*
X196144807Y68583472D01*
X196157258Y68441159D01*
X195350503Y67008250D02*
X195486591Y67091858D01*
X195551523Y67169240D01*
X195610229Y67317779D01*
X195572876Y67744719D01*
X195489268Y67880807D01*
X195411886Y67945739D01*
X195263347Y68004445D01*
X195049877Y67985768D01*
X194913789Y67902161D01*
X194848858Y67824779D01*
X194790152Y67676240D01*
X194827504Y67249299D01*
X194911112Y67113211D01*
X194988494Y67048280D01*
X195137033Y66989574D01*
X195350503Y67008250D01*
X193571584Y66852615D02*
X193440850Y68346907D01*
X193565359Y66923772D02*
X193713898Y66865066D01*
X193998525Y66889967D01*
X194134613Y66973575D01*
X194199544Y67050957D01*
X194258250Y67199496D01*
X194220898Y67626436D01*
X194137290Y67762525D01*
X194059908Y67827456D01*
X193911369Y67886162D01*
X193626742Y67861260D01*
X193490654Y67777653D01*
X192284537Y66811714D02*
X192433076Y66753008D01*
X192717703Y66777910D01*
X192853791Y66861517D01*
X192912497Y67010056D01*
X192862694Y67579310D01*
X192779086Y67715399D01*
X192630547Y67774105D01*
X192345920Y67749203D01*
X192209832Y67665595D01*
X192151126Y67517056D01*
X192163577Y67374743D01*
X192887595Y67294683D01*
X215662109Y68701434D02*
X215531375Y70195726D01*
X215655883Y68772591D02*
X215804422Y68713885D01*
X216089049Y68738787D01*
X216225137Y68822394D01*
X216290069Y68899777D01*
X216348775Y69048316D01*
X216311422Y69475256D01*
X216227815Y69611344D01*
X216150432Y69676276D01*
X216001894Y69734982D01*
X215717266Y69710080D01*
X215581178Y69626472D01*
X214950541Y68639180D02*
X214863385Y69635375D01*
X214819807Y70133472D02*
X214897190Y70068541D01*
X214832258Y69991159D01*
X214754876Y70056090D01*
X214819807Y70133472D01*
X214832258Y69991159D01*
X214025503Y68558250D02*
X214161591Y68641858D01*
X214226523Y68719240D01*
X214285229Y68867779D01*
X214247876Y69294719D01*
X214164268Y69430807D01*
X214086886Y69495739D01*
X213938347Y69554445D01*
X213724877Y69535768D01*
X213588789Y69452161D01*
X213523858Y69374779D01*
X213465152Y69226240D01*
X213502504Y68799299D01*
X213586112Y68663211D01*
X213663494Y68598280D01*
X213812033Y68539574D01*
X214025503Y68558250D01*
X212246584Y68402615D02*
X212115850Y69896907D01*
X212240359Y68473772D02*
X212388898Y68415066D01*
X212673525Y68439967D01*
X212809613Y68523575D01*
X212874544Y68600957D01*
X212933250Y68749496D01*
X212895898Y69176436D01*
X212812290Y69312525D01*
X212734908Y69377456D01*
X212586369Y69436162D01*
X212301742Y69411260D01*
X212165654Y69327653D01*
X210959537Y68361714D02*
X211108076Y68303008D01*
X211392703Y68327910D01*
X211528791Y68411517D01*
X211587497Y68560056D01*
X211537694Y69129310D01*
X211454086Y69265399D01*
X211305547Y69324105D01*
X211020920Y69299203D01*
X210884832Y69215595D01*
X210826126Y69067056D01*
X210838577Y68924743D01*
X211562595Y68844683D01*
X234587109Y70076434D02*
X234456375Y71570726D01*
X234580883Y70147591D02*
X234729422Y70088885D01*
X235014049Y70113787D01*
X235150137Y70197394D01*
X235215069Y70274777D01*
X235273775Y70423316D01*
X235236422Y70850256D01*
X235152815Y70986344D01*
X235075432Y71051276D01*
X234926894Y71109982D01*
X234642266Y71085080D01*
X234506178Y71001472D01*
X233875541Y70014180D02*
X233788385Y71010375D01*
X233744807Y71508472D02*
X233822190Y71443541D01*
X233757258Y71366159D01*
X233679876Y71431090D01*
X233744807Y71508472D01*
X233757258Y71366159D01*
X232950503Y69933250D02*
X233086591Y70016858D01*
X233151523Y70094240D01*
X233210229Y70242779D01*
X233172876Y70669719D01*
X233089268Y70805807D01*
X233011886Y70870739D01*
X232863347Y70929445D01*
X232649877Y70910768D01*
X232513789Y70827161D01*
X232448858Y70749779D01*
X232390152Y70601240D01*
X232427504Y70174299D01*
X232511112Y70038211D01*
X232588494Y69973280D01*
X232737033Y69914574D01*
X232950503Y69933250D01*
X231171584Y69777615D02*
X231040850Y71271907D01*
X231165359Y69848772D02*
X231313898Y69790066D01*
X231598525Y69814967D01*
X231734613Y69898575D01*
X231799544Y69975957D01*
X231858250Y70124496D01*
X231820898Y70551436D01*
X231737290Y70687525D01*
X231659908Y70752456D01*
X231511369Y70811162D01*
X231226742Y70786260D01*
X231090654Y70702653D01*
X229884537Y69736714D02*
X230033076Y69678008D01*
X230317703Y69702910D01*
X230453791Y69786517D01*
X230512497Y69935056D01*
X230462694Y70504310D01*
X230379086Y70640399D01*
X230230547Y70699105D01*
X229945920Y70674203D01*
X229809832Y70590595D01*
X229751126Y70442056D01*
X229763577Y70299743D01*
X230487595Y70219683D01*
X253987109Y71851434D02*
X253856375Y73345726D01*
X253980883Y71922591D02*
X254129422Y71863885D01*
X254414049Y71888787D01*
X254550137Y71972394D01*
X254615069Y72049777D01*
X254673775Y72198316D01*
X254636422Y72625256D01*
X254552815Y72761344D01*
X254475432Y72826276D01*
X254326894Y72884982D01*
X254042266Y72860080D01*
X253906178Y72776472D01*
X253275541Y71789180D02*
X253188385Y72785375D01*
X253144807Y73283472D02*
X253222190Y73218541D01*
X253157258Y73141159D01*
X253079876Y73206090D01*
X253144807Y73283472D01*
X253157258Y73141159D01*
X252350503Y71708250D02*
X252486591Y71791858D01*
X252551523Y71869240D01*
X252610229Y72017779D01*
X252572876Y72444719D01*
X252489268Y72580807D01*
X252411886Y72645739D01*
X252263347Y72704445D01*
X252049877Y72685768D01*
X251913789Y72602161D01*
X251848858Y72524779D01*
X251790152Y72376240D01*
X251827504Y71949299D01*
X251911112Y71813211D01*
X251988494Y71748280D01*
X252137033Y71689574D01*
X252350503Y71708250D01*
X250571584Y71552615D02*
X250440850Y73046907D01*
X250565359Y71623772D02*
X250713898Y71565066D01*
X250998525Y71589967D01*
X251134613Y71673575D01*
X251199544Y71750957D01*
X251258250Y71899496D01*
X251220898Y72326436D01*
X251137290Y72462525D01*
X251059908Y72527456D01*
X250911369Y72586162D01*
X250626742Y72561260D01*
X250490654Y72477653D01*
X249284537Y71511714D02*
X249433076Y71453008D01*
X249717703Y71477910D01*
X249853791Y71561517D01*
X249912497Y71710056D01*
X249862694Y72279310D01*
X249779086Y72415399D01*
X249630547Y72474105D01*
X249345920Y72449203D01*
X249209832Y72365595D01*
X249151126Y72217056D01*
X249163577Y72074743D01*
X249887595Y71994683D01*
X259662109Y52876434D02*
X259531375Y54370726D01*
X259655883Y52947591D02*
X259804422Y52888885D01*
X260089049Y52913787D01*
X260225137Y52997394D01*
X260290069Y53074777D01*
X260348775Y53223316D01*
X260311422Y53650256D01*
X260227815Y53786344D01*
X260150432Y53851276D01*
X260001894Y53909982D01*
X259717266Y53885080D01*
X259581178Y53801472D01*
X258950541Y52814180D02*
X258863385Y53810375D01*
X258819807Y54308472D02*
X258897190Y54243541D01*
X258832258Y54166159D01*
X258754876Y54231090D01*
X258819807Y54308472D01*
X258832258Y54166159D01*
X258025503Y52733250D02*
X258161591Y52816858D01*
X258226523Y52894240D01*
X258285229Y53042779D01*
X258247876Y53469719D01*
X258164268Y53605807D01*
X258086886Y53670739D01*
X257938347Y53729445D01*
X257724877Y53710768D01*
X257588789Y53627161D01*
X257523858Y53549779D01*
X257465152Y53401240D01*
X257502504Y52974299D01*
X257586112Y52838211D01*
X257663494Y52773280D01*
X257812033Y52714574D01*
X258025503Y52733250D01*
X256246584Y52577615D02*
X256115850Y54071907D01*
X256240359Y52648772D02*
X256388898Y52590066D01*
X256673525Y52614967D01*
X256809613Y52698575D01*
X256874544Y52775957D01*
X256933250Y52924496D01*
X256895898Y53351436D01*
X256812290Y53487525D01*
X256734908Y53552456D01*
X256586369Y53611162D01*
X256301742Y53586260D01*
X256165654Y53502653D01*
X254959537Y52536714D02*
X255108076Y52478008D01*
X255392703Y52502910D01*
X255528791Y52586517D01*
X255587497Y52735056D01*
X255537694Y53304310D01*
X255454086Y53440399D01*
X255305547Y53499105D01*
X255020920Y53474203D01*
X254884832Y53390595D01*
X254826126Y53242056D01*
X254838577Y53099743D01*
X255562595Y53019683D01*
X240912109Y51726434D02*
X240781375Y53220726D01*
X240905883Y51797591D02*
X241054422Y51738885D01*
X241339049Y51763787D01*
X241475137Y51847394D01*
X241540069Y51924777D01*
X241598775Y52073316D01*
X241561422Y52500256D01*
X241477815Y52636344D01*
X241400432Y52701276D01*
X241251894Y52759982D01*
X240967266Y52735080D01*
X240831178Y52651472D01*
X240200541Y51664180D02*
X240113385Y52660375D01*
X240069807Y53158472D02*
X240147190Y53093541D01*
X240082258Y53016159D01*
X240004876Y53081090D01*
X240069807Y53158472D01*
X240082258Y53016159D01*
X239275503Y51583250D02*
X239411591Y51666858D01*
X239476523Y51744240D01*
X239535229Y51892779D01*
X239497876Y52319719D01*
X239414268Y52455807D01*
X239336886Y52520739D01*
X239188347Y52579445D01*
X238974877Y52560768D01*
X238838789Y52477161D01*
X238773858Y52399779D01*
X238715152Y52251240D01*
X238752504Y51824299D01*
X238836112Y51688211D01*
X238913494Y51623280D01*
X239062033Y51564574D01*
X239275503Y51583250D01*
X237496584Y51427615D02*
X237365850Y52921907D01*
X237490359Y51498772D02*
X237638898Y51440066D01*
X237923525Y51464967D01*
X238059613Y51548575D01*
X238124544Y51625957D01*
X238183250Y51774496D01*
X238145898Y52201436D01*
X238062290Y52337525D01*
X237984908Y52402456D01*
X237836369Y52461162D01*
X237551742Y52436260D01*
X237415654Y52352653D01*
X236209537Y51386714D02*
X236358076Y51328008D01*
X236642703Y51352910D01*
X236778791Y51436517D01*
X236837497Y51585056D01*
X236787694Y52154310D01*
X236704086Y52290399D01*
X236555547Y52349105D01*
X236270920Y52324203D01*
X236134832Y52240595D01*
X236076126Y52092056D01*
X236088577Y51949743D01*
X236812595Y51869683D01*
X221812109Y49901434D02*
X221681375Y51395726D01*
X221805883Y49972591D02*
X221954422Y49913885D01*
X222239049Y49938787D01*
X222375137Y50022394D01*
X222440069Y50099777D01*
X222498775Y50248316D01*
X222461422Y50675256D01*
X222377815Y50811344D01*
X222300432Y50876276D01*
X222151894Y50934982D01*
X221867266Y50910080D01*
X221731178Y50826472D01*
X221100541Y49839180D02*
X221013385Y50835375D01*
X220969807Y51333472D02*
X221047190Y51268541D01*
X220982258Y51191159D01*
X220904876Y51256090D01*
X220969807Y51333472D01*
X220982258Y51191159D01*
X220175503Y49758250D02*
X220311591Y49841858D01*
X220376523Y49919240D01*
X220435229Y50067779D01*
X220397876Y50494719D01*
X220314268Y50630807D01*
X220236886Y50695739D01*
X220088347Y50754445D01*
X219874877Y50735768D01*
X219738789Y50652161D01*
X219673858Y50574779D01*
X219615152Y50426240D01*
X219652504Y49999299D01*
X219736112Y49863211D01*
X219813494Y49798280D01*
X219962033Y49739574D01*
X220175503Y49758250D01*
X218396584Y49602615D02*
X218265850Y51096907D01*
X218390359Y49673772D02*
X218538898Y49615066D01*
X218823525Y49639967D01*
X218959613Y49723575D01*
X219024544Y49800957D01*
X219083250Y49949496D01*
X219045898Y50376436D01*
X218962290Y50512525D01*
X218884908Y50577456D01*
X218736369Y50636162D01*
X218451742Y50611260D01*
X218315654Y50527653D01*
X217109537Y49561714D02*
X217258076Y49503008D01*
X217542703Y49527910D01*
X217678791Y49611517D01*
X217737497Y49760056D01*
X217687694Y50329310D01*
X217604086Y50465399D01*
X217455547Y50524105D01*
X217170920Y50499203D01*
X217034832Y50415595D01*
X216976126Y50267056D01*
X216988577Y50124743D01*
X217712595Y50044683D01*
X202812109Y47876434D02*
X202681375Y49370726D01*
X202805883Y47947591D02*
X202954422Y47888885D01*
X203239049Y47913787D01*
X203375137Y47997394D01*
X203440069Y48074777D01*
X203498775Y48223316D01*
X203461422Y48650256D01*
X203377815Y48786344D01*
X203300432Y48851276D01*
X203151894Y48909982D01*
X202867266Y48885080D01*
X202731178Y48801472D01*
X202100541Y47814180D02*
X202013385Y48810375D01*
X201969807Y49308472D02*
X202047190Y49243541D01*
X201982258Y49166159D01*
X201904876Y49231090D01*
X201969807Y49308472D01*
X201982258Y49166159D01*
X201175503Y47733250D02*
X201311591Y47816858D01*
X201376523Y47894240D01*
X201435229Y48042779D01*
X201397876Y48469719D01*
X201314268Y48605807D01*
X201236886Y48670739D01*
X201088347Y48729445D01*
X200874877Y48710768D01*
X200738789Y48627161D01*
X200673858Y48549779D01*
X200615152Y48401240D01*
X200652504Y47974299D01*
X200736112Y47838211D01*
X200813494Y47773280D01*
X200962033Y47714574D01*
X201175503Y47733250D01*
X199396584Y47577615D02*
X199265850Y49071907D01*
X199390359Y47648772D02*
X199538898Y47590066D01*
X199823525Y47614967D01*
X199959613Y47698575D01*
X200024544Y47775957D01*
X200083250Y47924496D01*
X200045898Y48351436D01*
X199962290Y48487525D01*
X199884908Y48552456D01*
X199736369Y48611162D01*
X199451742Y48586260D01*
X199315654Y48502653D01*
X198109537Y47536714D02*
X198258076Y47478008D01*
X198542703Y47502910D01*
X198678791Y47586517D01*
X198737497Y47735056D01*
X198687694Y48304310D01*
X198604086Y48440399D01*
X198455547Y48499105D01*
X198170920Y48474203D01*
X198034832Y48390595D01*
X197976126Y48242056D01*
X197988577Y48099743D01*
X198712595Y48019683D01*
X199326434Y36262890D02*
X200820726Y36393624D01*
X199397591Y36269116D02*
X199338885Y36120577D01*
X199363787Y35835950D01*
X199447394Y35699862D01*
X199524777Y35634930D01*
X199673316Y35576224D01*
X200100256Y35613577D01*
X200236344Y35697184D01*
X200301276Y35774567D01*
X200359982Y35923105D01*
X200335080Y36207733D01*
X200251472Y36343821D01*
X199264180Y36974458D02*
X200260375Y37061614D01*
X200758472Y37105192D02*
X200693541Y37027809D01*
X200616159Y37092741D01*
X200681090Y37170123D01*
X200758472Y37105192D01*
X200616159Y37092741D01*
X199183250Y37899496D02*
X199266858Y37763408D01*
X199344240Y37698476D01*
X199492779Y37639770D01*
X199919719Y37677123D01*
X200055807Y37760731D01*
X200120739Y37838113D01*
X200179445Y37986652D01*
X200160768Y38200122D01*
X200077161Y38336210D01*
X199999779Y38401141D01*
X199851240Y38459847D01*
X199424299Y38422495D01*
X199288211Y38338887D01*
X199223280Y38261505D01*
X199164574Y38112966D01*
X199183250Y37899496D01*
X199027615Y39678415D02*
X200521907Y39809149D01*
X199098772Y39684640D02*
X199040066Y39536101D01*
X199064967Y39251474D01*
X199148575Y39115386D01*
X199225957Y39050455D01*
X199374496Y38991749D01*
X199801436Y39029101D01*
X199937525Y39112709D01*
X200002456Y39190091D01*
X200061162Y39338630D01*
X200036260Y39623257D01*
X199952653Y39759345D01*
X198986714Y40965462D02*
X198928008Y40816923D01*
X198952910Y40532296D01*
X199036517Y40396208D01*
X199185056Y40337502D01*
X199754310Y40387305D01*
X199890399Y40470913D01*
X199949105Y40619452D01*
X199924203Y40904079D01*
X199840595Y41040167D01*
X199692056Y41098873D01*
X199549743Y41086422D01*
X199469683Y40362404D01*
X218776434Y37837890D02*
X220270726Y37968624D01*
X218847591Y37844116D02*
X218788885Y37695577D01*
X218813787Y37410950D01*
X218897394Y37274862D01*
X218974777Y37209930D01*
X219123316Y37151224D01*
X219550256Y37188577D01*
X219686344Y37272184D01*
X219751276Y37349567D01*
X219809982Y37498105D01*
X219785080Y37782733D01*
X219701472Y37918821D01*
X218714180Y38549458D02*
X219710375Y38636614D01*
X220208472Y38680192D02*
X220143541Y38602809D01*
X220066159Y38667741D01*
X220131090Y38745123D01*
X220208472Y38680192D01*
X220066159Y38667741D01*
X218633250Y39474496D02*
X218716858Y39338408D01*
X218794240Y39273476D01*
X218942779Y39214770D01*
X219369719Y39252123D01*
X219505807Y39335731D01*
X219570739Y39413113D01*
X219629445Y39561652D01*
X219610768Y39775122D01*
X219527161Y39911210D01*
X219449779Y39976141D01*
X219301240Y40034847D01*
X218874299Y39997495D01*
X218738211Y39913887D01*
X218673280Y39836505D01*
X218614574Y39687966D01*
X218633250Y39474496D01*
X218477615Y41253415D02*
X219971907Y41384149D01*
X218548772Y41259640D02*
X218490066Y41111101D01*
X218514967Y40826474D01*
X218598575Y40690386D01*
X218675957Y40625455D01*
X218824496Y40566749D01*
X219251436Y40604101D01*
X219387525Y40687709D01*
X219452456Y40765091D01*
X219511162Y40913630D01*
X219486260Y41198257D01*
X219402653Y41334345D01*
X218436714Y42540462D02*
X218378008Y42391923D01*
X218402910Y42107296D01*
X218486517Y41971208D01*
X218635056Y41912502D01*
X219204310Y41962305D01*
X219340399Y42045913D01*
X219399105Y42194452D01*
X219374203Y42479079D01*
X219290595Y42615167D01*
X219142056Y42673873D01*
X218999743Y42661422D01*
X218919683Y41937404D01*
X237651434Y39237890D02*
X239145726Y39368624D01*
X237722591Y39244116D02*
X237663885Y39095577D01*
X237688787Y38810950D01*
X237772394Y38674862D01*
X237849777Y38609930D01*
X237998316Y38551224D01*
X238425256Y38588577D01*
X238561344Y38672184D01*
X238626276Y38749567D01*
X238684982Y38898105D01*
X238660080Y39182733D01*
X238576472Y39318821D01*
X237589180Y39949458D02*
X238585375Y40036614D01*
X239083472Y40080192D02*
X239018541Y40002809D01*
X238941159Y40067741D01*
X239006090Y40145123D01*
X239083472Y40080192D01*
X238941159Y40067741D01*
X237508250Y40874496D02*
X237591858Y40738408D01*
X237669240Y40673476D01*
X237817779Y40614770D01*
X238244719Y40652123D01*
X238380807Y40735731D01*
X238445739Y40813113D01*
X238504445Y40961652D01*
X238485768Y41175122D01*
X238402161Y41311210D01*
X238324779Y41376141D01*
X238176240Y41434847D01*
X237749299Y41397495D01*
X237613211Y41313887D01*
X237548280Y41236505D01*
X237489574Y41087966D01*
X237508250Y40874496D01*
X237352615Y42653415D02*
X238846907Y42784149D01*
X237423772Y42659640D02*
X237365066Y42511101D01*
X237389967Y42226474D01*
X237473575Y42090386D01*
X237550957Y42025455D01*
X237699496Y41966749D01*
X238126436Y42004101D01*
X238262525Y42087709D01*
X238327456Y42165091D01*
X238386162Y42313630D01*
X238361260Y42598257D01*
X238277653Y42734345D01*
X237311714Y43940462D02*
X237253008Y43791923D01*
X237277910Y43507296D01*
X237361517Y43371208D01*
X237510056Y43312502D01*
X238079310Y43362305D01*
X238215399Y43445913D01*
X238274105Y43594452D01*
X238249203Y43879079D01*
X238165595Y44015167D01*
X238017056Y44073873D01*
X237874743Y44061422D01*
X237794683Y43337404D01*
X256701434Y40487890D02*
X258195726Y40618624D01*
X256772591Y40494116D02*
X256713885Y40345577D01*
X256738787Y40060950D01*
X256822394Y39924862D01*
X256899777Y39859930D01*
X257048316Y39801224D01*
X257475256Y39838577D01*
X257611344Y39922184D01*
X257676276Y39999567D01*
X257734982Y40148105D01*
X257710080Y40432733D01*
X257626472Y40568821D01*
X256639180Y41199458D02*
X257635375Y41286614D01*
X258133472Y41330192D02*
X258068541Y41252809D01*
X257991159Y41317741D01*
X258056090Y41395123D01*
X258133472Y41330192D01*
X257991159Y41317741D01*
X256558250Y42124496D02*
X256641858Y41988408D01*
X256719240Y41923476D01*
X256867779Y41864770D01*
X257294719Y41902123D01*
X257430807Y41985731D01*
X257495739Y42063113D01*
X257554445Y42211652D01*
X257535768Y42425122D01*
X257452161Y42561210D01*
X257374779Y42626141D01*
X257226240Y42684847D01*
X256799299Y42647495D01*
X256663211Y42563887D01*
X256598280Y42486505D01*
X256539574Y42337966D01*
X256558250Y42124496D01*
X256402615Y43903415D02*
X257896907Y44034149D01*
X256473772Y43909640D02*
X256415066Y43761101D01*
X256439967Y43476474D01*
X256523575Y43340386D01*
X256600957Y43275455D01*
X256749496Y43216749D01*
X257176436Y43254101D01*
X257312525Y43337709D01*
X257377456Y43415091D01*
X257436162Y43563630D01*
X257411260Y43848257D01*
X257327653Y43984345D01*
X256361714Y45190462D02*
X256303008Y45041923D01*
X256327910Y44757296D01*
X256411517Y44621208D01*
X256560056Y44562502D01*
X257129310Y44612305D01*
X257265399Y44695913D01*
X257324105Y44844452D01*
X257299203Y45129079D01*
X257215595Y45265167D01*
X257067056Y45323873D01*
X256924743Y45311422D01*
X256844683Y44587404D01*
X279371428Y40589285D02*
X280871428Y40589285D01*
X279442857Y40589285D02*
X279371428Y40446428D01*
X279371428Y40160714D01*
X279442857Y40017857D01*
X279514285Y39946428D01*
X279657142Y39875000D01*
X280085714Y39875000D01*
X280228571Y39946428D01*
X280300000Y40017857D01*
X280371428Y40160714D01*
X280371428Y40446428D01*
X280300000Y40589285D01*
X279371428Y41303571D02*
X280371428Y41303571D01*
X280871428Y41303571D02*
X280800000Y41232142D01*
X280728571Y41303571D01*
X280800000Y41375000D01*
X280871428Y41303571D01*
X280728571Y41303571D01*
X279371428Y42232142D02*
X279442857Y42089285D01*
X279514285Y42017857D01*
X279657142Y41946428D01*
X280085714Y41946428D01*
X280228571Y42017857D01*
X280300000Y42089285D01*
X280371428Y42232142D01*
X280371428Y42446428D01*
X280300000Y42589285D01*
X280228571Y42660714D01*
X280085714Y42732142D01*
X279657142Y42732142D01*
X279514285Y42660714D01*
X279442857Y42589285D01*
X279371428Y42446428D01*
X279371428Y42232142D01*
X279371428Y44017857D02*
X280871428Y44017857D01*
X279442857Y44017857D02*
X279371428Y43875000D01*
X279371428Y43589285D01*
X279442857Y43446428D01*
X279514285Y43375000D01*
X279657142Y43303571D01*
X280085714Y43303571D01*
X280228571Y43375000D01*
X280300000Y43446428D01*
X280371428Y43589285D01*
X280371428Y43875000D01*
X280300000Y44017857D01*
X279442857Y45303571D02*
X279371428Y45160714D01*
X279371428Y44875000D01*
X279442857Y44732142D01*
X279585714Y44660714D01*
X280157142Y44660714D01*
X280300000Y44732142D01*
X280371428Y44875000D01*
X280371428Y45160714D01*
X280300000Y45303571D01*
X280157142Y45375000D01*
X280014285Y45375000D01*
X279871428Y44660714D01*
X305746428Y40889285D02*
X307246428Y40889285D01*
X305817857Y40889285D02*
X305746428Y40746428D01*
X305746428Y40460714D01*
X305817857Y40317857D01*
X305889285Y40246428D01*
X306032142Y40175000D01*
X306460714Y40175000D01*
X306603571Y40246428D01*
X306675000Y40317857D01*
X306746428Y40460714D01*
X306746428Y40746428D01*
X306675000Y40889285D01*
X305746428Y41603571D02*
X306746428Y41603571D01*
X307246428Y41603571D02*
X307175000Y41532142D01*
X307103571Y41603571D01*
X307175000Y41675000D01*
X307246428Y41603571D01*
X307103571Y41603571D01*
X305746428Y42532142D02*
X305817857Y42389285D01*
X305889285Y42317857D01*
X306032142Y42246428D01*
X306460714Y42246428D01*
X306603571Y42317857D01*
X306675000Y42389285D01*
X306746428Y42532142D01*
X306746428Y42746428D01*
X306675000Y42889285D01*
X306603571Y42960714D01*
X306460714Y43032142D01*
X306032142Y43032142D01*
X305889285Y42960714D01*
X305817857Y42889285D01*
X305746428Y42746428D01*
X305746428Y42532142D01*
X305746428Y44317857D02*
X307246428Y44317857D01*
X305817857Y44317857D02*
X305746428Y44175000D01*
X305746428Y43889285D01*
X305817857Y43746428D01*
X305889285Y43675000D01*
X306032142Y43603571D01*
X306460714Y43603571D01*
X306603571Y43675000D01*
X306675000Y43746428D01*
X306746428Y43889285D01*
X306746428Y44175000D01*
X306675000Y44317857D01*
X305817857Y45603571D02*
X305746428Y45460714D01*
X305746428Y45175000D01*
X305817857Y45032142D01*
X305960714Y44960714D01*
X306532142Y44960714D01*
X306675000Y45032142D01*
X306746428Y45175000D01*
X306746428Y45460714D01*
X306675000Y45603571D01*
X306532142Y45675000D01*
X306389285Y45675000D01*
X306246428Y44960714D01*
X67203571Y82035714D02*
X65703571Y82035714D01*
X67132142Y82035714D02*
X67203571Y82178571D01*
X67203571Y82464285D01*
X67132142Y82607142D01*
X67060714Y82678571D01*
X66917857Y82750000D01*
X66489285Y82750000D01*
X66346428Y82678571D01*
X66275000Y82607142D01*
X66203571Y82464285D01*
X66203571Y82178571D01*
X66275000Y82035714D01*
X67203571Y81321428D02*
X66203571Y81321428D01*
X65703571Y81321428D02*
X65775000Y81392857D01*
X65846428Y81321428D01*
X65775000Y81250000D01*
X65703571Y81321428D01*
X65846428Y81321428D01*
X67203571Y80392857D02*
X67132142Y80535714D01*
X67060714Y80607142D01*
X66917857Y80678571D01*
X66489285Y80678571D01*
X66346428Y80607142D01*
X66275000Y80535714D01*
X66203571Y80392857D01*
X66203571Y80178571D01*
X66275000Y80035714D01*
X66346428Y79964285D01*
X66489285Y79892857D01*
X66917857Y79892857D01*
X67060714Y79964285D01*
X67132142Y80035714D01*
X67203571Y80178571D01*
X67203571Y80392857D01*
X67203571Y78607142D02*
X65703571Y78607142D01*
X67132142Y78607142D02*
X67203571Y78750000D01*
X67203571Y79035714D01*
X67132142Y79178571D01*
X67060714Y79250000D01*
X66917857Y79321428D01*
X66489285Y79321428D01*
X66346428Y79250000D01*
X66275000Y79178571D01*
X66203571Y79035714D01*
X66203571Y78750000D01*
X66275000Y78607142D01*
X67132142Y77321428D02*
X67203571Y77464285D01*
X67203571Y77750000D01*
X67132142Y77892857D01*
X66989285Y77964285D01*
X66417857Y77964285D01*
X66275000Y77892857D01*
X66203571Y77750000D01*
X66203571Y77464285D01*
X66275000Y77321428D01*
X66417857Y77250000D01*
X66560714Y77250000D01*
X66703571Y77964285D01*
X87328571Y82485714D02*
X85828571Y82485714D01*
X87257142Y82485714D02*
X87328571Y82628571D01*
X87328571Y82914285D01*
X87257142Y83057142D01*
X87185714Y83128571D01*
X87042857Y83200000D01*
X86614285Y83200000D01*
X86471428Y83128571D01*
X86400000Y83057142D01*
X86328571Y82914285D01*
X86328571Y82628571D01*
X86400000Y82485714D01*
X87328571Y81771428D02*
X86328571Y81771428D01*
X85828571Y81771428D02*
X85900000Y81842857D01*
X85971428Y81771428D01*
X85900000Y81700000D01*
X85828571Y81771428D01*
X85971428Y81771428D01*
X87328571Y80842857D02*
X87257142Y80985714D01*
X87185714Y81057142D01*
X87042857Y81128571D01*
X86614285Y81128571D01*
X86471428Y81057142D01*
X86400000Y80985714D01*
X86328571Y80842857D01*
X86328571Y80628571D01*
X86400000Y80485714D01*
X86471428Y80414285D01*
X86614285Y80342857D01*
X87042857Y80342857D01*
X87185714Y80414285D01*
X87257142Y80485714D01*
X87328571Y80628571D01*
X87328571Y80842857D01*
X87328571Y79057142D02*
X85828571Y79057142D01*
X87257142Y79057142D02*
X87328571Y79200000D01*
X87328571Y79485714D01*
X87257142Y79628571D01*
X87185714Y79700000D01*
X87042857Y79771428D01*
X86614285Y79771428D01*
X86471428Y79700000D01*
X86400000Y79628571D01*
X86328571Y79485714D01*
X86328571Y79200000D01*
X86400000Y79057142D01*
X87257142Y77771428D02*
X87328571Y77914285D01*
X87328571Y78200000D01*
X87257142Y78342857D01*
X87114285Y78414285D01*
X86542857Y78414285D01*
X86400000Y78342857D01*
X86328571Y78200000D01*
X86328571Y77914285D01*
X86400000Y77771428D01*
X86542857Y77700000D01*
X86685714Y77700000D01*
X86828571Y78414285D01*
X110003413Y81318826D02*
X108509121Y81449559D01*
X109932256Y81325051D02*
X110015864Y81461139D01*
X110040765Y81745766D01*
X109982059Y81894305D01*
X109917128Y81971688D01*
X109781040Y82055295D01*
X109354099Y82092648D01*
X109205560Y82033942D01*
X109128178Y81969010D01*
X109044571Y81832922D01*
X109019669Y81548295D01*
X109078375Y81399756D01*
X109941159Y80607258D02*
X108944964Y80694414D01*
X108446867Y80737992D02*
X108524249Y80802923D01*
X108589180Y80725541D01*
X108511798Y80660610D01*
X108446867Y80737992D01*
X108589180Y80725541D01*
X109860229Y79682220D02*
X109801523Y79830759D01*
X109736591Y79908141D01*
X109600503Y79991749D01*
X109173563Y80029101D01*
X109025024Y79970396D01*
X108947641Y79905464D01*
X108864034Y79769376D01*
X108845358Y79555906D01*
X108904064Y79407367D01*
X108968995Y79329985D01*
X109105083Y79246377D01*
X109532024Y79209025D01*
X109680563Y79267731D01*
X109757945Y79332662D01*
X109841552Y79468750D01*
X109860229Y79682220D01*
X109704593Y77903301D02*
X108210301Y78034035D01*
X109633436Y77909527D02*
X109717044Y78045615D01*
X109741946Y78330242D01*
X109683240Y78478781D01*
X109618308Y78556163D01*
X109482220Y78639770D01*
X109055280Y78677123D01*
X108906741Y78618417D01*
X108829359Y78553486D01*
X108745751Y78417398D01*
X108720849Y78132770D01*
X108779555Y77984232D01*
X109521379Y76628705D02*
X109604987Y76764793D01*
X109629888Y77049420D01*
X109571182Y77197959D01*
X109435094Y77281567D01*
X108865840Y77331370D01*
X108717301Y77272664D01*
X108633694Y77136576D01*
X108608792Y76851949D01*
X108667498Y76703410D01*
X108803586Y76619802D01*
X108945900Y76607351D01*
X109150467Y77306468D01*
X129053413Y79368826D02*
X127559121Y79499559D01*
X128982256Y79375051D02*
X129065864Y79511139D01*
X129090765Y79795766D01*
X129032059Y79944305D01*
X128967128Y80021688D01*
X128831040Y80105295D01*
X128404099Y80142648D01*
X128255560Y80083942D01*
X128178178Y80019010D01*
X128094571Y79882922D01*
X128069669Y79598295D01*
X128128375Y79449756D01*
X128991159Y78657258D02*
X127994964Y78744414D01*
X127496867Y78787992D02*
X127574249Y78852923D01*
X127639180Y78775541D01*
X127561798Y78710610D01*
X127496867Y78787992D01*
X127639180Y78775541D01*
X128910229Y77732220D02*
X128851523Y77880759D01*
X128786591Y77958141D01*
X128650503Y78041749D01*
X128223563Y78079101D01*
X128075024Y78020396D01*
X127997641Y77955464D01*
X127914034Y77819376D01*
X127895358Y77605906D01*
X127954064Y77457367D01*
X128018995Y77379985D01*
X128155083Y77296377D01*
X128582024Y77259025D01*
X128730563Y77317731D01*
X128807945Y77382662D01*
X128891552Y77518750D01*
X128910229Y77732220D01*
X128754593Y75953301D02*
X127260301Y76084035D01*
X128683436Y75959527D02*
X128767044Y76095615D01*
X128791946Y76380242D01*
X128733240Y76528781D01*
X128668308Y76606163D01*
X128532220Y76689770D01*
X128105280Y76727123D01*
X127956741Y76668417D01*
X127879359Y76603486D01*
X127795751Y76467398D01*
X127770849Y76182770D01*
X127829555Y76034232D01*
X128571379Y74678705D02*
X128654987Y74814793D01*
X128679888Y75099420D01*
X128621182Y75247959D01*
X128485094Y75331567D01*
X127915840Y75381370D01*
X127767301Y75322664D01*
X127683694Y75186576D01*
X127658792Y74901949D01*
X127717498Y74753410D01*
X127853586Y74669802D01*
X127995900Y74657351D01*
X128200467Y75356468D01*
X148028413Y78343826D02*
X146534121Y78474559D01*
X147957256Y78350051D02*
X148040864Y78486139D01*
X148065765Y78770766D01*
X148007059Y78919305D01*
X147942128Y78996688D01*
X147806040Y79080295D01*
X147379099Y79117648D01*
X147230560Y79058942D01*
X147153178Y78994010D01*
X147069571Y78857922D01*
X147044669Y78573295D01*
X147103375Y78424756D01*
X147966159Y77632258D02*
X146969964Y77719414D01*
X146471867Y77762992D02*
X146549249Y77827923D01*
X146614180Y77750541D01*
X146536798Y77685610D01*
X146471867Y77762992D01*
X146614180Y77750541D01*
X147885229Y76707220D02*
X147826523Y76855759D01*
X147761591Y76933141D01*
X147625503Y77016749D01*
X147198563Y77054101D01*
X147050024Y76995396D01*
X146972641Y76930464D01*
X146889034Y76794376D01*
X146870358Y76580906D01*
X146929064Y76432367D01*
X146993995Y76354985D01*
X147130083Y76271377D01*
X147557024Y76234025D01*
X147705563Y76292731D01*
X147782945Y76357662D01*
X147866552Y76493750D01*
X147885229Y76707220D01*
X147729593Y74928301D02*
X146235301Y75059035D01*
X147658436Y74934527D02*
X147742044Y75070615D01*
X147766946Y75355242D01*
X147708240Y75503781D01*
X147643308Y75581163D01*
X147507220Y75664770D01*
X147080280Y75702123D01*
X146931741Y75643417D01*
X146854359Y75578486D01*
X146770751Y75442398D01*
X146745849Y75157770D01*
X146804555Y75009232D01*
X147546379Y73653705D02*
X147629987Y73789793D01*
X147654888Y74074420D01*
X147596182Y74222959D01*
X147460094Y74306567D01*
X146890840Y74356370D01*
X146742301Y74297664D01*
X146658694Y74161576D01*
X146633792Y73876949D01*
X146692498Y73728410D01*
X146828586Y73644802D01*
X146970900Y73632351D01*
X147175467Y74331468D01*
X157956173Y64978413D02*
X157825440Y63484121D01*
X157949948Y64907256D02*
X157813860Y64990864D01*
X157529233Y65015765D01*
X157380694Y64957059D01*
X157303311Y64892128D01*
X157219704Y64756040D01*
X157182351Y64329099D01*
X157241057Y64180560D01*
X157305989Y64103178D01*
X157442077Y64019571D01*
X157726704Y63994669D01*
X157875243Y64053375D01*
X158667741Y64916159D02*
X158580585Y63919964D01*
X158537007Y63421867D02*
X158472076Y63499249D01*
X158549458Y63564180D01*
X158614389Y63486798D01*
X158537007Y63421867D01*
X158549458Y63564180D01*
X159592779Y64835229D02*
X159444240Y64776523D01*
X159366858Y64711591D01*
X159283250Y64575503D01*
X159245898Y64148563D01*
X159304603Y64000024D01*
X159369535Y63922641D01*
X159505623Y63839034D01*
X159719093Y63820358D01*
X159867632Y63879064D01*
X159945014Y63943995D01*
X160028622Y64080083D01*
X160065974Y64507024D01*
X160007268Y64655563D01*
X159942337Y64732945D01*
X159806249Y64816552D01*
X159592779Y64835229D01*
X161371698Y64679593D02*
X161240964Y63185301D01*
X161365472Y64608436D02*
X161229384Y64692044D01*
X160944757Y64716946D01*
X160796218Y64658240D01*
X160718836Y64593308D01*
X160635229Y64457220D01*
X160597876Y64030280D01*
X160656582Y63881741D01*
X160721513Y63804359D01*
X160857601Y63720751D01*
X161142229Y63695849D01*
X161290767Y63754555D01*
X162646294Y64496379D02*
X162510206Y64579987D01*
X162225579Y64604888D01*
X162077040Y64546182D01*
X161993432Y64410094D01*
X161943629Y63840840D01*
X162002335Y63692301D01*
X162138423Y63608694D01*
X162423050Y63583792D01*
X162571589Y63642498D01*
X162655197Y63778586D01*
X162667648Y63920900D01*
X161968531Y64125467D01*
X177071586Y34606173D02*
X178565878Y34475440D01*
X177142743Y34599948D02*
X177059135Y34463860D01*
X177034234Y34179233D01*
X177092940Y34030694D01*
X177157871Y33953311D01*
X177293959Y33869704D01*
X177720900Y33832351D01*
X177869439Y33891057D01*
X177946821Y33955989D01*
X178030428Y34092077D01*
X178055330Y34376704D01*
X177996624Y34525243D01*
X177133840Y35317741D02*
X178130035Y35230585D01*
X178628132Y35187007D02*
X178550750Y35122076D01*
X178485819Y35199458D01*
X178563201Y35264389D01*
X178628132Y35187007D01*
X178485819Y35199458D01*
X177214770Y36242779D02*
X177273476Y36094240D01*
X177338408Y36016858D01*
X177474496Y35933250D01*
X177901436Y35895898D01*
X178049975Y35954603D01*
X178127358Y36019535D01*
X178210965Y36155623D01*
X178229641Y36369093D01*
X178170935Y36517632D01*
X178106004Y36595014D01*
X177969916Y36678622D01*
X177542975Y36715974D01*
X177394436Y36657268D01*
X177317054Y36592337D01*
X177233447Y36456249D01*
X177214770Y36242779D01*
X177370406Y38021698D02*
X178864698Y37890964D01*
X177441563Y38015472D02*
X177357955Y37879384D01*
X177333053Y37594757D01*
X177391759Y37446218D01*
X177456691Y37368836D01*
X177592779Y37285229D01*
X178019719Y37247876D01*
X178168258Y37306582D01*
X178245640Y37371513D01*
X178329248Y37507601D01*
X178354150Y37792229D01*
X178295444Y37940767D01*
X177553620Y39296294D02*
X177470012Y39160206D01*
X177445111Y38875579D01*
X177503817Y38727040D01*
X177639905Y38643432D01*
X178209159Y38593629D01*
X178357698Y38652335D01*
X178441305Y38788423D01*
X178466207Y39073050D01*
X178407501Y39221589D01*
X178271413Y39305197D01*
X178129099Y39317648D01*
X177924532Y38618531D01*
X158096586Y37006173D02*
X159590878Y36875440D01*
X158167743Y36999948D02*
X158084135Y36863860D01*
X158059234Y36579233D01*
X158117940Y36430694D01*
X158182871Y36353311D01*
X158318959Y36269704D01*
X158745900Y36232351D01*
X158894439Y36291057D01*
X158971821Y36355989D01*
X159055428Y36492077D01*
X159080330Y36776704D01*
X159021624Y36925243D01*
X158158840Y37717741D02*
X159155035Y37630585D01*
X159653132Y37587007D02*
X159575750Y37522076D01*
X159510819Y37599458D01*
X159588201Y37664389D01*
X159653132Y37587007D01*
X159510819Y37599458D01*
X158239770Y38642779D02*
X158298476Y38494240D01*
X158363408Y38416858D01*
X158499496Y38333250D01*
X158926436Y38295898D01*
X159074975Y38354603D01*
X159152358Y38419535D01*
X159235965Y38555623D01*
X159254641Y38769093D01*
X159195935Y38917632D01*
X159131004Y38995014D01*
X158994916Y39078622D01*
X158567975Y39115974D01*
X158419436Y39057268D01*
X158342054Y38992337D01*
X158258447Y38856249D01*
X158239770Y38642779D01*
X158395406Y40421698D02*
X159889698Y40290964D01*
X158466563Y40415472D02*
X158382955Y40279384D01*
X158358053Y39994757D01*
X158416759Y39846218D01*
X158481691Y39768836D01*
X158617779Y39685229D01*
X159044719Y39647876D01*
X159193258Y39706582D01*
X159270640Y39771513D01*
X159354248Y39907601D01*
X159379150Y40192229D01*
X159320444Y40340767D01*
X158578620Y41696294D02*
X158495012Y41560206D01*
X158470111Y41275579D01*
X158528817Y41127040D01*
X158664905Y41043432D01*
X159234159Y40993629D01*
X159382698Y41052335D01*
X159466305Y41188423D01*
X159491207Y41473050D01*
X159432501Y41621589D01*
X159296413Y41705197D01*
X159154099Y41717648D01*
X158949532Y41018531D01*
X139121586Y38131173D02*
X140615878Y38000440D01*
X139192743Y38124948D02*
X139109135Y37988860D01*
X139084234Y37704233D01*
X139142940Y37555694D01*
X139207871Y37478311D01*
X139343959Y37394704D01*
X139770900Y37357351D01*
X139919439Y37416057D01*
X139996821Y37480989D01*
X140080428Y37617077D01*
X140105330Y37901704D01*
X140046624Y38050243D01*
X139183840Y38842741D02*
X140180035Y38755585D01*
X140678132Y38712007D02*
X140600750Y38647076D01*
X140535819Y38724458D01*
X140613201Y38789389D01*
X140678132Y38712007D01*
X140535819Y38724458D01*
X139264770Y39767779D02*
X139323476Y39619240D01*
X139388408Y39541858D01*
X139524496Y39458250D01*
X139951436Y39420898D01*
X140099975Y39479603D01*
X140177358Y39544535D01*
X140260965Y39680623D01*
X140279641Y39894093D01*
X140220935Y40042632D01*
X140156004Y40120014D01*
X140019916Y40203622D01*
X139592975Y40240974D01*
X139444436Y40182268D01*
X139367054Y40117337D01*
X139283447Y39981249D01*
X139264770Y39767779D01*
X139420406Y41546698D02*
X140914698Y41415964D01*
X139491563Y41540472D02*
X139407955Y41404384D01*
X139383053Y41119757D01*
X139441759Y40971218D01*
X139506691Y40893836D01*
X139642779Y40810229D01*
X140069719Y40772876D01*
X140218258Y40831582D01*
X140295640Y40896513D01*
X140379248Y41032601D01*
X140404150Y41317229D01*
X140345444Y41465767D01*
X139603620Y42821294D02*
X139520012Y42685206D01*
X139495111Y42400579D01*
X139553817Y42252040D01*
X139689905Y42168432D01*
X140259159Y42118629D01*
X140407698Y42177335D01*
X140491305Y42313423D01*
X140516207Y42598050D01*
X140457501Y42746589D01*
X140321413Y42830197D01*
X140179099Y42842648D01*
X139974532Y42143531D01*
X120046586Y40206173D02*
X121540878Y40075440D01*
X120117743Y40199948D02*
X120034135Y40063860D01*
X120009234Y39779233D01*
X120067940Y39630694D01*
X120132871Y39553311D01*
X120268959Y39469704D01*
X120695900Y39432351D01*
X120844439Y39491057D01*
X120921821Y39555989D01*
X121005428Y39692077D01*
X121030330Y39976704D01*
X120971624Y40125243D01*
X120108840Y40917741D02*
X121105035Y40830585D01*
X121603132Y40787007D02*
X121525750Y40722076D01*
X121460819Y40799458D01*
X121538201Y40864389D01*
X121603132Y40787007D01*
X121460819Y40799458D01*
X120189770Y41842779D02*
X120248476Y41694240D01*
X120313408Y41616858D01*
X120449496Y41533250D01*
X120876436Y41495898D01*
X121024975Y41554603D01*
X121102358Y41619535D01*
X121185965Y41755623D01*
X121204641Y41969093D01*
X121145935Y42117632D01*
X121081004Y42195014D01*
X120944916Y42278622D01*
X120517975Y42315974D01*
X120369436Y42257268D01*
X120292054Y42192337D01*
X120208447Y42056249D01*
X120189770Y41842779D01*
X120345406Y43621698D02*
X121839698Y43490964D01*
X120416563Y43615472D02*
X120332955Y43479384D01*
X120308053Y43194757D01*
X120366759Y43046218D01*
X120431691Y42968836D01*
X120567779Y42885229D01*
X120994719Y42847876D01*
X121143258Y42906582D01*
X121220640Y42971513D01*
X121304248Y43107601D01*
X121329150Y43392229D01*
X121270444Y43540767D01*
X120528620Y44896294D02*
X120445012Y44760206D01*
X120420111Y44475579D01*
X120478817Y44327040D01*
X120614905Y44243432D01*
X121184159Y44193629D01*
X121332698Y44252335D01*
X121416305Y44388423D01*
X121441207Y44673050D01*
X121382501Y44821589D01*
X121246413Y44905197D01*
X121104099Y44917648D01*
X120899532Y44218531D01*
X98771428Y41839285D02*
X100271428Y41839285D01*
X98842857Y41839285D02*
X98771428Y41696428D01*
X98771428Y41410714D01*
X98842857Y41267857D01*
X98914285Y41196428D01*
X99057142Y41125000D01*
X99485714Y41125000D01*
X99628571Y41196428D01*
X99700000Y41267857D01*
X99771428Y41410714D01*
X99771428Y41696428D01*
X99700000Y41839285D01*
X98771428Y42553571D02*
X99771428Y42553571D01*
X100271428Y42553571D02*
X100200000Y42482142D01*
X100128571Y42553571D01*
X100200000Y42625000D01*
X100271428Y42553571D01*
X100128571Y42553571D01*
X98771428Y43482142D02*
X98842857Y43339285D01*
X98914285Y43267857D01*
X99057142Y43196428D01*
X99485714Y43196428D01*
X99628571Y43267857D01*
X99700000Y43339285D01*
X99771428Y43482142D01*
X99771428Y43696428D01*
X99700000Y43839285D01*
X99628571Y43910714D01*
X99485714Y43982142D01*
X99057142Y43982142D01*
X98914285Y43910714D01*
X98842857Y43839285D01*
X98771428Y43696428D01*
X98771428Y43482142D01*
X98771428Y45267857D02*
X100271428Y45267857D01*
X98842857Y45267857D02*
X98771428Y45125000D01*
X98771428Y44839285D01*
X98842857Y44696428D01*
X98914285Y44625000D01*
X99057142Y44553571D01*
X99485714Y44553571D01*
X99628571Y44625000D01*
X99700000Y44696428D01*
X99771428Y44839285D01*
X99771428Y45125000D01*
X99700000Y45267857D01*
X98842857Y46553571D02*
X98771428Y46410714D01*
X98771428Y46125000D01*
X98842857Y45982142D01*
X98985714Y45910714D01*
X99557142Y45910714D01*
X99700000Y45982142D01*
X99771428Y46125000D01*
X99771428Y46410714D01*
X99700000Y46553571D01*
X99557142Y46625000D01*
X99414285Y46625000D01*
X99271428Y45910714D01*
X72696428Y42014285D02*
X74196428Y42014285D01*
X72767857Y42014285D02*
X72696428Y41871428D01*
X72696428Y41585714D01*
X72767857Y41442857D01*
X72839285Y41371428D01*
X72982142Y41300000D01*
X73410714Y41300000D01*
X73553571Y41371428D01*
X73625000Y41442857D01*
X73696428Y41585714D01*
X73696428Y41871428D01*
X73625000Y42014285D01*
X72696428Y42728571D02*
X73696428Y42728571D01*
X74196428Y42728571D02*
X74125000Y42657142D01*
X74053571Y42728571D01*
X74125000Y42800000D01*
X74196428Y42728571D01*
X74053571Y42728571D01*
X72696428Y43657142D02*
X72767857Y43514285D01*
X72839285Y43442857D01*
X72982142Y43371428D01*
X73410714Y43371428D01*
X73553571Y43442857D01*
X73625000Y43514285D01*
X73696428Y43657142D01*
X73696428Y43871428D01*
X73625000Y44014285D01*
X73553571Y44085714D01*
X73410714Y44157142D01*
X72982142Y44157142D01*
X72839285Y44085714D01*
X72767857Y44014285D01*
X72696428Y43871428D01*
X72696428Y43657142D01*
X72696428Y45442857D02*
X74196428Y45442857D01*
X72767857Y45442857D02*
X72696428Y45300000D01*
X72696428Y45014285D01*
X72767857Y44871428D01*
X72839285Y44800000D01*
X72982142Y44728571D01*
X73410714Y44728571D01*
X73553571Y44800000D01*
X73625000Y44871428D01*
X73696428Y45014285D01*
X73696428Y45300000D01*
X73625000Y45442857D01*
X72767857Y46728571D02*
X72696428Y46585714D01*
X72696428Y46300000D01*
X72767857Y46157142D01*
X72910714Y46085714D01*
X73482142Y46085714D01*
X73625000Y46157142D01*
X73696428Y46300000D01*
X73696428Y46585714D01*
X73625000Y46728571D01*
X73482142Y46800000D01*
X73339285Y46800000D01*
X73196428Y46085714D01*
X65314285Y50878571D02*
X65314285Y49378571D01*
X65314285Y50807142D02*
X65171428Y50878571D01*
X64885714Y50878571D01*
X64742857Y50807142D01*
X64671428Y50735714D01*
X64600000Y50592857D01*
X64600000Y50164285D01*
X64671428Y50021428D01*
X64742857Y49950000D01*
X64885714Y49878571D01*
X65171428Y49878571D01*
X65314285Y49950000D01*
X66028571Y50878571D02*
X66028571Y49878571D01*
X66028571Y49378571D02*
X65957142Y49450000D01*
X66028571Y49521428D01*
X66100000Y49450000D01*
X66028571Y49378571D01*
X66028571Y49521428D01*
X66957142Y50878571D02*
X66814285Y50807142D01*
X66742857Y50735714D01*
X66671428Y50592857D01*
X66671428Y50164285D01*
X66742857Y50021428D01*
X66814285Y49950000D01*
X66957142Y49878571D01*
X67171428Y49878571D01*
X67314285Y49950000D01*
X67385714Y50021428D01*
X67457142Y50164285D01*
X67457142Y50592857D01*
X67385714Y50735714D01*
X67314285Y50807142D01*
X67171428Y50878571D01*
X66957142Y50878571D01*
X68742857Y50878571D02*
X68742857Y49378571D01*
X68742857Y50807142D02*
X68600000Y50878571D01*
X68314285Y50878571D01*
X68171428Y50807142D01*
X68100000Y50735714D01*
X68028571Y50592857D01*
X68028571Y50164285D01*
X68100000Y50021428D01*
X68171428Y49950000D01*
X68314285Y49878571D01*
X68600000Y49878571D01*
X68742857Y49950000D01*
X70028571Y50807142D02*
X69885714Y50878571D01*
X69600000Y50878571D01*
X69457142Y50807142D01*
X69385714Y50664285D01*
X69385714Y50092857D01*
X69457142Y49950000D01*
X69600000Y49878571D01*
X69885714Y49878571D01*
X70028571Y49950000D01*
X70100000Y50092857D01*
X70100000Y50235714D01*
X69385714Y50378571D01*
X91589285Y50628571D02*
X91589285Y49128571D01*
X91589285Y50557142D02*
X91446428Y50628571D01*
X91160714Y50628571D01*
X91017857Y50557142D01*
X90946428Y50485714D01*
X90875000Y50342857D01*
X90875000Y49914285D01*
X90946428Y49771428D01*
X91017857Y49700000D01*
X91160714Y49628571D01*
X91446428Y49628571D01*
X91589285Y49700000D01*
X92303571Y50628571D02*
X92303571Y49628571D01*
X92303571Y49128571D02*
X92232142Y49200000D01*
X92303571Y49271428D01*
X92375000Y49200000D01*
X92303571Y49128571D01*
X92303571Y49271428D01*
X93232142Y50628571D02*
X93089285Y50557142D01*
X93017857Y50485714D01*
X92946428Y50342857D01*
X92946428Y49914285D01*
X93017857Y49771428D01*
X93089285Y49700000D01*
X93232142Y49628571D01*
X93446428Y49628571D01*
X93589285Y49700000D01*
X93660714Y49771428D01*
X93732142Y49914285D01*
X93732142Y50342857D01*
X93660714Y50485714D01*
X93589285Y50557142D01*
X93446428Y50628571D01*
X93232142Y50628571D01*
X95017857Y50628571D02*
X95017857Y49128571D01*
X95017857Y50557142D02*
X94875000Y50628571D01*
X94589285Y50628571D01*
X94446428Y50557142D01*
X94375000Y50485714D01*
X94303571Y50342857D01*
X94303571Y49914285D01*
X94375000Y49771428D01*
X94446428Y49700000D01*
X94589285Y49628571D01*
X94875000Y49628571D01*
X95017857Y49700000D01*
X96303571Y50557142D02*
X96160714Y50628571D01*
X95875000Y50628571D01*
X95732142Y50557142D01*
X95660714Y50414285D01*
X95660714Y49842857D01*
X95732142Y49700000D01*
X95875000Y49628571D01*
X96160714Y49628571D01*
X96303571Y49700000D01*
X96375000Y49842857D01*
X96375000Y49985714D01*
X95660714Y50128571D01*
X107231173Y50153413D02*
X107100440Y48659121D01*
X107224948Y50082256D02*
X107088860Y50165864D01*
X106804233Y50190765D01*
X106655694Y50132059D01*
X106578311Y50067128D01*
X106494704Y49931040D01*
X106457351Y49504099D01*
X106516057Y49355560D01*
X106580989Y49278178D01*
X106717077Y49194571D01*
X107001704Y49169669D01*
X107150243Y49228375D01*
X107942741Y50091159D02*
X107855585Y49094964D01*
X107812007Y48596867D02*
X107747076Y48674249D01*
X107824458Y48739180D01*
X107889389Y48661798D01*
X107812007Y48596867D01*
X107824458Y48739180D01*
X108867779Y50010229D02*
X108719240Y49951523D01*
X108641858Y49886591D01*
X108558250Y49750503D01*
X108520898Y49323563D01*
X108579603Y49175024D01*
X108644535Y49097641D01*
X108780623Y49014034D01*
X108994093Y48995358D01*
X109142632Y49054064D01*
X109220014Y49118995D01*
X109303622Y49255083D01*
X109340974Y49682024D01*
X109282268Y49830563D01*
X109217337Y49907945D01*
X109081249Y49991552D01*
X108867779Y50010229D01*
X110646698Y49854593D02*
X110515964Y48360301D01*
X110640472Y49783436D02*
X110504384Y49867044D01*
X110219757Y49891946D01*
X110071218Y49833240D01*
X109993836Y49768308D01*
X109910229Y49632220D01*
X109872876Y49205280D01*
X109931582Y49056741D01*
X109996513Y48979359D01*
X110132601Y48895751D01*
X110417229Y48870849D01*
X110565767Y48929555D01*
X111921294Y49671379D02*
X111785206Y49754987D01*
X111500579Y49779888D01*
X111352040Y49721182D01*
X111268432Y49585094D01*
X111218629Y49015840D01*
X111277335Y48867301D01*
X111413423Y48783694D01*
X111698050Y48758792D01*
X111846589Y48817498D01*
X111930197Y48953586D01*
X111942648Y49095900D01*
X111243531Y49300467D01*
X130356173Y48428413D02*
X130225440Y46934121D01*
X130349948Y48357256D02*
X130213860Y48440864D01*
X129929233Y48465765D01*
X129780694Y48407059D01*
X129703311Y48342128D01*
X129619704Y48206040D01*
X129582351Y47779099D01*
X129641057Y47630560D01*
X129705989Y47553178D01*
X129842077Y47469571D01*
X130126704Y47444669D01*
X130275243Y47503375D01*
X131067741Y48366159D02*
X130980585Y47369964D01*
X130937007Y46871867D02*
X130872076Y46949249D01*
X130949458Y47014180D01*
X131014389Y46936798D01*
X130937007Y46871867D01*
X130949458Y47014180D01*
X131992779Y48285229D02*
X131844240Y48226523D01*
X131766858Y48161591D01*
X131683250Y48025503D01*
X131645898Y47598563D01*
X131704603Y47450024D01*
X131769535Y47372641D01*
X131905623Y47289034D01*
X132119093Y47270358D01*
X132267632Y47329064D01*
X132345014Y47393995D01*
X132428622Y47530083D01*
X132465974Y47957024D01*
X132407268Y48105563D01*
X132342337Y48182945D01*
X132206249Y48266552D01*
X131992779Y48285229D01*
X133771698Y48129593D02*
X133640964Y46635301D01*
X133765472Y48058436D02*
X133629384Y48142044D01*
X133344757Y48166946D01*
X133196218Y48108240D01*
X133118836Y48043308D01*
X133035229Y47907220D01*
X132997876Y47480280D01*
X133056582Y47331741D01*
X133121513Y47254359D01*
X133257601Y47170751D01*
X133542229Y47145849D01*
X133690767Y47204555D01*
X135046294Y47946379D02*
X134910206Y48029987D01*
X134625579Y48054888D01*
X134477040Y47996182D01*
X134393432Y47860094D01*
X134343629Y47290840D01*
X134402335Y47142301D01*
X134538423Y47058694D01*
X134823050Y47033792D01*
X134971589Y47092498D01*
X135055197Y47228586D01*
X135067648Y47370900D01*
X134368531Y47575467D01*
X148881173Y46528413D02*
X148750440Y45034121D01*
X148874948Y46457256D02*
X148738860Y46540864D01*
X148454233Y46565765D01*
X148305694Y46507059D01*
X148228311Y46442128D01*
X148144704Y46306040D01*
X148107351Y45879099D01*
X148166057Y45730560D01*
X148230989Y45653178D01*
X148367077Y45569571D01*
X148651704Y45544669D01*
X148800243Y45603375D01*
X149592741Y46466159D02*
X149505585Y45469964D01*
X149462007Y44971867D02*
X149397076Y45049249D01*
X149474458Y45114180D01*
X149539389Y45036798D01*
X149462007Y44971867D01*
X149474458Y45114180D01*
X150517779Y46385229D02*
X150369240Y46326523D01*
X150291858Y46261591D01*
X150208250Y46125503D01*
X150170898Y45698563D01*
X150229603Y45550024D01*
X150294535Y45472641D01*
X150430623Y45389034D01*
X150644093Y45370358D01*
X150792632Y45429064D01*
X150870014Y45493995D01*
X150953622Y45630083D01*
X150990974Y46057024D01*
X150932268Y46205563D01*
X150867337Y46282945D01*
X150731249Y46366552D01*
X150517779Y46385229D01*
X152296698Y46229593D02*
X152165964Y44735301D01*
X152290472Y46158436D02*
X152154384Y46242044D01*
X151869757Y46266946D01*
X151721218Y46208240D01*
X151643836Y46143308D01*
X151560229Y46007220D01*
X151522876Y45580280D01*
X151581582Y45431741D01*
X151646513Y45354359D01*
X151782601Y45270751D01*
X152067229Y45245849D01*
X152215767Y45304555D01*
X153571294Y46046379D02*
X153435206Y46129987D01*
X153150579Y46154888D01*
X153002040Y46096182D01*
X152918432Y45960094D01*
X152868629Y45390840D01*
X152927335Y45242301D01*
X153063423Y45158694D01*
X153348050Y45133792D01*
X153496589Y45192498D01*
X153580197Y45328586D01*
X153592648Y45470900D01*
X152893531Y45675467D01*
X171531173Y44803413D02*
X171400440Y43309121D01*
X171524948Y44732256D02*
X171388860Y44815864D01*
X171104233Y44840765D01*
X170955694Y44782059D01*
X170878311Y44717128D01*
X170794704Y44581040D01*
X170757351Y44154099D01*
X170816057Y44005560D01*
X170880989Y43928178D01*
X171017077Y43844571D01*
X171301704Y43819669D01*
X171450243Y43878375D01*
X172242741Y44741159D02*
X172155585Y43744964D01*
X172112007Y43246867D02*
X172047076Y43324249D01*
X172124458Y43389180D01*
X172189389Y43311798D01*
X172112007Y43246867D01*
X172124458Y43389180D01*
X173167779Y44660229D02*
X173019240Y44601523D01*
X172941858Y44536591D01*
X172858250Y44400503D01*
X172820898Y43973563D01*
X172879603Y43825024D01*
X172944535Y43747641D01*
X173080623Y43664034D01*
X173294093Y43645358D01*
X173442632Y43704064D01*
X173520014Y43768995D01*
X173603622Y43905083D01*
X173640974Y44332024D01*
X173582268Y44480563D01*
X173517337Y44557945D01*
X173381249Y44641552D01*
X173167779Y44660229D01*
X174946698Y44504593D02*
X174815964Y43010301D01*
X174940472Y44433436D02*
X174804384Y44517044D01*
X174519757Y44541946D01*
X174371218Y44483240D01*
X174293836Y44418308D01*
X174210229Y44282220D01*
X174172876Y43855280D01*
X174231582Y43706741D01*
X174296513Y43629359D01*
X174432601Y43545751D01*
X174717229Y43520849D01*
X174865767Y43579555D01*
X176221294Y44321379D02*
X176085206Y44404987D01*
X175800579Y44429888D01*
X175652040Y44371182D01*
X175568432Y44235094D01*
X175518629Y43665840D01*
X175577335Y43517301D01*
X175713423Y43433694D01*
X175998050Y43408792D01*
X176146589Y43467498D01*
X176230197Y43603586D01*
X176242648Y43745900D01*
X175543531Y43950467D01*
D11*
%TO.C,U1*%
X169125000Y57825000D02*
X170135000Y57825000D01*
X186925000Y57825000D02*
X185925000Y57825000D01*
X169125000Y58825000D02*
X169125000Y57825000D01*
X186925000Y58875000D02*
X186925000Y57825000D01*
X169125000Y90875000D02*
X170075000Y90875000D01*
X186925000Y90875000D02*
X185925000Y90875000D01*
X169125000Y90875000D02*
X169125000Y89875000D01*
X186925000Y90875000D02*
X186925000Y89875000D01*
X181775000Y93775000D02*
X181775000Y92475000D01*
X181775000Y92475000D02*
X174275000Y92475000D01*
X174275000Y92475000D02*
X174275000Y93775000D01*
X174275000Y93775000D02*
X181775000Y93775000D01*
X178525000Y93425000D02*
X177525000Y93425000D01*
X177525000Y93425000D02*
X178025000Y92775000D01*
X178025000Y92775000D02*
X178525000Y93425000D01*
X178375000Y93275000D02*
X177675000Y93275000D01*
X178275000Y93125000D02*
X177775000Y93125000D01*
X178175000Y92975000D02*
X177875000Y92975000D01*
%TO.C,D1*%
X68325000Y80500000D02*
X67825000Y81400000D01*
X67825000Y81400000D02*
X68825000Y81400000D01*
X68825000Y81400000D02*
X68325000Y80500000D01*
X67825000Y80400000D02*
X68825000Y80400000D01*
X67575000Y83600000D02*
X67575000Y78200000D01*
X67575000Y78200000D02*
X69075000Y78200000D01*
X69075000Y78200000D02*
X69075000Y83600000D01*
X69075000Y83600000D02*
X67575000Y83600000D01*
%TO.C,D2*%
X88400000Y80650000D02*
X87900000Y81550000D01*
X87900000Y81550000D02*
X88900000Y81550000D01*
X88900000Y81550000D02*
X88400000Y80650000D01*
X87900000Y80550000D02*
X88900000Y80550000D01*
X87650000Y83750000D02*
X87650000Y78350000D01*
X87650000Y78350000D02*
X89150000Y78350000D01*
X89150000Y78350000D02*
X89150000Y83750000D01*
X89150000Y83750000D02*
X87650000Y83750000D01*
%TO.C,D3*%
X111265138Y79501522D02*
X110845481Y80441675D01*
X110845481Y80441675D02*
X111841675Y80354519D01*
X111841675Y80354519D02*
X111265138Y79501522D01*
X110758325Y79445481D02*
X111754519Y79358325D01*
X110788174Y82655092D02*
X110317533Y77275641D01*
X110317533Y77275641D02*
X111811826Y77144908D01*
X111811826Y77144908D02*
X112282467Y82524359D01*
X112282467Y82524359D02*
X110788174Y82655092D01*
%TO.C,D4*%
X130090138Y77876522D02*
X129670481Y78816675D01*
X129670481Y78816675D02*
X130666675Y78729519D01*
X130666675Y78729519D02*
X130090138Y77876522D01*
X129583325Y77820481D02*
X130579519Y77733325D01*
X129613174Y81030092D02*
X129142533Y75650641D01*
X129142533Y75650641D02*
X130636826Y75519908D01*
X130636826Y75519908D02*
X131107467Y80899359D01*
X131107467Y80899359D02*
X129613174Y81030092D01*
%TO.C,D5*%
X148940138Y76226522D02*
X148520481Y77166675D01*
X148520481Y77166675D02*
X149516675Y77079519D01*
X149516675Y77079519D02*
X148940138Y76226522D01*
X148433325Y76170481D02*
X149429519Y76083325D01*
X148463174Y79380092D02*
X147992533Y74000641D01*
X147992533Y74000641D02*
X149486826Y73869908D01*
X149486826Y73869908D02*
X149957467Y79249359D01*
X149957467Y79249359D02*
X148463174Y79380092D01*
%TO.C,D6*%
X160473478Y66190138D02*
X159533325Y65770481D01*
X159533325Y65770481D02*
X159620481Y66766675D01*
X159620481Y66766675D02*
X160473478Y66190138D01*
X160529519Y65683325D02*
X160616675Y66679519D01*
X157319908Y65713174D02*
X162699359Y65242533D01*
X162699359Y65242533D02*
X162830092Y66736826D01*
X162830092Y66736826D02*
X157450641Y67207467D01*
X157450641Y67207467D02*
X157319908Y65713174D01*
%TO.C,D7*%
X64525000Y53025000D02*
X64525000Y51525000D01*
X69925000Y53025000D02*
X64525000Y53025000D01*
X69925000Y51525000D02*
X69925000Y53025000D01*
X64525000Y51525000D02*
X69925000Y51525000D01*
X67725000Y51775000D02*
X67725000Y52775000D01*
X66725000Y52775000D02*
X67625000Y52275000D01*
X66725000Y51775000D02*
X66725000Y52775000D01*
X67625000Y52275000D02*
X66725000Y51775000D01*
%TO.C,D8*%
X90800000Y52850000D02*
X90800000Y51350000D01*
X96200000Y52850000D02*
X90800000Y52850000D01*
X96200000Y51350000D02*
X96200000Y52850000D01*
X90800000Y51350000D02*
X96200000Y51350000D01*
X94000000Y51600000D02*
X94000000Y52600000D01*
X93000000Y52600000D02*
X93900000Y52100000D01*
X93000000Y51600000D02*
X93000000Y52600000D01*
X93900000Y52100000D02*
X93000000Y51600000D01*
%TO.C,D9*%
X106775641Y52107467D02*
X106644908Y50613174D01*
X112155092Y51636826D02*
X106775641Y52107467D01*
X112024359Y50142533D02*
X112155092Y51636826D01*
X106644908Y50613174D02*
X112024359Y50142533D01*
X109854519Y50583325D02*
X109941675Y51579519D01*
X108945481Y51666675D02*
X109798478Y51090138D01*
X108858325Y50670481D02*
X108945481Y51666675D01*
X109798478Y51090138D02*
X108858325Y50670481D01*
%TO.C,D10*%
X130075641Y50307467D02*
X129944908Y48813174D01*
X135455092Y49836826D02*
X130075641Y50307467D01*
X135324359Y48342533D02*
X135455092Y49836826D01*
X129944908Y48813174D02*
X135324359Y48342533D01*
X133154519Y48783325D02*
X133241675Y49779519D01*
X132245481Y49866675D02*
X133098478Y49290138D01*
X132158325Y48870481D02*
X132245481Y49866675D01*
X133098478Y49290138D02*
X132158325Y48870481D01*
%TO.C,D11*%
X148425641Y48632467D02*
X148294908Y47138174D01*
X153805092Y48161826D02*
X148425641Y48632467D01*
X153674359Y46667533D02*
X153805092Y48161826D01*
X148294908Y47138174D02*
X153674359Y46667533D01*
X151504519Y47108325D02*
X151591675Y48104519D01*
X150595481Y48191675D02*
X151448478Y47615138D01*
X150508325Y47195481D02*
X150595481Y48191675D01*
X151448478Y47615138D02*
X150508325Y47195481D01*
%TO.C,D12*%
X173523478Y45915138D02*
X172583325Y45495481D01*
X172583325Y45495481D02*
X172670481Y46491675D01*
X172670481Y46491675D02*
X173523478Y45915138D01*
X173579519Y45408325D02*
X173666675Y46404519D01*
X170369908Y45438174D02*
X175749359Y44967533D01*
X175749359Y44967533D02*
X175880092Y46461826D01*
X175880092Y46461826D02*
X170500641Y46932467D01*
X170500641Y46932467D02*
X170369908Y45438174D01*
%TO.C,D13*%
X71450000Y44725000D02*
X71950000Y43825000D01*
X71950000Y43825000D02*
X70950000Y43825000D01*
X70950000Y43825000D02*
X71450000Y44725000D01*
X71950000Y44825000D02*
X70950000Y44825000D01*
X72200000Y41625000D02*
X72200000Y47025000D01*
X72200000Y47025000D02*
X70700000Y47025000D01*
X70700000Y47025000D02*
X70700000Y41625000D01*
X70700000Y41625000D02*
X72200000Y41625000D01*
%TO.C,D14*%
X97700000Y44425000D02*
X98200000Y43525000D01*
X98200000Y43525000D02*
X97200000Y43525000D01*
X97200000Y43525000D02*
X97700000Y44425000D01*
X98200000Y44525000D02*
X97200000Y44525000D01*
X98450000Y41325000D02*
X98450000Y46725000D01*
X98450000Y46725000D02*
X96950000Y46725000D01*
X96950000Y46725000D02*
X96950000Y41325000D01*
X96950000Y41325000D02*
X98450000Y41325000D01*
%TO.C,D15*%
X119109862Y42873478D02*
X119529519Y41933325D01*
X119529519Y41933325D02*
X118533325Y42020481D01*
X118533325Y42020481D02*
X119109862Y42873478D01*
X119616675Y42929519D02*
X118620481Y43016675D01*
X119586826Y39719908D02*
X120057467Y45099359D01*
X120057467Y45099359D02*
X118563174Y45230092D01*
X118563174Y45230092D02*
X118092533Y39850641D01*
X118092533Y39850641D02*
X119586826Y39719908D01*
%TO.C,D16*%
X138159862Y41198478D02*
X138579519Y40258325D01*
X138579519Y40258325D02*
X137583325Y40345481D01*
X137583325Y40345481D02*
X138159862Y41198478D01*
X138666675Y41254519D02*
X137670481Y41341675D01*
X138636826Y38044908D02*
X139107467Y43424359D01*
X139107467Y43424359D02*
X137613174Y43555092D01*
X137613174Y43555092D02*
X137142533Y38175641D01*
X137142533Y38175641D02*
X138636826Y38044908D01*
%TO.C,D17*%
X157234862Y40148478D02*
X157654519Y39208325D01*
X157654519Y39208325D02*
X156658325Y39295481D01*
X156658325Y39295481D02*
X157234862Y40148478D01*
X157741675Y40204519D02*
X156745481Y40291675D01*
X157711826Y36994908D02*
X158182467Y42374359D01*
X158182467Y42374359D02*
X156688174Y42505092D01*
X156688174Y42505092D02*
X156217533Y37125641D01*
X156217533Y37125641D02*
X157711826Y36994908D01*
%TO.C,D18*%
X175192533Y34825641D02*
X176686826Y34694908D01*
X175663174Y40205092D02*
X175192533Y34825641D01*
X177157467Y40074359D02*
X175663174Y40205092D01*
X176686826Y34694908D02*
X177157467Y40074359D01*
X176716675Y37904519D02*
X175720481Y37991675D01*
X175633325Y36995481D02*
X176209862Y37848478D01*
X176629519Y36908325D02*
X175633325Y36995481D01*
X176209862Y37848478D02*
X176629519Y36908325D01*
%TO.C,D19*%
X197548338Y64892875D02*
X197417605Y66387168D01*
X192168887Y64422234D02*
X197548338Y64892875D01*
X192038154Y65916527D02*
X192168887Y64422234D01*
X197417605Y66387168D02*
X192038154Y65916527D01*
X194251571Y65859220D02*
X194338727Y64863026D01*
X195334921Y64950182D02*
X194394768Y65369839D01*
X195247765Y65946376D02*
X195334921Y64950182D01*
X194394768Y65369839D02*
X195247765Y65946376D01*
%TO.C,D20*%
X216530092Y66513174D02*
X216399359Y68007467D01*
X211150641Y66042533D02*
X216530092Y66513174D01*
X211019908Y67536826D02*
X211150641Y66042533D01*
X216399359Y68007467D02*
X211019908Y67536826D01*
X213233325Y67479519D02*
X213320481Y66483325D01*
X214316675Y66570481D02*
X213376522Y66990138D01*
X214229519Y67566675D02*
X214316675Y66570481D01*
X213376522Y66990138D02*
X214229519Y67566675D01*
%TO.C,D21*%
X235680092Y68038174D02*
X235549359Y69532467D01*
X230300641Y67567533D02*
X235680092Y68038174D01*
X230169908Y69061826D02*
X230300641Y67567533D01*
X235549359Y69532467D02*
X230169908Y69061826D01*
X232383325Y69004519D02*
X232470481Y68008325D01*
X233466675Y68095481D02*
X232526522Y68515138D01*
X233379519Y69091675D02*
X233466675Y68095481D01*
X232526522Y68515138D02*
X233379519Y69091675D01*
%TO.C,D22*%
X255105092Y69938174D02*
X254974359Y71432467D01*
X249725641Y69467533D02*
X255105092Y69938174D01*
X249594908Y70961826D02*
X249725641Y69467533D01*
X254974359Y71432467D02*
X249594908Y70961826D01*
X251808325Y70904519D02*
X251895481Y69908325D01*
X252891675Y69995481D02*
X251951522Y70415138D01*
X252804519Y70991675D02*
X252891675Y69995481D01*
X251951522Y70415138D02*
X252804519Y70991675D01*
%TO.C,D23*%
X275125000Y70875000D02*
X275125000Y72375000D01*
X269725000Y70875000D02*
X275125000Y70875000D01*
X269725000Y72375000D02*
X269725000Y70875000D01*
X275125000Y72375000D02*
X269725000Y72375000D01*
X271925000Y72125000D02*
X271925000Y71125000D01*
X272925000Y71125000D02*
X272025000Y71625000D01*
X272925000Y72125000D02*
X272925000Y71125000D01*
X272025000Y71625000D02*
X272925000Y72125000D01*
%TO.C,D24*%
X293175000Y71625000D02*
X294075000Y72125000D01*
X294075000Y72125000D02*
X294075000Y71125000D01*
X294075000Y71125000D02*
X293175000Y71625000D01*
X293075000Y72125000D02*
X293075000Y71125000D01*
X296275000Y72375000D02*
X290875000Y72375000D01*
X290875000Y72375000D02*
X290875000Y70875000D01*
X290875000Y70875000D02*
X296275000Y70875000D01*
X296275000Y70875000D02*
X296275000Y72375000D01*
%TO.C,D25*%
X200651522Y46515138D02*
X201504519Y47091675D01*
X201504519Y47091675D02*
X201591675Y46095481D01*
X201591675Y46095481D02*
X200651522Y46515138D01*
X200508325Y47004519D02*
X200595481Y46008325D01*
X203674359Y47532467D02*
X198294908Y47061826D01*
X198294908Y47061826D02*
X198425641Y45567533D01*
X198425641Y45567533D02*
X203805092Y46038174D01*
X203805092Y46038174D02*
X203674359Y47532467D01*
%TO.C,D26*%
X219469768Y48494839D02*
X220322765Y49071376D01*
X220322765Y49071376D02*
X220409921Y48075182D01*
X220409921Y48075182D02*
X219469768Y48494839D01*
X219326571Y48984220D02*
X219413727Y47988026D01*
X222492605Y49512168D02*
X217113154Y49041527D01*
X217113154Y49041527D02*
X217243887Y47547234D01*
X217243887Y47547234D02*
X222623338Y48017875D01*
X222623338Y48017875D02*
X222492605Y49512168D01*
%TO.C,D27*%
X238419768Y50119839D02*
X239272765Y50696376D01*
X239272765Y50696376D02*
X239359921Y49700182D01*
X239359921Y49700182D02*
X238419768Y50119839D01*
X238276571Y50609220D02*
X238363727Y49613026D01*
X241442605Y51137168D02*
X236063154Y50666527D01*
X236063154Y50666527D02*
X236193887Y49172234D01*
X236193887Y49172234D02*
X241573338Y49642875D01*
X241573338Y49642875D02*
X241442605Y51137168D01*
%TO.C,D28*%
X257626522Y51515138D02*
X258479519Y52091675D01*
X258479519Y52091675D02*
X258566675Y51095481D01*
X258566675Y51095481D02*
X257626522Y51515138D01*
X257483325Y52004519D02*
X257570481Y51008325D01*
X260649359Y52532467D02*
X255269908Y52061826D01*
X255269908Y52061826D02*
X255400641Y50567533D01*
X255400641Y50567533D02*
X260780092Y51038174D01*
X260780092Y51038174D02*
X260649359Y52532467D01*
%TO.C,D29*%
X277575000Y52550000D02*
X278475000Y53050000D01*
X278475000Y53050000D02*
X278475000Y52050000D01*
X278475000Y52050000D02*
X277575000Y52550000D01*
X277475000Y53050000D02*
X277475000Y52050000D01*
X280675000Y53300000D02*
X275275000Y53300000D01*
X275275000Y53300000D02*
X275275000Y51800000D01*
X275275000Y51800000D02*
X280675000Y51800000D01*
X280675000Y51800000D02*
X280675000Y53300000D01*
%TO.C,D30*%
X301850000Y51575000D02*
X301850000Y53075000D01*
X296450000Y51575000D02*
X301850000Y51575000D01*
X296450000Y53075000D02*
X296450000Y51575000D01*
X301850000Y53075000D02*
X296450000Y53075000D01*
X298650000Y52825000D02*
X298650000Y51825000D01*
X299650000Y51825000D02*
X298750000Y52325000D01*
X299650000Y52825000D02*
X299650000Y51825000D01*
X298750000Y52325000D02*
X299650000Y52825000D01*
%TO.C,D31*%
X197463174Y35569908D02*
X198957467Y35700641D01*
X196992533Y40949359D02*
X197463174Y35569908D01*
X198486826Y41080092D02*
X196992533Y40949359D01*
X198957467Y35700641D02*
X198486826Y41080092D01*
X198429519Y38866675D02*
X197433325Y38779519D01*
X197520481Y37783325D02*
X197940138Y38723478D01*
X198516675Y37870481D02*
X197520481Y37783325D01*
X197940138Y38723478D02*
X198516675Y37870481D01*
%TO.C,D32*%
X216617875Y37151662D02*
X218112168Y37282395D01*
X216147234Y42531113D02*
X216617875Y37151662D01*
X217641527Y42661846D02*
X216147234Y42531113D01*
X218112168Y37282395D02*
X217641527Y42661846D01*
X217584220Y40448429D02*
X216588026Y40361273D01*
X216675182Y39365079D02*
X217094839Y40305232D01*
X217671376Y39452235D02*
X216675182Y39365079D01*
X217094839Y40305232D02*
X217671376Y39452235D01*
%TO.C,D33*%
X235463174Y38769908D02*
X236957467Y38900641D01*
X234992533Y44149359D02*
X235463174Y38769908D01*
X236486826Y44280092D02*
X234992533Y44149359D01*
X236957467Y38900641D02*
X236486826Y44280092D01*
X236429519Y42066675D02*
X235433325Y41979519D01*
X235520481Y40983325D02*
X235940138Y41923478D01*
X236516675Y41070481D02*
X235520481Y40983325D01*
X235940138Y41923478D02*
X236516675Y41070481D01*
%TO.C,D34*%
X254563174Y39744908D02*
X256057467Y39875641D01*
X254092533Y45124359D02*
X254563174Y39744908D01*
X255586826Y45255092D02*
X254092533Y45124359D01*
X256057467Y39875641D02*
X255586826Y45255092D01*
X255529519Y43041675D02*
X254533325Y42954519D01*
X254620481Y41958325D02*
X255040138Y42898478D01*
X255616675Y42045481D02*
X254620481Y41958325D01*
X255040138Y42898478D02*
X255616675Y42045481D01*
%TO.C,D35*%
X277825000Y40375000D02*
X279325000Y40375000D01*
X277825000Y45775000D02*
X277825000Y40375000D01*
X279325000Y45775000D02*
X277825000Y45775000D01*
X279325000Y40375000D02*
X279325000Y45775000D01*
X279075000Y43575000D02*
X278075000Y43575000D01*
X278075000Y42575000D02*
X278575000Y43475000D01*
X279075000Y42575000D02*
X278075000Y42575000D01*
X278575000Y43475000D02*
X279075000Y42575000D01*
%TO.C,D36*%
X303950000Y40375000D02*
X305450000Y40375000D01*
X303950000Y45775000D02*
X303950000Y40375000D01*
X305450000Y45775000D02*
X303950000Y45775000D01*
X305450000Y40375000D02*
X305450000Y45775000D01*
X305200000Y43575000D02*
X304200000Y43575000D01*
X304200000Y42575000D02*
X304700000Y43475000D01*
X305200000Y42575000D02*
X304200000Y42575000D01*
X304700000Y43475000D02*
X305200000Y42575000D01*
%TO.C,SW37*%
X192700000Y85600000D02*
X192450000Y85600000D01*
X192700000Y91600000D02*
X192700000Y85600000D01*
X192450000Y91600000D02*
X192700000Y91600000D01*
X189200000Y91600000D02*
X189450000Y91600000D01*
X189200000Y85600000D02*
X189200000Y91600000D01*
X189450000Y85600000D02*
X189200000Y85600000D01*
%TO.C,U1*%
D12*
X174261190Y61828571D02*
X174165476Y61792857D01*
X174133571Y61757142D01*
X174101666Y61685714D01*
X174101666Y61578571D01*
X174133571Y61507142D01*
X174165476Y61471428D01*
X174229285Y61435714D01*
X174484523Y61435714D01*
X174484523Y62185714D01*
X174261190Y62185714D01*
X174197380Y62150000D01*
X174165476Y62114285D01*
X174133571Y62042857D01*
X174133571Y61971428D01*
X174165476Y61900000D01*
X174197380Y61864285D01*
X174261190Y61828571D01*
X174484523Y61828571D01*
X173527380Y61935714D02*
X173527380Y61435714D01*
X173686904Y62221428D02*
X173846428Y61685714D01*
X173431666Y61685714D01*
X172697857Y62221428D02*
X173272142Y61257142D01*
X172378809Y61864285D02*
X172442619Y61900000D01*
X172474523Y61935714D01*
X172506428Y62007142D01*
X172506428Y62042857D01*
X172474523Y62114285D01*
X172442619Y62150000D01*
X172378809Y62185714D01*
X172251190Y62185714D01*
X172187380Y62150000D01*
X172155476Y62114285D01*
X172123571Y62042857D01*
X172123571Y62007142D01*
X172155476Y61935714D01*
X172187380Y61900000D01*
X172251190Y61864285D01*
X172378809Y61864285D01*
X172442619Y61828571D01*
X172474523Y61792857D01*
X172506428Y61721428D01*
X172506428Y61578571D01*
X172474523Y61507142D01*
X172442619Y61471428D01*
X172378809Y61435714D01*
X172251190Y61435714D01*
X172187380Y61471428D01*
X172155476Y61507142D01*
X172123571Y61578571D01*
X172123571Y61721428D01*
X172155476Y61792857D01*
X172187380Y61828571D01*
X172251190Y61864285D01*
X175688571Y84135714D02*
X175688571Y84885714D01*
X175529047Y84885714D01*
X175433333Y84850000D01*
X175369523Y84778571D01*
X175337619Y84707142D01*
X175305714Y84564285D01*
X175305714Y84457142D01*
X175337619Y84314285D01*
X175369523Y84242857D01*
X175433333Y84171428D01*
X175529047Y84135714D01*
X175688571Y84135714D01*
X175050476Y84814285D02*
X175018571Y84850000D01*
X174954761Y84885714D01*
X174795238Y84885714D01*
X174731428Y84850000D01*
X174699523Y84814285D01*
X174667619Y84742857D01*
X174667619Y84671428D01*
X174699523Y84564285D01*
X175082380Y84135714D01*
X174667619Y84135714D01*
X173901904Y84921428D02*
X174476190Y83957142D01*
X173295714Y84135714D02*
X173519047Y84492857D01*
X173678571Y84135714D02*
X173678571Y84885714D01*
X173423333Y84885714D01*
X173359523Y84850000D01*
X173327619Y84814285D01*
X173295714Y84742857D01*
X173295714Y84635714D01*
X173327619Y84564285D01*
X173359523Y84528571D01*
X173423333Y84492857D01*
X173678571Y84492857D01*
X173072380Y84885714D02*
X172625714Y84135714D01*
X172625714Y84885714D02*
X173072380Y84135714D01*
X172019523Y84135714D02*
X172402380Y84135714D01*
X172210952Y84135714D02*
X172210952Y84885714D01*
X172274761Y84778571D01*
X172338571Y84707142D01*
X172402380Y84671428D01*
X174261190Y59328571D02*
X174165476Y59292857D01*
X174133571Y59257142D01*
X174101666Y59185714D01*
X174101666Y59078571D01*
X174133571Y59007142D01*
X174165476Y58971428D01*
X174229285Y58935714D01*
X174484523Y58935714D01*
X174484523Y59685714D01*
X174261190Y59685714D01*
X174197380Y59650000D01*
X174165476Y59614285D01*
X174133571Y59542857D01*
X174133571Y59471428D01*
X174165476Y59400000D01*
X174197380Y59364285D01*
X174261190Y59328571D01*
X174484523Y59328571D01*
X173495476Y59685714D02*
X173814523Y59685714D01*
X173846428Y59328571D01*
X173814523Y59364285D01*
X173750714Y59400000D01*
X173591190Y59400000D01*
X173527380Y59364285D01*
X173495476Y59328571D01*
X173463571Y59257142D01*
X173463571Y59078571D01*
X173495476Y59007142D01*
X173527380Y58971428D01*
X173591190Y58935714D01*
X173750714Y58935714D01*
X173814523Y58971428D01*
X173846428Y59007142D01*
X172697857Y59721428D02*
X173272142Y58757142D01*
X172442619Y58935714D02*
X172315000Y58935714D01*
X172251190Y58971428D01*
X172219285Y59007142D01*
X172155476Y59114285D01*
X172123571Y59257142D01*
X172123571Y59542857D01*
X172155476Y59614285D01*
X172187380Y59650000D01*
X172251190Y59685714D01*
X172378809Y59685714D01*
X172442619Y59650000D01*
X172474523Y59614285D01*
X172506428Y59542857D01*
X172506428Y59364285D01*
X172474523Y59292857D01*
X172442619Y59257142D01*
X172378809Y59221428D01*
X172251190Y59221428D01*
X172187380Y59257142D01*
X172155476Y59292857D01*
X172123571Y59364285D01*
X174101666Y69157142D02*
X174133571Y69121428D01*
X174229285Y69085714D01*
X174293095Y69085714D01*
X174388809Y69121428D01*
X174452619Y69192857D01*
X174484523Y69264285D01*
X174516428Y69407142D01*
X174516428Y69514285D01*
X174484523Y69657142D01*
X174452619Y69728571D01*
X174388809Y69800000D01*
X174293095Y69835714D01*
X174229285Y69835714D01*
X174133571Y69800000D01*
X174101666Y69764285D01*
X173527380Y69835714D02*
X173655000Y69835714D01*
X173718809Y69800000D01*
X173750714Y69764285D01*
X173814523Y69657142D01*
X173846428Y69514285D01*
X173846428Y69228571D01*
X173814523Y69157142D01*
X173782619Y69121428D01*
X173718809Y69085714D01*
X173591190Y69085714D01*
X173527380Y69121428D01*
X173495476Y69157142D01*
X173463571Y69228571D01*
X173463571Y69407142D01*
X173495476Y69478571D01*
X173527380Y69514285D01*
X173591190Y69550000D01*
X173718809Y69550000D01*
X173782619Y69514285D01*
X173814523Y69478571D01*
X173846428Y69407142D01*
X172697857Y69871428D02*
X173272142Y68907142D01*
X172155476Y69835714D02*
X172474523Y69835714D01*
X172506428Y69478571D01*
X172474523Y69514285D01*
X172410714Y69550000D01*
X172251190Y69550000D01*
X172187380Y69514285D01*
X172155476Y69478571D01*
X172123571Y69407142D01*
X172123571Y69228571D01*
X172155476Y69157142D01*
X172187380Y69121428D01*
X172251190Y69085714D01*
X172410714Y69085714D01*
X172474523Y69121428D01*
X172506428Y69157142D01*
X177042619Y74171428D02*
X176946904Y74135714D01*
X176787380Y74135714D01*
X176723571Y74171428D01*
X176691666Y74207142D01*
X176659761Y74278571D01*
X176659761Y74350000D01*
X176691666Y74421428D01*
X176723571Y74457142D01*
X176787380Y74492857D01*
X176915000Y74528571D01*
X176978809Y74564285D01*
X177010714Y74600000D01*
X177042619Y74671428D01*
X177042619Y74742857D01*
X177010714Y74814285D01*
X176978809Y74850000D01*
X176915000Y74885714D01*
X176755476Y74885714D01*
X176659761Y74850000D01*
X175989761Y74207142D02*
X176021666Y74171428D01*
X176117380Y74135714D01*
X176181190Y74135714D01*
X176276904Y74171428D01*
X176340714Y74242857D01*
X176372619Y74314285D01*
X176404523Y74457142D01*
X176404523Y74564285D01*
X176372619Y74707142D01*
X176340714Y74778571D01*
X176276904Y74850000D01*
X176181190Y74885714D01*
X176117380Y74885714D01*
X176021666Y74850000D01*
X175989761Y74814285D01*
X175383571Y74135714D02*
X175702619Y74135714D01*
X175702619Y74885714D01*
X174681666Y74921428D02*
X175255952Y73957142D01*
X174458333Y74135714D02*
X174458333Y74885714D01*
X174298809Y74885714D01*
X174203095Y74850000D01*
X174139285Y74778571D01*
X174107380Y74707142D01*
X174075476Y74564285D01*
X174075476Y74457142D01*
X174107380Y74314285D01*
X174139285Y74242857D01*
X174203095Y74171428D01*
X174298809Y74135714D01*
X174458333Y74135714D01*
X173660714Y74885714D02*
X173596904Y74885714D01*
X173533095Y74850000D01*
X173501190Y74814285D01*
X173469285Y74742857D01*
X173437380Y74600000D01*
X173437380Y74421428D01*
X173469285Y74278571D01*
X173501190Y74207142D01*
X173533095Y74171428D01*
X173596904Y74135714D01*
X173660714Y74135714D01*
X173724523Y74171428D01*
X173756428Y74207142D01*
X173788333Y74278571D01*
X173820238Y74421428D01*
X173820238Y74600000D01*
X173788333Y74742857D01*
X173756428Y74814285D01*
X173724523Y74850000D01*
X173660714Y74885714D01*
X172671666Y74921428D02*
X173245952Y73957142D01*
X172512142Y74885714D02*
X172097380Y74885714D01*
X172320714Y74600000D01*
X172225000Y74600000D01*
X172161190Y74564285D01*
X172129285Y74528571D01*
X172097380Y74457142D01*
X172097380Y74278571D01*
X172129285Y74207142D01*
X172161190Y74171428D01*
X172225000Y74135714D01*
X172416428Y74135714D01*
X172480238Y74171428D01*
X172512142Y74207142D01*
X177058571Y76671428D02*
X176962857Y76635714D01*
X176803333Y76635714D01*
X176739523Y76671428D01*
X176707619Y76707142D01*
X176675714Y76778571D01*
X176675714Y76850000D01*
X176707619Y76921428D01*
X176739523Y76957142D01*
X176803333Y76992857D01*
X176930952Y77028571D01*
X176994761Y77064285D01*
X177026666Y77100000D01*
X177058571Y77171428D01*
X177058571Y77242857D01*
X177026666Y77314285D01*
X176994761Y77350000D01*
X176930952Y77385714D01*
X176771428Y77385714D01*
X176675714Y77350000D01*
X176388571Y76635714D02*
X176388571Y77385714D01*
X176229047Y77385714D01*
X176133333Y77350000D01*
X176069523Y77278571D01*
X176037619Y77207142D01*
X176005714Y77064285D01*
X176005714Y76957142D01*
X176037619Y76814285D01*
X176069523Y76742857D01*
X176133333Y76671428D01*
X176229047Y76635714D01*
X176388571Y76635714D01*
X175750476Y76850000D02*
X175431428Y76850000D01*
X175814285Y76635714D02*
X175590952Y77385714D01*
X175367619Y76635714D01*
X174665714Y77421428D02*
X175240000Y76457142D01*
X174442380Y76635714D02*
X174442380Y77385714D01*
X174282857Y77385714D01*
X174187142Y77350000D01*
X174123333Y77278571D01*
X174091428Y77207142D01*
X174059523Y77064285D01*
X174059523Y76957142D01*
X174091428Y76814285D01*
X174123333Y76742857D01*
X174187142Y76671428D01*
X174282857Y76635714D01*
X174442380Y76635714D01*
X173421428Y76635714D02*
X173804285Y76635714D01*
X173612857Y76635714D02*
X173612857Y77385714D01*
X173676666Y77278571D01*
X173740476Y77207142D01*
X173804285Y77171428D01*
X172655714Y77421428D02*
X173230000Y76457142D01*
X172464285Y77314285D02*
X172432380Y77350000D01*
X172368571Y77385714D01*
X172209047Y77385714D01*
X172145238Y77350000D01*
X172113333Y77314285D01*
X172081428Y77242857D01*
X172081428Y77171428D01*
X172113333Y77064285D01*
X172496190Y76635714D01*
X172081428Y76635714D01*
X174484523Y71635714D02*
X174484523Y72385714D01*
X174325000Y72385714D01*
X174229285Y72350000D01*
X174165476Y72278571D01*
X174133571Y72207142D01*
X174101666Y72064285D01*
X174101666Y71957142D01*
X174133571Y71814285D01*
X174165476Y71742857D01*
X174229285Y71671428D01*
X174325000Y71635714D01*
X174484523Y71635714D01*
X173527380Y72135714D02*
X173527380Y71635714D01*
X173686904Y72421428D02*
X173846428Y71885714D01*
X173431666Y71885714D01*
X172697857Y72421428D02*
X173272142Y71457142D01*
X172187380Y72135714D02*
X172187380Y71635714D01*
X172346904Y72421428D02*
X172506428Y71885714D01*
X172091666Y71885714D01*
X175608809Y86685714D02*
X175608809Y87435714D01*
X175449285Y87435714D01*
X175353571Y87400000D01*
X175289761Y87328571D01*
X175257857Y87257142D01*
X175225952Y87114285D01*
X175225952Y87007142D01*
X175257857Y86864285D01*
X175289761Y86792857D01*
X175353571Y86721428D01*
X175449285Y86685714D01*
X175608809Y86685714D01*
X175002619Y87435714D02*
X174587857Y87435714D01*
X174811190Y87150000D01*
X174715476Y87150000D01*
X174651666Y87114285D01*
X174619761Y87078571D01*
X174587857Y87007142D01*
X174587857Y86828571D01*
X174619761Y86757142D01*
X174651666Y86721428D01*
X174715476Y86685714D01*
X174906904Y86685714D01*
X174970714Y86721428D01*
X175002619Y86757142D01*
X173822142Y87471428D02*
X174396428Y86507142D01*
X173694523Y87435714D02*
X173311666Y87435714D01*
X173503095Y86685714D02*
X173503095Y87435714D01*
X173152142Y87435714D02*
X172705476Y86685714D01*
X172705476Y87435714D02*
X173152142Y86685714D01*
X172322619Y87435714D02*
X172258809Y87435714D01*
X172195000Y87400000D01*
X172163095Y87364285D01*
X172131190Y87292857D01*
X172099285Y87150000D01*
X172099285Y86971428D01*
X172131190Y86828571D01*
X172163095Y86757142D01*
X172195000Y86721428D01*
X172258809Y86685714D01*
X172322619Y86685714D01*
X172386428Y86721428D01*
X172418333Y86757142D01*
X172450238Y86828571D01*
X172482142Y86971428D01*
X172482142Y87150000D01*
X172450238Y87292857D01*
X172418333Y87364285D01*
X172386428Y87400000D01*
X172322619Y87435714D01*
X173580476Y79850000D02*
X173644285Y79885714D01*
X173740000Y79885714D01*
X173835714Y79850000D01*
X173899523Y79778571D01*
X173931428Y79707142D01*
X173963333Y79564285D01*
X173963333Y79457142D01*
X173931428Y79314285D01*
X173899523Y79242857D01*
X173835714Y79171428D01*
X173740000Y79135714D01*
X173676190Y79135714D01*
X173580476Y79171428D01*
X173548571Y79207142D01*
X173548571Y79457142D01*
X173676190Y79457142D01*
X173261428Y79135714D02*
X173261428Y79885714D01*
X172878571Y79135714D01*
X172878571Y79885714D01*
X172559523Y79135714D02*
X172559523Y79885714D01*
X172400000Y79885714D01*
X172304285Y79850000D01*
X172240476Y79778571D01*
X172208571Y79707142D01*
X172176666Y79564285D01*
X172176666Y79457142D01*
X172208571Y79314285D01*
X172240476Y79242857D01*
X172304285Y79171428D01*
X172400000Y79135714D01*
X172559523Y79135714D01*
X172559523Y81550000D02*
X172495714Y81514285D01*
X172400000Y81514285D01*
X172304285Y81550000D01*
X172240476Y81621428D01*
X172208571Y81692857D01*
X172176666Y81835714D01*
X172176666Y81942857D01*
X172208571Y82085714D01*
X172240476Y82157142D01*
X172304285Y82228571D01*
X172400000Y82264285D01*
X172463809Y82264285D01*
X172559523Y82228571D01*
X172591428Y82192857D01*
X172591428Y81942857D01*
X172463809Y81942857D01*
X172878571Y82264285D02*
X172878571Y81514285D01*
X173261428Y82264285D01*
X173261428Y81514285D01*
X173580476Y82264285D02*
X173580476Y81514285D01*
X173740000Y81514285D01*
X173835714Y81550000D01*
X173899523Y81621428D01*
X173931428Y81692857D01*
X173963333Y81835714D01*
X173963333Y81942857D01*
X173931428Y82085714D01*
X173899523Y82157142D01*
X173835714Y82228571D01*
X173740000Y82264285D01*
X173580476Y82264285D01*
X174484523Y66535714D02*
X174484523Y67285714D01*
X174325000Y67285714D01*
X174229285Y67250000D01*
X174165476Y67178571D01*
X174133571Y67107142D01*
X174101666Y66964285D01*
X174101666Y66857142D01*
X174133571Y66714285D01*
X174165476Y66642857D01*
X174229285Y66571428D01*
X174325000Y66535714D01*
X174484523Y66535714D01*
X173878333Y67285714D02*
X173431666Y67285714D01*
X173718809Y66535714D01*
X172697857Y67321428D02*
X173272142Y66357142D01*
X172187380Y67285714D02*
X172315000Y67285714D01*
X172378809Y67250000D01*
X172410714Y67214285D01*
X172474523Y67107142D01*
X172506428Y66964285D01*
X172506428Y66678571D01*
X172474523Y66607142D01*
X172442619Y66571428D01*
X172378809Y66535714D01*
X172251190Y66535714D01*
X172187380Y66571428D01*
X172155476Y66607142D01*
X172123571Y66678571D01*
X172123571Y66857142D01*
X172155476Y66928571D01*
X172187380Y66964285D01*
X172251190Y67000000D01*
X172378809Y67000000D01*
X172442619Y66964285D01*
X172474523Y66928571D01*
X172506428Y66857142D01*
X174452619Y64378571D02*
X174229285Y64378571D01*
X174133571Y63985714D02*
X174452619Y63985714D01*
X174452619Y64735714D01*
X174133571Y64735714D01*
X173559285Y64735714D02*
X173686904Y64735714D01*
X173750714Y64700000D01*
X173782619Y64664285D01*
X173846428Y64557142D01*
X173878333Y64414285D01*
X173878333Y64128571D01*
X173846428Y64057142D01*
X173814523Y64021428D01*
X173750714Y63985714D01*
X173623095Y63985714D01*
X173559285Y64021428D01*
X173527380Y64057142D01*
X173495476Y64128571D01*
X173495476Y64307142D01*
X173527380Y64378571D01*
X173559285Y64414285D01*
X173623095Y64450000D01*
X173750714Y64450000D01*
X173814523Y64414285D01*
X173846428Y64378571D01*
X173878333Y64307142D01*
X172729761Y64771428D02*
X173304047Y63807142D01*
X172570238Y64735714D02*
X172123571Y64735714D01*
X172410714Y63985714D01*
X183552619Y61285714D02*
X183935476Y61285714D01*
X183744047Y61285714D02*
X183744047Y62035714D01*
X183807857Y61928571D01*
X183871666Y61857142D01*
X183935476Y61821428D01*
X182978333Y62035714D02*
X183105952Y62035714D01*
X183169761Y62000000D01*
X183201666Y61964285D01*
X183265476Y61857142D01*
X183297380Y61714285D01*
X183297380Y61428571D01*
X183265476Y61357142D01*
X183233571Y61321428D01*
X183169761Y61285714D01*
X183042142Y61285714D01*
X182978333Y61321428D01*
X182946428Y61357142D01*
X182914523Y61428571D01*
X182914523Y61607142D01*
X182946428Y61678571D01*
X182978333Y61714285D01*
X183042142Y61750000D01*
X183169761Y61750000D01*
X183233571Y61714285D01*
X183265476Y61678571D01*
X183297380Y61607142D01*
X182148809Y62071428D02*
X182723095Y61107142D01*
X181702142Y61678571D02*
X181606428Y61642857D01*
X181574523Y61607142D01*
X181542619Y61535714D01*
X181542619Y61428571D01*
X181574523Y61357142D01*
X181606428Y61321428D01*
X181670238Y61285714D01*
X181925476Y61285714D01*
X181925476Y62035714D01*
X181702142Y62035714D01*
X181638333Y62000000D01*
X181606428Y61964285D01*
X181574523Y61892857D01*
X181574523Y61821428D01*
X181606428Y61750000D01*
X181638333Y61714285D01*
X181702142Y61678571D01*
X181925476Y61678571D01*
X181287380Y61964285D02*
X181255476Y62000000D01*
X181191666Y62035714D01*
X181032142Y62035714D01*
X180968333Y62000000D01*
X180936428Y61964285D01*
X180904523Y61892857D01*
X180904523Y61821428D01*
X180936428Y61714285D01*
X181319285Y61285714D01*
X180904523Y61285714D01*
X183552619Y58785714D02*
X183935476Y58785714D01*
X183744047Y58785714D02*
X183744047Y59535714D01*
X183807857Y59428571D01*
X183871666Y59357142D01*
X183935476Y59321428D01*
X183137857Y59535714D02*
X183074047Y59535714D01*
X183010238Y59500000D01*
X182978333Y59464285D01*
X182946428Y59392857D01*
X182914523Y59250000D01*
X182914523Y59071428D01*
X182946428Y58928571D01*
X182978333Y58857142D01*
X183010238Y58821428D01*
X183074047Y58785714D01*
X183137857Y58785714D01*
X183201666Y58821428D01*
X183233571Y58857142D01*
X183265476Y58928571D01*
X183297380Y59071428D01*
X183297380Y59250000D01*
X183265476Y59392857D01*
X183233571Y59464285D01*
X183201666Y59500000D01*
X183137857Y59535714D01*
X182148809Y59571428D02*
X182723095Y58607142D01*
X181702142Y59178571D02*
X181606428Y59142857D01*
X181574523Y59107142D01*
X181542619Y59035714D01*
X181542619Y58928571D01*
X181574523Y58857142D01*
X181606428Y58821428D01*
X181670238Y58785714D01*
X181925476Y58785714D01*
X181925476Y59535714D01*
X181702142Y59535714D01*
X181638333Y59500000D01*
X181606428Y59464285D01*
X181574523Y59392857D01*
X181574523Y59321428D01*
X181606428Y59250000D01*
X181638333Y59214285D01*
X181702142Y59178571D01*
X181925476Y59178571D01*
X180968333Y59535714D02*
X181095952Y59535714D01*
X181159761Y59500000D01*
X181191666Y59464285D01*
X181255476Y59357142D01*
X181287380Y59214285D01*
X181287380Y58928571D01*
X181255476Y58857142D01*
X181223571Y58821428D01*
X181159761Y58785714D01*
X181032142Y58785714D01*
X180968333Y58821428D01*
X180936428Y58857142D01*
X180904523Y58928571D01*
X180904523Y59107142D01*
X180936428Y59178571D01*
X180968333Y59214285D01*
X181032142Y59250000D01*
X181159761Y59250000D01*
X181223571Y59214285D01*
X181255476Y59178571D01*
X181287380Y59107142D01*
X183552619Y63835714D02*
X183935476Y63835714D01*
X183744047Y63835714D02*
X183744047Y64585714D01*
X183807857Y64478571D01*
X183871666Y64407142D01*
X183935476Y64371428D01*
X182978333Y64335714D02*
X182978333Y63835714D01*
X183137857Y64621428D02*
X183297380Y64085714D01*
X182882619Y64085714D01*
X182148809Y64621428D02*
X182723095Y63657142D01*
X181702142Y64228571D02*
X181606428Y64192857D01*
X181574523Y64157142D01*
X181542619Y64085714D01*
X181542619Y63978571D01*
X181574523Y63907142D01*
X181606428Y63871428D01*
X181670238Y63835714D01*
X181925476Y63835714D01*
X181925476Y64585714D01*
X181702142Y64585714D01*
X181638333Y64550000D01*
X181606428Y64514285D01*
X181574523Y64442857D01*
X181574523Y64371428D01*
X181606428Y64300000D01*
X181638333Y64264285D01*
X181702142Y64228571D01*
X181925476Y64228571D01*
X181319285Y64585714D02*
X180904523Y64585714D01*
X181127857Y64300000D01*
X181032142Y64300000D01*
X180968333Y64264285D01*
X180936428Y64228571D01*
X180904523Y64157142D01*
X180904523Y63978571D01*
X180936428Y63907142D01*
X180968333Y63871428D01*
X181032142Y63835714D01*
X181223571Y63835714D01*
X181287380Y63871428D01*
X181319285Y63907142D01*
X183552619Y66385714D02*
X183935476Y66385714D01*
X183744047Y66385714D02*
X183744047Y67135714D01*
X183807857Y67028571D01*
X183871666Y66957142D01*
X183935476Y66921428D01*
X182946428Y67135714D02*
X183265476Y67135714D01*
X183297380Y66778571D01*
X183265476Y66814285D01*
X183201666Y66850000D01*
X183042142Y66850000D01*
X182978333Y66814285D01*
X182946428Y66778571D01*
X182914523Y66707142D01*
X182914523Y66528571D01*
X182946428Y66457142D01*
X182978333Y66421428D01*
X183042142Y66385714D01*
X183201666Y66385714D01*
X183265476Y66421428D01*
X183297380Y66457142D01*
X182148809Y67171428D02*
X182723095Y66207142D01*
X181702142Y66778571D02*
X181606428Y66742857D01*
X181574523Y66707142D01*
X181542619Y66635714D01*
X181542619Y66528571D01*
X181574523Y66457142D01*
X181606428Y66421428D01*
X181670238Y66385714D01*
X181925476Y66385714D01*
X181925476Y67135714D01*
X181702142Y67135714D01*
X181638333Y67100000D01*
X181606428Y67064285D01*
X181574523Y66992857D01*
X181574523Y66921428D01*
X181606428Y66850000D01*
X181638333Y66814285D01*
X181702142Y66778571D01*
X181925476Y66778571D01*
X180904523Y66385714D02*
X181287380Y66385714D01*
X181095952Y66385714D02*
X181095952Y67135714D01*
X181159761Y67028571D01*
X181223571Y66957142D01*
X181287380Y66921428D01*
X183855714Y69150000D02*
X183536666Y69150000D01*
X183919523Y68935714D02*
X183696190Y69685714D01*
X183472857Y68935714D01*
X183121904Y69685714D02*
X183058095Y69685714D01*
X182994285Y69650000D01*
X182962380Y69614285D01*
X182930476Y69542857D01*
X182898571Y69400000D01*
X182898571Y69221428D01*
X182930476Y69078571D01*
X182962380Y69007142D01*
X182994285Y68971428D01*
X183058095Y68935714D01*
X183121904Y68935714D01*
X183185714Y68971428D01*
X183217619Y69007142D01*
X183249523Y69078571D01*
X183281428Y69221428D01*
X183281428Y69400000D01*
X183249523Y69542857D01*
X183217619Y69614285D01*
X183185714Y69650000D01*
X183121904Y69685714D01*
X182132857Y69721428D02*
X182707142Y68757142D01*
X181686190Y69328571D02*
X181909523Y69328571D01*
X181909523Y68935714D02*
X181909523Y69685714D01*
X181590476Y69685714D01*
X181399047Y69685714D02*
X180952380Y69685714D01*
X181239523Y68935714D01*
X183855714Y71700000D02*
X183536666Y71700000D01*
X183919523Y71485714D02*
X183696190Y72235714D01*
X183472857Y71485714D01*
X182898571Y71485714D02*
X183281428Y71485714D01*
X183090000Y71485714D02*
X183090000Y72235714D01*
X183153809Y72128571D01*
X183217619Y72057142D01*
X183281428Y72021428D01*
X182132857Y72271428D02*
X182707142Y71307142D01*
X181686190Y71878571D02*
X181909523Y71878571D01*
X181909523Y71485714D02*
X181909523Y72235714D01*
X181590476Y72235714D01*
X181048095Y72235714D02*
X181175714Y72235714D01*
X181239523Y72200000D01*
X181271428Y72164285D01*
X181335238Y72057142D01*
X181367142Y71914285D01*
X181367142Y71628571D01*
X181335238Y71557142D01*
X181303333Y71521428D01*
X181239523Y71485714D01*
X181111904Y71485714D01*
X181048095Y71521428D01*
X181016190Y71557142D01*
X180984285Y71628571D01*
X180984285Y71807142D01*
X181016190Y71878571D01*
X181048095Y71914285D01*
X181111904Y71950000D01*
X181239523Y71950000D01*
X181303333Y71914285D01*
X181335238Y71878571D01*
X181367142Y71807142D01*
X183855714Y74200000D02*
X183536666Y74200000D01*
X183919523Y73985714D02*
X183696190Y74735714D01*
X183472857Y73985714D01*
X183281428Y74664285D02*
X183249523Y74700000D01*
X183185714Y74735714D01*
X183026190Y74735714D01*
X182962380Y74700000D01*
X182930476Y74664285D01*
X182898571Y74592857D01*
X182898571Y74521428D01*
X182930476Y74414285D01*
X183313333Y73985714D01*
X182898571Y73985714D01*
X182132857Y74771428D02*
X182707142Y73807142D01*
X181686190Y74378571D02*
X181909523Y74378571D01*
X181909523Y73985714D02*
X181909523Y74735714D01*
X181590476Y74735714D01*
X181016190Y74735714D02*
X181335238Y74735714D01*
X181367142Y74378571D01*
X181335238Y74414285D01*
X181271428Y74450000D01*
X181111904Y74450000D01*
X181048095Y74414285D01*
X181016190Y74378571D01*
X180984285Y74307142D01*
X180984285Y74128571D01*
X181016190Y74057142D01*
X181048095Y74021428D01*
X181111904Y73985714D01*
X181271428Y73985714D01*
X181335238Y74021428D01*
X181367142Y74057142D01*
X183855714Y76700000D02*
X183536666Y76700000D01*
X183919523Y76485714D02*
X183696190Y77235714D01*
X183472857Y76485714D01*
X183313333Y77235714D02*
X182898571Y77235714D01*
X183121904Y76950000D01*
X183026190Y76950000D01*
X182962380Y76914285D01*
X182930476Y76878571D01*
X182898571Y76807142D01*
X182898571Y76628571D01*
X182930476Y76557142D01*
X182962380Y76521428D01*
X183026190Y76485714D01*
X183217619Y76485714D01*
X183281428Y76521428D01*
X183313333Y76557142D01*
X182132857Y77271428D02*
X182707142Y76307142D01*
X181686190Y76878571D02*
X181909523Y76878571D01*
X181909523Y76485714D02*
X181909523Y77235714D01*
X181590476Y77235714D01*
X181048095Y76985714D02*
X181048095Y76485714D01*
X181207619Y77271428D02*
X181367142Y76735714D01*
X180952380Y76735714D01*
X183913333Y79935714D02*
X183690000Y79185714D01*
X183466666Y79935714D01*
X182860476Y79257142D02*
X182892380Y79221428D01*
X182988095Y79185714D01*
X183051904Y79185714D01*
X183147619Y79221428D01*
X183211428Y79292857D01*
X183243333Y79364285D01*
X183275238Y79507142D01*
X183275238Y79614285D01*
X183243333Y79757142D01*
X183211428Y79828571D01*
X183147619Y79900000D01*
X183051904Y79935714D01*
X182988095Y79935714D01*
X182892380Y79900000D01*
X182860476Y79864285D01*
X182190476Y79257142D02*
X182222380Y79221428D01*
X182318095Y79185714D01*
X182381904Y79185714D01*
X182477619Y79221428D01*
X182541428Y79292857D01*
X182573333Y79364285D01*
X182605238Y79507142D01*
X182605238Y79614285D01*
X182573333Y79757142D01*
X182541428Y79828571D01*
X182477619Y79900000D01*
X182381904Y79935714D01*
X182318095Y79935714D01*
X182222380Y79900000D01*
X182190476Y79864285D01*
X183386904Y81635714D02*
X183610238Y81992857D01*
X183769761Y81635714D02*
X183769761Y82385714D01*
X183514523Y82385714D01*
X183450714Y82350000D01*
X183418809Y82314285D01*
X183386904Y82242857D01*
X183386904Y82135714D01*
X183418809Y82064285D01*
X183450714Y82028571D01*
X183514523Y81992857D01*
X183769761Y81992857D01*
X183131666Y81671428D02*
X183035952Y81635714D01*
X182876428Y81635714D01*
X182812619Y81671428D01*
X182780714Y81707142D01*
X182748809Y81778571D01*
X182748809Y81850000D01*
X182780714Y81921428D01*
X182812619Y81957142D01*
X182876428Y81992857D01*
X183004047Y82028571D01*
X183067857Y82064285D01*
X183099761Y82100000D01*
X183131666Y82171428D01*
X183131666Y82242857D01*
X183099761Y82314285D01*
X183067857Y82350000D01*
X183004047Y82385714D01*
X182844523Y82385714D01*
X182748809Y82350000D01*
X182557380Y82385714D02*
X182174523Y82385714D01*
X182365952Y81635714D02*
X182365952Y82385714D01*
X183530476Y84900000D02*
X183594285Y84935714D01*
X183690000Y84935714D01*
X183785714Y84900000D01*
X183849523Y84828571D01*
X183881428Y84757142D01*
X183913333Y84614285D01*
X183913333Y84507142D01*
X183881428Y84364285D01*
X183849523Y84292857D01*
X183785714Y84221428D01*
X183690000Y84185714D01*
X183626190Y84185714D01*
X183530476Y84221428D01*
X183498571Y84257142D01*
X183498571Y84507142D01*
X183626190Y84507142D01*
X183211428Y84185714D02*
X183211428Y84935714D01*
X182828571Y84185714D01*
X182828571Y84935714D01*
X182509523Y84185714D02*
X182509523Y84935714D01*
X182350000Y84935714D01*
X182254285Y84900000D01*
X182190476Y84828571D01*
X182158571Y84757142D01*
X182126666Y84614285D01*
X182126666Y84507142D01*
X182158571Y84364285D01*
X182190476Y84292857D01*
X182254285Y84221428D01*
X182350000Y84185714D01*
X182509523Y84185714D01*
X183482619Y86735714D02*
X183705952Y87092857D01*
X183865476Y86735714D02*
X183865476Y87485714D01*
X183610238Y87485714D01*
X183546428Y87450000D01*
X183514523Y87414285D01*
X183482619Y87342857D01*
X183482619Y87235714D01*
X183514523Y87164285D01*
X183546428Y87128571D01*
X183610238Y87092857D01*
X183865476Y87092857D01*
X183227380Y86950000D02*
X182908333Y86950000D01*
X183291190Y86735714D02*
X183067857Y87485714D01*
X182844523Y86735714D01*
X182685000Y87485714D02*
X182525476Y86735714D01*
X182397857Y87271428D01*
X182270238Y86735714D01*
X182110714Y87485714D01*
D11*
%TO.C,SW37*%
X191402380Y89925380D02*
X190926190Y90258714D01*
X191402380Y90496809D02*
X190402380Y90496809D01*
X190402380Y90115857D01*
X190450000Y90020619D01*
X190497619Y89973000D01*
X190592857Y89925380D01*
X190735714Y89925380D01*
X190830952Y89973000D01*
X190878571Y90020619D01*
X190926190Y90115857D01*
X190926190Y90496809D01*
X190878571Y89496809D02*
X190878571Y89163476D01*
X191402380Y89020619D02*
X191402380Y89496809D01*
X190402380Y89496809D01*
X190402380Y89020619D01*
X191354761Y88639666D02*
X191402380Y88496809D01*
X191402380Y88258714D01*
X191354761Y88163476D01*
X191307142Y88115857D01*
X191211904Y88068238D01*
X191116666Y88068238D01*
X191021428Y88115857D01*
X190973809Y88163476D01*
X190926190Y88258714D01*
X190878571Y88449190D01*
X190830952Y88544428D01*
X190783333Y88592047D01*
X190688095Y88639666D01*
X190592857Y88639666D01*
X190497619Y88592047D01*
X190450000Y88544428D01*
X190402380Y88449190D01*
X190402380Y88211095D01*
X190450000Y88068238D01*
X190878571Y87639666D02*
X190878571Y87306333D01*
X191402380Y87163476D02*
X191402380Y87639666D01*
X190402380Y87639666D01*
X190402380Y87163476D01*
X190402380Y86877761D02*
X190402380Y86306333D01*
X191402380Y86592047D02*
X190402380Y86592047D01*
%TD*%
M02*
