M48
; DRILL file {KiCad (5.1.6-0-10_14)} date Tuesday, September 01, 2020 at 10:18:08 PM
; FORMAT={-:-/ absolute / metric / decimal}
; #@! TF.CreationDate,2020-09-01T22:18:08+09:00
; #@! TF.GenerationSoftware,Kicad,Pcbnew,(5.1.6-0-10_14)
; #@! TF.FileFunction,NonPlated,1,2,NPTH
FMAT,2
METRIC
T1C1.700
T2C2.200
T3C4.000
T4C4.800
%
G90
G05
T1
X74.445Y79.775
X84.605Y79.775
X57.745Y41.675
X67.905Y41.675
X162.264Y36.118
X172.386Y35.232
X269.645Y79.775
X279.805Y79.775
X79.145Y60.675
X89.305Y60.675
X135.164Y76.618
X145.286Y75.732
X119.264Y58.918
X129.386Y58.032
X97.264Y80.018
X107.386Y79.132
X138.264Y57.318
X148.386Y56.432
X83.945Y41.675
X94.105Y41.675
X210.064Y74.832
X220.186Y75.718
X124.264Y39.418
X134.386Y38.532
X116.264Y78.218
X126.386Y77.332
X54.845Y60.675
X65.005Y60.675
X157.164Y55.718
X167.286Y54.832
X143.264Y37.818
X153.386Y36.932
X154.164Y75.118
X164.286Y74.232
X291.145Y79.675
X301.305Y79.675
X291.145Y40.675
X301.305Y40.675
X100.264Y60.618
X110.386Y59.732
X264.945Y40.775
X275.105Y40.775
X241.864Y39.532
X251.986Y40.418
X197.464Y54.732
X207.586Y55.618
X222.864Y37.832
X232.986Y38.718
X296.845Y60.775
X307.005Y60.775
X248.064Y78.232
X258.186Y79.118
X203.964Y36.132
X214.086Y37.018
X54.445Y79.775
X64.605Y79.775
X216.464Y56.332
X226.586Y57.218
X184.864Y34.532
X194.986Y35.418
X254.464Y59.732
X264.586Y60.618
X235.464Y58.032
X245.586Y58.918
X105.264Y41.118
X115.386Y40.232
X229.064Y76.632
X239.186Y77.518
X191.064Y73.232
X201.186Y74.118
X275.445Y60.775
X285.605Y60.775
T2
X309.525Y161.95
X322.175Y61.95
X162.325Y-50.875
X198.45Y-64.1
X202.05Y-50.875
X51.05Y-50.875
X161.8Y106.95
X310.05Y-50.875
X158.725Y-64.1
X50.525Y161.95
X51.05Y4.125
X322.175Y173.225
X322.175Y-85.775
X181.65Y13.885
X198.0Y-81.125
X181.125Y171.71
X158.275Y-81.125
X50.725Y-64.1
X309.525Y106.95
X50.275Y-81.125
X50.525Y106.95
X201.525Y106.95
X310.05Y4.125
X322.175Y22.225
X309.275Y-81.125
X309.725Y-64.1
T3
X296.225Y79.675
X296.225Y40.675
X105.325Y60.175
X270.025Y40.775
X246.925Y39.975
X202.525Y55.175
X227.925Y38.275
X301.925Y60.775
X253.125Y78.675
X209.025Y36.575
X59.525Y79.775
X221.525Y56.775
X189.925Y34.975
X259.525Y60.175
X240.525Y58.475
X110.325Y40.675
X234.125Y77.075
X196.125Y73.675
X280.525Y60.775
X79.525Y79.775
X62.825Y41.675
X167.325Y35.675
X274.725Y79.775
X84.225Y60.675
X140.225Y76.175
X124.325Y58.475
X102.325Y79.575
X143.325Y56.875
X89.025Y41.675
X215.125Y75.275
X129.325Y38.975
X121.325Y77.775
X59.925Y60.675
X162.225Y55.275
X148.325Y37.375
X159.225Y74.675
T4
X197.85Y89.075
X178.525Y24.325
X50.125Y34.075
X50.125Y89.075
X158.125Y89.075
X309.125Y34.075
X309.125Y89.075
T0
M30
