%TF.GenerationSoftware,KiCad,Pcbnew,(5.1.6-0-10_14)*%
%TF.CreationDate,2020-09-01T22:17:50+09:00*%
%TF.ProjectId,cool836,636f6f6c-3833-4362-9e6b-696361645f70,rev?*%
%TF.SameCoordinates,Original*%
%TF.FileFunction,Soldermask,Bot*%
%TF.FilePolarity,Negative*%
%FSLAX46Y46*%
G04 Gerber Fmt 4.6, Leading zero omitted, Abs format (unit mm)*
G04 Created by KiCad (PCBNEW (5.1.6-0-10_14)) date 2020-09-01 22:17:50*
%MOMM*%
%LPD*%
G01*
G04 APERTURE LIST*
%ADD10C,3.100000*%
%ADD11C,5.100000*%
%ADD12C,1.800000*%
%ADD13C,4.100000*%
%ADD14C,2.300000*%
%ADD15C,1.497000*%
%ADD16R,1.497000X1.497000*%
%ADD17R,1.050000X1.400000*%
%ADD18C,0.100000*%
%ADD19R,1.400000X1.050000*%
%ADD20C,2.100000*%
G04 APERTURE END LIST*
D10*
%TO.C,REF\u002A\u002A*%
X198000000Y-81125000D03*
%TD*%
%TO.C,REF\u002A\u002A*%
X309275000Y-81125000D03*
%TD*%
%TO.C,REF\u002A\u002A*%
X158275000Y-81125000D03*
%TD*%
%TO.C,REF\u002A\u002A*%
X50275000Y-81125000D03*
%TD*%
%TO.C,REF\u002A\u002A*%
X322175000Y61950000D03*
%TD*%
%TO.C,REF\u002A\u002A*%
X322175000Y173225000D03*
%TD*%
%TO.C,REF\u002A\u002A*%
X322175000Y22225000D03*
%TD*%
%TO.C,REF\u002A\u002A*%
X322175000Y-85775000D03*
%TD*%
%TO.C,REF\u002A\u002A*%
X158725000Y-64100000D03*
%TD*%
%TO.C,REF\u002A\u002A*%
X50725000Y-64100000D03*
%TD*%
%TO.C,REF\u002A\u002A*%
X309725000Y-64100000D03*
%TD*%
%TO.C,REF\u002A\u002A*%
X198450000Y-64100000D03*
%TD*%
%TO.C,REF\u002A\u002A*%
X51050000Y4125000D03*
%TD*%
%TO.C,REF\u002A\u002A*%
X51050000Y-50875000D03*
%TD*%
%TO.C,REF\u002A\u002A*%
X202050000Y-50875000D03*
%TD*%
%TO.C,REF\u002A\u002A*%
X162325000Y-50875000D03*
%TD*%
%TO.C,REF\u002A\u002A*%
X181650000Y13885000D03*
%TD*%
%TO.C,REF\u002A\u002A*%
X310050000Y4125000D03*
%TD*%
%TO.C,REF\u002A\u002A*%
X310050000Y-50875000D03*
%TD*%
%TO.C,REF\u002A\u002A*%
X309525000Y106950000D03*
%TD*%
%TO.C,REF\u002A\u002A*%
X309525000Y161950000D03*
%TD*%
%TO.C,REF\u002A\u002A*%
X181125000Y171710000D03*
%TD*%
%TO.C,REF\u002A\u002A*%
X201525000Y106950000D03*
%TD*%
%TO.C,REF\u002A\u002A*%
X161800000Y106950000D03*
%TD*%
%TO.C,REF\u002A\u002A*%
X50525000Y106950000D03*
%TD*%
%TO.C,REF\u002A\u002A*%
X50525000Y161950000D03*
%TD*%
D11*
%TO.C,REF\u002A\u002A*%
X197850000Y89075000D03*
%TD*%
%TO.C,REF\u002A\u002A*%
X178525000Y24325000D03*
%TD*%
%TO.C,REF\u002A\u002A*%
X50125000Y34075000D03*
%TD*%
%TO.C,REF\u002A\u002A*%
X50125000Y89075000D03*
%TD*%
%TO.C,REF\u002A\u002A*%
X158125000Y89075000D03*
%TD*%
%TO.C,REF\u002A\u002A*%
X309125000Y34075000D03*
%TD*%
%TO.C,REF\u002A\u002A*%
X309125000Y89075000D03*
%TD*%
D12*
%TO.C,SW1*%
X64605000Y79775000D03*
X54445000Y79775000D03*
D13*
X59525000Y79775000D03*
D14*
X55715000Y82315000D03*
X62065000Y84855000D03*
%TD*%
%TO.C,SW7*%
X62465000Y65755000D03*
X56115000Y63215000D03*
D13*
X59925000Y60675000D03*
D12*
X54845000Y60675000D03*
X65005000Y60675000D03*
%TD*%
D15*
%TO.C,D1*%
X68325000Y84710000D03*
D16*
X68325000Y77090000D03*
D17*
X68325000Y79125000D03*
X68325000Y82675000D03*
%TD*%
D15*
%TO.C,D2*%
X88400000Y84860000D03*
D16*
X88400000Y77240000D03*
D17*
X88400000Y79275000D03*
X88400000Y82825000D03*
%TD*%
D15*
%TO.C,D3*%
X111632063Y83695502D03*
D18*
G36*
X111648353Y75293610D02*
G01*
X110157049Y75424082D01*
X110287521Y76915386D01*
X111778825Y76784914D01*
X111648353Y75293610D01*
G37*
G36*
X111607292Y77388661D02*
G01*
X110561288Y77480174D01*
X110683306Y78874847D01*
X111729310Y78783334D01*
X111607292Y77388661D01*
G37*
G36*
X111916694Y80925153D02*
G01*
X110870690Y81016666D01*
X110992708Y82411339D01*
X112038712Y82319826D01*
X111916694Y80925153D01*
G37*
%TD*%
D15*
%TO.C,D4*%
X130457063Y82070502D03*
D18*
G36*
X130473353Y73668610D02*
G01*
X128982049Y73799082D01*
X129112521Y75290386D01*
X130603825Y75159914D01*
X130473353Y73668610D01*
G37*
G36*
X130432292Y75763661D02*
G01*
X129386288Y75855174D01*
X129508306Y77249847D01*
X130554310Y77158334D01*
X130432292Y75763661D01*
G37*
G36*
X130741694Y79300153D02*
G01*
X129695690Y79391666D01*
X129817708Y80786339D01*
X130863712Y80694826D01*
X130741694Y79300153D01*
G37*
%TD*%
D15*
%TO.C,D5*%
X149307063Y80420502D03*
D18*
G36*
X149323353Y72018610D02*
G01*
X147832049Y72149082D01*
X147962521Y73640386D01*
X149453825Y73509914D01*
X149323353Y72018610D01*
G37*
G36*
X149282292Y74113661D02*
G01*
X148236288Y74205174D01*
X148358306Y75599847D01*
X149404310Y75508334D01*
X149282292Y74113661D01*
G37*
G36*
X149591694Y77650153D02*
G01*
X148545690Y77741666D01*
X148667708Y79136339D01*
X149713712Y79044826D01*
X149591694Y77650153D01*
G37*
%TD*%
D15*
%TO.C,D6*%
X156279498Y66557063D03*
D18*
G36*
X164681390Y66573353D02*
G01*
X164550918Y65082049D01*
X163059614Y65212521D01*
X163190086Y66703825D01*
X164681390Y66573353D01*
G37*
G36*
X162586339Y66532292D02*
G01*
X162494826Y65486288D01*
X161100153Y65608306D01*
X161191666Y66654310D01*
X162586339Y66532292D01*
G37*
G36*
X159049847Y66841694D02*
G01*
X158958334Y65795690D01*
X157563661Y65917708D01*
X157655174Y66963712D01*
X159049847Y66841694D01*
G37*
%TD*%
D19*
%TO.C,D7*%
X65450000Y52275000D03*
X69000000Y52275000D03*
D16*
X71035000Y52275000D03*
D15*
X63415000Y52275000D03*
%TD*%
D19*
%TO.C,D8*%
X91725000Y52100000D03*
X95275000Y52100000D03*
D16*
X97310000Y52100000D03*
D15*
X89690000Y52100000D03*
%TD*%
D18*
%TO.C,D9*%
G36*
X108374847Y51741694D02*
G01*
X108283334Y50695690D01*
X106888661Y50817708D01*
X106980174Y51863712D01*
X108374847Y51741694D01*
G37*
G36*
X111911339Y51432292D02*
G01*
X111819826Y50386288D01*
X110425153Y50508306D01*
X110516666Y51554310D01*
X111911339Y51432292D01*
G37*
G36*
X114006390Y51473353D02*
G01*
X113875918Y49982049D01*
X112384614Y50112521D01*
X112515086Y51603825D01*
X114006390Y51473353D01*
G37*
D15*
X105604498Y51457063D03*
%TD*%
D18*
%TO.C,D10*%
G36*
X131674847Y49941694D02*
G01*
X131583334Y48895690D01*
X130188661Y49017708D01*
X130280174Y50063712D01*
X131674847Y49941694D01*
G37*
G36*
X135211339Y49632292D02*
G01*
X135119826Y48586288D01*
X133725153Y48708306D01*
X133816666Y49754310D01*
X135211339Y49632292D01*
G37*
G36*
X137306390Y49673353D02*
G01*
X137175918Y48182049D01*
X135684614Y48312521D01*
X135815086Y49803825D01*
X137306390Y49673353D01*
G37*
D15*
X128904498Y49657063D03*
%TD*%
D18*
%TO.C,D11*%
G36*
X150024847Y48266694D02*
G01*
X149933334Y47220690D01*
X148538661Y47342708D01*
X148630174Y48388712D01*
X150024847Y48266694D01*
G37*
G36*
X153561339Y47957292D02*
G01*
X153469826Y46911288D01*
X152075153Y47033306D01*
X152166666Y48079310D01*
X153561339Y47957292D01*
G37*
G36*
X155656390Y47998353D02*
G01*
X155525918Y46507049D01*
X154034614Y46637521D01*
X154165086Y48128825D01*
X155656390Y47998353D01*
G37*
D15*
X147254498Y47982063D03*
%TD*%
%TO.C,D12*%
X169329498Y46282063D03*
D18*
G36*
X177731390Y46298353D02*
G01*
X177600918Y44807049D01*
X176109614Y44937521D01*
X176240086Y46428825D01*
X177731390Y46298353D01*
G37*
G36*
X175636339Y46257292D02*
G01*
X175544826Y45211288D01*
X174150153Y45333306D01*
X174241666Y46379310D01*
X175636339Y46257292D01*
G37*
G36*
X172099847Y46566694D02*
G01*
X172008334Y45520690D01*
X170613661Y45642708D01*
X170705174Y46688712D01*
X172099847Y46566694D01*
G37*
%TD*%
D15*
%TO.C,D13*%
X71450000Y40515000D03*
D16*
X71450000Y48135000D03*
D17*
X71450000Y46100000D03*
X71450000Y42550000D03*
%TD*%
D15*
%TO.C,D14*%
X97700000Y40215000D03*
D16*
X97700000Y47835000D03*
D17*
X97700000Y45800000D03*
X97700000Y42250000D03*
%TD*%
D15*
%TO.C,D15*%
X118742937Y38679498D03*
D18*
G36*
X118726647Y47081390D02*
G01*
X120217951Y46950918D01*
X120087479Y45459614D01*
X118596175Y45590086D01*
X118726647Y47081390D01*
G37*
G36*
X118767708Y44986339D02*
G01*
X119813712Y44894826D01*
X119691694Y43500153D01*
X118645690Y43591666D01*
X118767708Y44986339D01*
G37*
G36*
X118458306Y41449847D02*
G01*
X119504310Y41358334D01*
X119382292Y39963661D01*
X118336288Y40055174D01*
X118458306Y41449847D01*
G37*
%TD*%
D15*
%TO.C,D16*%
X137792937Y37004498D03*
D18*
G36*
X137776647Y45406390D02*
G01*
X139267951Y45275918D01*
X139137479Y43784614D01*
X137646175Y43915086D01*
X137776647Y45406390D01*
G37*
G36*
X137817708Y43311339D02*
G01*
X138863712Y43219826D01*
X138741694Y41825153D01*
X137695690Y41916666D01*
X137817708Y43311339D01*
G37*
G36*
X137508306Y39774847D02*
G01*
X138554310Y39683334D01*
X138432292Y38288661D01*
X137386288Y38380174D01*
X137508306Y39774847D01*
G37*
%TD*%
D15*
%TO.C,D17*%
X156867937Y35954498D03*
D18*
G36*
X156851647Y44356390D02*
G01*
X158342951Y44225918D01*
X158212479Y42734614D01*
X156721175Y42865086D01*
X156851647Y44356390D01*
G37*
G36*
X156892708Y42261339D02*
G01*
X157938712Y42169826D01*
X157816694Y40775153D01*
X156770690Y40866666D01*
X156892708Y42261339D01*
G37*
G36*
X156583306Y38724847D02*
G01*
X157629310Y38633334D01*
X157507292Y37238661D01*
X156461288Y37330174D01*
X156583306Y38724847D01*
G37*
%TD*%
%TO.C,D18*%
G36*
X175558306Y36424847D02*
G01*
X176604310Y36333334D01*
X176482292Y34938661D01*
X175436288Y35030174D01*
X175558306Y36424847D01*
G37*
G36*
X175867708Y39961339D02*
G01*
X176913712Y39869826D01*
X176791694Y38475153D01*
X175745690Y38566666D01*
X175867708Y39961339D01*
G37*
G36*
X175826647Y42056390D02*
G01*
X177317951Y41925918D01*
X177187479Y40434614D01*
X175696175Y40565086D01*
X175826647Y42056390D01*
G37*
D15*
X175842937Y33654498D03*
%TD*%
D18*
%TO.C,D19*%
G36*
X195909912Y64975391D02*
G01*
X195818399Y66021395D01*
X197213072Y66143413D01*
X197304585Y65097409D01*
X195909912Y64975391D01*
G37*
G36*
X192373420Y64665989D02*
G01*
X192281907Y65711993D01*
X193676580Y65834011D01*
X193768093Y64788007D01*
X192373420Y64665989D01*
G37*
G36*
X190317328Y64261750D02*
G01*
X190186856Y65753054D01*
X191678160Y65883526D01*
X191808632Y64392222D01*
X190317328Y64261750D01*
G37*
D15*
X198588748Y65736764D03*
%TD*%
D18*
%TO.C,D20*%
G36*
X214891666Y66595690D02*
G01*
X214800153Y67641694D01*
X216194826Y67763712D01*
X216286339Y66717708D01*
X214891666Y66595690D01*
G37*
G36*
X211355174Y66286288D02*
G01*
X211263661Y67332292D01*
X212658334Y67454310D01*
X212749847Y66408306D01*
X211355174Y66286288D01*
G37*
G36*
X209299082Y65882049D02*
G01*
X209168610Y67373353D01*
X210659914Y67503825D01*
X210790386Y66012521D01*
X209299082Y65882049D01*
G37*
D15*
X217570502Y67357063D03*
%TD*%
D18*
%TO.C,D21*%
G36*
X234041666Y68120690D02*
G01*
X233950153Y69166694D01*
X235344826Y69288712D01*
X235436339Y68242708D01*
X234041666Y68120690D01*
G37*
G36*
X230505174Y67811288D02*
G01*
X230413661Y68857292D01*
X231808334Y68979310D01*
X231899847Y67933306D01*
X230505174Y67811288D01*
G37*
G36*
X228449082Y67407049D02*
G01*
X228318610Y68898353D01*
X229809914Y69028825D01*
X229940386Y67537521D01*
X228449082Y67407049D01*
G37*
D15*
X236720502Y68882063D03*
%TD*%
D18*
%TO.C,D22*%
G36*
X253466666Y70020690D02*
G01*
X253375153Y71066694D01*
X254769826Y71188712D01*
X254861339Y70142708D01*
X253466666Y70020690D01*
G37*
G36*
X249930174Y69711288D02*
G01*
X249838661Y70757292D01*
X251233334Y70879310D01*
X251324847Y69833306D01*
X249930174Y69711288D01*
G37*
G36*
X247874082Y69307049D02*
G01*
X247743610Y70798353D01*
X249234914Y70928825D01*
X249365386Y69437521D01*
X247874082Y69307049D01*
G37*
D15*
X256145502Y70782063D03*
%TD*%
D19*
%TO.C,D23*%
X274200000Y71625000D03*
X270650000Y71625000D03*
D16*
X268615000Y71625000D03*
D15*
X276235000Y71625000D03*
%TD*%
%TO.C,D24*%
X297385000Y71625000D03*
D16*
X289765000Y71625000D03*
D19*
X291800000Y71625000D03*
X295350000Y71625000D03*
%TD*%
D15*
%TO.C,D25*%
X204845502Y46882063D03*
D18*
G36*
X196574082Y45407049D02*
G01*
X196443610Y46898353D01*
X197934914Y47028825D01*
X198065386Y45537521D01*
X196574082Y45407049D01*
G37*
G36*
X198630174Y45811288D02*
G01*
X198538661Y46857292D01*
X199933334Y46979310D01*
X200024847Y45933306D01*
X198630174Y45811288D01*
G37*
G36*
X202166666Y46120690D02*
G01*
X202075153Y47166694D01*
X203469826Y47288712D01*
X203561339Y46242708D01*
X202166666Y46120690D01*
G37*
%TD*%
D15*
%TO.C,D26*%
X223663748Y48861764D03*
D18*
G36*
X215392328Y47386750D02*
G01*
X215261856Y48878054D01*
X216753160Y49008526D01*
X216883632Y47517222D01*
X215392328Y47386750D01*
G37*
G36*
X217448420Y47790989D02*
G01*
X217356907Y48836993D01*
X218751580Y48959011D01*
X218843093Y47913007D01*
X217448420Y47790989D01*
G37*
G36*
X220984912Y48100391D02*
G01*
X220893399Y49146395D01*
X222288072Y49268413D01*
X222379585Y48222409D01*
X220984912Y48100391D01*
G37*
%TD*%
D15*
%TO.C,D27*%
X242613748Y50486764D03*
D18*
G36*
X234342328Y49011750D02*
G01*
X234211856Y50503054D01*
X235703160Y50633526D01*
X235833632Y49142222D01*
X234342328Y49011750D01*
G37*
G36*
X236398420Y49415989D02*
G01*
X236306907Y50461993D01*
X237701580Y50584011D01*
X237793093Y49538007D01*
X236398420Y49415989D01*
G37*
G36*
X239934912Y49725391D02*
G01*
X239843399Y50771395D01*
X241238072Y50893413D01*
X241329585Y49847409D01*
X239934912Y49725391D01*
G37*
%TD*%
D15*
%TO.C,D28*%
X261820502Y51882063D03*
D18*
G36*
X253549082Y50407049D02*
G01*
X253418610Y51898353D01*
X254909914Y52028825D01*
X255040386Y50537521D01*
X253549082Y50407049D01*
G37*
G36*
X255605174Y50811288D02*
G01*
X255513661Y51857292D01*
X256908334Y51979310D01*
X256999847Y50933306D01*
X255605174Y50811288D01*
G37*
G36*
X259141666Y51120690D02*
G01*
X259050153Y52166694D01*
X260444826Y52288712D01*
X260536339Y51242708D01*
X259141666Y51120690D01*
G37*
%TD*%
D15*
%TO.C,D29*%
X281785000Y52550000D03*
D16*
X274165000Y52550000D03*
D19*
X276200000Y52550000D03*
X279750000Y52550000D03*
%TD*%
%TO.C,D30*%
X300925000Y52325000D03*
X297375000Y52325000D03*
D16*
X295340000Y52325000D03*
D15*
X302960000Y52325000D03*
%TD*%
D18*
%TO.C,D31*%
G36*
X197545690Y37208334D02*
G01*
X198591694Y37299847D01*
X198713712Y35905174D01*
X197667708Y35813661D01*
X197545690Y37208334D01*
G37*
G36*
X197236288Y40744826D02*
G01*
X198282292Y40836339D01*
X198404310Y39441666D01*
X197358306Y39350153D01*
X197236288Y40744826D01*
G37*
G36*
X196832049Y42800918D02*
G01*
X198323353Y42931390D01*
X198453825Y41440086D01*
X196962521Y41309614D01*
X196832049Y42800918D01*
G37*
D15*
X198307063Y34529498D03*
%TD*%
D18*
%TO.C,D32*%
G36*
X216700391Y38790088D02*
G01*
X217746395Y38881601D01*
X217868413Y37486928D01*
X216822409Y37395415D01*
X216700391Y38790088D01*
G37*
G36*
X216390989Y42326580D02*
G01*
X217436993Y42418093D01*
X217559011Y41023420D01*
X216513007Y40931907D01*
X216390989Y42326580D01*
G37*
G36*
X215986750Y44382672D02*
G01*
X217478054Y44513144D01*
X217608526Y43021840D01*
X216117222Y42891368D01*
X215986750Y44382672D01*
G37*
D15*
X217461764Y36111252D03*
%TD*%
D18*
%TO.C,D33*%
G36*
X235545690Y40408334D02*
G01*
X236591694Y40499847D01*
X236713712Y39105174D01*
X235667708Y39013661D01*
X235545690Y40408334D01*
G37*
G36*
X235236288Y43944826D02*
G01*
X236282292Y44036339D01*
X236404310Y42641666D01*
X235358306Y42550153D01*
X235236288Y43944826D01*
G37*
G36*
X234832049Y46000918D02*
G01*
X236323353Y46131390D01*
X236453825Y44640086D01*
X234962521Y44509614D01*
X234832049Y46000918D01*
G37*
D15*
X236307063Y37729498D03*
%TD*%
D18*
%TO.C,D34*%
G36*
X254645690Y41383334D02*
G01*
X255691694Y41474847D01*
X255813712Y40080174D01*
X254767708Y39988661D01*
X254645690Y41383334D01*
G37*
G36*
X254336288Y44919826D02*
G01*
X255382292Y45011339D01*
X255504310Y43616666D01*
X254458306Y43525153D01*
X254336288Y44919826D01*
G37*
G36*
X253932049Y46975918D02*
G01*
X255423353Y47106390D01*
X255553825Y45615086D01*
X254062521Y45484614D01*
X253932049Y46975918D01*
G37*
D15*
X255407063Y38704498D03*
%TD*%
D17*
%TO.C,D35*%
X278575000Y41300000D03*
X278575000Y44850000D03*
D16*
X278575000Y46885000D03*
D15*
X278575000Y39265000D03*
%TD*%
D17*
%TO.C,D36*%
X304700000Y41300000D03*
X304700000Y44850000D03*
D16*
X304700000Y46885000D03*
D15*
X304700000Y39265000D03*
%TD*%
D12*
%TO.C,SW2*%
X84605000Y79775000D03*
X74445000Y79775000D03*
D13*
X79525000Y79775000D03*
D14*
X75715000Y82315000D03*
X82065000Y84855000D03*
%TD*%
D12*
%TO.C,SW3*%
X107385669Y79132249D03*
X97264331Y80017751D03*
D13*
X102325000Y79575000D03*
D14*
X98750874Y82437398D03*
X105298086Y84414293D03*
%TD*%
D12*
%TO.C,SW4*%
X126385669Y77332249D03*
X116264331Y78217751D03*
D13*
X121325000Y77775000D03*
D14*
X117750874Y80637398D03*
X124298086Y82614293D03*
%TD*%
D12*
%TO.C,SW5*%
X145285669Y75732249D03*
X135164331Y76617751D03*
D13*
X140225000Y76175000D03*
D14*
X136650874Y79037398D03*
X143198086Y81014293D03*
%TD*%
D12*
%TO.C,SW6*%
X164285669Y74232249D03*
X154164331Y75117751D03*
D13*
X159225000Y74675000D03*
D14*
X155650874Y77537398D03*
X162198086Y79514293D03*
%TD*%
%TO.C,SW8*%
X86765000Y65755000D03*
X80415000Y63215000D03*
D13*
X84225000Y60675000D03*
D12*
X79145000Y60675000D03*
X89305000Y60675000D03*
%TD*%
D14*
%TO.C,SW9*%
X108298086Y65014293D03*
X101750874Y63037398D03*
D13*
X105325000Y60175000D03*
D12*
X100264331Y60617751D03*
X110385669Y59732249D03*
%TD*%
D14*
%TO.C,SW10*%
X127298086Y63314293D03*
X120750874Y61337398D03*
D13*
X124325000Y58475000D03*
D12*
X119264331Y58917751D03*
X129385669Y58032249D03*
%TD*%
D14*
%TO.C,SW11*%
X146298086Y61714293D03*
X139750874Y59737398D03*
D13*
X143325000Y56875000D03*
D12*
X138264331Y57317751D03*
X148385669Y56432249D03*
%TD*%
D14*
%TO.C,SW12*%
X165198086Y60114293D03*
X158650874Y58137398D03*
D13*
X162225000Y55275000D03*
D12*
X157164331Y55717751D03*
X167285669Y54832249D03*
%TD*%
%TO.C,SW13*%
X67905000Y41675000D03*
X57745000Y41675000D03*
D13*
X62825000Y41675000D03*
D14*
X59015000Y44215000D03*
X65365000Y46755000D03*
%TD*%
D12*
%TO.C,SW14*%
X94105000Y41675000D03*
X83945000Y41675000D03*
D13*
X89025000Y41675000D03*
D14*
X85215000Y44215000D03*
X91565000Y46755000D03*
%TD*%
D12*
%TO.C,SW15*%
X115385669Y40232249D03*
X105264331Y41117751D03*
D13*
X110325000Y40675000D03*
D14*
X106750874Y43537398D03*
X113298086Y45514293D03*
%TD*%
D12*
%TO.C,SW16*%
X134385669Y38532249D03*
X124264331Y39417751D03*
D13*
X129325000Y38975000D03*
D14*
X125750874Y41837398D03*
X132298086Y43814293D03*
%TD*%
D12*
%TO.C,SW17*%
X153385669Y36932249D03*
X143264331Y37817751D03*
D13*
X148325000Y37375000D03*
D14*
X144750874Y40237398D03*
X151298086Y42214293D03*
%TD*%
D12*
%TO.C,SW18*%
X172385669Y35232249D03*
X162264331Y36117751D03*
D13*
X167325000Y35675000D03*
D14*
X163750874Y38537398D03*
X170298086Y40514293D03*
%TD*%
%TO.C,SW19*%
X198212583Y78957045D03*
X192108123Y75873271D03*
D13*
X196125000Y73675000D03*
D12*
X191064331Y73232249D03*
X201185669Y74117751D03*
%TD*%
D14*
%TO.C,SW20*%
X217212583Y80557045D03*
X211108123Y77473271D03*
D13*
X215125000Y75275000D03*
D12*
X210064331Y74832249D03*
X220185669Y75717751D03*
%TD*%
D14*
%TO.C,SW21*%
X236212583Y82357045D03*
X230108123Y79273271D03*
D13*
X234125000Y77075000D03*
D12*
X229064331Y76632249D03*
X239185669Y77517751D03*
%TD*%
D14*
%TO.C,SW22*%
X255212583Y83957045D03*
X249108123Y80873271D03*
D13*
X253125000Y78675000D03*
D12*
X248064331Y78232249D03*
X258185669Y79117751D03*
%TD*%
D14*
%TO.C,SW23*%
X277265000Y84855000D03*
X270915000Y82315000D03*
D13*
X274725000Y79775000D03*
D12*
X269645000Y79775000D03*
X279805000Y79775000D03*
%TD*%
D14*
%TO.C,SW24*%
X298765000Y84755000D03*
X292415000Y82215000D03*
D13*
X296225000Y79675000D03*
D12*
X291145000Y79675000D03*
X301305000Y79675000D03*
%TD*%
%TO.C,SW25*%
X207585669Y55617751D03*
X197464331Y54732249D03*
D13*
X202525000Y55175000D03*
D14*
X198508123Y57373271D03*
X204612583Y60457045D03*
%TD*%
D12*
%TO.C,SW26*%
X226585669Y57217751D03*
X216464331Y56332249D03*
D13*
X221525000Y56775000D03*
D14*
X217508123Y58973271D03*
X223612583Y62057045D03*
%TD*%
D12*
%TO.C,SW27*%
X245585669Y58917751D03*
X235464331Y58032249D03*
D13*
X240525000Y58475000D03*
D14*
X236508123Y60673271D03*
X242612583Y63757045D03*
%TD*%
D12*
%TO.C,SW28*%
X264585669Y60617751D03*
X254464331Y59732249D03*
D13*
X259525000Y60175000D03*
D14*
X255508123Y62373271D03*
X261612583Y65457045D03*
%TD*%
D12*
%TO.C,SW29*%
X285605000Y60775000D03*
X275445000Y60775000D03*
D13*
X280525000Y60775000D03*
D14*
X276715000Y63315000D03*
X283065000Y65855000D03*
%TD*%
D12*
%TO.C,SW30*%
X307005000Y60775000D03*
X296845000Y60775000D03*
D13*
X301925000Y60775000D03*
D14*
X298115000Y63315000D03*
X304465000Y65855000D03*
%TD*%
%TO.C,SW31*%
X192012583Y40257045D03*
X185908123Y37173271D03*
D13*
X189925000Y34975000D03*
D12*
X184864331Y34532249D03*
X194985669Y35417751D03*
%TD*%
D14*
%TO.C,SW32*%
X211112583Y41857045D03*
X205008123Y38773271D03*
D13*
X209025000Y36575000D03*
D12*
X203964331Y36132249D03*
X214085669Y37017751D03*
%TD*%
D14*
%TO.C,SW33*%
X230012583Y43557045D03*
X223908123Y40473271D03*
D13*
X227925000Y38275000D03*
D12*
X222864331Y37832249D03*
X232985669Y38717751D03*
%TD*%
D14*
%TO.C,SW34*%
X249012583Y45257045D03*
X242908123Y42173271D03*
D13*
X246925000Y39975000D03*
D12*
X241864331Y39532249D03*
X251985669Y40417751D03*
%TD*%
D14*
%TO.C,SW35*%
X272565000Y45855000D03*
X266215000Y43315000D03*
D13*
X270025000Y40775000D03*
D12*
X264945000Y40775000D03*
X275105000Y40775000D03*
%TD*%
D14*
%TO.C,SW36*%
X298765000Y45755000D03*
X292415000Y43215000D03*
D13*
X296225000Y40675000D03*
D12*
X291145000Y40675000D03*
X301305000Y40675000D03*
%TD*%
D20*
%TO.C,SW37*%
X190950000Y85350000D03*
X190950000Y91850000D03*
%TD*%
M02*
